<?xml version="1.0" encoding="utf-8"?>
<!-- Generator: Adobe Illustrator 22.1.0, SVG Export Plug-In . SVG Version: 6.00 Build 0)  -->
<svg version="1.1" id="Layer_1" xmlns="http://www.w3.org/2000/svg" xmlns:xlink="http://www.w3.org/1999/xlink" x="0px" y="0px"
	 viewBox="0 0 740 738.9" style="enable-background:new 0 0 740 738.9;" xml:space="preserve">
<style type="text/css">
	.st0{fill:#FFD433;}
	.st1{fill:none;stroke:#26293C;stroke-width:1.2;stroke-miterlimit:10;}
	.st2{fill:none;stroke:#26293C;stroke-width:5;stroke-miterlimit:10;}
	.st3{fill:none;stroke:#F2F2F2;stroke-width:1.2;stroke-miterlimit:10;}
	.st4{fill:#D9DBDA;}
	.st5{fill:#26293C;}
	.st6{fill:#FFD433;stroke:#26293C;stroke-width:2;stroke-miterlimit:10;}
	.st7{fill:none;stroke:#26293C;stroke-width:1.2003;stroke-miterlimit:10;}
	.st8{fill:none;stroke:#FFD433;stroke-width:0.7434;stroke-miterlimit:10;}
	.st9{fill:none;stroke:#F2F2F2;stroke-width:1.3726;stroke-miterlimit:10;}
	.st10{fill:#F2F2F2;}
	.st11{fill:none;stroke:#26293C;stroke-width:2;stroke-miterlimit:10;}
	.st12{fill:#E5E5E5;stroke:#F2F2F2;stroke-width:1.072;stroke-miterlimit:10;}
	.st13{fill:none;stroke:#F2F2F2;stroke-width:1.4033;stroke-miterlimit:10;}
	.st14{fill:none;stroke:#FFD433;stroke-width:0.7838;stroke-miterlimit:10;}
	.st15{fill:none;stroke:#FFD433;stroke-miterlimit:10;}
	.st16{fill:none;stroke:#F2F2F2;stroke-width:3;stroke-miterlimit:10;}
	.st17{fill:#FFD433;stroke:#26293C;stroke-width:1.8525;stroke-miterlimit:10;}
	.st18{fill:none;stroke:#F2F2F2;stroke-width:1.3001;stroke-miterlimit:10;}
	.st19{fill:none;stroke:#F2F2F2;stroke-width:2.0632;stroke-miterlimit:10;}
	.st20{fill:#FFFFFF;stroke:#26293C;stroke-width:2;stroke-miterlimit:10;}
	.st21{fill:#EDEDED;}
	.st22{fill:#FFD433;stroke:#26293C;stroke-width:1.8509;stroke-miterlimit:10;}
	.st23{fill:none;stroke:#26293C;stroke-width:0.9518;stroke-miterlimit:10;}
	.st24{fill:none;stroke:#FFD433;stroke-width:0.8168;stroke-miterlimit:10;}
	.st25{fill:none;stroke:#26293C;stroke-width:0.9076;stroke-miterlimit:10;}
	.st26{fill:none;stroke:#D9DBDA;stroke-miterlimit:10;}
	.st27{fill:none;stroke:#F2F2F2;stroke-width:1.3998;stroke-miterlimit:10;}
	.st28{fill:none;stroke:#000000;stroke-width:2;stroke-miterlimit:10;}
</style>
<line class="st7" x1="23.3" y1="148" x2="716.8" y2="148"/>
<g>
	<g>
		<path class="st5" d="M90.8,102.3c0,0.7-0.2,1.2-0.6,1.6c-0.4,0.4-0.9,0.6-1.5,0.6c-0.5,0-0.9-0.1-1.2-0.4
			c-0.4-0.3-0.7-0.7-0.9-1.1l-2-4.6H73.3l-2,4.6c-0.2,0.5-0.5,0.9-0.8,1.1s-0.8,0.4-1.2,0.4c-0.7,0-1.2-0.2-1.5-0.5
			c-0.3-0.4-0.5-0.8-0.5-1.4c0-0.2,0-0.5,0.1-0.7l9.5-22.7c0.2-0.5,0.5-0.9,0.9-1.2c0.4-0.3,0.9-0.4,1.4-0.3c0.5,0,0.9,0.1,1.3,0.4
			c0.4,0.3,0.7,0.6,0.9,1.1l9.3,22.3C90.7,101.8,90.8,102.1,90.8,102.3z M75.1,94.1h7.6l-3.8-8.9L75.1,94.1z"/>
		<path class="st5" d="M111.7,76.9c0.4,0.4,0.6,1,0.6,1.7v23.5c0,0.7-0.2,1.2-0.6,1.7c-0.4,0.4-1,0.7-1.6,0.7s-1.2-0.2-1.6-0.6
			c-0.4-0.4-0.6-1-0.7-1.6c-0.6,0.7-1.5,1.4-2.6,1.9c-1.1,0.5-2.2,0.8-3.4,0.8c-1.7,0-3.3-0.4-4.8-1.3c-1.4-0.9-2.5-2.1-3.4-3.7
			c-0.8-1.6-1.2-3.4-1.2-5.4c0-2,0.4-3.8,1.2-5.5c0.8-1.6,1.9-2.9,3.3-3.8c1.4-0.9,3-1.3,4.7-1.3c1.2,0,2.4,0.2,3.4,0.7s2,1,2.7,1.7
			v-7.4c0-0.7,0.2-1.2,0.6-1.7c0.4-0.4,1-0.7,1.6-0.7S111.3,76.5,111.7,76.9z M106.5,98.8c1-1.2,1.6-2.7,1.6-4.5
			c0-1.8-0.5-3.3-1.6-4.6c-1-1.2-2.4-1.8-4-1.8c-1.6,0-3,0.6-4,1.8c-1,1.2-1.6,2.7-1.6,4.6c0,1.8,0.5,3.3,1.5,4.5
			c1,1.2,2.4,1.8,4,1.8C104.1,100.6,105.4,100,106.5,98.8z"/>
		<path class="st5" d="M134.5,84.7c0.4,0.4,0.6,0.9,0.6,1.5c0,0.3-0.1,0.7-0.3,1.1l-7.1,15.7c-0.2,0.4-0.4,0.8-0.8,1
			c-0.3,0.3-0.7,0.4-1.2,0.4l-0.3,0c-0.4,0-0.8-0.1-1.2-0.4c-0.4-0.3-0.7-0.6-0.9-1.1l-7.1-15.7c-0.2-0.4-0.3-0.8-0.3-1.2
			c0-0.5,0.2-1,0.6-1.4c0.4-0.4,1-0.6,1.6-0.6c0.5,0,0.9,0.1,1.3,0.4c0.4,0.3,0.7,0.6,0.9,1.1l5.2,12l5.2-12
			c0.2-0.5,0.5-0.8,0.8-1.1c0.4-0.3,0.7-0.4,1.2-0.3C133.5,84.1,134.1,84.3,134.5,84.7z"/>
		<path class="st5" d="M156.6,99.7c-0.9,1.6-2.2,2.9-3.7,3.7c-1.6,0.9-3.3,1.3-5.2,1.3c-1.9,0-3.7-0.4-5.2-1.3
			c-1.6-0.9-2.8-2.1-3.7-3.7c-0.9-1.6-1.4-3.4-1.4-5.5c0-2,0.5-3.8,1.4-5.5c0.9-1.6,2.2-2.9,3.7-3.8c1.6-0.9,3.3-1.3,5.2-1.3
			c1.9,0,3.6,0.5,5.2,1.3c1.6,0.9,2.8,2.2,3.7,3.8c0.9,1.6,1.4,3.4,1.4,5.5C158,96.3,157.6,98.1,156.6,99.7z M152.7,90.9
			c-0.5-1-1.2-1.7-2.1-2.3c-0.9-0.5-1.8-0.8-2.9-0.8s-2,0.3-2.9,0.8c-0.9,0.5-1.6,1.3-2.1,2.3c-0.5,1-0.8,2.1-0.8,3.3
			c0,1.2,0.3,2.3,0.8,3.3c0.5,1,1.2,1.7,2.1,2.2c0.9,0.5,1.8,0.8,2.9,0.8s2-0.3,2.9-0.8c0.9-0.5,1.6-1.3,2.1-2.2
			c0.5-1,0.8-2.1,0.8-3.3C153.5,93,153.2,91.9,152.7,90.9z"/>
		<path class="st5" d="M175.9,84.7c1.3,0.7,2,1.6,2,2.7c0,0.6-0.2,1-0.5,1.5c-0.3,0.4-0.8,0.6-1.3,0.6c-0.4,0-0.7-0.1-1-0.2
			c-0.3-0.1-0.5-0.3-0.7-0.5c-0.2-0.2-0.5-0.3-0.7-0.5c-0.3-0.1-0.6-0.2-1.1-0.3c-0.5-0.1-0.9-0.2-1.2-0.2c-1.9,0-3.4,0.6-4.5,1.8
			c-1.1,1.2-1.6,2.7-1.6,4.6c0,1.8,0.5,3.3,1.6,4.5c1.1,1.2,2.5,1.8,4.2,1.8c1.2,0,2.2-0.2,2.8-0.5c0.2-0.1,0.4-0.2,0.6-0.4
			c0.3-0.2,0.5-0.3,0.7-0.4s0.5-0.2,0.8-0.2c0.6,0,1.1,0.2,1.5,0.6c0.4,0.4,0.6,0.9,0.6,1.6c0,0.6-0.4,1.2-1.1,1.7
			c-0.7,0.5-1.6,1-2.8,1.3c-1.2,0.3-2.4,0.5-3.7,0.5c-2,0-3.7-0.5-5.1-1.4s-2.6-2.2-3.4-3.8c-0.8-1.6-1.2-3.4-1.2-5.4
			c0-2.1,0.4-3.9,1.3-5.5c0.8-1.6,2-2.8,3.6-3.7c1.5-0.9,3.2-1.3,5.2-1.3C172.8,83.7,174.6,84,175.9,84.7z"/>
		<path class="st5" d="M199.5,84.3c0.4,0.4,0.6,1,0.6,1.7v16.1c0,0.7-0.2,1.2-0.6,1.7c-0.4,0.4-1,0.7-1.6,0.7s-1.2-0.2-1.6-0.6
			c-0.4-0.4-0.6-1-0.7-1.6c-0.6,0.7-1.5,1.4-2.6,1.9c-1.1,0.5-2.2,0.8-3.4,0.8c-1.7,0-3.3-0.4-4.8-1.3c-1.4-0.9-2.5-2.1-3.4-3.7
			c-0.8-1.6-1.2-3.4-1.2-5.4c0-2,0.4-3.8,1.2-5.5c0.8-1.6,1.9-2.9,3.3-3.8c1.4-0.9,3-1.3,4.7-1.3c1.2,0,2.4,0.2,3.4,0.7s2,1,2.7,1.7
			v0c0-0.7,0.2-1.2,0.6-1.7c0.4-0.4,1-0.7,1.6-0.7S199,83.9,199.5,84.3z M194.2,98.8c1-1.2,1.6-2.7,1.6-4.5c0-1.8-0.5-3.3-1.6-4.6
			c-1-1.2-2.4-1.8-4-1.8c-1.6,0-3,0.6-4,1.8c-1,1.2-1.6,2.7-1.6,4.6c0,1.8,0.5,3.3,1.5,4.5c1,1.2,2.4,1.8,4,1.8
			C191.8,100.6,193.2,100,194.2,98.8z"/>
		<path class="st5" d="M215.8,100.6c0.3,0.3,0.4,0.8,0.4,1.3c0,0.7-0.4,1.3-1.1,1.7c-0.7,0.5-1.6,0.7-2.5,0.7c-1.6,0-2.9-0.3-4-1
			c-1.1-0.7-1.6-2.1-1.6-4.3V88.6h-1.7c-0.6,0-1.1-0.2-1.5-0.6c-0.4-0.4-0.6-0.9-0.6-1.5c0-0.6,0.2-1.1,0.6-1.5
			c0.4-0.4,0.9-0.6,1.5-0.6h1.7V82c0-0.7,0.2-1.2,0.7-1.7c0.4-0.4,1-0.7,1.7-0.7c0.6,0,1.2,0.2,1.6,0.7c0.4,0.4,0.6,1,0.6,1.7v2.4
			h2.7c0.6,0,1.1,0.2,1.5,0.6c0.4,0.4,0.6,0.9,0.6,1.5c0,0.6-0.2,1.1-0.6,1.5c-0.4,0.4-0.9,0.6-1.5,0.6h-2.7v10.3
			c0,0.5,0.1,0.9,0.4,1.2c0.3,0.2,0.7,0.4,1.1,0.4c0.2,0,0.5-0.1,0.8-0.2c0.3-0.1,0.6-0.2,0.9-0.2
			C215.2,100.1,215.5,100.3,215.8,100.6z"/>
		<path class="st5" d="M237.9,95.2c-0.5,0.4-1,0.6-1.6,0.6h-12.5c0.3,1.5,1,2.7,2.1,3.5c1.1,0.8,2.3,1.3,3.7,1.3
			c1,0,1.8-0.1,2.4-0.3c0.6-0.2,1-0.4,1.4-0.6c0.3-0.2,0.6-0.4,0.7-0.4c0.5-0.2,0.9-0.3,1.3-0.3c0.5,0,1,0.2,1.4,0.6
			s0.6,0.8,0.6,1.3c0,0.7-0.4,1.3-1.1,1.9c-0.7,0.6-1.7,1.1-2.9,1.5c-1.2,0.4-2.4,0.6-3.6,0.6c-2.1,0-4-0.4-5.6-1.3
			c-1.6-0.9-2.8-2.1-3.7-3.7c-0.9-1.6-1.3-3.3-1.3-5.3c0-2.2,0.5-4.1,1.4-5.7c0.9-1.6,2.1-2.9,3.6-3.8c1.5-0.9,3.1-1.3,4.8-1.3
			c1.7,0,3.2,0.5,4.7,1.4s2.7,2.1,3.6,3.7c0.9,1.5,1.3,3.2,1.3,5C238.6,94.4,238.4,94.9,237.9,95.2z M223.8,92h10v-0.3
			c-0.1-1.1-0.6-2-1.6-2.7c-0.9-0.8-2-1.1-3.2-1.1C226.1,87.9,224.4,89.2,223.8,92z"/>
		<path class="st5" d="M240.9,100.1c0-0.7,0.3-1.2,1-1.7c0.4-0.2,0.7-0.3,1.1-0.3c0.5,0,1,0.2,1.5,0.7c0.8,0.8,1.6,1.4,2.4,1.7
			c0.8,0.4,1.8,0.6,3,0.6c2-0.1,3-0.8,3-2.2c0-0.7-0.3-1.3-1-1.7c-0.7-0.4-1.7-0.8-3.1-1.1c-1.5-0.4-2.7-0.8-3.6-1.2
			c-0.9-0.4-1.7-1-2.4-1.8c-0.7-0.8-1-1.9-1-3.3c0-1.2,0.3-2.3,1-3.2c0.7-0.9,1.6-1.6,2.7-2.1c1.1-0.5,2.3-0.7,3.6-0.7
			c1.3,0,2.6,0.2,3.9,0.7c1.3,0.5,2.3,1.2,3,2.1c0.3,0.4,0.5,0.9,0.5,1.4c0,0.6-0.2,1.1-0.7,1.4c-0.4,0.3-0.8,0.4-1.2,0.4
			c-0.6,0-1-0.2-1.4-0.5c-0.5-0.6-1-1-1.8-1.3c-0.7-0.3-1.5-0.5-2.5-0.5c-1.9,0-2.9,0.7-2.9,2.1c0,0.6,0.2,1,0.5,1.3
			c0.4,0.3,0.8,0.6,1.3,0.8c0.5,0.2,1.3,0.4,2.3,0.7c1.4,0.4,2.5,0.8,3.4,1.2c0.9,0.4,1.7,1,2.3,1.9c0.6,0.8,0.9,1.9,0.9,3.3
			c0,1.2-0.4,2.3-1.1,3.2c-0.7,0.9-1.7,1.6-2.8,2.1c-1.2,0.5-2.3,0.7-3.6,0.7c-1.7,0-3.2-0.3-4.7-0.8c-1.4-0.6-2.6-1.5-3.5-2.7
			C241,100.9,240.9,100.6,240.9,100.1z"/>
	</g>
</g>
<rect x="23.3" y="17.7" class="st2" width="693.5" height="706.1"/>
<rect x="191.4" y="285.9" class="st10" width="325.3" height="13.2"/>
<rect x="191.4" y="317.7" class="st10" width="325.3" height="13.2"/>
<rect x="191.4" y="348.7" class="st10" width="325.3" height="13.2"/>
<rect x="191.6" y="561.5" class="st10" width="325.1" height="13.2"/>
<rect x="191.6" y="593.3" class="st10" width="325.1" height="13.2"/>
<rect x="191.6" y="624.3" class="st10" width="325.1" height="13.2"/>
<rect x="544.5" y="285.9" class="st10" width="70.9" height="13.2"/>
<rect x="544.5" y="561.5" class="st10" width="70.9" height="13.2"/>
<path class="st0" d="M654.9,289.1c0.7-1.2,1.5-2.2,2.8-2.7c1-0.5,2-0.6,3.1-0.5c0.8,0.1,1.6,0.2,2.4,0.6c1.9,0.8,3.1,2.3,3.5,4.3
	c0.3,1.7-0.1,3.2-0.8,4.7c-1,2-2.5,3.7-4.1,5.4c-2,2.1-4.3,3.9-6.6,5.6c-0.1,0.1-0.2,0.1-0.4,0c-2.6-2-5.1-4-7.3-6.4
	c-1.2-1.3-2.4-2.6-3.2-4.2c-0.5-1-0.9-2.1-1-3.2c-0.3-2.9,1.4-5.8,4.5-6.5c1.5-0.3,2.9-0.3,4.4,0.3c1.2,0.5,2.1,1.4,2.8,2.6
	C654.8,289,654.8,289,654.9,289.1z"/>
<path class="st0" d="M654.9,562.1c0.7-1.2,1.5-2.2,2.8-2.7c1-0.5,2-0.6,3.1-0.5c0.8,0.1,1.6,0.2,2.4,0.6c1.9,0.8,3.1,2.3,3.5,4.3
	c0.3,1.7-0.1,3.2-0.8,4.7c-1,2-2.5,3.7-4.1,5.4c-2,2.1-4.3,3.9-6.6,5.6c-0.1,0.1-0.2,0.1-0.4,0c-2.6-2-5.1-4-7.3-6.4
	c-1.2-1.3-2.4-2.6-3.2-4.2c-0.5-1-0.9-2.1-1-3.2c-0.3-2.9,1.4-5.8,4.5-6.5c1.5-0.3,2.9-0.3,4.4,0.3c1.2,0.5,2.1,1.4,2.8,2.6
	C654.8,562,654.8,562,654.9,562.1z"/>
<polygon class="st10" points="78.6,686.7 89.8,667.5 67.5,667.5 "/>
<g>
	<g>
		<path class="st5" d="M80,204.5c0.2,0.2,0.3,0.4,0.3,0.8s-0.1,0.6-0.3,0.8c-0.2,0.2-0.5,0.3-0.8,0.3h-4.1v12.9
			c0,0.3-0.1,0.6-0.3,0.8c-0.2,0.2-0.5,0.3-0.8,0.3c-0.3,0-0.6-0.1-0.8-0.3c-0.2-0.2-0.3-0.5-0.3-0.8v-12.9h-4.1
			c-0.3,0-0.6-0.1-0.8-0.3c-0.2-0.2-0.3-0.4-0.3-0.8c0-0.3,0.1-0.6,0.3-0.7c0.2-0.2,0.5-0.3,0.8-0.3h10.5
			C79.6,204.2,79.8,204.3,80,204.5z"/>
		<path class="st5" d="M96.2,216.4c-0.7,1.3-1.6,2.3-2.8,3s-2.5,1.1-4,1.1s-2.8-0.4-4-1.1s-2.1-1.7-2.8-3s-1-2.7-1-4.2s0.3-3,1-4.2
			s1.6-2.3,2.8-3s2.5-1.1,4-1.1s2.8,0.4,4,1.1s2.1,1.7,2.8,3s1,2.7,1,4.2S96.8,215.2,96.2,216.4z M94.1,209.1
			c-0.5-0.9-1.1-1.7-1.9-2.2s-1.8-0.8-2.8-0.8s-2,0.3-2.8,0.8c-0.8,0.5-1.5,1.2-1.9,2.2s-0.7,2-0.7,3.1c0,1.1,0.2,2.2,0.7,3.1
			s1.1,1.7,1.9,2.2c0.8,0.5,1.8,0.8,2.8,0.8s2-0.3,2.8-0.8c0.8-0.5,1.5-1.3,1.9-2.2c0.5-0.9,0.7-2,0.7-3.1
			C94.8,211.1,94.6,210,94.1,209.1z"/>
		<path class="st5" d="M108.8,204.8c0.7,0.4,1.2,1,1.6,1.8c0.4,0.8,0.6,1.6,0.6,2.5c0,0.9-0.2,1.7-0.6,2.5s-1,1.4-1.6,1.8
			c-0.7,0.4-1.4,0.7-2.3,0.7h-4.3v5.1c0,0.3-0.1,0.6-0.3,0.8c-0.2,0.2-0.5,0.3-0.8,0.3c-0.3,0-0.6-0.1-0.8-0.3s-0.3-0.5-0.3-0.8
			v-13.9c0-0.3,0.1-0.6,0.3-0.8c0.2-0.2,0.5-0.3,0.8-0.3h5.3C107.3,204.2,108.1,204.4,108.8,204.8z M107.6,211.6
			c0.4-0.3,0.6-0.6,0.8-1.1c0.2-0.4,0.3-0.9,0.3-1.4c0-0.8-0.2-1.4-0.7-2c-0.5-0.5-1-0.8-1.6-0.8h-4.3v5.7h4.3
			C106.9,212,107.3,211.9,107.6,211.6z"/>
		<path class="st5" d="M122.2,220c-0.2,0.2-0.5,0.3-0.8,0.3c-0.3,0-0.6-0.1-0.8-0.3c-0.2-0.2-0.3-0.5-0.3-0.8v-13.9
			c0-0.3,0.1-0.6,0.3-0.8c0.2-0.2,0.5-0.3,0.8-0.3c0.3,0,0.6,0.1,0.8,0.3c0.2,0.2,0.3,0.5,0.3,0.8v13.9
			C122.5,219.5,122.4,219.7,122.2,220z"/>
		<path class="st5" d="M139.1,204.5c0.2,0.2,0.3,0.4,0.3,0.7v14c0,0.3-0.1,0.6-0.3,0.8c-0.2,0.2-0.5,0.3-0.8,0.3
			c-0.2,0-0.3,0-0.5-0.1c-0.2-0.1-0.3-0.1-0.4-0.2l-9-11.8v11.1c0,0.3-0.1,0.5-0.3,0.7c-0.2,0.2-0.4,0.3-0.7,0.3
			c-0.3,0-0.5-0.1-0.7-0.3c-0.2-0.2-0.3-0.4-0.3-0.7v-14c0-0.3,0.1-0.6,0.3-0.8s0.5-0.3,0.8-0.3c0.2,0,0.4,0,0.5,0.1
			c0.2,0.1,0.3,0.2,0.4,0.3l9,11.8v-11.2c0-0.3,0.1-0.5,0.3-0.7c0.2-0.2,0.4-0.3,0.7-0.3C138.6,204.2,138.9,204.3,139.1,204.5z"/>
		<path class="st5" d="M145.4,206.3v4.8h5.7c0.3,0,0.6,0.1,0.8,0.3s0.3,0.5,0.3,0.8c0,0.3-0.1,0.5-0.3,0.7s-0.5,0.3-0.8,0.3h-5.7v6
			c0,0.3-0.1,0.6-0.3,0.8c-0.2,0.2-0.5,0.3-0.8,0.3c-0.3,0-0.6-0.1-0.8-0.3c-0.2-0.2-0.3-0.5-0.3-0.8v-13.9c0-0.3,0.1-0.6,0.3-0.8
			c0.2-0.2,0.5-0.3,0.8-0.3h7.8c0.3,0,0.6,0.1,0.8,0.3s0.3,0.5,0.3,0.8c0,0.3-0.1,0.5-0.3,0.7s-0.5,0.3-0.8,0.3H145.4z"/>
		<path class="st5" d="M165.8,218.4c0.2,0.2,0.3,0.5,0.3,0.8c0,0.3-0.1,0.6-0.3,0.8s-0.5,0.3-0.8,0.3h-7.8c-0.3,0-0.6-0.1-0.8-0.3
			c-0.2-0.2-0.3-0.5-0.3-0.8v-13.9c0-0.3,0.1-0.6,0.3-0.8c0.2-0.2,0.5-0.3,0.8-0.3c0.3,0,0.6,0.1,0.8,0.3c0.2,0.2,0.3,0.5,0.3,0.8
			v12.9h6.6C165.3,218.1,165.6,218.2,165.8,218.4z"/>
		<path class="st5" d="M180.5,204.5c0.2,0.2,0.3,0.5,0.3,0.8v8.8c0,1.2-0.3,2.3-0.8,3.3c-0.5,1-1.3,1.7-2.2,2.3s-2,0.8-3.2,0.8
			c-1.2,0-2.3-0.3-3.2-0.8c-1-0.5-1.7-1.3-2.2-2.3s-0.8-2.1-0.8-3.3v-8.8c0-0.3,0.1-0.6,0.3-0.8c0.2-0.2,0.5-0.3,0.8-0.3
			c0.3,0,0.5,0.1,0.8,0.3c0.2,0.2,0.3,0.5,0.3,0.8v8.8c0,0.8,0.2,1.5,0.6,2.2c0.4,0.6,0.9,1.1,1.5,1.5s1.3,0.5,2,0.5
			c0.7,0,1.4-0.2,2-0.5s1.1-0.8,1.5-1.5c0.4-0.6,0.6-1.4,0.6-2.2v-8.8c0-0.3,0.1-0.6,0.3-0.8c0.2-0.2,0.4-0.3,0.8-0.3
			C180.1,204.2,180.3,204.3,180.5,204.5z"/>
		<path class="st5" d="M194.5,218.5c0.2,0.2,0.3,0.5,0.3,0.8c0,0.3-0.1,0.6-0.3,0.7c-0.2,0.2-0.5,0.3-0.8,0.3h-8
			c-0.3,0-0.6-0.1-0.8-0.3c-0.2-0.2-0.3-0.5-0.3-0.8v-13.9c0-0.3,0.1-0.6,0.3-0.8c0.2-0.2,0.5-0.3,0.8-0.3h8c0.3,0,0.6,0.1,0.8,0.3
			s0.3,0.5,0.3,0.8c0,0.3-0.1,0.6-0.3,0.7s-0.5,0.3-0.8,0.3h-6.8v4.7h5.8c0.3,0,0.6,0.1,0.8,0.3s0.3,0.5,0.3,0.8
			c0,0.3-0.1,0.6-0.3,0.8c-0.2,0.2-0.5,0.3-0.8,0.3h-5.8v5.1h6.8C194,218.2,194.3,218.3,194.5,218.5z"/>
		<path class="st5" d="M210.5,204.5c0.2,0.2,0.3,0.4,0.3,0.7v14c0,0.3-0.1,0.6-0.3,0.8c-0.2,0.2-0.5,0.3-0.8,0.3
			c-0.2,0-0.3,0-0.5-0.1c-0.2-0.1-0.3-0.1-0.4-0.2l-9-11.8v11.1c0,0.3-0.1,0.5-0.3,0.7c-0.2,0.2-0.4,0.3-0.7,0.3
			c-0.3,0-0.5-0.1-0.7-0.3c-0.2-0.2-0.3-0.4-0.3-0.7v-14c0-0.3,0.1-0.6,0.3-0.8s0.5-0.3,0.8-0.3c0.2,0,0.4,0,0.5,0.1
			c0.2,0.1,0.3,0.2,0.4,0.3l9,11.8v-11.2c0-0.3,0.1-0.5,0.3-0.7c0.2-0.2,0.4-0.3,0.7-0.3C210,204.2,210.3,204.3,210.5,204.5z"/>
		<path class="st5" d="M226.6,206c0,0.3-0.1,0.5-0.3,0.8c-0.2,0.2-0.4,0.4-0.8,0.4c-0.2,0-0.4-0.1-0.6-0.2c-1-0.5-2-0.8-3.1-0.8
			c-1.2,0-2.2,0.3-3,0.8c-0.9,0.5-1.6,1.2-2.1,2.1c-0.5,0.9-0.7,2-0.7,3.1c0,1.3,0.3,2.4,0.8,3.3s1.2,1.6,2.1,2.1
			c0.9,0.5,1.9,0.7,3,0.7c1.1,0,2.2-0.3,3.1-0.8c0.2-0.1,0.4-0.1,0.6-0.1c0.3,0,0.6,0.1,0.8,0.4c0.2,0.2,0.3,0.5,0.3,0.7
			c0,0.2,0,0.4-0.1,0.5c-0.1,0.2-0.2,0.3-0.4,0.4c-0.6,0.3-1.3,0.6-2,0.8c-0.7,0.2-1.5,0.3-2.2,0.3c-1.5,0-2.9-0.3-4.1-1
			c-1.3-0.7-2.2-1.6-3-2.9c-0.7-1.3-1.1-2.7-1.1-4.4c0-1.5,0.4-2.9,1.1-4.2c0.7-1.3,1.7-2.2,2.9-2.9c1.2-0.7,2.6-1.1,4.2-1.1
			c1.5,0,2.9,0.4,4.2,1.1C226.4,205.3,226.6,205.6,226.6,206z"/>
		<path class="st5" d="M239.1,218.5c0.2,0.2,0.3,0.5,0.3,0.8c0,0.3-0.1,0.6-0.3,0.7c-0.2,0.2-0.5,0.3-0.8,0.3h-8
			c-0.3,0-0.6-0.1-0.8-0.3c-0.2-0.2-0.3-0.5-0.3-0.8v-13.9c0-0.3,0.1-0.6,0.3-0.8c0.2-0.2,0.5-0.3,0.8-0.3h8c0.3,0,0.6,0.1,0.8,0.3
			s0.3,0.5,0.3,0.8c0,0.3-0.1,0.6-0.3,0.7s-0.5,0.3-0.8,0.3h-6.8v4.7h5.8c0.3,0,0.6,0.1,0.8,0.3s0.3,0.5,0.3,0.8
			c0,0.3-0.1,0.6-0.3,0.8c-0.2,0.2-0.5,0.3-0.8,0.3h-5.8v5.1h6.8C238.7,218.2,238.9,218.3,239.1,218.5z"/>
		<path class="st5" d="M255,218.8c0.1,0.2,0.1,0.3,0.1,0.5c0,0.3-0.1,0.6-0.3,0.7c-0.2,0.2-0.5,0.2-0.7,0.2c-0.3,0-0.5-0.1-0.7-0.2
			c-0.5-0.3-0.8-0.7-1.1-1.3c-0.3-0.6-0.4-1.4-0.4-2.6c0-0.8-0.2-1.3-0.7-1.7c-0.5-0.4-1.1-0.6-1.8-0.6h-4.6v5.2
			c0,0.3-0.1,0.6-0.3,0.8c-0.2,0.2-0.4,0.3-0.7,0.3c-0.4,0-0.7-0.1-0.9-0.3c-0.3-0.2-0.4-0.5-0.4-0.8v-13.9c0-0.3,0.1-0.6,0.3-0.8
			c0.2-0.2,0.5-0.3,0.8-0.3h6.5c0.8,0,1.6,0.2,2.3,0.6c0.7,0.4,1.2,1,1.7,1.7s0.6,1.5,0.6,2.4c0,0.9-0.2,1.7-0.7,2.4
			c-0.5,0.7-1.1,1.3-1.8,1.7c0.6,0.3,1,0.7,1.3,1.2c0.3,0.5,0.5,1.1,0.5,1.8c0.1,0.9,0.1,1.5,0.2,1.8c0.1,0.3,0.2,0.5,0.5,0.7
			C254.7,218.5,254.9,218.7,255,218.8z M250.9,211.6c0.3-0.3,0.6-0.6,0.8-1.1c0.2-0.5,0.3-1,0.3-1.6c0-0.7-0.2-1.4-0.7-1.9
			c-0.5-0.5-1-0.8-1.6-0.8h-5.2v5.8h5.2C250.2,212.1,250.6,211.9,250.9,211.6z"/>
		<path class="st5" d="M259.9,220c-0.9-0.3-1.7-0.8-2.5-1.5c-0.3-0.3-0.5-0.6-0.5-0.9c0-0.3,0.1-0.5,0.3-0.7
			c0.2-0.2,0.5-0.3,0.8-0.3c0.3,0,0.5,0.1,0.7,0.3c0.6,0.6,1.2,1,1.9,1.3c0.7,0.3,1.4,0.4,2.2,0.4c1,0,1.8-0.2,2.4-0.7s1-1,1-1.7
			c0-0.8-0.3-1.4-1-1.9c-0.7-0.4-1.6-0.8-3-1.1c-1.6-0.3-2.8-0.9-3.6-1.6c-0.9-0.7-1.3-1.8-1.3-3.1c0-0.9,0.2-1.7,0.7-2.4
			c0.5-0.7,1.1-1.2,2-1.6c0.8-0.4,1.8-0.6,2.9-0.6c1,0,1.8,0.2,2.7,0.5c0.8,0.3,1.5,0.7,2,1.2c0.4,0.3,0.5,0.6,0.5,1
			c0,0.3-0.1,0.5-0.3,0.7s-0.5,0.3-0.7,0.3c-0.2,0-0.4-0.1-0.5-0.2c-0.4-0.4-1-0.7-1.7-1c-0.7-0.3-1.4-0.4-2-0.4
			c-1,0-1.8,0.2-2.4,0.6c-0.6,0.4-0.9,1-0.9,1.7c0,0.8,0.3,1.3,0.9,1.7c0.6,0.4,1.5,0.7,2.7,1c1.2,0.3,2.2,0.6,2.9,0.9
			s1.3,0.8,1.8,1.5c0.4,0.6,0.6,1.4,0.6,2.5c0,0.9-0.3,1.7-0.7,2.4c-0.5,0.7-1.2,1.2-2,1.6c-0.9,0.4-1.8,0.6-2.8,0.6
			C261.7,220.5,260.7,220.3,259.9,220z"/>
	</g>
</g>
<line class="st7" x1="589.2" y1="16.9" x2="589.2" y2="148"/>
<g>
	<g>
		<polygon class="st6" points="696.3,46.4 610.5,46.4 610.5,109.3 628.9,109.3 625.8,122.3 650.4,109.3 696.3,109.3 		"/>
	</g>
	<g>
		
			<rect x="672.9" y="57.3" transform="matrix(0.8958 -0.4444 0.4444 0.8958 40.0502 308.3611)" class="st11" width="9.8" height="22.9"/>
		
			<rect x="623.1" y="57" transform="matrix(0.9451 0.3267 -0.3267 0.9451 56.8412 -201.4128)" class="st11" width="9.8" height="22.9"/>
		<path class="st11" d="M636,59.1c2.4,1.1,4.1,1,5.3,0.8c1.9-0.3,2.5-1.2,4.4-1.4c1.1-0.1,2.4,0.1,4.9,1c5.6,2,15.1,5.2,15.1,5.2
			c-0.4,1.3-1.2,3.1-2.9,3.9c-3.9,1.9-8.8-3.3-11.8-1.3c-1.6,1.1-0.6,3.1-2.9,5c-1.9,1.6-4.5,1.7-5.2,1.7c0,0-1.4,0-5.7-1.2l0,0l0,0
			"/>
		<g>
			<path class="st11" d="M647.2,82.6c-4.5,2.3-8.7,3.9-13.3,6.2c-1.1,0.6-2.4,0.2-3-0.9l-0.3-0.5c-0.6-1.1-0.2-2.4,0.9-3
				c2.4-1.2,4.8-2.4,7.2-3.7"/>
			<path class="st11" d="M647.8,88c-4.6,2.2-9.3,4.2-13.9,6.4c-1.1,0.5-2.4,0.1-3-1l-0.3-0.5c-0.5-1.1-0.1-2.4,1-3
				c2.5-1.1,4.9-2.3,7.4-3.4l7.8-3.7"/>
			<path class="st11" d="M651.5,91.8c-4.6,2.2-9.2,4.3-13.8,6.5c-1.1,0.5-2.4,0.1-3-1l-0.3-0.5c-0.5-1.1-0.1-2.4,1-3
				c2.5-1.1,4.9-2.3,7.4-3.4l7.8-3.7"/>
			<path class="st11" d="M659.4,93.6c0,0-0.1,0-0.1,0c-4.6,2.1-9.1,4.3-13.7,6.4c-1.1,0.5-2.4,0.1-3-1l-0.3-0.5
				c-0.5-1.1-0.1-2.4,1-3c2.5-1.1,4.8-2.3,7.3-3.4"/>
			<path class="st11" d="M659.4,93.6c0,0,9-4.1,12.3-7.3s7.1-5.4,7.1-5.4"/>
		</g>
	</g>
</g>
<rect x="191.6" y="429.2" class="st10" width="325.1" height="13.2"/>
<rect x="191.6" y="461" class="st10" width="325.1" height="13.2"/>
<rect x="191.6" y="492" class="st10" width="325.1" height="13.2"/>
<rect x="544.5" y="429.2" class="st10" width="70.9" height="13.2"/>
<path class="st0" d="M654.9,429.8c0.7-1.2,1.5-2.2,2.8-2.7c1-0.5,2-0.6,3.1-0.5c0.8,0.1,1.6,0.2,2.4,0.6c1.9,0.8,3.1,2.3,3.5,4.3
	c0.3,1.7-0.1,3.2-0.8,4.7c-1,2-2.5,3.7-4.1,5.4c-2,2.1-4.3,3.9-6.6,5.6c-0.1,0.1-0.2,0.1-0.4,0c-2.6-2-5.1-4-7.3-6.4
	c-1.2-1.3-2.4-2.6-3.2-4.2c-0.5-1-0.9-2.1-1-3.2c-0.3-2.9,1.4-5.8,4.5-6.5c1.5-0.3,2.9-0.3,4.4,0.3c1.2,0.5,2.1,1.4,2.8,2.6
	C654.8,429.7,654.8,429.7,654.9,429.8z"/>
<g>
	<rect x="67.3" y="285.5" class="st26" width="76.5" height="76.5"/>
	<g>
		<g>
			<path class="st26" d="M105.1,353.5L105.1,353.5c-12.9,0-23.4-10.5-23.4-23.4v-19.5c0-9.1,7.4-16.5,16.5-16.5H112
				c9.1,0,16.5,7.4,16.5,16.5V330C128.5,342.9,118,353.5,105.1,353.5z"/>
			<path class="st26" d="M81.6,315.1c5.4,0.2,10,0.3,13.6,0.2c7.8,0,9.8-0.3,11.7-1.8c1.9-1.5,4-4.5,4.7-7.7c0.3-1.2,0.3-2.3,0.3-3
				c0,0.5,0,1.1,0,1.9c0,0.1,0,0.2,0,0.4c0.6,5.9,4.9,9.1,4.9,9.1c4.9,3.7,11,1.7,11.5,1.6"/>
			<polyline class="st26" points="117.4,321.9 106.7,321.9 106.7,332.6 101.9,332.6 			"/>
			<line class="st26" x1="91.4" y1="322.2" x2="100.5" y2="322.2"/>
			<circle class="st26" cx="96.2" cy="327.6" r="1.6"/>
			<circle class="st26" cx="113.5" cy="327.6" r="1.6"/>
			<line class="st26" x1="101.9" y1="344.4" x2="107.9" y2="344.4"/>
			<path class="st26" d="M81.6,319.8c-0.2,0-3.5,0.4-4.9,3.3c-0.2,0.4-1,2.2-0.2,4.2c0.7,2,2.7,3.4,5,3.6"/>
			<path class="st26" d="M128.5,331.3c0.2,0,3.5-0.4,4.9-3.3c0.2-0.4,1-2.2,0.2-4.2c-0.7-2-2.7-3.4-5-3.6"/>
		</g>
	</g>
</g>
<g>
	<rect x="67.3" y="427.6" class="st26" width="76.5" height="76.5"/>
	<g>
		<g>
			<path class="st26" d="M105.1,495.6L105.1,495.6c-12.9,0-23.4-10.5-23.4-23.4v-19.5c0-9.1,7.4-16.5,16.5-16.5H112
				c9.1,0,16.5,7.4,16.5,16.5v19.5C128.5,485.1,118,495.6,105.1,495.6z"/>
			<path class="st26" d="M81.6,457.3c5.4,0.2,10,0.3,13.6,0.2c7.8,0,9.8-0.3,11.7-1.8c1.9-1.5,4-4.5,4.7-7.7c0.3-1.2,0.3-2.3,0.3-3
				c0,0.5,0,1.1,0,1.9c0,0.1,0,0.2,0,0.4c0.6,5.9,4.9,9.1,4.9,9.1c4.9,3.7,11,1.7,11.5,1.6"/>
			<polyline class="st26" points="117.4,464 106.7,464 106.7,474.7 101.9,474.7 			"/>
			<line class="st26" x1="91.4" y1="464.4" x2="100.5" y2="464.4"/>
			<circle class="st26" cx="96.2" cy="469.7" r="1.6"/>
			<circle class="st26" cx="113.5" cy="469.7" r="1.6"/>
			<line class="st26" x1="101.9" y1="486.6" x2="107.9" y2="486.6"/>
			<path class="st26" d="M81.6,462c-0.2,0-3.5,0.4-4.9,3.3c-0.2,0.4-1,2.2-0.2,4.2c0.7,2,2.7,3.4,5,3.6"/>
			<path class="st26" d="M128.5,473.4c0.2,0,3.5-0.4,4.9-3.3c0.2-0.4,1-2.2,0.2-4.2c-0.7-2-2.7-3.4-5-3.6"/>
		</g>
	</g>
</g>
<g>
	<rect x="67.3" y="559.1" class="st26" width="76.5" height="76.5"/>
	<g>
		<g>
			<path class="st26" d="M105.1,627.1L105.1,627.1c-12.9,0-23.4-10.5-23.4-23.4v-19.5c0-9.1,7.4-16.5,16.5-16.5H112
				c9.1,0,16.5,7.4,16.5,16.5v19.5C128.5,616.5,118,627.1,105.1,627.1z"/>
			<path class="st26" d="M81.6,588.8c5.4,0.2,10,0.3,13.6,0.2c7.8,0,9.8-0.3,11.7-1.8c1.9-1.5,4-4.5,4.7-7.7c0.3-1.2,0.3-2.3,0.3-3
				c0,0.5,0,1.1,0,1.9c0,0.1,0,0.2,0,0.4c0.6,5.9,4.9,9.1,4.9,9.1c4.9,3.7,11,1.7,11.5,1.6"/>
			<polyline class="st26" points="117.4,595.5 106.7,595.5 106.7,606.2 101.9,606.2 			"/>
			<line class="st26" x1="91.4" y1="595.8" x2="100.5" y2="595.8"/>
			<circle class="st26" cx="96.2" cy="601.2" r="1.6"/>
			<circle class="st26" cx="113.5" cy="601.2" r="1.6"/>
			<line class="st26" x1="101.9" y1="618" x2="107.9" y2="618"/>
			<path class="st26" d="M81.6,593.4c-0.2,0-3.5,0.4-4.9,3.3c-0.2,0.4-1,2.2-0.2,4.2c0.7,2,2.7,3.4,5,3.6"/>
			<path class="st26" d="M128.5,604.9c0.2,0,3.5-0.4,4.9-3.3c0.2-0.4,1-2.2,0.2-4.2c-0.7-2-2.7-3.4-5-3.6"/>
		</g>
	</g>
</g>
</svg>
