<?xml version="1.0" encoding="utf-8"?>
<!-- Generator: Adobe Illustrator 22.1.0, SVG Export Plug-In . SVG Version: 6.00 Build 0)  -->
<svg version="1.1" id="Layer_1" xmlns="http://www.w3.org/2000/svg" xmlns:xlink="http://www.w3.org/1999/xlink" x="0px" y="0px"
	 viewBox="0 0 1222 657" style="enable-background:new 0 0 1222 657;" xml:space="preserve">
<style type="text/css">
	.st0{fill:#FFD433;}
	.st1{fill:none;stroke:#26293C;stroke-width:1.2;stroke-miterlimit:10;}
	.st2{fill:none;stroke:#26293C;stroke-width:5;stroke-miterlimit:10;}
	.st3{fill:none;stroke:#F2F2F2;stroke-width:1.2;stroke-miterlimit:10;}
	.st4{fill:#D9DBDA;}
	.st5{fill:#26293C;}
	.st6{fill:#FFD433;stroke:#26293C;stroke-width:2;stroke-miterlimit:10;}
	.st7{fill:none;stroke:#26293C;stroke-width:1.2003;stroke-miterlimit:10;}
	.st8{fill:none;stroke:#FFD433;stroke-width:0.7434;stroke-miterlimit:10;}
	.st9{fill:none;stroke:#F2F2F2;stroke-width:1.3726;stroke-miterlimit:10;}
	.st10{fill:#F2F2F2;}
	.st11{fill:none;stroke:#26293C;stroke-width:2;stroke-miterlimit:10;}
	.st12{fill:#E5E5E5;stroke:#F2F2F2;stroke-width:1.072;stroke-miterlimit:10;}
	.st13{fill:none;stroke:#F2F2F2;stroke-width:1.4033;stroke-miterlimit:10;}
	.st14{fill:none;stroke:#FFD433;stroke-width:0.7838;stroke-miterlimit:10;}
	.st15{fill:none;stroke:#FFD433;stroke-miterlimit:10;}
	.st16{fill:none;stroke:#F2F2F2;stroke-width:3;stroke-miterlimit:10;}
	.st17{fill:#FFD433;stroke:#26293C;stroke-width:1.8525;stroke-miterlimit:10;}
	.st18{fill:none;stroke:#F2F2F2;stroke-width:1.3001;stroke-miterlimit:10;}
	.st19{fill:none;stroke:#F2F2F2;stroke-width:2.0632;stroke-miterlimit:10;}
	.st20{fill:#FFFFFF;stroke:#26293C;stroke-width:2;stroke-miterlimit:10;}
	.st21{fill:#EDEDED;}
	.st22{fill:#FFD433;stroke:#26293C;stroke-width:1.8509;stroke-miterlimit:10;}
	.st23{fill:none;stroke:#26293C;stroke-width:0.9518;stroke-miterlimit:10;}
	.st24{fill:none;stroke:#FFD433;stroke-width:0.8168;stroke-miterlimit:10;}
	.st25{fill:none;stroke:#26293C;stroke-width:0.9076;stroke-miterlimit:10;}
	.st26{fill:none;stroke:#D9DBDA;stroke-miterlimit:10;}
	.st27{fill:none;stroke:#F2F2F2;stroke-width:1.3998;stroke-miterlimit:10;}
	.st28{fill:none;stroke:#000000;stroke-width:2;stroke-miterlimit:10;}
</style>
<rect x="438.8" y="435.9" class="st0" width="46.8" height="46.8"/>
<line class="st7" x1="28.3" y1="147.5" x2="1194.7" y2="147.5"/>
<g>
	<g>
		<path class="st5" d="M93.1,100.2c0,0.7-0.2,1.2-0.6,1.6c-0.4,0.4-0.9,0.6-1.5,0.6c-0.5,0-0.9-0.1-1.2-0.4
			c-0.4-0.3-0.7-0.7-0.9-1.1l-2-4.6H75.6l-2,4.6c-0.2,0.5-0.5,0.9-0.8,1.1s-0.8,0.4-1.2,0.4c-0.7,0-1.2-0.2-1.5-0.5
			s-0.5-0.8-0.5-1.4c0-0.2,0-0.5,0.1-0.7L79.2,77c0.2-0.5,0.5-0.9,0.9-1.2c0.4-0.3,0.9-0.4,1.4-0.3c0.5,0,0.9,0.1,1.3,0.4
			c0.4,0.3,0.7,0.6,0.9,1.1l9.3,22.3C93,99.6,93.1,99.9,93.1,100.2z M77.4,91.9H85L81.2,83L77.4,91.9z"/>
		<path class="st5" d="M100.2,101.6c-0.4,0.4-1,0.7-1.7,0.7c-0.6,0-1.2-0.2-1.6-0.7c-0.4-0.4-0.6-1-0.6-1.7V76.5
			c0-0.7,0.2-1.2,0.7-1.7c0.4-0.4,1-0.7,1.7-0.7c0.6,0,1.2,0.2,1.6,0.7c0.4,0.4,0.6,1,0.6,1.7V100
			C100.9,100.6,100.7,101.2,100.2,101.6z"/>
		<path class="st5" d="M123.4,93.1c-0.5,0.4-1,0.6-1.6,0.6h-12.5c0.3,1.5,1,2.7,2.1,3.5c1.1,0.8,2.3,1.3,3.7,1.3
			c1,0,1.8-0.1,2.4-0.3c0.6-0.2,1-0.4,1.4-0.6c0.3-0.2,0.6-0.4,0.7-0.4c0.5-0.2,0.9-0.3,1.3-0.3c0.5,0,1,0.2,1.4,0.6
			c0.4,0.4,0.6,0.8,0.6,1.3c0,0.7-0.4,1.3-1.1,1.9c-0.7,0.6-1.7,1.1-2.8,1.5c-1.2,0.4-2.4,0.6-3.6,0.6c-2.1,0-4-0.4-5.6-1.3
			c-1.6-0.9-2.8-2.1-3.7-3.7c-0.9-1.6-1.3-3.3-1.3-5.3c0-2.2,0.5-4.1,1.4-5.7c0.9-1.6,2.1-2.9,3.6-3.8s3.1-1.3,4.8-1.3
			c1.7,0,3.2,0.5,4.7,1.4s2.7,2.1,3.6,3.7c0.9,1.5,1.3,3.2,1.3,5C124,92.2,123.8,92.7,123.4,93.1z M109.3,89.9h10v-0.3
			c-0.1-1.1-0.6-2-1.6-2.7c-0.9-0.8-2-1.1-3.2-1.1C111.5,85.7,109.8,87.1,109.3,89.9z"/>
		<path class="st5" d="M140.4,82.2c0.5,0.4,0.8,0.9,0.8,1.5c0,0.8-0.2,1.4-0.6,1.8c-0.4,0.4-0.9,0.6-1.4,0.6c-0.4,0-0.8-0.1-1.3-0.3
			c-0.1,0-0.2-0.1-0.5-0.2c-0.3-0.1-0.6-0.1-0.9-0.1c-0.7,0-1.3,0.2-1.9,0.6c-0.6,0.4-1.1,1-1.5,1.8c-0.4,0.8-0.6,1.8-0.6,2.9v9
			c0,0.7-0.2,1.2-0.6,1.7c-0.4,0.4-1,0.7-1.6,0.7c-0.7,0-1.2-0.2-1.6-0.7s-0.6-1-0.6-1.7V84.3c0-0.7,0.2-1.2,0.6-1.7s1-0.7,1.6-0.7
			c0.7,0,1.2,0.2,1.6,0.7c0.4,0.4,0.6,1,0.6,1.7v0.5c0.6-1,1.4-1.8,2.5-2.4s2.3-0.8,3.5-0.8C139.2,81.6,139.8,81.8,140.4,82.2z"/>
		<path class="st5" d="M155.1,98.5c0.3,0.3,0.4,0.8,0.4,1.3c0,0.7-0.4,1.3-1.1,1.7c-0.7,0.5-1.6,0.7-2.5,0.7c-1.6,0-2.9-0.3-4-1
			c-1.1-0.7-1.6-2.1-1.6-4.3V86.5h-1.7c-0.6,0-1.1-0.2-1.5-0.6c-0.4-0.4-0.6-0.9-0.6-1.5c0-0.6,0.2-1.1,0.6-1.5
			c0.4-0.4,0.9-0.6,1.5-0.6h1.7v-2.4c0-0.7,0.2-1.2,0.7-1.7c0.4-0.4,1-0.7,1.7-0.7c0.6,0,1.2,0.2,1.6,0.7c0.4,0.4,0.6,1,0.6,1.7v2.4
			h2.7c0.6,0,1.1,0.2,1.5,0.6s0.6,0.9,0.6,1.5c0,0.6-0.2,1.1-0.6,1.5c-0.4,0.4-0.9,0.6-1.5,0.6h-2.7v10.3c0,0.5,0.1,0.9,0.4,1.2
			c0.3,0.2,0.7,0.4,1.1,0.4c0.2,0,0.5-0.1,0.8-0.2c0.3-0.1,0.6-0.2,0.9-0.2C154.5,98,154.8,98.1,155.1,98.5z"/>
		<path class="st5" d="M159.1,98c0-0.7,0.3-1.2,1-1.7c0.4-0.2,0.7-0.3,1.1-0.3c0.5,0,1,0.2,1.5,0.7c0.8,0.8,1.6,1.4,2.4,1.7
			s1.8,0.6,3,0.6c2-0.1,3-0.8,3-2.2c0-0.7-0.3-1.3-1-1.7c-0.7-0.4-1.7-0.8-3.1-1.1c-1.5-0.4-2.7-0.8-3.6-1.2c-0.9-0.4-1.7-1-2.4-1.8
			c-0.7-0.8-1-1.9-1-3.3c0-1.2,0.3-2.3,1-3.2c0.7-0.9,1.6-1.6,2.7-2.1c1.1-0.5,2.3-0.7,3.6-0.7c1.3,0,2.6,0.2,3.9,0.7
			c1.3,0.5,2.3,1.2,3,2.1c0.3,0.4,0.5,0.9,0.5,1.4c0,0.6-0.2,1.1-0.7,1.4c-0.4,0.3-0.8,0.4-1.2,0.4c-0.6,0-1-0.2-1.4-0.5
			c-0.5-0.6-1-1-1.8-1.3c-0.7-0.3-1.5-0.5-2.5-0.5c-1.9,0-2.9,0.7-2.9,2.1c0,0.6,0.2,1,0.5,1.3s0.8,0.6,1.3,0.8s1.3,0.4,2.3,0.7
			c1.4,0.4,2.5,0.8,3.4,1.2c0.9,0.4,1.7,1,2.3,1.9s1,1.9,1,3.3c0,1.2-0.4,2.3-1.1,3.2c-0.7,0.9-1.7,1.6-2.8,2.1
			c-1.2,0.5-2.3,0.7-3.6,0.7c-1.7,0-3.2-0.3-4.7-0.8c-1.4-0.6-2.6-1.5-3.5-2.7C159.3,98.8,159.1,98.4,159.1,98z"/>
	</g>
</g>
<rect x="28.3" y="17.3" class="st23" width="1166.4" height="614.9"/>
<rect x="485.6" y="211.9" class="st0" width="46.8" height="46.8"/>
<rect x="438.8" y="212.5" class="st24" width="46.8" height="45.8"/>
<g>
	<g>
		<path class="st5" d="M518.4,225.3v19.7H513l-7.5-8.9v8.9h-6.5v-19.7h5.4l7.5,8.9v-8.9H518.4z"/>
	</g>
</g>
<line class="st25" x1="612.7" y1="147.5" x2="612.7" y2="632.2"/>
<rect x="485.3" y="436.5" class="st24" width="46.8" height="45.8"/>
<rect x="666.3" y="211.9" class="st0" width="76.5" height="76.5"/>
<rect x="790.4" y="214.4" class="st10" width="286.1" height="13.2"/>
<rect x="790.4" y="246.2" class="st10" width="286.1" height="13.2"/>
<rect x="790.4" y="277.1" class="st10" width="286.1" height="13.2"/>
<rect x="666.3" y="345.6" class="st10" width="76.5" height="76.5"/>
<rect x="790.4" y="348" class="st10" width="286.1" height="13.2"/>
<rect x="790.4" y="379.8" class="st10" width="286.1" height="13.2"/>
<rect x="790.4" y="410.8" class="st10" width="286.1" height="13.2"/>
<rect x="666.3" y="487.6" class="st10" width="76.5" height="76.5"/>
<rect x="790.4" y="490" class="st10" width="286.1" height="13.2"/>
<rect x="790.4" y="521.8" class="st10" width="286.1" height="13.2"/>
<rect x="790.4" y="552.8" class="st10" width="286.1" height="13.2"/>
<rect x="1113.7" y="214.4" class="st10" width="29.8" height="13.2"/>
<rect x="1113.7" y="348" class="st10" width="29.8" height="13.2"/>
<rect x="1113.7" y="490" class="st10" width="29.8" height="13.2"/>
<g>
	<g>
		<path class="st5" d="M467.4,453.5l-3.9,5.5v4.9c0,0.2-0.1,0.4-0.2,0.6s-0.4,0.3-0.6,0.3c-0.2,0-0.4-0.1-0.6-0.3
			c-0.2-0.2-0.3-0.4-0.3-0.6v-5.1l-3.9-5.2c-0.2-0.2-0.3-0.4-0.3-0.6c0-0.2,0.1-0.4,0.3-0.6c0.2-0.2,0.4-0.3,0.6-0.3
			c0.3,0,0.5,0.1,0.7,0.4l3.4,4.7l3.3-4.7c0.2-0.3,0.4-0.4,0.7-0.4c0.2,0,0.4,0.1,0.6,0.3c0.2,0.2,0.3,0.4,0.3,0.6
			C467.5,453.2,467.5,453.3,467.4,453.5z"/>
	</g>
</g>
<line class="st7" x1="28.3" y1="147.5" x2="1194.7" y2="147.5"/>
<rect x="28.3" y="17.3" class="st2" width="1166.4" height="614.9"/>
<rect x="72" y="337.9" class="st0" width="286.8" height="46.8"/>
<g>
	<g>
		<path class="st5" d="M95.9,363v4.9c0,0.2-0.1,0.4-0.2,0.6s-0.4,0.3-0.6,0.3c-0.2,0-0.4-0.1-0.6-0.3s-0.2-0.4-0.2-0.6V363
			c0-0.7-0.2-1.3-0.5-1.7s-0.9-0.6-1.6-0.6c-0.5,0-0.9,0.1-1.3,0.3c-0.4,0.2-0.7,0.5-0.9,0.8c-0.2,0.4-0.3,0.7-0.3,1.2v4.9
			c0,0.2-0.1,0.4-0.2,0.6s-0.4,0.3-0.6,0.3s-0.5-0.1-0.6-0.2c-0.2-0.2-0.2-0.4-0.2-0.6v-7.7c0-0.2,0.1-0.4,0.2-0.6s0.4-0.3,0.6-0.3
			c0.3,0,0.5,0.1,0.6,0.3s0.2,0.4,0.2,0.6v0.6c0.3-0.5,0.7-0.9,1.3-1.2c0.6-0.3,1.2-0.5,1.8-0.5C94.8,359.1,95.9,360.4,95.9,363z"/>
		<path class="st5" d="M106.7,359.5c0.2,0.2,0.2,0.4,0.2,0.6v7.8c0,0.2-0.1,0.4-0.2,0.6s-0.4,0.3-0.6,0.3s-0.5-0.1-0.6-0.2
			c-0.2-0.2-0.2-0.4-0.2-0.6v-0.5c-0.3,0.4-0.7,0.8-1.3,1.1s-1.1,0.4-1.7,0.4c-0.8,0-1.6-0.2-2.2-0.6s-1.2-1-1.6-1.8
			s-0.6-1.6-0.6-2.5c0-0.9,0.2-1.8,0.6-2.5s0.9-1.3,1.6-1.8c0.7-0.4,1.4-0.6,2.2-0.6c0.6,0,1.2,0.1,1.8,0.4s1,0.6,1.3,1v-0.4
			c0-0.3,0.1-0.5,0.2-0.6c0.2-0.2,0.4-0.3,0.6-0.3S106.6,359.3,106.7,359.5z M103.9,366.9c0.4-0.3,0.8-0.7,1-1.2
			c0.2-0.5,0.4-1.1,0.4-1.7c0-0.6-0.1-1.2-0.4-1.7c-0.2-0.5-0.6-0.9-1-1.2c-0.4-0.3-0.9-0.4-1.5-0.4c-0.6,0-1.1,0.1-1.5,0.4
			c-0.4,0.3-0.8,0.7-1,1.2s-0.4,1.1-0.4,1.7c0,0.6,0.1,1.2,0.4,1.7c0.2,0.5,0.6,0.9,1,1.2c0.4,0.3,0.9,0.4,1.5,0.4
			C103,367.4,103.5,367.2,103.9,366.9z"/>
		<path class="st5" d="M123.5,363.1v4.8c0,0.3-0.1,0.5-0.2,0.6c-0.2,0.2-0.4,0.2-0.6,0.2s-0.5-0.1-0.6-0.3s-0.2-0.4-0.2-0.6v-4.8
			c0-1.6-0.7-2.4-2-2.4c-0.5,0-0.9,0.1-1.3,0.3c-0.4,0.2-0.7,0.5-0.9,0.9c-0.2,0.4-0.3,0.8-0.3,1.2v4.8c0,0.2-0.1,0.4-0.2,0.6
			s-0.4,0.3-0.6,0.3s-0.5-0.1-0.6-0.2c-0.2-0.2-0.2-0.4-0.2-0.6v-4.8c0-0.7-0.2-1.3-0.5-1.7s-0.8-0.6-1.5-0.6
			c-0.7,0-1.3,0.2-1.8,0.7c-0.5,0.5-0.7,1-0.7,1.7v4.8c0,0.2-0.1,0.4-0.2,0.6s-0.4,0.3-0.6,0.3s-0.5-0.1-0.6-0.2
			c-0.2-0.2-0.2-0.4-0.2-0.6v-7.7c0-0.2,0.1-0.4,0.2-0.6s0.4-0.3,0.6-0.3c0.3,0,0.5,0.1,0.6,0.3s0.2,0.4,0.2,0.6v0.6
			c0.3-0.5,0.7-0.9,1.3-1.2c0.5-0.3,1.1-0.5,1.7-0.5c1.5,0,2.5,0.7,2.9,2c0.3-0.5,0.7-1,1.3-1.4c0.6-0.4,1.3-0.6,1.9-0.6
			C122.4,359.2,123.5,360.5,123.5,363.1z"/>
		<path class="st5" d="M134,364.3c-0.2,0.2-0.4,0.2-0.6,0.2h-6.3c0.1,0.9,0.4,1.6,1,2.1c0.6,0.5,1.3,0.8,2.1,0.8
			c0.6,0,1-0.1,1.4-0.3c0.4-0.2,0.7-0.4,1-0.6c0.2-0.1,0.4-0.2,0.5-0.2c0.2,0,0.4,0.1,0.5,0.2s0.2,0.3,0.2,0.5
			c0,0.3-0.1,0.5-0.4,0.7c-0.3,0.3-0.8,0.6-1.4,0.9c-0.6,0.2-1.2,0.4-1.8,0.4c-1,0-1.8-0.2-2.6-0.6s-1.3-1-1.7-1.7
			c-0.4-0.7-0.6-1.6-0.6-2.5c0-1,0.2-1.9,0.6-2.7c0.4-0.8,1-1.3,1.6-1.8c0.7-0.4,1.4-0.6,2.2-0.6c0.8,0,1.5,0.2,2.2,0.6
			c0.7,0.4,1.2,0.9,1.6,1.6c0.4,0.7,0.6,1.5,0.6,2.3C134.3,363.9,134.2,364.1,134,364.3z M128.2,361.3c-0.5,0.4-0.8,1-1,1.8h5.3
			v-0.1c-0.1-0.6-0.3-1.2-0.9-1.6c-0.5-0.4-1.1-0.6-1.7-0.6C129.2,360.7,128.6,360.9,128.2,361.3z"/>
		<path class="st5" d="M145.7,367.3c-0.4-0.3-0.6-0.7-0.5-1.2c-0.3,0.6-0.8,1-1.3,1.3c-0.5,0.3-1.1,0.4-1.6,0.4
			c-0.5,0-0.9-0.1-1.3-0.4c-0.4-0.3-0.7-0.6-1-1.1s-0.4-1-0.4-1.5c0-0.8,0.2-1.5,0.6-2.4c0.4-0.8,0.9-1.5,1.6-2s1.4-0.8,2.2-0.8
			c0.5,0,0.9,0.1,1.3,0.4c0.4,0.3,0.6,0.6,0.8,1.1l0.1-0.8c0-0.2,0.1-0.3,0.2-0.4c0.1-0.1,0.3-0.2,0.6-0.2c0.5,0,0.8,0.2,0.8,0.6
			c0,0.1,0,0.2,0,0.3l-0.8,4.9c0,0.1,0,0.1,0,0.3c0,0.3,0.1,0.5,0.2,0.7s0.3,0.2,0.5,0.2c0.5,0,1-0.2,1.4-0.7c0.4-0.5,0.8-1.1,1-1.9
			c0.3-0.8,0.4-1.6,0.4-2.4c0-0.9-0.2-1.7-0.6-2.3s-1-1.2-1.8-1.6s-1.7-0.6-2.7-0.6c-1.6,0-3,0.3-4.3,1c-1.3,0.6-2.3,1.6-3,2.7
			c-0.7,1.2-1.1,2.6-1.1,4.2c0,1,0.2,1.9,0.6,2.7c0.4,0.8,1,1.5,1.8,2c0.8,0.5,1.9,0.8,3.1,0.8c0.9,0,1.6-0.1,2.2-0.3
			s1.2-0.4,1.9-0.8c0.1-0.1,0.2-0.1,0.3-0.1c0.2,0,0.4,0.1,0.5,0.4c0,0,0,0.1,0,0.2c0,0.2-0.2,0.4-0.5,0.6c-0.7,0.4-1.4,0.7-2,0.9
			s-1.4,0.3-2.3,0.3c-1.5,0-2.8-0.3-3.8-0.9c-1-0.6-1.7-1.4-2.2-2.4s-0.7-2.1-0.7-3.2c0-1.8,0.4-3.4,1.3-4.8s2-2.4,3.5-3.2
			c1.5-0.7,3.1-1.1,4.9-1.1c1.3,0,2.5,0.3,3.4,0.8c0.9,0.5,1.7,1.2,2.2,2c0.5,0.9,0.7,1.8,0.7,2.9c0,1-0.2,2-0.6,2.9
			s-0.9,1.7-1.6,2.3c-0.7,0.6-1.5,0.9-2.4,0.9C146.5,367.8,146.1,367.6,145.7,367.3z M143.9,366c0.4-0.3,0.8-0.7,1-1.1
			c0.3-0.5,0.4-0.9,0.5-1.3c0.1-0.4,0.2-0.7,0.2-1c0-0.6-0.2-1-0.5-1.2c-0.3-0.3-0.7-0.4-1.2-0.4c-0.5,0-1,0.2-1.4,0.6
			c-0.4,0.4-0.7,0.9-1,1.5c-0.2,0.6-0.4,1.2-0.4,1.7c0,0.5,0.1,0.9,0.4,1.2s0.6,0.4,1,0.4C143.1,366.5,143.5,366.3,143.9,366z"/>
		<path class="st5" d="M161.7,367.9c0,0.2-0.1,0.4-0.3,0.6c-0.2,0.2-0.4,0.2-0.6,0.2c-0.3,0-0.5-0.1-0.6-0.3l-3.5-3.8l-1.1,1v2.2
			c0,0.2-0.1,0.4-0.2,0.6c-0.2,0.2-0.4,0.3-0.6,0.3c-0.3,0-0.5-0.1-0.6-0.3s-0.2-0.4-0.2-0.6v-11.6c0-0.2,0.1-0.4,0.2-0.6
			c0.2-0.2,0.4-0.3,0.6-0.3c0.2,0,0.4,0.1,0.6,0.3c0.2,0.2,0.2,0.4,0.2,0.6v7.3l4.4-4c0.2-0.2,0.4-0.3,0.6-0.3
			c0.2,0,0.4,0.1,0.6,0.3s0.3,0.4,0.3,0.5c0,0.2-0.1,0.5-0.3,0.6l-3.1,2.8l3.5,3.7C161.6,367.5,161.7,367.7,161.7,367.9z"/>
		<path class="st5" d="M171.3,364.3c-0.2,0.2-0.4,0.2-0.6,0.2h-6.3c0.1,0.9,0.4,1.6,1,2.1c0.6,0.5,1.3,0.8,2.1,0.8
			c0.6,0,1-0.1,1.4-0.3c0.4-0.2,0.7-0.4,1-0.6c0.2-0.1,0.4-0.2,0.5-0.2c0.2,0,0.4,0.1,0.5,0.2s0.2,0.3,0.2,0.5
			c0,0.3-0.1,0.5-0.4,0.7c-0.3,0.3-0.8,0.6-1.4,0.9c-0.6,0.2-1.2,0.4-1.8,0.4c-1,0-1.8-0.2-2.6-0.6s-1.3-1-1.7-1.7
			c-0.4-0.7-0.6-1.6-0.6-2.5c0-1,0.2-1.9,0.6-2.7c0.4-0.8,1-1.3,1.6-1.8c0.7-0.4,1.4-0.6,2.2-0.6c0.8,0,1.5,0.2,2.2,0.6
			c0.7,0.4,1.2,0.9,1.6,1.6c0.4,0.7,0.6,1.5,0.6,2.3C171.6,363.9,171.5,364.1,171.3,364.3z M165.4,361.3c-0.5,0.4-0.8,1-1,1.8h5.3
			v-0.1c-0.1-0.6-0.3-1.2-0.9-1.6c-0.5-0.4-1.1-0.6-1.7-0.6C166.5,360.7,165.9,360.9,165.4,361.3z"/>
		<path class="st5" d="M181.1,359.5c0.2,0.2,0.2,0.4,0.2,0.6v7.8c0,1.5-0.4,2.6-1.2,3.4c-0.8,0.7-1.9,1.1-3.3,1.1
			c-0.4,0-0.9,0-1.3-0.1c-0.4-0.1-0.8-0.2-1.1-0.3c-0.4-0.2-0.7-0.5-0.7-0.8c0-0.1,0-0.1,0-0.2c0.1-0.2,0.2-0.4,0.3-0.5
			c0.1-0.1,0.3-0.2,0.5-0.2c0.1,0,0.2,0,0.3,0.1c0.4,0.2,0.7,0.3,1,0.4c0.3,0.1,0.6,0.1,1,0.1c1.9,0,2.8-1,2.8-2.9v-0.4
			c-0.3,0.4-0.7,0.8-1.3,1c-0.5,0.2-1.1,0.4-1.8,0.4c-1,0-1.8-0.3-2.3-1c-0.6-0.6-0.8-1.5-0.8-2.5v-5.4c0-0.3,0.1-0.5,0.2-0.6
			s0.4-0.2,0.6-0.2s0.5,0.1,0.6,0.3s0.2,0.4,0.2,0.6v4.9c0,0.8,0.2,1.4,0.5,1.8c0.3,0.4,0.9,0.6,1.6,0.6c0.7,0,1.2-0.2,1.7-0.6
			c0.4-0.4,0.7-1,0.7-1.7v-4.9c0-0.3,0.1-0.5,0.2-0.6s0.4-0.2,0.6-0.2S180.9,359.3,181.1,359.5z"/>
		<path class="st5" d="M191.7,363.1v4.8c0,0.2-0.1,0.4-0.2,0.6s-0.4,0.3-0.6,0.3c-0.2,0-0.4-0.1-0.6-0.3c-0.2-0.2-0.2-0.4-0.2-0.6
			v-4.8c0-1.6-0.7-2.3-2-2.3c-0.7,0-1.3,0.2-1.8,0.7c-0.5,0.5-0.7,1-0.7,1.7v4.8c0,0.2-0.1,0.4-0.2,0.6s-0.4,0.3-0.6,0.3
			s-0.5-0.1-0.6-0.2s-0.2-0.4-0.2-0.6v-11.6c0-0.2,0.1-0.4,0.2-0.6c0.2-0.2,0.4-0.3,0.6-0.3c0.3,0,0.5,0.1,0.6,0.3
			c0.2,0.2,0.2,0.4,0.2,0.6v4.6c0.3-0.5,0.7-0.9,1.3-1.2c0.5-0.3,1.1-0.5,1.7-0.5C190.7,359.2,191.7,360.5,191.7,363.1z"/>
		<path class="st5" d="M202.6,366.6c-0.4,0.7-1,1.3-1.7,1.7s-1.5,0.6-2.4,0.6c-0.9,0-1.7-0.2-2.4-0.6c-0.7-0.4-1.3-1-1.7-1.7
			c-0.4-0.7-0.6-1.6-0.6-2.5c0-0.9,0.2-1.8,0.6-2.5c0.4-0.8,1-1.3,1.7-1.8c0.7-0.4,1.5-0.6,2.4-0.6c0.9,0,1.7,0.2,2.4,0.6
			s1.3,1,1.7,1.8c0.4,0.8,0.6,1.6,0.6,2.5C203.2,365,203,365.8,202.6,366.6z M201.1,362.3c-0.3-0.5-0.6-0.9-1.1-1.2
			c-0.5-0.3-1-0.4-1.5-0.4s-1.1,0.1-1.5,0.4c-0.5,0.3-0.8,0.7-1.1,1.2c-0.3,0.5-0.4,1.1-0.4,1.7c0,0.6,0.1,1.2,0.4,1.7
			s0.6,0.9,1.1,1.2c0.5,0.3,1,0.4,1.5,0.4s1.1-0.1,1.5-0.4c0.5-0.3,0.8-0.7,1.1-1.2c0.3-0.5,0.4-1.1,0.4-1.7
			C201.5,363.4,201.4,362.8,201.1,362.3z"/>
		<path class="st5" d="M206.8,368.5c-0.2,0.2-0.4,0.3-0.6,0.3c-0.2,0-0.4-0.1-0.6-0.3s-0.2-0.4-0.2-0.6v-11.6c0-0.2,0.1-0.4,0.3-0.6
			c0.2-0.2,0.4-0.3,0.6-0.3s0.4,0.1,0.6,0.3c0.2,0.2,0.2,0.4,0.2,0.6v11.6C207.1,368.2,207,368.4,206.8,368.5z"/>
		<path class="st5" d="M217.6,364.3c-0.2,0.2-0.4,0.2-0.6,0.2h-6.3c0.1,0.9,0.4,1.6,1,2.1c0.6,0.5,1.3,0.8,2.1,0.8
			c0.6,0,1-0.1,1.4-0.3c0.4-0.2,0.7-0.4,1-0.6c0.2-0.1,0.4-0.2,0.5-0.2c0.2,0,0.4,0.1,0.5,0.2c0.1,0.1,0.2,0.3,0.2,0.5
			c0,0.3-0.1,0.5-0.4,0.7c-0.3,0.3-0.8,0.6-1.4,0.9c-0.6,0.2-1.2,0.4-1.8,0.4c-1,0-1.8-0.2-2.6-0.6c-0.7-0.4-1.3-1-1.7-1.7
			c-0.4-0.7-0.6-1.6-0.6-2.5c0-1,0.2-1.9,0.6-2.7c0.4-0.8,1-1.3,1.6-1.8c0.7-0.4,1.4-0.6,2.2-0.6c0.8,0,1.5,0.2,2.2,0.6
			c0.7,0.4,1.2,0.9,1.6,1.6c0.4,0.7,0.6,1.5,0.6,2.3C217.9,363.9,217.8,364.1,217.6,364.3z M211.7,361.3c-0.5,0.4-0.8,1-1,1.8h5.3
			v-0.1c-0.1-0.6-0.3-1.2-0.9-1.6c-0.5-0.4-1.1-0.6-1.7-0.6C212.8,360.7,212.2,360.9,211.7,361.3z"/>
		<path class="st5" d="M219.8,368.5c-0.1-0.2-0.2-0.4-0.2-0.7v-0.3c0-0.3,0.1-0.5,0.2-0.7c0.2-0.2,0.4-0.2,0.7-0.2h0.2
			c0.3,0,0.5,0.1,0.7,0.2c0.1,0.2,0.2,0.4,0.2,0.7v0.3c0,0.6-0.3,0.9-0.9,0.9h-0.2C220.2,368.8,219.9,368.7,219.8,368.5z"/>
		<path class="st5" d="M230.3,359.6c0.6,0.3,0.9,0.7,0.9,1.2c0,0.2-0.1,0.4-0.2,0.5s-0.3,0.2-0.5,0.2c-0.2,0-0.3,0-0.4-0.1
			s-0.2-0.1-0.4-0.2c-0.1-0.1-0.2-0.2-0.3-0.3c-0.1-0.1-0.3-0.1-0.6-0.2s-0.5-0.1-0.7-0.1c-0.6,0-1.2,0.1-1.7,0.4s-0.9,0.7-1.1,1.2
			c-0.3,0.5-0.4,1.1-0.4,1.7c0,0.6,0.1,1.2,0.4,1.7c0.3,0.5,0.6,0.9,1.1,1.2c0.5,0.3,1,0.4,1.6,0.4c0.6,0,1.1-0.1,1.5-0.3
			c0.1,0,0.2-0.1,0.3-0.2c0.1-0.1,0.2-0.2,0.3-0.2s0.2-0.1,0.3-0.1c0.2,0,0.4,0.1,0.6,0.2c0.1,0.2,0.2,0.3,0.2,0.6
			c0,0.3-0.2,0.5-0.5,0.7c-0.3,0.2-0.7,0.4-1.3,0.6c-0.5,0.2-1.1,0.2-1.7,0.2c-0.9,0-1.7-0.2-2.4-0.6s-1.2-1-1.6-1.8
			c-0.4-0.8-0.6-1.6-0.6-2.5c0-0.9,0.2-1.8,0.6-2.5s0.9-1.3,1.7-1.8c0.7-0.4,1.5-0.6,2.4-0.6C228.9,359.1,229.7,359.3,230.3,359.6z"
			/>
		<path class="st5" d="M241.4,366.6c-0.4,0.7-1,1.3-1.7,1.7c-0.7,0.4-1.5,0.6-2.4,0.6c-0.9,0-1.7-0.2-2.4-0.6s-1.3-1-1.7-1.7
			c-0.4-0.7-0.6-1.6-0.6-2.5c0-0.9,0.2-1.8,0.6-2.5c0.4-0.8,1-1.3,1.7-1.8s1.5-0.6,2.4-0.6c0.9,0,1.7,0.2,2.4,0.6
			c0.7,0.4,1.3,1,1.7,1.8c0.4,0.8,0.6,1.6,0.6,2.5C242,365,241.8,365.8,241.4,366.6z M239.9,362.3c-0.3-0.5-0.6-0.9-1.1-1.2
			c-0.5-0.3-1-0.4-1.5-0.4s-1.1,0.1-1.5,0.4c-0.5,0.3-0.8,0.7-1.1,1.2c-0.3,0.5-0.4,1.1-0.4,1.7c0,0.6,0.1,1.2,0.4,1.7
			c0.3,0.5,0.6,0.9,1.1,1.2c0.5,0.3,1,0.4,1.5,0.4s1.1-0.1,1.5-0.4c0.5-0.3,0.8-0.7,1.1-1.2s0.4-1.1,0.4-1.7
			C240.3,363.4,240.2,362.8,239.9,362.3z"/>
	</g>
</g>
<rect x="485.6" y="211.9" class="st0" width="46.8" height="46.8"/>
<rect x="438.8" y="212.5" class="st24" width="46.8" height="45.8"/>
<g>
	<g>
		<path class="st5" d="M465.5,230.7l-3.9,5.5v4.9c0,0.2-0.1,0.4-0.2,0.6s-0.4,0.3-0.6,0.3c-0.2,0-0.4-0.1-0.6-0.3
			c-0.2-0.2-0.3-0.4-0.3-0.6V236l-3.9-5.2c-0.2-0.2-0.3-0.4-0.3-0.6c0-0.2,0.1-0.4,0.3-0.6c0.2-0.2,0.4-0.3,0.6-0.3
			c0.3,0,0.5,0.1,0.7,0.4l3.4,4.7l3.3-4.7c0.2-0.3,0.4-0.4,0.7-0.4c0.2,0,0.4,0.1,0.6,0.3c0.2,0.2,0.3,0.4,0.3,0.6
			C465.6,230.3,465.6,230.5,465.5,230.7z"/>
	</g>
</g>
<g>
	<g>
		<path class="st5" d="M515.2,229.5c0.1,0.2,0.2,0.3,0.2,0.6V241c0,0.3-0.1,0.5-0.2,0.6s-0.4,0.3-0.6,0.3c-0.1,0-0.3,0-0.4-0.1
			c-0.1,0-0.2-0.1-0.3-0.2l-7.1-9.2v8.7c0,0.2-0.1,0.4-0.2,0.6c-0.2,0.1-0.3,0.2-0.6,0.2c-0.2,0-0.4-0.1-0.6-0.2
			c-0.1-0.2-0.2-0.3-0.2-0.6v-10.9c0-0.3,0.1-0.5,0.2-0.6c0.2-0.2,0.4-0.2,0.6-0.2c0.1,0,0.3,0,0.4,0.1c0.1,0.1,0.2,0.1,0.3,0.2
			l7.1,9.2v-8.7c0-0.2,0.1-0.4,0.2-0.6s0.3-0.2,0.6-0.2C514.9,229.3,515.1,229.4,515.2,229.5z"/>
	</g>
</g>
<rect x="72.7" y="212.4" class="st10" width="286.1" height="13.2"/>
<rect x="72.7" y="244.2" class="st10" width="286.1" height="13.2"/>
<rect x="72.7" y="275.1" class="st10" width="286.1" height="13.2"/>
<line class="st7" x1="612.7" y1="147.5" x2="612.7" y2="632.2"/>
<rect x="72.7" y="436" class="st10" width="286.1" height="13.2"/>
<rect x="72.7" y="467.8" class="st10" width="286.1" height="13.2"/>
<rect x="72.7" y="498.7" class="st10" width="286.1" height="13.2"/>
<polygon class="st10" points="86.6,572 97.7,552.8 75.5,552.8 "/>
<line class="st7" x1="1067.2" y1="18.3" x2="1067.2" y2="147.5"/>
<g>
	<polygon class="st6" points="1172.5,44.9 1086.7,44.9 1086.7,107.9 1105.1,107.9 1102,120.8 1126.6,107.9 1172.5,107.9 	"/>
</g>
<g>
	<g>
		<circle class="st6" cx="1129.5" cy="93.8" r="2.7"/>
		<path class="st6" d="M1131.9,61h-4.8v-6.2c0-1.3,1.1-2.4,2.4-2.4l0,0c1.3,0,2.4,1.1,2.4,2.4V61z"/>
		<path class="st6" d="M1143,87.8V74.4c0-7.4-6-13.4-13.4-13.4s-13.4,6-13.4,13.4v13.4c-0.7,1.6-1.4,3.3-2,4.9c10.5,0,20.9,0,31.4,0
			C1144.7,91.1,1143.9,89.5,1143,87.8z"/>
	</g>
</g>
<g>
	<g>
		<path class="st5" d="M512.9,452.4c0.1,0.2,0.2,0.3,0.2,0.6v10.9c0,0.3-0.1,0.5-0.2,0.6s-0.4,0.3-0.6,0.3c-0.1,0-0.3,0-0.4-0.1
			c-0.1,0-0.2-0.1-0.3-0.2l-7.1-9.2v8.7c0,0.2-0.1,0.4-0.2,0.6c-0.2,0.1-0.3,0.2-0.6,0.2c-0.2,0-0.4-0.1-0.6-0.2
			c-0.1-0.2-0.2-0.3-0.2-0.6V453c0-0.3,0.1-0.5,0.2-0.6c0.2-0.2,0.4-0.2,0.6-0.2c0.1,0,0.3,0,0.4,0.1c0.1,0.1,0.2,0.1,0.3,0.2
			l7.1,9.2V453c0-0.2,0.1-0.4,0.2-0.6c0.2-0.2,0.3-0.2,0.6-0.2C512.5,452.2,512.7,452.2,512.9,452.4z"/>
	</g>
</g>
</svg>
