<?xml version="1.0" encoding="utf-8"?>
<!-- Generator: Adobe Illustrator 22.1.0, SVG Export Plug-In . SVG Version: 6.00 Build 0)  -->
<svg version="1.1" id="Layer_1" xmlns="http://www.w3.org/2000/svg" xmlns:xlink="http://www.w3.org/1999/xlink" x="0px" y="0px"
	 viewBox="0 0 840.7 819" style="enable-background:new 0 0 840.7 819;" xml:space="preserve">
<style type="text/css">
	.st0{fill:#FFD433;}
	.st1{fill:none;stroke:#26293C;stroke-width:1.2;stroke-miterlimit:10;}
	.st2{fill:none;stroke:#26293C;stroke-width:5;stroke-miterlimit:10;}
	.st3{fill:none;stroke:#F2F2F2;stroke-width:1.2;stroke-miterlimit:10;}
	.st4{fill:#D9DBDA;}
	.st5{fill:#26293C;}
	.st6{fill:#FFD433;stroke:#26293C;stroke-width:2;stroke-miterlimit:10;}
	.st7{fill:none;stroke:#26293C;stroke-width:1.2003;stroke-miterlimit:10;}
	.st8{fill:none;stroke:#FFD433;stroke-width:0.7434;stroke-miterlimit:10;}
	.st9{fill:none;stroke:#F2F2F2;stroke-width:1.3726;stroke-miterlimit:10;}
	.st10{fill:#F2F2F2;}
	.st11{fill:none;stroke:#26293C;stroke-width:2;stroke-miterlimit:10;}
	.st12{fill:#E5E5E5;stroke:#F2F2F2;stroke-width:1.072;stroke-miterlimit:10;}
	.st13{fill:none;stroke:#F2F2F2;stroke-width:1.4033;stroke-miterlimit:10;}
	.st14{fill:none;stroke:#FFD433;stroke-width:0.7838;stroke-miterlimit:10;}
	.st15{fill:none;stroke:#FFD433;stroke-miterlimit:10;}
	.st16{fill:none;stroke:#F2F2F2;stroke-width:3;stroke-miterlimit:10;}
	.st17{fill:#FFD433;stroke:#26293C;stroke-width:1.8525;stroke-miterlimit:10;}
	.st18{fill:none;stroke:#F2F2F2;stroke-width:1.3001;stroke-miterlimit:10;}
	.st19{fill:none;stroke:#F2F2F2;stroke-width:2.0632;stroke-miterlimit:10;}
	.st20{fill:#FFFFFF;stroke:#26293C;stroke-width:2;stroke-miterlimit:10;}
	.st21{fill:#EDEDED;}
	.st22{fill:#FFD433;stroke:#26293C;stroke-width:1.8509;stroke-miterlimit:10;}
	.st23{fill:none;stroke:#26293C;stroke-width:0.9518;stroke-miterlimit:10;}
	.st24{fill:none;stroke:#FFD433;stroke-width:0.8168;stroke-miterlimit:10;}
	.st25{fill:none;stroke:#26293C;stroke-width:0.9076;stroke-miterlimit:10;}
	.st26{fill:none;stroke:#D9DBDA;stroke-miterlimit:10;}
	.st27{fill:none;stroke:#F2F2F2;stroke-width:1.3998;stroke-miterlimit:10;}
	.st28{fill:none;stroke:#000000;stroke-width:2;stroke-miterlimit:10;}
	.st29{fill:#FFD433;stroke:#26293C;stroke-width:1.9864;stroke-miterlimit:10;}
	.st30{fill:none;stroke:#F2F2F2;stroke-width:1.3708;stroke-miterlimit:10;}
	.st31{fill:none;stroke:#26293C;stroke-width:4.7102;stroke-miterlimit:10;}
	.st32{fill:#FFFFFF;stroke:#26293C;stroke-width:1.2;stroke-miterlimit:10;}
	.st33{fill:none;stroke:#FFD433;stroke-width:3;stroke-miterlimit:10;}
	.st34{fill:none;stroke:#D9DBDA;stroke-width:3;stroke-miterlimit:10;}
</style>
<line class="st7" x1="811.5" y1="153.2" x2="22.5" y2="153.2"/>
<rect x="22.5" y="26.8" transform="matrix(-1 -1.224647e-16 1.224647e-16 -1 834.0302 816.0912)" class="st2" width="789" height="762.5"/>
<line class="st27" x1="82.2" y1="719" x2="745.7" y2="719"/>
<line class="st27" x1="82.2" y1="668.6" x2="745.7" y2="668.6"/>
<line class="st27" x1="82.2" y1="619.6" x2="745.7" y2="619.6"/>
<line class="st27" x1="85" y1="566.5" x2="748.5" y2="566.5"/>
<line class="st27" x1="85" y1="516.1" x2="748.5" y2="516.1"/>
<line class="st27" x1="85" y1="467.2" x2="748.5" y2="467.2"/>
<rect x="150.8" y="614.3" class="st4" width="37.8" height="104"/>
<rect x="204" y="532.7" class="st21" width="37.8" height="186.3"/>
<rect x="257.2" y="585.6" class="st21" width="37.8" height="132.8"/>
<rect x="310.4" y="483.1" class="st21" width="37.8" height="235.3"/>
<rect x="363.6" y="448.1" class="st21" width="37.8" height="270.3"/>
<rect x="416.1" y="585.9" class="st21" width="37.8" height="132.8"/>
<rect x="469.3" y="532.4" class="st21" width="37.8" height="186.3"/>
<rect x="522.5" y="528.5" class="st21" width="37.8" height="189.7"/>
<rect x="575.7" y="551.7" class="st21" width="37.8" height="166.4"/>
<rect x="628.8" y="559.7" class="st21" width="37.8" height="158.5"/>
<rect x="150.8" y="586.2" class="st21" width="37.8" height="45.6"/>
<rect x="204" y="590.1" class="st4" width="37.8" height="128.8"/>
<rect x="257.2" y="632" class="st4" width="37.8" height="86.6"/>
<rect x="310.4" y="526.8" class="st4" width="37.8" height="191.4"/>
<rect x="363.6" y="545.7" class="st4" width="37.8" height="172.5"/>
<rect x="416.1" y="643.7" class="st4" width="37.8" height="74.8"/>
<rect x="469.3" y="559.7" class="st4" width="37.8" height="158.5"/>
<rect x="522.5" y="658.9" class="st4" width="37.8" height="59.6"/>
<rect x="575.7" y="676.1" class="st4" width="37.8" height="42.1"/>
<rect x="628.8" y="624.6" class="st4" width="37.8" height="93.7"/>
<g>
	<g>
		<path class="st5" d="M86.3,86.2c0,0.5-0.2,1.1-0.6,1.6c-0.4,0.5-0.9,0.8-1.6,0.8c-0.4,0-0.9-0.1-1.3-0.3c-1.2-0.6-2.6-0.9-4-0.9
			c-1.8,0-3.3,0.4-4.6,1.1c-1.3,0.7-2.3,1.8-3,3.2c-0.7,1.4-1.1,2.9-1.1,4.7c0,3,0.8,5.3,2.4,6.8c1.6,1.5,3.7,2.3,6.3,2.3
			c1.5,0,2.9-0.3,4-0.9c0.5-0.2,0.9-0.3,1.2-0.3c0.7,0,1.2,0.3,1.7,0.8c0.4,0.5,0.6,1,0.6,1.6c0,0.4-0.1,0.8-0.3,1.1
			c-0.2,0.3-0.5,0.6-0.9,0.8c-2,1-4.1,1.5-6.3,1.5c-2.5,0-4.8-0.5-6.8-1.6c-2.1-1.1-3.7-2.6-5-4.7c-1.2-2.1-1.9-4.5-1.9-7.4
			c0-2.6,0.6-4.9,1.8-7c1.2-2.1,2.8-3.7,4.9-4.8c2.1-1.2,4.4-1.7,7-1.7c2.3,0,4.3,0.5,6.3,1.5C85.9,84.7,86.3,85.3,86.3,86.2z"/>
		<path class="st5" d="M108.1,104.9c-0.9,1.6-2.2,2.9-3.7,3.7c-1.6,0.9-3.3,1.3-5.2,1.3c-1.9,0-3.7-0.4-5.2-1.3
			c-1.6-0.9-2.8-2.1-3.7-3.7c-0.9-1.6-1.4-3.4-1.4-5.5c0-2,0.5-3.8,1.4-5.5s2.2-2.9,3.7-3.8c1.6-0.9,3.3-1.3,5.2-1.3
			c1.9,0,3.6,0.5,5.2,1.3c1.6,0.9,2.8,2.2,3.7,3.8c0.9,1.6,1.4,3.4,1.4,5.5C109.5,101.5,109,103.3,108.1,104.9z M104.2,96.1
			c-0.5-1-1.2-1.7-2.1-2.3c-0.9-0.5-1.8-0.8-2.9-0.8c-1.1,0-2,0.3-2.9,0.8c-0.9,0.5-1.6,1.3-2.1,2.3s-0.8,2.1-0.8,3.3
			c0,1.2,0.3,2.3,0.8,3.3s1.2,1.7,2.1,2.2c0.9,0.5,1.8,0.8,2.9,0.8c1.1,0,2-0.3,2.9-0.8c0.9-0.5,1.6-1.3,2.1-2.2s0.8-2.1,0.8-3.3
			C104.9,98.2,104.7,97.1,104.2,96.1z"/>
		<path class="st5" d="M142,91.2c1,1.5,1.4,3.7,1.4,6.4v9.7c0,0.7-0.2,1.2-0.6,1.7s-1,0.7-1.6,0.7c-0.7,0-1.2-0.2-1.6-0.7
			c-0.4-0.4-0.6-1-0.6-1.7v-9.7c0-1.4-0.3-2.5-0.8-3.3s-1.5-1.2-2.9-1.2c-1.4,0-2.5,0.4-3.3,1.3c-0.8,0.8-1.2,1.9-1.2,3.2v9.7
			c0,0.7-0.2,1.2-0.6,1.7c-0.4,0.4-1,0.7-1.6,0.7c-0.7,0-1.2-0.2-1.6-0.7s-0.6-1-0.6-1.7v-9.7c0-1.4-0.3-2.5-0.8-3.3
			s-1.5-1.2-2.9-1.2c-1.4,0-2.5,0.4-3.3,1.3c-0.8,0.8-1.2,1.9-1.2,3.2v9.7c0,0.7-0.2,1.2-0.6,1.7s-1,0.7-1.6,0.7s-1.2-0.2-1.6-0.7
			c-0.4-0.4-0.6-1-0.6-1.7V91.6c0-0.7,0.2-1.2,0.6-1.7c0.4-0.4,1-0.7,1.6-0.7s1.2,0.2,1.6,0.7s0.6,1,0.6,1.7v0.6
			c0.7-0.9,1.6-1.7,2.6-2.3c1.1-0.6,2.2-1,3.5-1c3.2,0,5.2,1.4,6.1,4.2c0.6-1.1,1.5-2,2.6-2.9s2.5-1.3,4-1.3
			C139.3,88.9,141,89.7,142,91.2z"/>
		<path class="st5" d="M163.6,90.2c1.4,0.9,2.5,2.1,3.4,3.7c0.8,1.6,1.2,3.4,1.2,5.4c0,2-0.4,3.8-1.2,5.5c-0.8,1.6-1.9,2.9-3.3,3.8
			s-3,1.3-4.7,1.3c-1.2,0-2.4-0.2-3.4-0.7c-1.1-0.5-2-1.1-2.7-1.8v7.4c0,0.7-0.2,1.2-0.6,1.7s-1,0.7-1.6,0.7c-0.7,0-1.2-0.2-1.6-0.6
			c-0.4-0.4-0.6-1-0.6-1.7V91.6c0-0.7,0.2-1.2,0.6-1.7s1-0.7,1.6-0.7c0.7,0,1.2,0.2,1.6,0.7s0.6,1,0.6,1.7v0.2
			c0.6-0.8,1.5-1.4,2.5-2c1.1-0.6,2.2-0.9,3.4-0.9C160.6,88.9,162.2,89.3,163.6,90.2z M162.3,104c1-1.2,1.6-2.7,1.6-4.6
			c0-1.8-0.5-3.3-1.5-4.5c-1-1.2-2.4-1.8-4-1.8s-3,0.6-4,1.8c-1,1.2-1.6,2.7-1.6,4.5c0,1.8,0.5,3.3,1.6,4.6c1,1.2,2.4,1.8,4,1.8
			C159.9,105.8,161.2,105.2,162.3,104z"/>
		<path class="st5" d="M190.1,89.5c0.4,0.4,0.6,1,0.6,1.7v16.1c0,0.7-0.2,1.2-0.6,1.7s-1,0.7-1.6,0.7c-0.7,0-1.2-0.2-1.6-0.6
			c-0.4-0.4-0.6-1-0.7-1.6c-0.6,0.7-1.5,1.4-2.6,1.9c-1.1,0.5-2.2,0.8-3.4,0.8c-1.7,0-3.3-0.4-4.8-1.3c-1.4-0.9-2.5-2.1-3.4-3.7
			c-0.8-1.6-1.2-3.4-1.2-5.4c0-2,0.4-3.8,1.2-5.5s1.9-2.9,3.3-3.8c1.4-0.9,3-1.3,4.7-1.3c1.2,0,2.4,0.2,3.4,0.7s2,1,2.7,1.7v0
			c0-0.7,0.2-1.2,0.6-1.7c0.4-0.4,1-0.7,1.6-0.7C189.1,88.9,189.7,89.1,190.1,89.5z M184.8,104c1-1.2,1.6-2.7,1.6-4.5
			c0-1.8-0.5-3.3-1.6-4.6s-2.4-1.8-4-1.8c-1.6,0-3,0.6-4,1.8c-1,1.2-1.6,2.7-1.6,4.6c0,1.8,0.5,3.3,1.5,4.5c1,1.2,2.4,1.8,4,1.8
			C182.4,105.8,183.8,105.2,184.8,104z"/>
		<path class="st5" d="M208.2,89.5c0.5,0.4,0.8,0.9,0.8,1.5c0,0.8-0.2,1.4-0.6,1.8c-0.4,0.4-0.9,0.6-1.4,0.6c-0.4,0-0.8-0.1-1.3-0.3
			c-0.1,0-0.2-0.1-0.5-0.2c-0.3-0.1-0.6-0.1-0.9-0.1c-0.7,0-1.3,0.2-1.9,0.6c-0.6,0.4-1.1,1-1.5,1.8c-0.4,0.8-0.6,1.8-0.6,2.9v9
			c0,0.7-0.2,1.2-0.6,1.7s-1,0.7-1.6,0.7s-1.2-0.2-1.6-0.7c-0.4-0.4-0.6-1-0.6-1.7V91.6c0-0.7,0.2-1.2,0.6-1.7
			c0.4-0.4,1-0.7,1.6-0.7s1.2,0.2,1.6,0.7s0.6,1,0.6,1.7v0.5c0.6-1,1.4-1.8,2.5-2.4c1.1-0.5,2.3-0.8,3.5-0.8
			C207,88.9,207.6,89.1,208.2,89.5z"/>
		<path class="st5" d="M228.9,100.4c-0.5,0.4-1,0.6-1.6,0.6h-12.5c0.3,1.5,1,2.7,2.1,3.5c1.1,0.8,2.3,1.3,3.7,1.3
			c1,0,1.8-0.1,2.4-0.3c0.6-0.2,1-0.4,1.4-0.6c0.3-0.2,0.6-0.4,0.7-0.4c0.5-0.2,0.9-0.3,1.3-0.3c0.5,0,1,0.2,1.4,0.6
			c0.4,0.4,0.6,0.8,0.6,1.3c0,0.7-0.4,1.3-1.1,1.9c-0.7,0.6-1.7,1.1-2.8,1.5c-1.2,0.4-2.4,0.6-3.6,0.6c-2.1,0-4-0.4-5.6-1.3
			c-1.6-0.9-2.8-2.1-3.7-3.7c-0.9-1.6-1.3-3.3-1.3-5.3c0-2.2,0.5-4.1,1.4-5.7c0.9-1.6,2.1-2.9,3.6-3.8s3.1-1.3,4.8-1.3
			c1.7,0,3.2,0.5,4.7,1.4s2.7,2.1,3.6,3.7c0.9,1.5,1.3,3.2,1.3,5C229.6,99.6,229.3,100.1,228.9,100.4z M214.8,97.2h10v-0.3
			c-0.1-1.1-0.6-2-1.6-2.7c-0.9-0.8-2-1.1-3.2-1.1C217,93.1,215.3,94.5,214.8,97.2z"/>
		<path class="st5" d="M262.1,89.5c0.4,0.4,0.6,1,0.6,1.7v16.1c0,0.7-0.2,1.2-0.6,1.7s-1,0.7-1.6,0.7s-1.2-0.2-1.6-0.6
			c-0.4-0.4-0.6-1-0.7-1.6c-0.6,0.7-1.5,1.4-2.6,1.9c-1.1,0.5-2.2,0.8-3.4,0.8c-1.7,0-3.3-0.4-4.8-1.3c-1.4-0.9-2.5-2.1-3.4-3.7
			c-0.8-1.6-1.2-3.4-1.2-5.4c0-2,0.4-3.8,1.2-5.5s1.9-2.9,3.3-3.8c1.4-0.9,3-1.3,4.7-1.3c1.2,0,2.4,0.2,3.4,0.7c1.1,0.4,2,1,2.7,1.7
			v0c0-0.7,0.2-1.2,0.6-1.7c0.4-0.4,1-0.7,1.6-0.7S261.7,89.1,262.1,89.5z M256.8,104c1-1.2,1.6-2.7,1.6-4.5c0-1.8-0.5-3.3-1.6-4.6
			c-1-1.2-2.4-1.8-4-1.8c-1.6,0-3,0.6-4,1.8c-1,1.2-1.6,2.7-1.6,4.6c0,1.8,0.5,3.3,1.5,4.5c1,1.2,2.4,1.8,4,1.8
			C254.4,105.8,255.8,105.2,256.8,104z"/>
		<path class="st5" d="M283.9,91.2c1,1.5,1.5,3.7,1.5,6.4v9.7c0,0.7-0.2,1.2-0.6,1.7c-0.4,0.4-1,0.7-1.6,0.7c-0.7,0-1.2-0.2-1.6-0.7
			s-0.6-1-0.6-1.7v-9.7c0-1.4-0.3-2.5-0.9-3.3c-0.6-0.8-1.6-1.2-3-1.2c-1.5,0-2.6,0.4-3.5,1.3s-1.3,1.9-1.3,3.2v9.7
			c0,0.7-0.2,1.2-0.6,1.7c-0.4,0.4-1,0.7-1.6,0.7c-0.7,0-1.2-0.2-1.6-0.7c-0.4-0.4-0.6-1-0.6-1.7V91.6c0-0.7,0.2-1.2,0.6-1.7
			c0.4-0.4,1-0.7,1.6-0.7c0.7,0,1.2,0.2,1.6,0.7c0.4,0.4,0.6,1,0.6,1.7v0.6c0.7-0.9,1.6-1.7,2.7-2.4c1.1-0.7,2.3-1,3.6-1
			C281.1,88.9,282.9,89.7,283.9,91.2z"/>
		<path class="st5" d="M308.4,89.5c0.4,0.4,0.6,1,0.6,1.7v16.1c0,0.7-0.2,1.2-0.6,1.7s-1,0.7-1.6,0.7c-0.7,0-1.2-0.2-1.6-0.6
			c-0.4-0.4-0.6-1-0.7-1.6c-0.6,0.7-1.5,1.4-2.6,1.9c-1.1,0.5-2.2,0.8-3.4,0.8c-1.7,0-3.3-0.4-4.8-1.3c-1.4-0.9-2.5-2.1-3.4-3.7
			c-0.8-1.6-1.2-3.4-1.2-5.4c0-2,0.4-3.8,1.2-5.5s1.9-2.9,3.3-3.8c1.4-0.9,3-1.3,4.7-1.3c1.2,0,2.4,0.2,3.4,0.7s2,1,2.7,1.7v0
			c0-0.7,0.2-1.2,0.6-1.7c0.4-0.4,1-0.7,1.6-0.7C307.5,88.9,308,89.1,308.4,89.5z M303.1,104c1-1.2,1.6-2.7,1.6-4.5
			c0-1.8-0.5-3.3-1.6-4.6s-2.4-1.8-4-1.8c-1.6,0-3,0.6-4,1.8c-1,1.2-1.6,2.7-1.6,4.6c0,1.8,0.5,3.3,1.5,4.5c1,1.2,2.4,1.8,4,1.8
			C300.8,105.8,302.1,105.2,303.1,104z"/>
		<path class="st5" d="M318.3,108.9c-0.4,0.4-1,0.7-1.7,0.7c-0.6,0-1.2-0.2-1.6-0.7c-0.4-0.4-0.6-1-0.6-1.7V83.8
			c0-0.7,0.2-1.2,0.7-1.7c0.4-0.4,1-0.7,1.7-0.7c0.6,0,1.2,0.2,1.6,0.7c0.4,0.4,0.6,1,0.6,1.7v23.5
			C319,107.9,318.7,108.5,318.3,108.9z"/>
		<path class="st5" d="M340.4,89.9c0.4,0.4,0.6,1,0.6,1.7v16.1c0,3.3-0.9,5.7-2.7,7.2c-1.8,1.5-4.1,2.3-7.1,2.3
			c-0.9,0-1.7-0.1-2.6-0.2c-0.9-0.1-1.6-0.3-2.2-0.6c-1.2-0.5-1.9-1.3-1.9-2.2c0-0.2,0-0.4,0.1-0.6c0.2-0.6,0.4-1,0.8-1.3
			c0.4-0.3,0.8-0.4,1.2-0.4c0.3,0,0.5,0,0.7,0.1c0.2,0.1,0.5,0.2,0.9,0.4c0.4,0.2,0.9,0.3,1.4,0.4c0.5,0.1,1,0.2,1.5,0.2
			c1.8,0,3.1-0.4,4-1.2c0.8-0.8,1.3-2.1,1.3-4v-0.4c-1.3,1.6-3.4,2.5-6.2,2.5c-1.3,0-2.5-0.3-3.5-0.9c-1-0.6-1.8-1.5-2.4-2.6
			c-0.6-1.1-0.8-2.4-0.8-3.8V91.6c0-0.7,0.2-1.2,0.6-1.7s1-0.7,1.6-0.7c0.7,0,1.2,0.2,1.6,0.7c0.4,0.4,0.6,1,0.6,1.7v9.7
			c0,1.6,0.3,2.7,1,3.4c0.7,0.7,1.7,1,3.1,1c1.3,0,2.3-0.4,3.1-1.2c0.7-0.8,1.1-1.9,1.1-3.3v-9.7c0-0.7,0.2-1.2,0.6-1.7
			c0.4-0.4,1-0.7,1.6-0.7C339.4,89.3,340,89.5,340.4,89.9z"/>
		<path class="st5" d="M344.1,105.3c0-0.7,0.3-1.2,1-1.7c0.4-0.2,0.7-0.3,1.1-0.3c0.5,0,1,0.2,1.5,0.7c0.8,0.8,1.6,1.4,2.4,1.7
			s1.8,0.6,3,0.6c2-0.1,3-0.8,3-2.2c0-0.7-0.3-1.3-1-1.7c-0.7-0.4-1.7-0.8-3.1-1.1c-1.5-0.4-2.7-0.8-3.6-1.2c-0.9-0.4-1.7-1-2.4-1.8
			c-0.7-0.8-1-1.9-1-3.3c0-1.2,0.3-2.3,1-3.2c0.7-0.9,1.6-1.6,2.7-2.1c1.1-0.5,2.3-0.7,3.6-0.7c1.3,0,2.6,0.2,3.9,0.7
			c1.3,0.5,2.3,1.2,3,2.1c0.3,0.4,0.5,0.9,0.5,1.4c0,0.6-0.2,1.1-0.7,1.4c-0.4,0.3-0.8,0.4-1.2,0.4c-0.6,0-1-0.2-1.4-0.5
			c-0.5-0.6-1-1-1.8-1.3c-0.7-0.3-1.5-0.5-2.5-0.5c-1.9,0-2.9,0.7-2.9,2.1c0,0.6,0.2,1,0.5,1.3s0.8,0.6,1.3,0.8s1.3,0.4,2.3,0.7
			c1.4,0.4,2.5,0.8,3.4,1.2c0.9,0.4,1.7,1,2.3,1.9s1,1.9,1,3.3c0,1.2-0.4,2.3-1.1,3.2c-0.7,0.9-1.7,1.6-2.8,2.1
			c-1.2,0.5-2.3,0.7-3.6,0.7c-1.7,0-3.2-0.3-4.7-0.8c-1.4-0.6-2.6-1.5-3.5-2.7C344.2,106.1,344.1,105.8,344.1,105.3z"/>
		<path class="st5" d="M364.1,86.4c-0.4-0.3-0.5-0.8-0.5-1.5v-0.7c0-0.7,0.2-1.2,0.6-1.5c0.4-0.3,1-0.4,1.8-0.4
			c0.9,0,1.5,0.1,1.9,0.4c0.4,0.3,0.5,0.8,0.5,1.5v0.7c0,0.7-0.2,1.2-0.6,1.5c-0.4,0.3-1,0.4-1.9,0.4
			C365.1,86.8,364.5,86.7,364.1,86.4z M367.6,108.9c-0.4,0.4-1,0.7-1.6,0.7c-0.7,0-1.2-0.2-1.6-0.7c-0.4-0.4-0.6-1-0.6-1.7V91.6
			c0-0.7,0.2-1.2,0.6-1.7c0.4-0.4,1-0.7,1.6-0.7c0.7,0,1.2,0.2,1.6,0.7c0.4,0.4,0.6,1,0.6,1.7v15.7
			C368.2,107.9,368,108.5,367.6,108.9z"/>
		<path class="st5" d="M371.4,105.3c0-0.7,0.3-1.2,1-1.7c0.4-0.2,0.7-0.3,1.1-0.3c0.5,0,1,0.2,1.5,0.7c0.8,0.8,1.6,1.4,2.4,1.7
			c0.8,0.4,1.8,0.6,3,0.6c2-0.1,3-0.8,3-2.2c0-0.7-0.3-1.3-1-1.7c-0.7-0.4-1.7-0.8-3.1-1.1c-1.5-0.4-2.7-0.8-3.6-1.2
			c-0.9-0.4-1.7-1-2.4-1.8s-1-1.9-1-3.3c0-1.2,0.3-2.3,1-3.2c0.7-0.9,1.6-1.6,2.7-2.1c1.1-0.5,2.3-0.7,3.6-0.7
			c1.3,0,2.6,0.2,3.9,0.7c1.3,0.5,2.3,1.2,3,2.1c0.3,0.4,0.5,0.9,0.5,1.4c0,0.6-0.2,1.1-0.7,1.4c-0.4,0.3-0.8,0.4-1.2,0.4
			c-0.6,0-1-0.2-1.4-0.5c-0.5-0.6-1-1-1.8-1.3c-0.7-0.3-1.5-0.5-2.5-0.5c-1.9,0-2.9,0.7-2.9,2.1c0,0.6,0.2,1,0.5,1.3
			c0.4,0.3,0.8,0.6,1.3,0.8c0.5,0.2,1.3,0.4,2.3,0.7c1.4,0.4,2.5,0.8,3.4,1.2c0.9,0.4,1.7,1,2.3,1.9c0.6,0.8,1,1.9,1,3.3
			c0,1.2-0.4,2.3-1.1,3.2c-0.7,0.9-1.7,1.6-2.8,2.1c-1.2,0.5-2.3,0.7-3.6,0.7c-1.7,0-3.2-0.3-4.7-0.8c-1.4-0.6-2.6-1.5-3.5-2.7
			C371.5,106.1,371.4,105.8,371.4,105.3z"/>
	</g>
</g>
<rect x="150.8" y="565.1" class="st0" width="37.8" height="24.8"/>
<rect x="204" y="469.1" class="st0" width="37.8" height="63.8"/>
<rect x="257.2" y="561.6" class="st0" width="37.8" height="24.8"/>
<rect x="310.4" y="448.1" class="st0" width="37.8" height="34.4"/>
<rect x="416.1" y="560.8" class="st0" width="37.8" height="24.8"/>
<rect x="363.6" y="448.1" class="st0" width="37.8" height="24.8"/>
<rect x="469.3" y="499.5" class="st0" width="37.8" height="33.5"/>
<rect x="522.5" y="526.8" class="st0" width="37.8" height="59.7"/>
<rect x="575.7" y="537.4" class="st0" width="37.8" height="32.3"/>
<rect x="628.8" y="559.7" class="st0" width="37.8" height="33"/>
<line class="st7" x1="685.2" y1="25.6" x2="685.2" y2="153.2"/>
<rect x="67" y="236.2" class="st0" width="23" height="23"/>
<rect x="67" y="278.4" class="st21" width="23" height="23"/>
<g>
	<g>
		<path class="st5" d="M111,244.1c0.7,0.4,1.2,1,1.6,1.7s0.6,1.6,0.6,2.5c0,0.9-0.2,1.8-0.6,2.5c-0.4,0.8-0.9,1.3-1.6,1.8
			s-1.4,0.6-2.2,0.6c-0.6,0-1.2-0.1-1.7-0.4c-0.5-0.3-1-0.6-1.3-1v0.5c0,0.2-0.1,0.4-0.2,0.6s-0.4,0.3-0.6,0.3
			c-0.2,0-0.4-0.1-0.6-0.2s-0.2-0.4-0.2-0.6v-11.7c0-0.3,0.1-0.5,0.2-0.6c0.2-0.2,0.4-0.2,0.6-0.2s0.5,0.1,0.6,0.3s0.2,0.4,0.2,0.6
			v4.4c0.3-0.4,0.7-0.8,1.3-1.1c0.6-0.3,1.1-0.5,1.8-0.5C109.6,243.5,110.4,243.7,111,244.1z M110.1,251.3c0.4-0.3,0.8-0.7,1-1.2
			c0.2-0.5,0.4-1.1,0.4-1.7s-0.1-1.2-0.4-1.7s-0.6-0.9-1-1.2c-0.4-0.3-0.9-0.4-1.5-0.4c-0.6,0-1.1,0.1-1.5,0.4
			c-0.4,0.3-0.8,0.7-1,1.2s-0.4,1.1-0.4,1.7s0.1,1.2,0.4,1.7s0.6,0.9,1,1.2c0.4,0.3,0.9,0.4,1.5,0.4
			C109.2,251.7,109.7,251.6,110.1,251.3z"/>
		<path class="st5" d="M120.6,243.7c0.2,0.2,0.3,0.4,0.3,0.6c0,0.3-0.1,0.5-0.2,0.7c-0.1,0.2-0.3,0.2-0.5,0.2c-0.1,0-0.3,0-0.5-0.1
			c-0.3-0.1-0.5-0.1-0.6-0.1c-0.4,0-0.7,0.1-1.1,0.4c-0.4,0.3-0.6,0.6-0.9,1.1c-0.2,0.5-0.3,1-0.3,1.5v4.3c0,0.2-0.1,0.4-0.2,0.6
			s-0.4,0.3-0.6,0.3s-0.5-0.1-0.6-0.2s-0.2-0.4-0.2-0.6v-7.7c0-0.2,0.1-0.4,0.2-0.6c0.2-0.2,0.4-0.3,0.6-0.3c0.3,0,0.5,0.1,0.6,0.3
			c0.2,0.2,0.2,0.4,0.2,0.6v0.9c0.3-0.6,0.7-1.1,1.2-1.4c0.5-0.4,1.1-0.6,1.8-0.6C120.1,243.5,120.4,243.5,120.6,243.7z"/>
		<path class="st5" d="M130.6,243.8c0.2,0.2,0.2,0.4,0.2,0.6v7.8c0,0.2-0.1,0.4-0.2,0.6s-0.4,0.3-0.6,0.3s-0.5-0.1-0.6-0.2
			c-0.2-0.2-0.2-0.4-0.2-0.6v-0.5c-0.3,0.4-0.7,0.8-1.3,1.1c-0.5,0.3-1.1,0.4-1.7,0.4c-0.8,0-1.6-0.2-2.2-0.6s-1.2-1-1.6-1.8
			s-0.6-1.6-0.6-2.5c0-0.9,0.2-1.8,0.6-2.5c0.4-0.7,0.9-1.3,1.6-1.8c0.7-0.4,1.4-0.6,2.2-0.6c0.6,0,1.2,0.1,1.8,0.4
			c0.5,0.3,1,0.6,1.3,1v-0.4c0-0.3,0.1-0.5,0.2-0.6c0.2-0.2,0.4-0.3,0.6-0.3S130.4,243.6,130.6,243.8z M127.8,251.3
			c0.4-0.3,0.8-0.7,1-1.2c0.2-0.5,0.4-1.1,0.4-1.7c0-0.6-0.1-1.2-0.4-1.7c-0.2-0.5-0.6-0.9-1-1.2c-0.4-0.3-0.9-0.4-1.5-0.4
			c-0.6,0-1.1,0.1-1.5,0.4c-0.4,0.3-0.8,0.7-1,1.2s-0.4,1.1-0.4,1.7c0,0.6,0.1,1.2,0.4,1.7s0.6,0.9,1,1.2c0.4,0.3,0.9,0.4,1.5,0.4
			C126.9,251.7,127.4,251.6,127.8,251.3z"/>
		<path class="st5" d="M141.4,247.3v4.9c0,0.2-0.1,0.4-0.2,0.6s-0.4,0.3-0.6,0.3c-0.2,0-0.4-0.1-0.6-0.3s-0.2-0.4-0.2-0.6v-4.9
			c0-0.7-0.2-1.3-0.5-1.7c-0.3-0.4-0.9-0.6-1.6-0.6c-0.5,0-0.9,0.1-1.3,0.3s-0.7,0.5-0.9,0.8c-0.2,0.4-0.3,0.7-0.3,1.2v4.9
			c0,0.2-0.1,0.4-0.2,0.6s-0.4,0.3-0.6,0.3s-0.5-0.1-0.6-0.2c-0.2-0.2-0.2-0.4-0.2-0.6v-7.7c0-0.2,0.1-0.4,0.2-0.6
			c0.2-0.2,0.4-0.3,0.6-0.3c0.3,0,0.5,0.1,0.6,0.3c0.2,0.2,0.2,0.4,0.2,0.6v0.6c0.3-0.5,0.7-0.9,1.3-1.2c0.6-0.3,1.2-0.5,1.8-0.5
			C140.4,243.5,141.4,244.7,141.4,247.3z"/>
		<path class="st5" d="M152.3,240c0.2,0.2,0.2,0.4,0.2,0.6v11.6c0,0.2-0.1,0.4-0.2,0.6c-0.2,0.2-0.4,0.3-0.6,0.3
			c-0.3,0-0.5-0.1-0.6-0.2s-0.2-0.4-0.2-0.6v-0.5c-0.3,0.4-0.7,0.8-1.3,1.1c-0.5,0.3-1.1,0.5-1.8,0.5c-0.8,0-1.6-0.2-2.2-0.6
			c-0.7-0.4-1.2-1-1.6-1.8c-0.4-0.8-0.6-1.6-0.6-2.5c0-0.9,0.2-1.8,0.6-2.5c0.4-0.7,0.9-1.3,1.6-1.8c0.7-0.4,1.4-0.6,2.2-0.6
			c0.6,0,1.2,0.1,1.8,0.4c0.5,0.3,1,0.6,1.3,1v-4.2c0-0.3,0.1-0.5,0.2-0.6s0.4-0.2,0.6-0.2C151.9,239.8,152.1,239.9,152.3,240z
			 M149.5,251.3c0.4-0.3,0.8-0.7,1-1.2c0.2-0.5,0.4-1.1,0.4-1.7c0-0.6-0.1-1.2-0.4-1.7c-0.2-0.5-0.6-0.9-1-1.2
			c-0.4-0.3-0.9-0.4-1.5-0.4s-1.1,0.1-1.5,0.4c-0.4,0.3-0.8,0.7-1,1.2c-0.2,0.5-0.4,1.1-0.4,1.7c0,0.6,0.1,1.2,0.4,1.7
			c0.2,0.5,0.6,0.9,1,1.2s0.9,0.4,1.5,0.4S149,251.6,149.5,251.3z"/>
		<path class="st5" d="M163.4,240.8c0.1,0.2,0.2,0.4,0.2,0.6v10.9c0,0.2-0.1,0.4-0.3,0.6c-0.2,0.2-0.4,0.3-0.7,0.3
			c-0.3,0-0.5-0.1-0.6-0.3c-0.2-0.2-0.3-0.4-0.3-0.6v-9.4l-1.6,1c-0.1,0.1-0.3,0.1-0.5,0.1c-0.2,0-0.4-0.1-0.6-0.3
			c-0.2-0.2-0.3-0.4-0.3-0.6c0-0.1,0-0.3,0.1-0.4c0.1-0.1,0.2-0.2,0.3-0.3l2.8-1.7c0.2-0.1,0.4-0.1,0.6-0.1
			C163,240.5,163.2,240.6,163.4,240.8z"/>
	</g>
</g>
<g>
	<g>
		<path class="st5" d="M111,285.9c0.7,0.4,1.2,1,1.6,1.7s0.6,1.6,0.6,2.5c0,0.9-0.2,1.8-0.6,2.5c-0.4,0.8-0.9,1.3-1.6,1.8
			s-1.4,0.6-2.2,0.6c-0.6,0-1.2-0.1-1.7-0.4c-0.5-0.3-1-0.6-1.3-1v0.5c0,0.2-0.1,0.4-0.2,0.6s-0.4,0.3-0.6,0.3
			c-0.2,0-0.4-0.1-0.6-0.2s-0.2-0.4-0.2-0.6v-11.7c0-0.3,0.1-0.5,0.2-0.6c0.2-0.2,0.4-0.2,0.6-0.2s0.5,0.1,0.6,0.3s0.2,0.4,0.2,0.6
			v4.4c0.3-0.4,0.7-0.8,1.3-1.1c0.6-0.3,1.1-0.5,1.8-0.5C109.6,285.3,110.4,285.5,111,285.9z M110.1,293.1c0.4-0.3,0.8-0.7,1-1.2
			c0.2-0.5,0.4-1.1,0.4-1.7s-0.1-1.2-0.4-1.7s-0.6-0.9-1-1.2c-0.4-0.3-0.9-0.4-1.5-0.4c-0.6,0-1.1,0.1-1.5,0.4
			c-0.4,0.3-0.8,0.7-1,1.2s-0.4,1.1-0.4,1.7s0.1,1.2,0.4,1.7s0.6,0.9,1,1.2c0.4,0.3,0.9,0.4,1.5,0.4
			C109.2,293.5,109.7,293.4,110.1,293.1z"/>
		<path class="st5" d="M120.6,285.5c0.2,0.2,0.3,0.4,0.3,0.6c0,0.3-0.1,0.5-0.2,0.7c-0.1,0.2-0.3,0.2-0.5,0.2c-0.1,0-0.3,0-0.5-0.1
			c-0.3-0.1-0.5-0.1-0.6-0.1c-0.4,0-0.7,0.1-1.1,0.4c-0.4,0.3-0.6,0.6-0.9,1.1c-0.2,0.5-0.3,1-0.3,1.5v4.3c0,0.2-0.1,0.4-0.2,0.6
			s-0.4,0.3-0.6,0.3s-0.5-0.1-0.6-0.2s-0.2-0.4-0.2-0.6v-7.7c0-0.2,0.1-0.4,0.2-0.6c0.2-0.2,0.4-0.3,0.6-0.3c0.3,0,0.5,0.1,0.6,0.3
			c0.2,0.2,0.2,0.4,0.2,0.6v0.9c0.3-0.6,0.7-1.1,1.2-1.4c0.5-0.4,1.1-0.6,1.8-0.6C120.1,285.3,120.4,285.4,120.6,285.5z"/>
		<path class="st5" d="M130.6,285.6c0.2,0.2,0.2,0.4,0.2,0.6v7.8c0,0.2-0.1,0.4-0.2,0.6s-0.4,0.3-0.6,0.3s-0.5-0.1-0.6-0.2
			c-0.2-0.2-0.2-0.4-0.2-0.6v-0.5c-0.3,0.4-0.7,0.8-1.3,1.1c-0.5,0.3-1.1,0.4-1.7,0.4c-0.8,0-1.6-0.2-2.2-0.6s-1.2-1-1.6-1.8
			s-0.6-1.6-0.6-2.5c0-0.9,0.2-1.8,0.6-2.5c0.4-0.7,0.9-1.3,1.6-1.8c0.7-0.4,1.4-0.6,2.2-0.6c0.6,0,1.2,0.1,1.8,0.4
			c0.5,0.3,1,0.6,1.3,1v-0.4c0-0.3,0.1-0.5,0.2-0.6c0.2-0.2,0.4-0.3,0.6-0.3S130.4,285.4,130.6,285.6z M127.8,293.1
			c0.4-0.3,0.8-0.7,1-1.2c0.2-0.5,0.4-1.1,0.4-1.7c0-0.6-0.1-1.2-0.4-1.7c-0.2-0.5-0.6-0.9-1-1.2c-0.4-0.3-0.9-0.4-1.5-0.4
			c-0.6,0-1.1,0.1-1.5,0.4c-0.4,0.3-0.8,0.7-1,1.2s-0.4,1.1-0.4,1.7c0,0.6,0.1,1.2,0.4,1.7s0.6,0.9,1,1.2c0.4,0.3,0.9,0.4,1.5,0.4
			C126.9,293.5,127.4,293.4,127.8,293.1z"/>
		<path class="st5" d="M141.4,289.2v4.9c0,0.2-0.1,0.4-0.2,0.6s-0.4,0.3-0.6,0.3c-0.2,0-0.4-0.1-0.6-0.3s-0.2-0.4-0.2-0.6v-4.9
			c0-0.7-0.2-1.3-0.5-1.7c-0.3-0.4-0.9-0.6-1.6-0.6c-0.5,0-0.9,0.1-1.3,0.3s-0.7,0.5-0.9,0.8c-0.2,0.4-0.3,0.7-0.3,1.2v4.9
			c0,0.2-0.1,0.4-0.2,0.6s-0.4,0.3-0.6,0.3s-0.5-0.1-0.6-0.2c-0.2-0.2-0.2-0.4-0.2-0.6v-7.7c0-0.2,0.1-0.4,0.2-0.6
			c0.2-0.2,0.4-0.3,0.6-0.3c0.3,0,0.5,0.1,0.6,0.3c0.2,0.2,0.2,0.4,0.2,0.6v0.6c0.3-0.5,0.7-0.9,1.3-1.2c0.6-0.3,1.2-0.5,1.8-0.5
			C140.4,285.3,141.4,286.6,141.4,289.2z"/>
		<path class="st5" d="M152.3,281.8c0.2,0.2,0.2,0.4,0.2,0.6v11.6c0,0.2-0.1,0.4-0.2,0.6c-0.2,0.2-0.4,0.3-0.6,0.3
			c-0.3,0-0.5-0.1-0.6-0.2s-0.2-0.4-0.2-0.6v-0.5c-0.3,0.4-0.7,0.8-1.3,1.1c-0.5,0.3-1.1,0.5-1.8,0.5c-0.8,0-1.6-0.2-2.2-0.6
			c-0.7-0.4-1.2-1-1.6-1.8c-0.4-0.8-0.6-1.6-0.6-2.5c0-0.9,0.2-1.8,0.6-2.5c0.4-0.7,0.9-1.3,1.6-1.8c0.7-0.4,1.4-0.6,2.2-0.6
			c0.6,0,1.2,0.1,1.8,0.4c0.5,0.3,1,0.6,1.3,1v-4.2c0-0.3,0.1-0.5,0.2-0.6s0.4-0.2,0.6-0.2C151.9,281.6,152.1,281.7,152.3,281.8z
			 M149.5,293.1c0.4-0.3,0.8-0.7,1-1.2c0.2-0.5,0.4-1.1,0.4-1.7c0-0.6-0.1-1.2-0.4-1.7c-0.2-0.5-0.6-0.9-1-1.2
			c-0.4-0.3-0.9-0.4-1.5-0.4s-1.1,0.1-1.5,0.4c-0.4,0.3-0.8,0.7-1,1.2c-0.2,0.5-0.4,1.1-0.4,1.7c0,0.6,0.1,1.2,0.4,1.7
			c0.2,0.5,0.6,0.9,1,1.2s0.9,0.4,1.5,0.4S149,293.4,149.5,293.1z"/>
		<path class="st5" d="M167.8,293.6c0.2,0.2,0.2,0.3,0.2,0.6c0,0.2-0.1,0.4-0.2,0.6c-0.2,0.1-0.3,0.2-0.6,0.2h-6.4
			c-0.2,0-0.4-0.1-0.6-0.2c-0.2-0.1-0.2-0.4-0.2-0.6c0-0.2,0.1-0.4,0.3-0.6l4-4.4c1.1-1.2,1.7-2.2,1.7-3.2c0-0.6-0.2-1.2-0.6-1.6
			c-0.4-0.4-1-0.6-1.6-0.6c-0.4,0-0.9,0.1-1.3,0.4s-0.7,0.6-1,1.1c-0.2,0.3-0.4,0.4-0.7,0.4c-0.2,0-0.4-0.1-0.6-0.2
			c-0.2-0.2-0.3-0.3-0.3-0.5c0-0.1,0-0.3,0.1-0.4c0.1-0.1,0.2-0.3,0.4-0.5c0.4-0.5,0.9-0.9,1.5-1.3c0.6-0.3,1.2-0.5,1.9-0.5
			c0.8,0,1.5,0.2,2.1,0.5c0.6,0.3,1,0.8,1.4,1.3c0.3,0.6,0.5,1.2,0.5,1.9c0,1.4-0.7,2.9-2.2,4.5l-2.7,3h4.5
			C167.4,293.3,167.6,293.4,167.8,293.6z"/>
	</g>
</g>
<rect x="67" y="320.7" class="st4" width="23" height="23"/>
<g>
	<g>
		<path class="st5" d="M111,329.6c0.7,0.4,1.2,1,1.6,1.7s0.6,1.6,0.6,2.5c0,0.9-0.2,1.8-0.6,2.5s-0.9,1.3-1.6,1.8
			c-0.7,0.4-1.4,0.6-2.2,0.6c-0.6,0-1.2-0.1-1.7-0.4c-0.5-0.3-1-0.6-1.3-1v0.5c0,0.2-0.1,0.4-0.2,0.6s-0.4,0.3-0.6,0.3
			c-0.2,0-0.4-0.1-0.6-0.2c-0.2-0.2-0.2-0.4-0.2-0.6v-11.7c0-0.3,0.1-0.5,0.2-0.6c0.2-0.2,0.4-0.2,0.6-0.2s0.5,0.1,0.6,0.3
			s0.2,0.4,0.2,0.6v4.4c0.3-0.4,0.7-0.8,1.3-1.1c0.6-0.3,1.1-0.5,1.8-0.5C109.6,328.9,110.4,329.2,111,329.6z M110.1,336.7
			c0.4-0.3,0.8-0.7,1-1.2s0.4-1.1,0.4-1.7s-0.1-1.2-0.4-1.7c-0.2-0.5-0.6-0.9-1-1.2c-0.4-0.3-0.9-0.4-1.5-0.4
			c-0.6,0-1.1,0.1-1.5,0.4s-0.8,0.7-1,1.2c-0.2,0.5-0.4,1.1-0.4,1.7c0,0.6,0.1,1.2,0.4,1.7s0.6,0.9,1,1.2s0.9,0.4,1.5,0.4
			C109.2,337.2,109.7,337,110.1,336.7z"/>
		<path class="st5" d="M120.6,329.2c0.2,0.2,0.3,0.4,0.3,0.6c0,0.3-0.1,0.5-0.2,0.7c-0.1,0.2-0.3,0.2-0.5,0.2c-0.1,0-0.3,0-0.5-0.1
			c-0.3-0.1-0.5-0.1-0.6-0.1c-0.4,0-0.7,0.1-1.1,0.4c-0.4,0.3-0.6,0.6-0.9,1.1c-0.2,0.5-0.3,1-0.3,1.5v4.3c0,0.2-0.1,0.4-0.2,0.6
			s-0.4,0.3-0.6,0.3s-0.5-0.1-0.6-0.2c-0.2-0.2-0.2-0.4-0.2-0.6V330c0-0.2,0.1-0.4,0.2-0.6s0.4-0.3,0.6-0.3c0.3,0,0.5,0.1,0.6,0.3
			s0.2,0.4,0.2,0.6v0.9c0.3-0.6,0.7-1.1,1.2-1.4c0.5-0.4,1.1-0.6,1.8-0.6C120.1,328.9,120.4,329,120.6,329.2z"/>
		<path class="st5" d="M130.6,329.3c0.2,0.2,0.2,0.4,0.2,0.6v7.8c0,0.2-0.1,0.4-0.2,0.6s-0.4,0.3-0.6,0.3s-0.5-0.1-0.6-0.2
			c-0.2-0.2-0.2-0.4-0.2-0.6v-0.5c-0.3,0.4-0.7,0.8-1.3,1.1c-0.5,0.3-1.1,0.4-1.7,0.4c-0.8,0-1.6-0.2-2.2-0.6
			c-0.7-0.4-1.2-1-1.6-1.8c-0.4-0.7-0.6-1.6-0.6-2.5c0-0.9,0.2-1.8,0.6-2.5s0.9-1.3,1.6-1.8c0.7-0.4,1.4-0.6,2.2-0.6
			c0.6,0,1.2,0.1,1.8,0.4c0.5,0.3,1,0.6,1.3,1v-0.4c0-0.3,0.1-0.5,0.2-0.6c0.2-0.2,0.4-0.3,0.6-0.3S130.4,329.1,130.6,329.3z
			 M127.8,336.8c0.4-0.3,0.8-0.7,1-1.2c0.2-0.5,0.4-1.1,0.4-1.7c0-0.6-0.1-1.2-0.4-1.7c-0.2-0.5-0.6-0.9-1-1.2
			c-0.4-0.3-0.9-0.4-1.5-0.4c-0.6,0-1.1,0.1-1.5,0.4c-0.4,0.3-0.8,0.7-1,1.2c-0.2,0.5-0.4,1.1-0.4,1.7c0,0.6,0.1,1.2,0.4,1.7
			s0.6,0.9,1,1.2c0.4,0.3,0.9,0.4,1.5,0.4C126.9,337.2,127.4,337,127.8,336.8z"/>
		<path class="st5" d="M141.4,332.8v4.9c0,0.2-0.1,0.4-0.2,0.6s-0.4,0.3-0.6,0.3c-0.2,0-0.4-0.1-0.6-0.3s-0.2-0.4-0.2-0.6v-4.9
			c0-0.7-0.2-1.3-0.5-1.7s-0.9-0.6-1.6-0.6c-0.5,0-0.9,0.1-1.3,0.3s-0.7,0.5-0.9,0.8c-0.2,0.4-0.3,0.7-0.3,1.2v4.9
			c0,0.2-0.1,0.4-0.2,0.6s-0.4,0.3-0.6,0.3s-0.5-0.1-0.6-0.2c-0.2-0.2-0.2-0.4-0.2-0.6V330c0-0.2,0.1-0.4,0.2-0.6s0.4-0.3,0.6-0.3
			c0.3,0,0.5,0.1,0.6,0.3s0.2,0.4,0.2,0.6v0.6c0.3-0.5,0.7-0.9,1.3-1.2c0.6-0.3,1.2-0.5,1.8-0.5
			C140.4,328.9,141.4,330.2,141.4,332.8z"/>
		<path class="st5" d="M152.3,325.5c0.2,0.2,0.2,0.4,0.2,0.6v11.6c0,0.2-0.1,0.4-0.2,0.6c-0.2,0.2-0.4,0.3-0.6,0.3
			c-0.3,0-0.5-0.1-0.6-0.2c-0.2-0.2-0.2-0.4-0.2-0.6v-0.5c-0.3,0.4-0.7,0.8-1.3,1.1c-0.5,0.3-1.1,0.5-1.8,0.5
			c-0.8,0-1.6-0.2-2.2-0.6c-0.7-0.4-1.2-1-1.6-1.8c-0.4-0.7-0.6-1.6-0.6-2.5c0-0.9,0.2-1.8,0.6-2.5c0.4-0.8,0.9-1.3,1.6-1.8
			c0.7-0.4,1.4-0.6,2.2-0.6c0.6,0,1.2,0.1,1.8,0.4c0.5,0.3,1,0.6,1.3,1v-4.2c0-0.3,0.1-0.5,0.2-0.6c0.2-0.2,0.4-0.2,0.6-0.2
			C151.9,325.3,152.1,325.4,152.3,325.5z M149.5,336.8c0.4-0.3,0.8-0.7,1-1.2c0.2-0.5,0.4-1.1,0.4-1.7c0-0.6-0.1-1.2-0.4-1.7
			c-0.2-0.5-0.6-0.9-1-1.2s-0.9-0.4-1.5-0.4s-1.1,0.1-1.5,0.4s-0.8,0.7-1,1.2c-0.2,0.5-0.4,1.1-0.4,1.7c0,0.6,0.1,1.2,0.4,1.7
			c0.2,0.5,0.6,0.9,1,1.2s0.9,0.4,1.5,0.4S149,337,149.5,336.8z"/>
		<path class="st5" d="M165.5,331.1c0.5,0.3,1,0.8,1.3,1.4c0.3,0.6,0.5,1.2,0.5,2c0,0.9-0.2,1.6-0.6,2.3c-0.4,0.6-0.9,1.1-1.6,1.5
			s-1.5,0.5-2.4,0.5c-0.5,0-0.9-0.1-1.4-0.2s-0.8-0.3-1.2-0.6c-0.3-0.2-0.5-0.4-0.5-0.7c0-0.2,0.1-0.4,0.2-0.6
			c0.2-0.2,0.4-0.3,0.6-0.3c0.2,0,0.4,0.1,0.6,0.2c0.5,0.5,1.1,0.7,1.9,0.7c0.5,0,0.9-0.1,1.3-0.3c0.4-0.2,0.7-0.5,1-0.9
			c0.2-0.4,0.4-0.9,0.4-1.4c0-0.8-0.2-1.4-0.7-1.8c-0.5-0.4-1.1-0.6-1.7-0.6c-0.2,0-0.5,0-0.8,0.1c-0.3,0.1-0.5,0.1-0.6,0.1
			c-0.2,0-0.4-0.1-0.5-0.2c-0.1-0.2-0.2-0.3-0.2-0.6c0-0.1,0-0.2,0.1-0.3s0.1-0.2,0.2-0.3l3.1-3.4h-4.2c-0.2,0-0.4-0.1-0.6-0.2
			c-0.2-0.2-0.2-0.3-0.2-0.6c0-0.2,0.1-0.4,0.2-0.6c0.2-0.1,0.3-0.2,0.6-0.2h5.7c0.3,0,0.5,0.1,0.6,0.3s0.2,0.4,0.2,0.6
			c0,0.2-0.1,0.4-0.3,0.7l-2.8,3.1C164.4,330.6,165,330.8,165.5,331.1z"/>
	</g>
</g>
<g>
	<g>
		<path class="st5" d="M692.4,273.6c0.6,0.4,1.1,0.9,1.4,1.5c0.4,0.6,0.5,1.3,0.5,2.1c0,0.7-0.2,1.4-0.5,2.1
			c-0.4,0.6-0.9,1.1-1.5,1.5c-0.6,0.4-1.3,0.6-2.1,0.6c-0.9,0-1.6-0.2-2.2-0.7s-1.1-1-1.4-1.7s-0.5-1.5-0.5-2.3
			c0-0.9,0.2-1.9,0.5-3.1c0.4-1.1,1-2.1,1.8-3.1c0.8-1,1.9-1.6,3.2-2c0.1,0,0.2-0.1,0.3-0.1c0.3,0,0.5,0.1,0.6,0.2
			c0.2,0.1,0.2,0.3,0.2,0.6c0,0.2-0.1,0.4-0.2,0.5c-0.1,0.2-0.3,0.3-0.5,0.3c-0.8,0.3-1.6,0.8-2.3,1.5c-0.7,0.7-1.2,1.6-1.5,2.5
			c0.7-0.7,1.5-1,2.4-1C691.2,273,691.8,273.2,692.4,273.6z M691.9,279c0.5-0.5,0.7-1.1,0.7-1.8c0-0.7-0.2-1.3-0.7-1.8
			c-0.4-0.5-1-0.7-1.7-0.7c-0.7,0-1.3,0.3-1.8,0.7s-0.7,1.1-0.7,1.8c0,0.7,0.2,1.3,0.7,1.8c0.5,0.5,1,0.7,1.8,0.7
			C690.9,279.7,691.5,279.5,691.9,279z"/>
		<path class="st5" d="M698.1,282c-0.2,0.4-0.4,0.7-0.7,1c-0.3,0.3-0.6,0.4-0.9,0.4c-0.2,0-0.4-0.1-0.5-0.2
			c-0.1-0.1-0.2-0.2-0.2-0.4c0-0.2,0-0.3,0.1-0.4c0.1-0.1,0.2-0.1,0.3-0.2c0.1,0,0.2-0.1,0.3-0.1c0.2-0.1,0.3-0.2,0.4-0.3
			s0.1-0.3,0.1-0.5c0-0.1-0.1-0.2-0.2-0.3s-0.2-0.1-0.4-0.1c-0.2,0-0.4,0-0.5,0.1c-0.1-0.1-0.2-0.1-0.3-0.2
			c-0.1-0.1-0.1-0.2-0.1-0.4c0-0.3,0.2-0.5,0.5-0.8c0.3-0.2,0.6-0.3,1-0.3c0.4,0,0.8,0.1,1,0.4c0.3,0.3,0.4,0.7,0.4,1.2
			C698.4,281.3,698.3,281.6,698.1,282z"/>
		<path class="st5" d="M706.5,268.9c0.6,0.4,1.1,1,1.4,1.7s0.5,1.5,0.5,2.3c0,0.9-0.2,1.9-0.5,3c-0.4,1.1-0.9,2.1-1.8,3.1
			c-0.8,0.9-1.9,1.6-3.2,2c-0.1,0-0.2,0.1-0.3,0.1c-0.2,0-0.4-0.1-0.6-0.2c-0.2-0.1-0.3-0.3-0.3-0.6c0-0.2,0.1-0.4,0.2-0.5
			c0.1-0.2,0.3-0.3,0.5-0.3c0.9-0.3,1.6-0.8,2.4-1.5c0.7-0.7,1.2-1.5,1.5-2.4c-0.7,0.7-1.5,1-2.4,1c-0.7,0-1.3-0.2-1.9-0.6
			c-0.6-0.4-1.1-0.9-1.4-1.5c-0.4-0.6-0.5-1.3-0.5-2.1c0-0.7,0.2-1.4,0.5-2c0.4-0.6,0.9-1.1,1.5-1.5c0.6-0.4,1.3-0.6,2.1-0.6
			C705.1,268.3,705.9,268.5,706.5,268.9z M706,274.2c0.5-0.5,0.7-1.1,0.7-1.8c0-0.7-0.2-1.3-0.7-1.8c-0.5-0.5-1-0.7-1.8-0.7
			c-0.7,0-1.2,0.2-1.7,0.7c-0.5,0.5-0.7,1.1-0.7,1.8c0,0.7,0.2,1.3,0.7,1.8c0.4,0.5,1,0.7,1.7,0.7
			C704.9,274.9,705.5,274.7,706,274.2z"/>
		<path class="st5" d="M712.2,280.4c-0.7-0.6-1.2-1.3-1.6-2.3c-0.4-1-0.5-2.1-0.5-3.4c0-1.3,0.2-2.4,0.5-3.4c0.4-1,0.9-1.7,1.6-2.3
			c0.7-0.6,1.5-0.8,2.5-0.8c1,0,1.8,0.3,2.5,0.8c0.7,0.6,1.2,1.3,1.6,2.3c0.4,1,0.5,2.1,0.5,3.4c0,1.3-0.2,2.4-0.5,3.4
			c-0.4,1-0.9,1.7-1.6,2.3c-0.7,0.6-1.5,0.8-2.5,0.8C713.7,281.3,712.8,281,712.2,280.4z M716.7,278.3c0.5-0.8,0.7-2,0.7-3.5
			c0-1.5-0.2-2.7-0.7-3.5s-1.2-1.2-2-1.2s-1.6,0.4-2,1.2s-0.7,2-0.7,3.5c0,1.5,0.2,2.7,0.7,3.5s1.2,1.2,2,1.2
			S716.2,279.1,716.7,278.3z"/>
		<path class="st5" d="M729.1,279.7c0.2,0.2,0.2,0.3,0.2,0.6c0,0.2-0.1,0.4-0.2,0.6c-0.2,0.1-0.3,0.2-0.6,0.2h-6.4
			c-0.2,0-0.4-0.1-0.6-0.2c-0.2-0.2-0.2-0.4-0.2-0.6c0-0.2,0.1-0.4,0.3-0.6l4-4.4c1.1-1.2,1.7-2.2,1.7-3.2c0-0.6-0.2-1.2-0.6-1.6
			c-0.4-0.4-1-0.6-1.6-0.6c-0.4,0-0.9,0.1-1.3,0.4c-0.4,0.3-0.7,0.6-1,1.1c-0.2,0.3-0.4,0.4-0.7,0.4c-0.2,0-0.4-0.1-0.6-0.2
			c-0.2-0.2-0.3-0.3-0.3-0.5c0-0.1,0-0.3,0.1-0.4c0.1-0.1,0.2-0.3,0.4-0.5c0.4-0.5,0.9-0.9,1.5-1.3c0.6-0.3,1.2-0.5,1.9-0.5
			c0.8,0,1.5,0.2,2.1,0.5c0.6,0.3,1,0.8,1.4,1.3c0.3,0.6,0.5,1.2,0.5,1.9c0,1.4-0.7,2.9-2.2,4.5l-2.7,3h4.5
			C728.8,279.5,729,279.6,729.1,279.7z"/>
	</g>
</g>
<g>
	<g>
		<path class="st5" d="M693.5,241c0.5,0.3,1,0.8,1.3,1.4c0.3,0.6,0.5,1.2,0.5,1.9c0,0.7-0.2,1.4-0.5,2c-0.3,0.6-0.7,1.1-1.3,1.4
			c-0.5,0.3-1.1,0.5-1.8,0.5h-3.4v4c0,0.2-0.1,0.4-0.2,0.6c-0.2,0.2-0.4,0.3-0.6,0.3c-0.3,0-0.5-0.1-0.6-0.2
			c-0.2-0.2-0.2-0.4-0.2-0.6v-10.9c0-0.2,0.1-0.4,0.3-0.6s0.4-0.3,0.6-0.3h4.2C692.4,240.5,693,240.6,693.5,241z M692.6,246.3
			c0.3-0.2,0.5-0.5,0.7-0.8c0.2-0.3,0.2-0.7,0.2-1.1c0-0.6-0.2-1.1-0.5-1.6c-0.4-0.4-0.8-0.6-1.3-0.6h-3.4v4.5h3.4
			C692.1,246.6,692.4,246.5,692.6,246.3z"/>
		<path class="st5" d="M708.2,250.1c-0.5,1-1.2,1.8-2.2,2.3c-0.9,0.6-2,0.9-3.1,0.9s-2.2-0.3-3.1-0.9c-0.9-0.6-1.6-1.3-2.2-2.3
			c-0.5-1-0.8-2.1-0.8-3.3s0.3-2.3,0.8-3.3c0.5-1,1.2-1.8,2.2-2.3c0.9-0.6,2-0.9,3.1-0.9s2.2,0.3,3.1,0.9c0.9,0.6,1.6,1.3,2.2,2.3
			c0.5,1,0.8,2.1,0.8,3.3S708.7,249.1,708.2,250.1z M706.5,244.3c-0.4-0.7-0.9-1.3-1.5-1.7c-0.6-0.4-1.4-0.6-2.2-0.6
			s-1.5,0.2-2.2,0.6c-0.6,0.4-1.1,1-1.5,1.7c-0.4,0.7-0.5,1.5-0.5,2.5c0,0.9,0.2,1.7,0.5,2.4c0.4,0.7,0.9,1.3,1.5,1.7
			c0.6,0.4,1.4,0.6,2.2,0.6s1.5-0.2,2.2-0.6c0.6-0.4,1.1-1,1.5-1.7c0.4-0.7,0.5-1.5,0.5-2.4C707.1,245.9,706.9,245.1,706.5,244.3z"
			/>
		<path class="st5" d="M712.7,252.9c-0.7-0.2-1.3-0.6-1.9-1.2c-0.3-0.2-0.4-0.5-0.4-0.7c0-0.2,0.1-0.4,0.3-0.6
			c0.2-0.2,0.4-0.3,0.6-0.3c0.2,0,0.4,0.1,0.5,0.2c0.5,0.4,1,0.8,1.5,1c0.5,0.2,1.1,0.3,1.7,0.3c0.8,0,1.4-0.2,1.9-0.5
			c0.5-0.3,0.8-0.8,0.8-1.3c0-0.6-0.3-1.1-0.8-1.4c-0.5-0.3-1.3-0.6-2.3-0.9c-1.2-0.3-2.2-0.7-2.9-1.2s-1-1.4-1-2.4
			c0-0.7,0.2-1.3,0.6-1.9s0.9-0.9,1.5-1.2s1.4-0.4,2.2-0.4c0.7,0,1.4,0.1,2.1,0.4c0.7,0.2,1.2,0.6,1.6,1c0.3,0.2,0.4,0.5,0.4,0.8
			c0,0.2-0.1,0.4-0.2,0.6s-0.4,0.3-0.6,0.3c-0.2,0-0.3,0-0.4-0.1c-0.3-0.3-0.7-0.6-1.3-0.8s-1.1-0.3-1.6-0.3c-0.8,0-1.4,0.2-1.9,0.5
			c-0.5,0.3-0.7,0.8-0.7,1.3c0,0.6,0.2,1,0.7,1.3c0.5,0.3,1.2,0.6,2.1,0.8c0.9,0.2,1.7,0.4,2.3,0.7c0.6,0.3,1.1,0.7,1.4,1.2
			s0.5,1.1,0.5,1.9c0,0.7-0.2,1.3-0.6,1.9c-0.4,0.5-0.9,1-1.6,1.3s-1.4,0.5-2.2,0.5C714.1,253.2,713.4,253.1,712.7,252.9z"/>
		<path class="st5" d="M730.5,240.7c0.2,0.2,0.2,0.4,0.2,0.6s-0.1,0.5-0.2,0.6c-0.2,0.1-0.4,0.2-0.6,0.2h-3.2v10.1
			c0,0.2-0.1,0.4-0.3,0.6c-0.2,0.2-0.4,0.3-0.7,0.3c-0.3,0-0.5-0.1-0.7-0.3c-0.2-0.2-0.3-0.4-0.3-0.6v-10.1h-3.2
			c-0.3,0-0.5-0.1-0.6-0.2c-0.2-0.1-0.2-0.4-0.2-0.6c0-0.2,0.1-0.4,0.2-0.6c0.2-0.1,0.4-0.2,0.6-0.2h8.2
			C730.1,240.5,730.3,240.5,730.5,240.7z"/>
	</g>
</g>
<g>
	<path class="st6" d="M789.4,58.9h-85.8v62.9c28.6,0,57.2,0,85.8,0V58.9z"/>
</g>
<circle class="st6" cx="733.5" cy="93.6" r="20.2"/>
<path class="st6" d="M734.2,91.6L733.5,67c0.2,0,0.4,0,0.7,0c13.5,0,24.6,11.1,24.6,24.6H734.2z"/>
<line class="st6" x1="765.3" y1="68.9" x2="782.3" y2="68.9"/>
<line class="st6" x1="765.3" y1="75.3" x2="782.3" y2="75.3"/>
</svg>
