<?xml version="1.0" encoding="utf-8"?>
<!-- Generator: Adobe Illustrator 22.1.0, SVG Export Plug-In . SVG Version: 6.00 Build 0)  -->
<svg version="1.1" id="Layer_1" xmlns="http://www.w3.org/2000/svg" xmlns:xlink="http://www.w3.org/1999/xlink" x="0px" y="0px"
	 viewBox="0 0 742.5 671.4" style="enable-background:new 0 0 742.5 671.4;" xml:space="preserve">
<style type="text/css">
	.st0{fill:#FFD433;}
	.st1{fill:none;stroke:#26293C;stroke-width:1.2;stroke-miterlimit:10;}
	.st2{fill:none;stroke:#26293C;stroke-width:5;stroke-miterlimit:10;}
	.st3{fill:none;stroke:#F2F2F2;stroke-width:1.2;stroke-miterlimit:10;}
	.st4{fill:#D9DBDA;}
	.st5{fill:#26293C;}
	.st6{fill:#FFD433;stroke:#26293C;stroke-width:2;stroke-miterlimit:10;}
	.st7{fill:none;stroke:#26293C;stroke-width:1.2003;stroke-miterlimit:10;}
	.st8{fill:none;stroke:#FFD433;stroke-width:0.7434;stroke-miterlimit:10;}
	.st9{fill:none;stroke:#F2F2F2;stroke-width:1.3726;stroke-miterlimit:10;}
	.st10{fill:#F2F2F2;}
	.st11{fill:none;stroke:#26293C;stroke-width:2;stroke-miterlimit:10;}
	.st12{fill:#E5E5E5;stroke:#F2F2F2;stroke-width:1.072;stroke-miterlimit:10;}
	.st13{fill:none;stroke:#F2F2F2;stroke-width:1.4033;stroke-miterlimit:10;}
	.st14{fill:none;stroke:#FFD433;stroke-width:0.7838;stroke-miterlimit:10;}
	.st15{fill:none;stroke:#FFD433;stroke-miterlimit:10;}
	.st16{fill:none;stroke:#F2F2F2;stroke-width:3;stroke-miterlimit:10;}
	.st17{fill:#FFD433;stroke:#26293C;stroke-width:1.8525;stroke-miterlimit:10;}
	.st18{fill:none;stroke:#F2F2F2;stroke-width:1.3001;stroke-miterlimit:10;}
	.st19{fill:none;stroke:#F2F2F2;stroke-width:2.0632;stroke-miterlimit:10;}
	.st20{fill:#FFFFFF;stroke:#26293C;stroke-width:2;stroke-miterlimit:10;}
	.st21{fill:#EDEDED;}
	.st22{fill:#FFD433;stroke:#26293C;stroke-width:1.8509;stroke-miterlimit:10;}
	.st23{fill:none;stroke:#26293C;stroke-width:0.9518;stroke-miterlimit:10;}
	.st24{fill:none;stroke:#FFD433;stroke-width:0.8168;stroke-miterlimit:10;}
	.st25{fill:none;stroke:#26293C;stroke-width:0.9076;stroke-miterlimit:10;}
	.st26{fill:none;stroke:#D9DBDA;stroke-miterlimit:10;}
	.st27{fill:none;stroke:#F2F2F2;stroke-width:1.3998;stroke-miterlimit:10;}
	.st28{fill:none;stroke:#000000;stroke-width:2;stroke-miterlimit:10;}
	.st29{fill:#FFD433;stroke:#26293C;stroke-width:1.9864;stroke-miterlimit:10;}
	.st30{fill:none;stroke:#F2F2F2;stroke-width:1.3708;stroke-miterlimit:10;}
	.st31{fill:none;stroke:#26293C;stroke-width:4.7102;stroke-miterlimit:10;}
	.st32{fill:#FFFFFF;stroke:#26293C;stroke-width:1.2;stroke-miterlimit:10;}
	.st33{fill:none;stroke:#FFD433;stroke-width:3;stroke-miterlimit:10;}
	.st34{fill:none;stroke:#D9DBDA;stroke-width:3;stroke-miterlimit:10;}
</style>
<line class="st7" x1="23.7" y1="149.6" x2="717.2" y2="149.6"/>
<g>
	<g>
		<path class="st5" d="M84,102.3c0.4,0.4,0.7,1,0.7,1.5c0,0.6-0.2,1.2-0.7,1.6c-0.4,0.4-1,0.6-1.7,0.6H69.6c-0.7,0-1.2-0.2-1.7-0.7
			c-0.4-0.4-0.7-1-0.7-1.7v-22c0-0.7,0.2-1.2,0.7-1.7c0.4-0.4,1-0.7,1.7-0.7h12.7c0.7,0,1.2,0.2,1.7,0.6s0.7,1,0.7,1.6
			c0,0.6-0.2,1.1-0.6,1.5c-0.4,0.4-1,0.6-1.7,0.6H72v6.5h8.6c0.7,0,1.2,0.2,1.7,0.6s0.7,1,0.7,1.6c0,0.6-0.2,1.1-0.6,1.5
			c-0.4,0.4-1,0.6-1.7,0.6H72v7h10.3C83,101.7,83.5,101.9,84,102.3z"/>
		<path class="st5" d="M105.2,86.3c0.4,0.4,0.6,0.9,0.6,1.5c0,0.3-0.1,0.7-0.3,1.1l-7.1,15.7c-0.2,0.4-0.4,0.8-0.8,1
			c-0.3,0.3-0.7,0.4-1.2,0.4l-0.3,0c-0.4,0-0.8-0.1-1.2-0.4c-0.4-0.3-0.7-0.6-0.9-1.1L87,89c-0.2-0.4-0.3-0.8-0.3-1.2
			c0-0.5,0.2-1,0.6-1.4s1-0.6,1.6-0.6c0.5,0,0.9,0.1,1.3,0.4c0.4,0.3,0.7,0.6,0.9,1.1l5.2,12l5.2-12c0.2-0.5,0.5-0.8,0.8-1.1
			c0.4-0.3,0.7-0.4,1.2-0.3C104.3,85.8,104.8,86,105.2,86.3z"/>
		<path class="st5" d="M126.7,96.9c-0.5,0.4-1,0.6-1.6,0.6h-12.5c0.3,1.5,1,2.7,2.1,3.5c1.1,0.8,2.3,1.3,3.7,1.3
			c1,0,1.8-0.1,2.4-0.3c0.6-0.2,1-0.4,1.4-0.6c0.3-0.2,0.6-0.4,0.7-0.4c0.5-0.2,0.9-0.3,1.3-0.3c0.5,0,1,0.2,1.4,0.6
			c0.4,0.4,0.6,0.8,0.6,1.3c0,0.7-0.4,1.3-1.1,1.9c-0.7,0.6-1.7,1.1-2.9,1.5c-1.2,0.4-2.4,0.6-3.6,0.6c-2.1,0-4-0.4-5.6-1.3
			c-1.6-0.9-2.8-2.1-3.7-3.7c-0.9-1.6-1.3-3.3-1.3-5.3c0-2.2,0.5-4.1,1.4-5.7c0.9-1.6,2.1-2.9,3.6-3.8c1.5-0.9,3.1-1.3,4.8-1.3
			c1.7,0,3.3,0.5,4.7,1.4s2.7,2.1,3.6,3.7c0.9,1.5,1.3,3.2,1.3,5C127.4,96,127.2,96.5,126.7,96.9z M112.6,93.7h10v-0.3
			c-0.1-1.1-0.6-2-1.6-2.7c-0.9-0.8-2-1.1-3.2-1.1C114.9,89.5,113.2,90.9,112.6,93.7z"/>
		<path class="st5" d="M147.5,87.6c1,1.5,1.5,3.7,1.5,6.4v9.7c0,0.7-0.2,1.2-0.6,1.7c-0.4,0.4-1,0.7-1.6,0.7c-0.7,0-1.2-0.2-1.6-0.7
			s-0.6-1-0.6-1.7V94c0-1.4-0.3-2.5-0.9-3.3c-0.6-0.8-1.6-1.2-3-1.2c-1.5,0-2.6,0.4-3.5,1.3s-1.3,1.9-1.3,3.2v9.7
			c0,0.7-0.2,1.2-0.6,1.7c-0.4,0.4-1,0.7-1.6,0.7c-0.7,0-1.2-0.2-1.6-0.7c-0.4-0.4-0.6-1-0.6-1.7V88c0-0.7,0.2-1.2,0.6-1.7
			c0.4-0.4,1-0.7,1.6-0.7c0.7,0,1.2,0.2,1.6,0.7c0.4,0.4,0.6,1,0.6,1.7v0.6c0.7-0.9,1.6-1.7,2.7-2.4c1.1-0.7,2.3-1,3.6-1
			C144.7,85.3,146.5,86.1,147.5,87.6z"/>
		<path class="st5" d="M164.7,102.3c0.3,0.3,0.4,0.8,0.4,1.3c0,0.7-0.4,1.3-1.1,1.7c-0.7,0.5-1.6,0.7-2.5,0.7c-1.6,0-2.9-0.3-4-1
			c-1.1-0.7-1.6-2.1-1.6-4.3V90.3h-1.7c-0.6,0-1.1-0.2-1.5-0.6c-0.4-0.4-0.6-0.9-0.6-1.5c0-0.6,0.2-1.1,0.6-1.5
			c0.4-0.4,0.9-0.6,1.5-0.6h1.7v-2.4c0-0.7,0.2-1.2,0.7-1.7c0.4-0.4,1-0.7,1.7-0.7c0.6,0,1.2,0.2,1.6,0.7c0.4,0.4,0.6,1,0.6,1.7v2.4
			h2.7c0.6,0,1.1,0.2,1.5,0.6s0.6,0.9,0.6,1.5c0,0.6-0.2,1.1-0.6,1.5c-0.4,0.4-0.9,0.6-1.5,0.6h-2.7v10.3c0,0.5,0.1,0.9,0.4,1.2
			c0.3,0.2,0.7,0.4,1.1,0.4c0.2,0,0.5-0.1,0.8-0.2c0.3-0.1,0.6-0.2,0.9-0.2C164.1,101.8,164.4,101.9,164.7,102.3z"/>
		<path class="st5" d="M208.7,87.6c1,1.5,1.4,3.7,1.4,6.4v9.7c0,0.7-0.2,1.2-0.6,1.7c-0.4,0.4-1,0.7-1.6,0.7c-0.7,0-1.2-0.2-1.6-0.7
			c-0.4-0.4-0.6-1-0.6-1.7V94c0-1.4-0.3-2.5-0.8-3.3c-0.5-0.8-1.5-1.2-2.9-1.2c-1.4,0-2.5,0.4-3.3,1.3s-1.2,1.9-1.2,3.2v9.7
			c0,0.7-0.2,1.2-0.6,1.7c-0.4,0.4-1,0.7-1.6,0.7s-1.2-0.2-1.6-0.7s-0.6-1-0.6-1.7V94c0-1.4-0.3-2.5-0.8-3.3
			c-0.5-0.8-1.5-1.2-2.9-1.2c-1.4,0-2.5,0.4-3.3,1.3c-0.8,0.8-1.2,1.9-1.2,3.2v9.7c0,0.7-0.2,1.2-0.6,1.7s-1,0.7-1.6,0.7
			c-0.7,0-1.2-0.2-1.6-0.7s-0.6-1-0.6-1.7V88c0-0.7,0.2-1.2,0.6-1.7s1-0.7,1.6-0.7c0.7,0,1.2,0.2,1.6,0.7s0.6,1,0.6,1.7v0.6
			c0.7-0.9,1.6-1.7,2.6-2.3c1.1-0.6,2.2-1,3.5-1c3.2,0,5.2,1.4,6.1,4.2c0.6-1.1,1.5-2,2.6-2.9c1.2-0.9,2.5-1.3,4-1.3
			C206,85.3,207.8,86.1,208.7,87.6z"/>
		<path class="st5" d="M233.3,101.4c-0.9,1.6-2.2,2.9-3.7,3.7c-1.6,0.9-3.3,1.3-5.2,1.3c-1.9,0-3.7-0.4-5.2-1.3
			c-1.6-0.9-2.8-2.1-3.7-3.7c-0.9-1.6-1.4-3.4-1.4-5.5c0-2,0.5-3.8,1.4-5.5c0.9-1.6,2.2-2.9,3.7-3.8c1.6-0.9,3.3-1.3,5.2-1.3
			c1.9,0,3.6,0.5,5.2,1.3c1.6,0.9,2.8,2.2,3.7,3.8s1.4,3.4,1.4,5.5C234.7,97.9,234.2,99.8,233.3,101.4z M229.3,92.6
			c-0.5-1-1.2-1.7-2.1-2.3c-0.9-0.5-1.8-0.8-2.9-0.8c-1.1,0-2,0.3-2.9,0.8c-0.9,0.5-1.6,1.3-2.1,2.3c-0.5,1-0.8,2.1-0.8,3.3
			c0,1.2,0.3,2.3,0.8,3.3c0.5,1,1.2,1.7,2.1,2.2c0.9,0.5,1.8,0.8,2.9,0.8c1.1,0,2-0.3,2.9-0.8c0.9-0.5,1.6-1.3,2.1-2.2
			c0.5-1,0.8-2.1,0.8-3.3C230.1,94.7,229.8,93.6,229.3,92.6z"/>
		<path class="st5" d="M254.7,87.6c1,1.5,1.5,3.7,1.5,6.4v9.7c0,0.7-0.2,1.2-0.6,1.7c-0.4,0.4-1,0.7-1.6,0.7c-0.7,0-1.2-0.2-1.6-0.7
			s-0.6-1-0.6-1.7V94c0-1.4-0.3-2.5-0.9-3.3c-0.6-0.8-1.6-1.2-3-1.2c-1.5,0-2.6,0.4-3.5,1.3S243,92.7,243,94v9.7
			c0,0.7-0.2,1.2-0.6,1.7c-0.4,0.4-1,0.7-1.6,0.7c-0.7,0-1.2-0.2-1.6-0.7c-0.4-0.4-0.6-1-0.6-1.7V88c0-0.7,0.2-1.2,0.6-1.7
			c0.4-0.4,1-0.7,1.6-0.7c0.7,0,1.2,0.2,1.6,0.7c0.4,0.4,0.6,1,0.6,1.7v0.6c0.7-0.9,1.6-1.7,2.7-2.4c1.1-0.7,2.3-1,3.6-1
			C251.9,85.3,253.7,86.1,254.7,87.6z"/>
		<path class="st5" d="M261.3,82.8c-0.4-0.3-0.5-0.8-0.5-1.5v-0.7c0-0.7,0.2-1.2,0.6-1.5c0.4-0.3,1-0.4,1.8-0.4
			c0.9,0,1.5,0.1,1.9,0.4c0.4,0.3,0.5,0.8,0.5,1.5v0.7c0,0.7-0.2,1.2-0.6,1.5c-0.4,0.3-1,0.4-1.9,0.4
			C262.2,83.3,261.6,83.1,261.3,82.8z M264.7,105.4c-0.4,0.4-1,0.7-1.6,0.7s-1.2-0.2-1.6-0.7c-0.4-0.4-0.6-1-0.6-1.7V88
			c0-0.7,0.2-1.2,0.6-1.7c0.4-0.4,1-0.7,1.6-0.7s1.2,0.2,1.6,0.7s0.6,1,0.6,1.7v15.7C265.4,104.4,265.2,104.9,264.7,105.4z"/>
		<path class="st5" d="M280.8,102.3c0.3,0.3,0.4,0.8,0.4,1.3c0,0.7-0.4,1.3-1.1,1.7s-1.6,0.7-2.5,0.7c-1.6,0-2.9-0.3-4-1
			s-1.6-2.1-1.6-4.3V90.3h-1.7c-0.6,0-1.1-0.2-1.5-0.6s-0.6-0.9-0.6-1.5c0-0.6,0.2-1.1,0.6-1.5c0.4-0.4,0.9-0.6,1.5-0.6h1.7v-2.4
			c0-0.7,0.2-1.2,0.7-1.7c0.4-0.4,1-0.7,1.7-0.7c0.6,0,1.2,0.2,1.6,0.7c0.4,0.4,0.6,1,0.6,1.7v2.4h2.7c0.6,0,1.1,0.2,1.5,0.6
			c0.4,0.4,0.6,0.9,0.6,1.5c0,0.6-0.2,1.1-0.6,1.5c-0.4,0.4-0.9,0.6-1.5,0.6h-2.7v10.3c0,0.5,0.1,0.9,0.4,1.2
			c0.3,0.2,0.7,0.4,1.1,0.4c0.2,0,0.5-0.1,0.8-0.2c0.3-0.1,0.6-0.2,0.9-0.2C280.2,101.8,280.6,101.9,280.8,102.3z"/>
		<path class="st5" d="M303.6,101.4c-0.9,1.6-2.2,2.9-3.7,3.7c-1.6,0.9-3.3,1.3-5.2,1.3c-1.9,0-3.7-0.4-5.2-1.3
			c-1.6-0.9-2.8-2.1-3.7-3.7c-0.9-1.6-1.4-3.4-1.4-5.5c0-2,0.5-3.8,1.4-5.5s2.2-2.9,3.7-3.8c1.6-0.9,3.3-1.3,5.2-1.3
			c1.9,0,3.6,0.5,5.2,1.3c1.6,0.9,2.8,2.2,3.7,3.8c0.9,1.6,1.4,3.4,1.4,5.5C305,97.9,304.5,99.8,303.6,101.4z M299.6,92.6
			c-0.5-1-1.2-1.7-2.1-2.3c-0.9-0.5-1.8-0.8-2.9-0.8c-1.1,0-2,0.3-2.9,0.8c-0.9,0.5-1.6,1.3-2.1,2.3s-0.8,2.1-0.8,3.3
			c0,1.2,0.3,2.3,0.8,3.3s1.2,1.7,2.1,2.2c0.9,0.5,1.8,0.8,2.9,0.8c1.1,0,2-0.3,2.9-0.8c0.9-0.5,1.6-1.3,2.1-2.2s0.8-2.1,0.8-3.3
			C300.4,94.7,300.1,93.6,299.6,92.6z"/>
		<path class="st5" d="M321.2,86c0.5,0.4,0.8,0.9,0.8,1.5c0,0.8-0.2,1.4-0.6,1.8c-0.4,0.4-0.9,0.6-1.4,0.6c-0.4,0-0.8-0.1-1.3-0.3
			c-0.1,0-0.2-0.1-0.5-0.2c-0.3-0.1-0.6-0.1-0.9-0.1c-0.7,0-1.3,0.2-1.9,0.6c-0.6,0.4-1.1,1-1.5,1.8c-0.4,0.8-0.6,1.8-0.6,2.9v9
			c0,0.7-0.2,1.2-0.6,1.7c-0.4,0.4-1,0.7-1.6,0.7c-0.7,0-1.2-0.2-1.6-0.7s-0.6-1-0.6-1.7V88c0-0.7,0.2-1.2,0.6-1.7s1-0.7,1.6-0.7
			c0.7,0,1.2,0.2,1.6,0.7c0.4,0.4,0.6,1,0.6,1.7v0.5c0.6-1,1.4-1.8,2.5-2.4s2.3-0.8,3.5-0.8C320.1,85.3,320.7,85.6,321.2,86z"/>
		<path class="st5" d="M325.4,82.8c-0.4-0.3-0.5-0.8-0.5-1.5v-0.7c0-0.7,0.2-1.2,0.6-1.5c0.4-0.3,1-0.4,1.8-0.4
			c0.9,0,1.5,0.1,1.9,0.4c0.4,0.3,0.5,0.8,0.5,1.5v0.7c0,0.7-0.2,1.2-0.6,1.5c-0.4,0.3-1,0.4-1.9,0.4
			C326.4,83.3,325.8,83.1,325.4,82.8z M328.9,105.4c-0.4,0.4-1,0.7-1.6,0.7c-0.7,0-1.2-0.2-1.6-0.7s-0.6-1-0.6-1.7V88
			c0-0.7,0.2-1.2,0.6-1.7s1-0.7,1.6-0.7c0.7,0,1.2,0.2,1.6,0.7c0.4,0.4,0.6,1,0.6,1.7v15.7C329.5,104.4,329.3,104.9,328.9,105.4z"/>
		<path class="st5" d="M350.4,87.6c1,1.5,1.5,3.7,1.5,6.4v9.7c0,0.7-0.2,1.2-0.6,1.7s-1,0.7-1.6,0.7s-1.2-0.2-1.6-0.7
			c-0.4-0.4-0.6-1-0.6-1.7V94c0-1.4-0.3-2.5-0.9-3.3c-0.6-0.8-1.6-1.2-3-1.2c-1.5,0-2.6,0.4-3.5,1.3s-1.3,1.9-1.3,3.2v9.7
			c0,0.7-0.2,1.2-0.6,1.7c-0.4,0.4-1,0.7-1.6,0.7c-0.7,0-1.2-0.2-1.6-0.7s-0.6-1-0.6-1.7V88c0-0.7,0.2-1.2,0.6-1.7s1-0.7,1.6-0.7
			c0.7,0,1.2,0.2,1.6,0.7c0.4,0.4,0.6,1,0.6,1.7v0.6c0.7-0.9,1.6-1.7,2.7-2.4c1.1-0.7,2.3-1,3.6-1C347.7,85.3,349.4,86.1,350.4,87.6
			z"/>
		<path class="st5" d="M375.3,86c0.4,0.4,0.6,1,0.6,1.7v16.9c0,3.1-1,5.4-2.9,6.9s-4.3,2.2-7.3,2.2c-0.8,0-1.8-0.1-3.1-0.4
			c-1.3-0.3-2.3-0.5-2.8-0.8c-1.2-0.5-1.9-1.3-1.9-2.2c0-0.2,0-0.4,0.1-0.6c0.2-0.6,0.4-1,0.8-1.3c0.4-0.3,0.8-0.4,1.2-0.4
			c0.3,0,0.5,0,0.7,0.1c0.1,0,0.7,0.3,1.9,0.7c1.2,0.4,2.2,0.7,3.1,0.7c1.9,0,3.3-0.4,4.2-1.1c0.9-0.7,1.4-1.8,1.4-3.2v-1.8
			c-0.6,0.8-1.4,1.5-2.5,2.1s-2.3,1-3.6,1c-1.8,0-3.4-0.4-4.8-1.3s-2.6-2.1-3.4-3.7s-1.3-3.4-1.3-5.4c0-2,0.4-3.8,1.2-5.5
			c0.8-1.6,2-2.9,3.4-3.8c1.4-0.9,3-1.3,4.8-1.3c1.3,0,2.5,0.3,3.6,0.8c1.1,0.5,2,1.2,2.7,1.9v-0.4c0-0.7,0.2-1.2,0.6-1.7
			s1-0.7,1.6-0.7S374.9,85.6,375.3,86z M370,100.4c1.1-1.2,1.6-2.7,1.6-4.5c0-1.8-0.5-3.3-1.6-4.6s-2.5-1.8-4.2-1.8
			c-1.7,0-3.1,0.6-4.1,1.8s-1.6,2.7-1.6,4.6c0,1.8,0.5,3.3,1.6,4.5c1.1,1.2,2.4,1.8,4.1,1.8C367.5,102.3,368.9,101.7,370,100.4z"/>
	</g>
</g>
<rect x="23.7" y="19.3" class="st31" width="693.5" height="626.7"/>
<rect x="66.3" y="288.2" class="st0" width="38.4" height="38.4"/>
<g>
	<g>
		<path class="st5" d="M77.6,206.1c0.2,0.2,0.3,0.4,0.3,0.8s-0.1,0.6-0.3,0.8c-0.2,0.2-0.5,0.3-0.8,0.3h-4.1v12.9
			c0,0.3-0.1,0.6-0.3,0.8c-0.2,0.2-0.5,0.3-0.8,0.3s-0.6-0.1-0.8-0.3c-0.2-0.2-0.3-0.5-0.3-0.8v-12.9h-4.1c-0.3,0-0.6-0.1-0.8-0.3
			c-0.2-0.2-0.3-0.4-0.3-0.8c0-0.3,0.1-0.6,0.3-0.7c0.2-0.2,0.5-0.3,0.8-0.3h10.5C77.1,205.8,77.4,205.9,77.6,206.1z"/>
		<path class="st5" d="M93.7,218.1c-0.7,1.3-1.6,2.3-2.8,3c-1.2,0.7-2.5,1.1-4,1.1c-1.5,0-2.8-0.4-4-1.1c-1.2-0.7-2.1-1.7-2.8-3
			c-0.7-1.3-1-2.7-1-4.2s0.3-3,1-4.2c0.7-1.3,1.6-2.3,2.8-3c1.2-0.7,2.5-1.1,4-1.1c1.5,0,2.8,0.4,4,1.1c1.2,0.7,2.1,1.7,2.8,3
			c0.7,1.3,1,2.7,1,4.2S94.4,216.8,93.7,218.1z M91.6,210.8c-0.5-0.9-1.1-1.7-1.9-2.2s-1.8-0.8-2.8-0.8s-2,0.3-2.8,0.8
			c-0.8,0.5-1.5,1.2-1.9,2.2c-0.5,0.9-0.7,2-0.7,3.1c0,1.1,0.2,2.2,0.7,3.1c0.5,0.9,1.1,1.7,1.9,2.2c0.8,0.5,1.8,0.8,2.8,0.8
			s2-0.3,2.8-0.8c0.8-0.5,1.5-1.3,1.9-2.2c0.5-0.9,0.7-2,0.7-3.1C92.3,212.7,92.1,211.7,91.6,210.8z"/>
		<path class="st5" d="M106.3,206.5c0.7,0.4,1.2,1,1.6,1.8c0.4,0.8,0.6,1.6,0.6,2.5c0,0.9-0.2,1.7-0.6,2.5s-1,1.4-1.6,1.8
			c-0.7,0.4-1.4,0.7-2.3,0.7h-4.3v5.1c0,0.3-0.1,0.6-0.3,0.8c-0.2,0.2-0.5,0.3-0.8,0.3c-0.3,0-0.6-0.1-0.8-0.3s-0.3-0.5-0.3-0.8
			v-13.9c0-0.3,0.1-0.6,0.3-0.8c0.2-0.2,0.5-0.3,0.8-0.3h5.3C104.8,205.8,105.6,206.1,106.3,206.5z M105.2,213.3
			c0.4-0.3,0.6-0.6,0.8-1.1c0.2-0.4,0.3-0.9,0.3-1.4c0-0.8-0.2-1.4-0.7-2c-0.5-0.5-1-0.8-1.6-0.8h-4.3v5.7h4.3
			C104.4,213.7,104.8,213.5,105.2,213.3z"/>
		<path class="st5" d="M132.5,206.1c0.2,0.2,0.3,0.5,0.3,0.8v13.9c0,0.3-0.1,0.6-0.3,0.8c-0.2,0.2-0.5,0.3-0.8,0.3
			c-0.3,0-0.6-0.1-0.8-0.3s-0.3-0.5-0.3-0.8v-10.6l-4.5,6.8c-0.1,0.1-0.2,0.3-0.4,0.3c-0.2,0.1-0.3,0.1-0.5,0.1
			c-0.2,0-0.3,0-0.5-0.1c-0.2-0.1-0.3-0.2-0.4-0.3l-4.5-7v10.9c0,0.3-0.1,0.6-0.3,0.8s-0.4,0.3-0.8,0.3c-0.3,0-0.6-0.1-0.7-0.3
			s-0.3-0.5-0.3-0.8v-13.9c0-0.3,0.1-0.5,0.3-0.8c0.2-0.2,0.5-0.3,0.8-0.3c0.2,0,0.4,0,0.5,0.1c0.2,0.1,0.3,0.2,0.4,0.4l5.5,8.3
			l5.5-8.3c0.2-0.3,0.6-0.5,0.9-0.5C132,205.8,132.3,205.9,132.5,206.1z"/>
		<path class="st5" d="M146.6,220.1c0.2,0.2,0.3,0.5,0.3,0.8c0,0.3-0.1,0.6-0.3,0.7c-0.2,0.2-0.5,0.3-0.8,0.3h-8
			c-0.3,0-0.6-0.1-0.8-0.3c-0.2-0.2-0.3-0.5-0.3-0.8v-13.9c0-0.3,0.1-0.6,0.3-0.8c0.2-0.2,0.5-0.3,0.8-0.3h8c0.3,0,0.6,0.1,0.8,0.3
			s0.3,0.5,0.3,0.8c0,0.3-0.1,0.6-0.3,0.7s-0.5,0.3-0.8,0.3h-6.8v4.7h5.8c0.3,0,0.6,0.1,0.8,0.3s0.3,0.5,0.3,0.8
			c0,0.3-0.1,0.6-0.3,0.8c-0.2,0.2-0.5,0.3-0.8,0.3h-5.8v5.1h6.8C146.1,219.8,146.4,219.9,146.6,220.1z"/>
		<path class="st5" d="M161,206.1c0.2,0.2,0.3,0.4,0.3,0.8s-0.1,0.6-0.3,0.8c-0.2,0.2-0.5,0.3-0.8,0.3h-4.1v12.9
			c0,0.3-0.1,0.6-0.3,0.8c-0.2,0.2-0.5,0.3-0.8,0.3s-0.6-0.1-0.8-0.3c-0.2-0.2-0.3-0.5-0.3-0.8v-12.9h-4.1c-0.3,0-0.6-0.1-0.8-0.3
			c-0.2-0.2-0.3-0.4-0.3-0.8c0-0.3,0.1-0.6,0.3-0.7c0.2-0.2,0.5-0.3,0.8-0.3h10.5C160.5,205.8,160.8,205.9,161,206.1z"/>
		<path class="st5" d="M176.6,220.5c0.1,0.2,0.1,0.3,0.1,0.5c0,0.3-0.1,0.6-0.3,0.7c-0.2,0.2-0.5,0.2-0.7,0.2s-0.5-0.1-0.7-0.2
			c-0.5-0.3-0.8-0.7-1.1-1.3c-0.3-0.6-0.4-1.4-0.4-2.6c0-0.8-0.2-1.3-0.7-1.7c-0.5-0.4-1.1-0.6-1.8-0.6h-4.6v5.2
			c0,0.3-0.1,0.6-0.3,0.8c-0.2,0.2-0.4,0.3-0.7,0.3c-0.4,0-0.7-0.1-0.9-0.3c-0.3-0.2-0.4-0.5-0.4-0.8v-13.9c0-0.3,0.1-0.6,0.3-0.8
			c0.2-0.2,0.5-0.3,0.8-0.3h6.5c0.8,0,1.6,0.2,2.3,0.6c0.7,0.4,1.2,1,1.7,1.7s0.6,1.5,0.6,2.4c0,0.9-0.2,1.7-0.7,2.4
			c-0.5,0.7-1.1,1.3-1.8,1.7c0.6,0.3,1,0.7,1.3,1.2c0.3,0.5,0.5,1.1,0.5,1.8c0.1,0.9,0.1,1.5,0.2,1.8c0.1,0.3,0.2,0.5,0.5,0.7
			C176.4,220.2,176.5,220.3,176.6,220.5z M172.6,213.3c0.3-0.3,0.6-0.6,0.8-1.1s0.3-1,0.3-1.6c0-0.7-0.2-1.4-0.7-1.9
			c-0.5-0.5-1-0.8-1.6-0.8h-5.2v5.8h5.2C171.9,213.7,172.2,213.6,172.6,213.3z"/>
		<path class="st5" d="M181.5,221.6c-0.2,0.2-0.5,0.3-0.8,0.3c-0.3,0-0.6-0.1-0.8-0.3c-0.2-0.2-0.3-0.5-0.3-0.8v-13.9
			c0-0.3,0.1-0.6,0.3-0.8c0.2-0.2,0.5-0.3,0.8-0.3c0.3,0,0.6,0.1,0.8,0.3c0.2,0.2,0.3,0.5,0.3,0.8v13.9
			C181.9,221.1,181.8,221.4,181.5,221.6z"/>
		<path class="st5" d="M197.7,207.7c0,0.3-0.1,0.5-0.3,0.8c-0.2,0.2-0.4,0.4-0.8,0.4c-0.2,0-0.4-0.1-0.6-0.2c-1-0.5-2-0.8-3.1-0.8
			c-1.2,0-2.2,0.3-3,0.8c-0.9,0.5-1.6,1.2-2.1,2.1c-0.5,0.9-0.7,2-0.7,3.1c0,1.3,0.3,2.4,0.8,3.3s1.2,1.6,2.1,2.1
			c0.9,0.5,1.9,0.7,3,0.7c1.1,0,2.2-0.3,3.1-0.8c0.2-0.1,0.4-0.1,0.6-0.1c0.3,0,0.6,0.1,0.8,0.4c0.2,0.2,0.3,0.5,0.3,0.7
			c0,0.2,0,0.4-0.1,0.5c-0.1,0.2-0.2,0.3-0.4,0.4c-0.6,0.3-1.3,0.6-2,0.8s-1.5,0.3-2.2,0.3c-1.5,0-2.9-0.3-4.1-1
			c-1.3-0.7-2.2-1.6-3-2.9c-0.7-1.3-1.1-2.7-1.1-4.4c0-1.5,0.4-2.9,1.1-4.2c0.7-1.3,1.7-2.2,2.9-2.9c1.2-0.7,2.6-1.1,4.2-1.1
			c1.5,0,2.9,0.4,4.2,1.1C197.5,207,197.7,207.3,197.7,207.7z"/>
		<path class="st5" d="M202.3,221.7c-0.9-0.3-1.7-0.8-2.5-1.5c-0.3-0.3-0.5-0.6-0.5-0.9c0-0.3,0.1-0.5,0.3-0.7
			c0.2-0.2,0.5-0.3,0.8-0.3c0.3,0,0.5,0.1,0.7,0.3c0.6,0.6,1.2,1,1.9,1.3c0.7,0.3,1.4,0.4,2.2,0.4c1,0,1.8-0.2,2.4-0.7
			c0.7-0.4,1-1,1-1.7c0-0.8-0.3-1.4-1-1.9c-0.7-0.4-1.6-0.8-3-1.1c-1.6-0.3-2.8-0.9-3.6-1.6c-0.9-0.7-1.3-1.8-1.3-3.1
			c0-0.9,0.2-1.7,0.7-2.4c0.5-0.7,1.1-1.2,2-1.6s1.8-0.6,2.9-0.6c1,0,1.8,0.2,2.7,0.5s1.5,0.7,2,1.2c0.4,0.3,0.5,0.6,0.5,1
			c0,0.3-0.1,0.5-0.3,0.7s-0.5,0.3-0.7,0.3c-0.2,0-0.4-0.1-0.5-0.2c-0.4-0.4-0.9-0.7-1.7-1c-0.7-0.3-1.4-0.4-2-0.4
			c-1,0-1.8,0.2-2.4,0.6s-0.9,1-0.9,1.7c0,0.8,0.3,1.3,0.9,1.7c0.6,0.4,1.5,0.7,2.7,1c1.2,0.3,2.2,0.6,2.9,0.9
			c0.8,0.4,1.3,0.8,1.8,1.5c0.4,0.6,0.6,1.4,0.6,2.5c0,0.9-0.3,1.7-0.7,2.4c-0.5,0.7-1.2,1.2-2,1.6c-0.9,0.4-1.8,0.6-2.8,0.6
			C204.1,222.2,203.1,222,202.3,221.7z"/>
	</g>
</g>
<line class="st7" x1="589.6" y1="18.3" x2="589.6" y2="150.4"/>
<rect x="147.5" y="287.6" class="st10" width="482" height="13.2"/>
<g>
	<g>
		<circle class="st6" cx="653.9" cy="83.1" r="37.9"/>
	</g>
	<g>
		<path class="st6" d="M665,74.2c-0.2-6.4-5.6-11.5-12-11.3c-6.4,0.2-11.5,5.6-11.3,12c0.1,2.8,1.2,5.4,2.9,7.3
			c2.9,4.9,5.8,9.8,8.7,14.7l8.9-14.9c0.7-0.9,1.9-2.6,2.5-5C664.8,77.1,665.1,75.6,665,74.2z"/>
		<circle class="st6" cx="653.4" cy="74.2" r="4.5"/>
	</g>
	<circle class="st5" cx="653.4" cy="102.6" r="2.6"/>
</g>
<rect x="66.3" y="368" class="st0" width="38.4" height="38.4"/>
<rect x="147.5" y="367.4" class="st10" width="482" height="13.2"/>
<rect x="66.3" y="448.5" class="st0" width="38.4" height="38.4"/>
<rect x="147.5" y="447.9" class="st10" width="482" height="13.2"/>
<rect x="66.3" y="529.5" class="st0" width="38.4" height="38.4"/>
<rect x="147.5" y="528.9" class="st10" width="482" height="13.2"/>
</svg>
