<?xml version="1.0" encoding="utf-8"?>
<!-- Generator: Adobe Illustrator 22.1.0, SVG Export Plug-In . SVG Version: 6.00 Build 0)  -->
<svg version="1.1" id="Layer_1" xmlns="http://www.w3.org/2000/svg" xmlns:xlink="http://www.w3.org/1999/xlink" x="0px" y="0px"
	 viewBox="0 0 1662 1220" style="enable-background:new 0 0 1662 1220;" xml:space="preserve">
<style type="text/css">
	.st0{fill:#FFD433;}
	.st1{fill:none;stroke:#26293C;stroke-width:1.2;stroke-miterlimit:10;}
	.st2{fill:none;stroke:#26293C;stroke-width:5;stroke-miterlimit:10;}
	.st3{fill:none;stroke:#F2F2F2;stroke-width:1.2;stroke-miterlimit:10;}
	.st4{fill:#D9DBDA;}
	.st5{fill:#26293C;}
	.st6{fill:#FFD433;stroke:#26293C;stroke-width:2;stroke-miterlimit:10;}
	.st7{fill:none;stroke:#26293C;stroke-width:1.2003;stroke-miterlimit:10;}
	.st8{fill:none;stroke:#FFD433;stroke-width:0.7434;stroke-miterlimit:10;}
	.st9{fill:none;stroke:#F2F2F2;stroke-width:1.3726;stroke-miterlimit:10;}
	.st10{fill:#F2F2F2;}
	.st11{fill:none;stroke:#26293C;stroke-width:2;stroke-miterlimit:10;}
	.st12{fill:#E5E5E5;stroke:#F2F2F2;stroke-width:1.072;stroke-miterlimit:10;}
	.st13{fill:none;stroke:#F2F2F2;stroke-width:1.4033;stroke-miterlimit:10;}
	.st14{fill:none;stroke:#FFD433;stroke-width:0.7838;stroke-miterlimit:10;}
	.st15{fill:none;stroke:#FFD433;stroke-miterlimit:10;}
	.st16{fill:none;stroke:#F2F2F2;stroke-width:3;stroke-miterlimit:10;}
	.st17{fill:#FFD433;stroke:#26293C;stroke-width:1.8525;stroke-miterlimit:10;}
	.st18{fill:none;stroke:#F2F2F2;stroke-width:1.3001;stroke-miterlimit:10;}
	.st19{fill:none;stroke:#F2F2F2;stroke-width:2.0632;stroke-miterlimit:10;}
	.st20{fill:#FFFFFF;stroke:#26293C;stroke-width:2;stroke-miterlimit:10;}
	.st21{fill:#EDEDED;}
	.st22{fill:#FFD433;stroke:#26293C;stroke-width:1.8509;stroke-miterlimit:10;}
	.st23{fill:none;stroke:#26293C;stroke-width:0.9518;stroke-miterlimit:10;}
	.st24{fill:none;stroke:#FFD433;stroke-width:0.8168;stroke-miterlimit:10;}
	.st25{fill:none;stroke:#26293C;stroke-width:0.9076;stroke-miterlimit:10;}
	.st26{fill:none;stroke:#D9DBDA;stroke-miterlimit:10;}
	.st27{fill:none;stroke:#F2F2F2;stroke-width:1.3998;stroke-miterlimit:10;}
	.st28{fill:none;stroke:#000000;stroke-width:2;stroke-miterlimit:10;}
	.st29{fill:#FFD433;stroke:#26293C;stroke-width:1.9864;stroke-miterlimit:10;}
	.st30{fill:none;stroke:#F2F2F2;stroke-width:1.3708;stroke-miterlimit:10;}
	.st31{fill:none;stroke:#26293C;stroke-width:4.7102;stroke-miterlimit:10;}
	.st32{fill:#FFFFFF;stroke:#26293C;stroke-width:1.2;stroke-miterlimit:10;}
	.st33{fill:none;stroke:#FFD433;stroke-width:3;stroke-miterlimit:10;}
	.st34{fill:none;stroke:#D9DBDA;stroke-width:3;stroke-miterlimit:10;}
</style>
<line class="st7" x1="40.7" y1="168.1" x2="1620.9" y2="168.1"/>
<g>
	<g>
		<path class="st5" d="M107,109.9c0.4,0.4,0.6,1,0.6,1.7v8.1c0,0.9-0.4,1.6-1.2,2.1c-2.5,1.5-5.2,2.3-8.2,2.3c-2.5,0-4.8-0.6-7-1.8
			s-3.8-2.9-5.1-5s-1.9-4.4-1.9-6.9c0-2.5,0.6-4.8,1.9-6.9c1.2-2.1,2.9-3.7,5.1-5s4.4-1.8,7-1.8s4.7,0.5,6.5,1.5
			c0.4,0.2,0.7,0.5,0.9,0.8c0.2,0.3,0.3,0.7,0.3,1.1c0,0.6-0.2,1.2-0.6,1.7s-0.9,0.7-1.5,0.7c-0.4,0-0.8-0.1-1.3-0.3
			c-1.4-0.6-2.8-0.9-4.3-0.9c-1.6,0-3.1,0.4-4.5,1.2c-1.4,0.8-2.5,1.9-3.2,3.3c-0.8,1.4-1.2,2.9-1.2,4.6c0,1.6,0.4,3.2,1.2,4.6
			c0.8,1.4,1.9,2.5,3.2,3.3c1.4,0.8,2.9,1.2,4.5,1.2c0.7,0,1.5-0.1,2.3-0.2c0.8-0.1,1.5-0.3,2.1-0.5v-4.9h-3.6
			c-0.7,0-1.2-0.2-1.7-0.6c-0.4-0.4-0.7-1-0.7-1.6c0-0.7,0.2-1.2,0.7-1.6c0.4-0.4,1-0.6,1.7-0.6h6.2
			C106,109.3,106.6,109.5,107,109.9z"/>
		<path class="st5" d="M124.3,103.6c0.5,0.4,0.8,0.9,0.8,1.5c0,0.8-0.2,1.4-0.6,1.8c-0.4,0.4-0.9,0.6-1.4,0.6
			c-0.4,0-0.8-0.1-1.3-0.3c-0.1,0-0.2-0.1-0.5-0.2c-0.3-0.1-0.6-0.1-0.9-0.1c-0.7,0-1.3,0.2-1.9,0.6c-0.6,0.4-1.1,1-1.5,1.8
			c-0.4,0.8-0.6,1.8-0.6,2.9v9c0,0.7-0.2,1.2-0.6,1.7c-0.4,0.4-1,0.7-1.6,0.7s-1.2-0.2-1.6-0.7c-0.4-0.4-0.6-1-0.6-1.7v-15.7
			c0-0.7,0.2-1.2,0.6-1.7c0.4-0.4,1-0.7,1.6-0.7s1.2,0.2,1.6,0.7c0.4,0.4,0.6,1,0.6,1.7v0.5c0.6-1,1.4-1.8,2.5-2.4
			c1.1-0.5,2.3-0.8,3.5-0.8C123.2,102.9,123.8,103.2,124.3,103.6z"/>
		<path class="st5" d="M145.6,119c-0.9,1.6-2.2,2.9-3.7,3.7c-1.6,0.9-3.3,1.3-5.2,1.3c-1.9,0-3.7-0.4-5.2-1.3
			c-1.6-0.9-2.8-2.1-3.7-3.7c-0.9-1.6-1.4-3.4-1.4-5.5c0-2,0.5-3.8,1.4-5.5c0.9-1.6,2.2-2.9,3.7-3.8c1.6-0.9,3.3-1.3,5.2-1.3
			c1.9,0,3.6,0.5,5.2,1.3c1.6,0.9,2.8,2.2,3.7,3.8c0.9,1.6,1.4,3.4,1.4,5.5C147,115.5,146.6,117.3,145.6,119z M141.7,110.2
			c-0.5-1-1.2-1.7-2.1-2.3c-0.9-0.5-1.8-0.8-2.9-0.8c-1.1,0-2,0.3-2.9,0.8c-0.9,0.5-1.6,1.3-2.1,2.3s-0.8,2.1-0.8,3.3
			c0,1.2,0.3,2.3,0.8,3.3s1.2,1.7,2.1,2.2c0.9,0.5,1.8,0.8,2.9,0.8c1.1,0,2-0.3,2.9-0.8c0.9-0.5,1.6-1.3,2.1-2.2s0.8-2.1,0.8-3.3
			C142.5,112.3,142.2,111.1,141.7,110.2z"/>
		<path class="st5" d="M175.8,104c0.4,0.4,0.6,1,0.6,1.7c0,0.2-0.1,0.5-0.2,0.9l-5.8,15.7c-0.2,0.5-0.4,0.8-0.8,1.1
			c-0.4,0.3-0.8,0.4-1.3,0.4l-0.3,0c-0.9-0.1-1.5-0.5-1.9-1.4l-3.2-9.3l-3.1,9.3c-0.4,0.9-1.1,1.4-1.9,1.4l-0.3,0
			c-0.5,0-0.9-0.1-1.3-0.4s-0.7-0.6-0.8-1.1l-5.8-15.7c-0.1-0.3-0.2-0.6-0.2-0.9c0-0.6,0.2-1.2,0.6-1.7s1-0.7,1.7-0.7
			c0.5,0,0.9,0.1,1.3,0.4c0.4,0.2,0.6,0.6,0.8,1.1l4.1,11.1l3-8.1c0.4-0.9,1.1-1.4,2.1-1.4c0.5,0,0.9,0.1,1.2,0.3
			c0.3,0.2,0.5,0.6,0.7,1.1l2.9,7.9l4.1-10.9c0.2-0.5,0.4-0.8,0.8-1.1c0.4-0.2,0.8-0.4,1.4-0.4C174.8,103.3,175.3,103.5,175.8,104z"
			/>
		<path class="st5" d="M207.4,104c0.4,0.4,0.6,1,0.6,1.7v16.2c0,3.3-0.9,5.7-2.7,7.2c-1.8,1.5-4.1,2.3-7.1,2.3
			c-0.9,0-1.7-0.1-2.6-0.2s-1.6-0.3-2.2-0.6c-1.2-0.5-1.9-1.3-1.9-2.2c0-0.2,0-0.4,0.1-0.6c0.2-0.6,0.4-1,0.8-1.3
			c0.4-0.3,0.8-0.4,1.2-0.4c0.3,0,0.5,0,0.7,0.1c0.2,0.1,0.5,0.2,0.9,0.4c0.4,0.2,0.9,0.3,1.4,0.4c0.5,0.1,1,0.2,1.5,0.2
			c1.8,0,3.1-0.4,4-1.2c0.8-0.8,1.3-2.1,1.3-4v-0.4c-1.3,1.6-3.4,2.5-6.2,2.5c-1.3,0-2.5-0.3-3.5-0.9c-1-0.6-1.8-1.5-2.4-2.6
			c-0.6-1.1-0.8-2.4-0.8-3.8v-11.1c0-0.7,0.2-1.2,0.6-1.7c0.4-0.4,1-0.7,1.6-0.7c0.7,0,1.2,0.2,1.6,0.7c0.4,0.4,0.6,1,0.6,1.7v9.7
			c0,1.6,0.3,2.7,1,3.4c0.7,0.7,1.7,1,3.1,1c1.3,0,2.3-0.4,3.1-1.2c0.7-0.8,1.1-1.9,1.1-3.3v-9.7c0-0.7,0.2-1.2,0.6-1.7
			c0.4-0.4,1-0.7,1.6-0.7C206.4,103.3,206.9,103.5,207.4,104z"/>
		<path class="st5" d="M230.9,119c-0.9,1.6-2.2,2.9-3.7,3.7c-1.6,0.9-3.3,1.3-5.2,1.3c-1.9,0-3.7-0.4-5.2-1.3
			c-1.6-0.9-2.8-2.1-3.7-3.7c-0.9-1.6-1.4-3.4-1.4-5.5c0-2,0.5-3.8,1.4-5.5c0.9-1.6,2.2-2.9,3.7-3.8c1.6-0.9,3.3-1.3,5.2-1.3
			c1.9,0,3.6,0.5,5.2,1.3c1.6,0.9,2.8,2.2,3.7,3.8c0.9,1.6,1.4,3.4,1.4,5.5C232.3,115.5,231.8,117.3,230.9,119z M226.9,110.2
			c-0.5-1-1.2-1.7-2.1-2.3c-0.9-0.5-1.8-0.8-2.9-0.8c-1.1,0-2,0.3-2.9,0.8c-0.9,0.5-1.6,1.3-2.1,2.3s-0.8,2.1-0.8,3.3
			c0,1.2,0.3,2.3,0.8,3.3s1.2,1.7,2.1,2.2c0.9,0.5,1.8,0.8,2.9,0.8c1.1,0,2-0.3,2.9-0.8c0.9-0.5,1.6-1.3,2.1-2.2s0.8-2.1,0.8-3.3
			C227.7,112.3,227.5,111.1,226.9,110.2z"/>
		<path class="st5" d="M252.8,104c0.4,0.4,0.6,1,0.6,1.7v9.7c0,2.7-0.8,4.9-2.3,6.4c-1.5,1.5-3.7,2.3-6.4,2.3
			c-2.8,0-4.9-0.8-6.4-2.3s-2.2-3.7-2.2-6.4v-9.7c0-0.7,0.2-1.2,0.6-1.7c0.4-0.4,1-0.7,1.6-0.7s1.2,0.2,1.6,0.7
			c0.4,0.4,0.6,1,0.6,1.7v9.7c0,1.5,0.3,2.7,1,3.4c0.7,0.7,1.7,1.1,3.1,1.1c1.4,0,2.4-0.4,3.1-1.1c0.7-0.7,1-1.9,1-3.4v-9.7
			c0-0.7,0.2-1.2,0.6-1.7c0.4-0.4,1-0.7,1.6-0.7C251.8,103.3,252.4,103.5,252.8,104z"/>
		<path class="st5" d="M270.9,103.6c0.5,0.4,0.8,0.9,0.8,1.5c0,0.8-0.2,1.4-0.6,1.8c-0.4,0.4-0.9,0.6-1.4,0.6
			c-0.4,0-0.8-0.1-1.3-0.3c-0.1,0-0.2-0.1-0.5-0.2c-0.3-0.1-0.6-0.1-0.9-0.1c-0.7,0-1.3,0.2-1.9,0.6c-0.6,0.4-1.1,1-1.5,1.8
			c-0.4,0.8-0.6,1.8-0.6,2.9v9c0,0.7-0.2,1.2-0.6,1.7c-0.4,0.4-1,0.7-1.6,0.7s-1.2-0.2-1.6-0.7c-0.4-0.4-0.6-1-0.6-1.7v-15.7
			c0-0.7,0.2-1.2,0.6-1.7c0.4-0.4,1-0.7,1.6-0.7s1.2,0.2,1.6,0.7c0.4,0.4,0.6,1,0.6,1.7v0.5c0.6-1,1.4-1.8,2.5-2.4
			c1.1-0.5,2.3-0.8,3.5-0.8C269.7,102.9,270.4,103.2,270.9,103.6z"/>
		<path class="st5" d="M303,114.5c-0.5,0.4-1,0.6-1.6,0.6h-12.5c0.3,1.5,1,2.7,2.1,3.5c1.1,0.8,2.3,1.3,3.7,1.3c1,0,1.8-0.1,2.4-0.3
			c0.6-0.2,1-0.4,1.4-0.6c0.3-0.2,0.6-0.4,0.7-0.4c0.5-0.2,0.9-0.3,1.3-0.3c0.5,0,1,0.2,1.4,0.6c0.4,0.4,0.6,0.8,0.6,1.3
			c0,0.7-0.4,1.3-1.1,1.9c-0.7,0.6-1.7,1.1-2.9,1.5c-1.2,0.4-2.4,0.6-3.6,0.6c-2.1,0-4-0.4-5.6-1.3c-1.6-0.9-2.8-2.1-3.7-3.7
			c-0.9-1.6-1.3-3.3-1.3-5.3c0-2.2,0.5-4.1,1.4-5.7c0.9-1.6,2.1-2.9,3.6-3.8c1.5-0.9,3.1-1.3,4.8-1.3c1.7,0,3.2,0.5,4.7,1.4
			c1.5,0.9,2.7,2.1,3.6,3.7c0.9,1.5,1.3,3.2,1.3,5C303.7,113.6,303.5,114.1,303,114.5z M288.9,111.3h10V111c-0.1-1.1-0.6-2-1.6-2.7
			c-0.9-0.8-2-1.1-3.2-1.1C291.2,107.1,289.5,108.5,288.9,111.3z"/>
		<path class="st5" d="M323.8,105.2c1,1.5,1.5,3.7,1.5,6.4v9.7c0,0.7-0.2,1.2-0.6,1.7c-0.4,0.4-1,0.7-1.6,0.7
			c-0.7,0-1.2-0.2-1.6-0.7c-0.4-0.4-0.6-1-0.6-1.7v-9.7c0-1.4-0.3-2.5-0.9-3.3s-1.6-1.2-3-1.2c-1.5,0-2.6,0.4-3.5,1.3
			s-1.3,1.9-1.3,3.2v9.7c0,0.7-0.2,1.2-0.6,1.7c-0.4,0.4-1,0.7-1.6,0.7s-1.2-0.2-1.6-0.7c-0.4-0.4-0.6-1-0.6-1.7v-15.7
			c0-0.7,0.2-1.2,0.6-1.7c0.4-0.4,1-0.7,1.6-0.7s1.2,0.2,1.6,0.7c0.4,0.4,0.6,1,0.6,1.7v0.6c0.7-0.9,1.6-1.7,2.7-2.4
			c1.1-0.7,2.3-1,3.6-1C321,102.9,322.8,103.7,323.8,105.2z"/>
		<path class="st5" d="M348.7,103.6c0.4,0.4,0.6,1,0.6,1.7v16.9c0,3.1-1,5.4-2.9,6.9c-1.9,1.5-4.3,2.2-7.3,2.2
			c-0.8,0-1.8-0.1-3.1-0.4c-1.3-0.3-2.3-0.5-2.8-0.8c-1.2-0.5-1.9-1.3-1.9-2.2c0-0.2,0-0.4,0.1-0.6c0.2-0.6,0.4-1,0.8-1.3
			c0.4-0.3,0.8-0.4,1.2-0.4c0.3,0,0.5,0,0.7,0.1c0.1,0,0.7,0.3,1.9,0.7c1.2,0.4,2.2,0.7,3.1,0.7c1.9,0,3.3-0.4,4.2-1.1
			c0.9-0.7,1.4-1.8,1.4-3.2v-1.8c-0.6,0.8-1.4,1.5-2.5,2.1c-1.1,0.6-2.3,1-3.6,1c-1.8,0-3.4-0.4-4.8-1.3s-2.6-2.1-3.4-3.7
			c-0.8-1.6-1.3-3.4-1.3-5.4c0-2,0.4-3.8,1.2-5.5c0.8-1.6,2-2.9,3.4-3.8c1.4-0.9,3-1.3,4.8-1.3c1.3,0,2.5,0.3,3.6,0.8
			c1.1,0.5,2,1.2,2.7,1.9v-0.4c0-0.7,0.2-1.2,0.6-1.7c0.4-0.4,1-0.7,1.6-0.7C347.7,102.9,348.2,103.2,348.7,103.6z M343.3,118
			c1.1-1.2,1.6-2.7,1.6-4.5s-0.5-3.3-1.6-4.6c-1.1-1.2-2.5-1.8-4.2-1.8s-3.1,0.6-4.1,1.8c-1.1,1.2-1.6,2.7-1.6,4.6s0.5,3.3,1.6,4.5
			c1.1,1.2,2.4,1.8,4.1,1.8S342.3,119.2,343.3,118z"/>
		<path class="st5" d="M372.2,103.6c0.4,0.4,0.6,1,0.6,1.7v16.1c0,0.7-0.2,1.2-0.6,1.7c-0.4,0.4-1,0.7-1.6,0.7
			c-0.7,0-1.2-0.2-1.6-0.6c-0.4-0.4-0.6-1-0.7-1.6c-0.6,0.7-1.5,1.4-2.6,1.9c-1.1,0.5-2.2,0.8-3.4,0.8c-1.7,0-3.3-0.4-4.8-1.3
			s-2.5-2.1-3.4-3.7c-0.8-1.6-1.2-3.4-1.2-5.4c0-2,0.4-3.8,1.2-5.5c0.8-1.6,1.9-2.9,3.3-3.8c1.4-0.9,3-1.3,4.7-1.3
			c1.2,0,2.4,0.2,3.4,0.7c1.1,0.4,2,1,2.7,1.7v0c0-0.7,0.2-1.2,0.6-1.7c0.4-0.4,1-0.7,1.6-0.7C371.2,102.9,371.7,103.2,372.2,103.6z
			 M366.9,118c1-1.2,1.6-2.7,1.6-4.5s-0.5-3.3-1.6-4.6s-2.4-1.8-4-1.8c-1.6,0-3,0.6-4,1.8c-1,1.2-1.6,2.7-1.6,4.6s0.5,3.3,1.5,4.5
			c1,1.2,2.4,1.8,4,1.8C364.5,119.8,365.8,119.2,366.9,118z"/>
		<path class="st5" d="M396.2,103.6c0.4,0.4,0.6,1,0.6,1.7v16.9c0,3.1-1,5.4-2.9,6.9s-4.3,2.2-7.3,2.2c-0.8,0-1.8-0.1-3.1-0.4
			c-1.3-0.3-2.3-0.5-2.8-0.8c-1.2-0.5-1.9-1.3-1.9-2.2c0-0.2,0-0.4,0.1-0.6c0.2-0.6,0.4-1,0.8-1.3s0.8-0.4,1.2-0.4
			c0.3,0,0.5,0,0.7,0.1c0.1,0,0.7,0.3,1.9,0.7c1.2,0.4,2.2,0.7,3.1,0.7c1.9,0,3.3-0.4,4.2-1.1c0.9-0.7,1.4-1.8,1.4-3.2v-1.8
			c-0.6,0.8-1.4,1.5-2.5,2.1s-2.3,1-3.6,1c-1.8,0-3.4-0.4-4.8-1.3c-1.5-0.9-2.6-2.1-3.4-3.7c-0.8-1.6-1.3-3.4-1.3-5.4
			c0-2,0.4-3.8,1.2-5.5c0.8-1.6,2-2.9,3.4-3.8c1.4-0.9,3-1.3,4.8-1.3c1.3,0,2.5,0.3,3.6,0.8c1.1,0.5,2,1.2,2.7,1.9v-0.4
			c0-0.7,0.2-1.2,0.6-1.7s1-0.7,1.6-0.7C395.2,102.9,395.8,103.2,396.2,103.6z M390.9,118c1.1-1.2,1.6-2.7,1.6-4.5s-0.5-3.3-1.6-4.6
			c-1.1-1.2-2.5-1.8-4.2-1.8c-1.7,0-3.1,0.6-4.1,1.8c-1.1,1.2-1.6,2.7-1.6,4.6s0.5,3.3,1.6,4.5c1.1,1.2,2.4,1.8,4.1,1.8
			C388.4,119.8,389.8,119.2,390.9,118z"/>
		<path class="st5" d="M418.6,114.5c-0.5,0.4-1,0.6-1.6,0.6h-12.5c0.3,1.5,1,2.7,2.1,3.5s2.3,1.3,3.7,1.3c1,0,1.8-0.1,2.4-0.3
			s1-0.4,1.4-0.6c0.3-0.2,0.6-0.4,0.7-0.4c0.5-0.2,0.9-0.3,1.3-0.3c0.5,0,1,0.2,1.4,0.6c0.4,0.4,0.6,0.8,0.6,1.3
			c0,0.7-0.4,1.3-1.1,1.9c-0.7,0.6-1.7,1.1-2.8,1.5c-1.2,0.4-2.4,0.6-3.6,0.6c-2.1,0-4-0.4-5.6-1.3c-1.6-0.9-2.8-2.1-3.7-3.7
			c-0.9-1.6-1.3-3.3-1.3-5.3c0-2.2,0.5-4.1,1.4-5.7c0.9-1.6,2.1-2.9,3.6-3.8c1.5-0.9,3.1-1.3,4.8-1.3c1.7,0,3.2,0.5,4.7,1.4
			c1.5,0.9,2.7,2.1,3.6,3.7c0.9,1.5,1.3,3.2,1.3,5C419.3,113.6,419,114.1,418.6,114.5z M404.5,111.3h10V111c-0.1-1.1-0.6-2-1.6-2.7
			c-0.9-0.8-2-1.1-3.2-1.1C406.7,107.1,405,108.5,404.5,111.3z"/>
		<path class="st5" d="M451.7,105.2c1,1.5,1.4,3.7,1.4,6.4v9.7c0,0.7-0.2,1.2-0.6,1.7c-0.4,0.4-1,0.7-1.6,0.7
			c-0.7,0-1.2-0.2-1.6-0.7c-0.4-0.4-0.6-1-0.6-1.7v-9.7c0-1.4-0.3-2.5-0.8-3.3c-0.5-0.8-1.5-1.2-2.9-1.2c-1.4,0-2.5,0.4-3.3,1.3
			s-1.2,1.9-1.2,3.2v9.7c0,0.7-0.2,1.2-0.6,1.7c-0.4,0.4-1,0.7-1.6,0.7c-0.7,0-1.2-0.2-1.6-0.7c-0.4-0.4-0.6-1-0.6-1.7v-9.7
			c0-1.4-0.3-2.5-0.8-3.3s-1.5-1.2-2.9-1.2c-1.4,0-2.5,0.4-3.3,1.3s-1.2,1.9-1.2,3.2v9.7c0,0.7-0.2,1.2-0.6,1.7
			c-0.4,0.4-1,0.7-1.6,0.7s-1.2-0.2-1.6-0.7c-0.4-0.4-0.6-1-0.6-1.7v-15.7c0-0.7,0.2-1.2,0.6-1.7c0.4-0.4,1-0.7,1.6-0.7
			s1.2,0.2,1.6,0.7c0.4,0.4,0.6,1,0.6,1.7v0.6c0.7-0.9,1.6-1.7,2.6-2.3c1.1-0.6,2.2-1,3.5-1c3.2,0,5.2,1.4,6.1,4.2
			c0.6-1.1,1.5-2,2.6-2.9s2.5-1.3,4-1.3C449,102.9,450.8,103.7,451.7,105.2z"/>
		<path class="st5" d="M475.6,114.5c-0.5,0.4-1,0.6-1.6,0.6h-12.5c0.3,1.5,1,2.7,2.1,3.5s2.3,1.3,3.7,1.3c1,0,1.8-0.1,2.4-0.3
			s1-0.4,1.4-0.6c0.3-0.2,0.6-0.4,0.7-0.4c0.5-0.2,0.9-0.3,1.3-0.3c0.5,0,1,0.2,1.4,0.6c0.4,0.4,0.6,0.8,0.6,1.3
			c0,0.7-0.4,1.3-1.1,1.9c-0.7,0.6-1.7,1.1-2.8,1.5c-1.2,0.4-2.4,0.6-3.6,0.6c-2.1,0-4-0.4-5.6-1.3c-1.6-0.9-2.8-2.1-3.7-3.7
			c-0.9-1.6-1.3-3.3-1.3-5.3c0-2.2,0.5-4.1,1.4-5.7c0.9-1.6,2.1-2.9,3.6-3.8c1.5-0.9,3.1-1.3,4.8-1.3c1.7,0,3.2,0.5,4.7,1.4
			c1.5,0.9,2.7,2.1,3.6,3.7c0.9,1.5,1.3,3.2,1.3,5C476.3,113.6,476.1,114.1,475.6,114.5z M461.5,111.3h10V111
			c-0.1-1.1-0.6-2-1.6-2.7c-0.9-0.8-2-1.1-3.2-1.1C463.8,107.1,462.1,108.5,461.5,111.3z"/>
		<path class="st5" d="M496.4,105.2c1,1.5,1.5,3.7,1.5,6.4v9.7c0,0.7-0.2,1.2-0.6,1.7c-0.4,0.4-1,0.7-1.6,0.7
			c-0.7,0-1.2-0.2-1.6-0.7c-0.4-0.4-0.6-1-0.6-1.7v-9.7c0-1.4-0.3-2.5-0.9-3.3s-1.6-1.2-3-1.2c-1.5,0-2.6,0.4-3.5,1.3
			s-1.3,1.9-1.3,3.2v9.7c0,0.7-0.2,1.2-0.6,1.7c-0.4,0.4-1,0.7-1.6,0.7s-1.2-0.2-1.6-0.7c-0.4-0.4-0.6-1-0.6-1.7v-15.7
			c0-0.7,0.2-1.2,0.6-1.7c0.4-0.4,1-0.7,1.6-0.7s1.2,0.2,1.6,0.7c0.4,0.4,0.6,1,0.6,1.7v0.6c0.7-0.9,1.6-1.7,2.7-2.4
			c1.1-0.7,2.3-1,3.6-1C493.6,102.9,495.4,103.7,496.4,105.2z"/>
		<path class="st5" d="M513.6,119.9c0.3,0.3,0.4,0.8,0.4,1.3c0,0.7-0.4,1.3-1.1,1.7s-1.6,0.7-2.5,0.7c-1.6,0-2.9-0.3-4-1
			s-1.6-2.1-1.6-4.3v-10.5H503c-0.6,0-1.1-0.2-1.5-0.6s-0.6-0.9-0.6-1.5c0-0.6,0.2-1.1,0.6-1.5c0.4-0.4,0.9-0.6,1.5-0.6h1.7v-2.4
			c0-0.7,0.2-1.2,0.7-1.7s1-0.7,1.7-0.7c0.6,0,1.2,0.2,1.6,0.7s0.6,1,0.6,1.7v2.4h2.7c0.6,0,1.1,0.2,1.5,0.6s0.6,0.9,0.6,1.5
			c0,0.6-0.2,1.1-0.6,1.5c-0.4,0.4-0.9,0.6-1.5,0.6h-2.7v10.3c0,0.5,0.1,0.9,0.4,1.2c0.3,0.2,0.7,0.4,1.1,0.4c0.2,0,0.5,0,0.8-0.2
			c0.3-0.1,0.6-0.2,0.9-0.2C513,119.4,513.3,119.5,513.6,119.9z"/>
	</g>
</g>
<g>
	<g>
		<path class="st5" d="M114.4,228.9c1,0.7,1.8,1.7,2.3,2.9c0.5,1.2,0.7,2.6,0.7,4c0,1.5-0.2,2.9-0.7,4.1c-0.5,1.2-1.3,2.2-2.3,2.9
			c-1,0.7-2.2,1.1-3.7,1.1h-5.9c-0.2,0-0.4-0.1-0.5-0.2c-0.1-0.1-0.2-0.3-0.2-0.5v-14.7c0-0.2,0.1-0.4,0.2-0.5
			c0.1-0.1,0.3-0.2,0.5-0.2h5.9C112.2,227.8,113.4,228.2,114.4,228.9z M114.6,240.7c0.9-1.2,1.4-2.8,1.4-4.8c0-1.2-0.2-2.4-0.6-3.4
			c-0.4-1-1-1.8-1.8-2.4s-1.9-0.9-3.1-0.9h-4.9v13.4h4.9C112.3,242.6,113.7,241.9,114.6,240.7z"/>
		<path class="st5" d="M132.7,243.3c0,0.2-0.1,0.4-0.2,0.5s-0.3,0.2-0.5,0.2c-0.2,0-0.3,0-0.4-0.1c-0.1-0.1-0.2-0.2-0.3-0.3
			l-1.7-4.2h-7.5l-1.7,4.2c-0.1,0.3-0.3,0.5-0.6,0.5c-0.2,0-0.4-0.1-0.5-0.2c-0.1-0.1-0.2-0.3-0.2-0.4v-0.1c0-0.1,0-0.2,0-0.2
			l6.1-14.9c0.1-0.3,0.4-0.5,0.7-0.5c0.2,0,0.3,0,0.4,0.1c0.1,0.1,0.2,0.2,0.3,0.3l6,14.8C132.6,243.1,132.7,243.2,132.7,243.3z
			 M122.6,237.9h6.4l-3.2-7.9L122.6,237.9z"/>
		<path class="st5" d="M145.1,228c0.1,0.1,0.2,0.3,0.2,0.5c0,0.2-0.1,0.4-0.2,0.5s-0.3,0.2-0.5,0.2h-4.8v14.1c0,0.2-0.1,0.4-0.2,0.5
			c-0.1,0.1-0.3,0.2-0.5,0.2c-0.2,0-0.4-0.1-0.5-0.2c-0.1-0.1-0.2-0.3-0.2-0.5v-14.1h-4.8c-0.2,0-0.4-0.1-0.5-0.2
			c-0.1-0.1-0.2-0.3-0.2-0.5c0-0.2,0.1-0.3,0.2-0.5c0.1-0.1,0.3-0.2,0.5-0.2h10.9C144.8,227.8,145,227.9,145.1,228z"/>
		<path class="st5" d="M159.1,243.3c0,0.2-0.1,0.4-0.2,0.5c-0.1,0.1-0.3,0.2-0.5,0.2c-0.2,0-0.3,0-0.4-0.1c-0.1-0.1-0.2-0.2-0.3-0.3
			l-1.7-4.2h-7.5l-1.7,4.2c-0.1,0.3-0.3,0.5-0.6,0.5c-0.2,0-0.4-0.1-0.5-0.2c-0.1-0.1-0.2-0.3-0.2-0.4v-0.1c0-0.1,0-0.2,0-0.2
			l6.1-14.9c0.1-0.3,0.4-0.5,0.7-0.5c0.2,0,0.3,0,0.4,0.1c0.1,0.1,0.2,0.2,0.3,0.3l6,14.8C159.1,243.1,159.1,243.2,159.1,243.3z
			 M149.1,237.9h6.4l-3.2-7.9L149.1,237.9z"/>
		<path class="st5" d="M177.8,228c0.1,0.1,0.2,0.3,0.2,0.5c0,0.2-0.1,0.3-0.2,0.5c-0.1,0.1-0.3,0.2-0.5,0.2h-7.7v5.8h6.6
			c0.2,0,0.4,0.1,0.5,0.2c0.1,0.1,0.2,0.3,0.2,0.5s-0.1,0.4-0.2,0.5c-0.1,0.1-0.3,0.2-0.5,0.2h-6.6v6.9c0,0.2-0.1,0.4-0.2,0.5
			c-0.1,0.1-0.3,0.2-0.5,0.2c-0.2,0-0.4-0.1-0.5-0.2c-0.1-0.1-0.2-0.3-0.2-0.5v-14.7c0-0.2,0.1-0.4,0.2-0.5c0.1-0.1,0.3-0.2,0.5-0.2
			h8.4C177.5,227.8,177.7,227.9,177.8,228z"/>
		<path class="st5" d="M193.3,243.3c0,0.1,0,0.2-0.1,0.3c-0.1,0.1-0.1,0.2-0.3,0.3c-0.1,0.1-0.2,0.1-0.3,0.1c-0.2,0-0.3,0-0.4-0.1
			c-0.4-0.2-0.8-0.6-1-1.2c-0.3-0.6-0.4-1.4-0.4-2.6c0-1.1-0.3-1.8-0.9-2.3c-0.6-0.4-1.3-0.7-2.1-0.7h-5.1v6.2
			c0,0.2-0.1,0.4-0.2,0.5c-0.1,0.1-0.3,0.2-0.5,0.2c-0.2,0-0.4-0.1-0.6-0.2c-0.2-0.1-0.2-0.3-0.2-0.5v-14.7c0-0.2,0.1-0.4,0.2-0.5
			c0.1-0.1,0.3-0.2,0.5-0.2h6.2c0.9,0,1.7,0.2,2.3,0.6s1.2,0.9,1.6,1.6c0.4,0.7,0.6,1.4,0.6,2.2c0,1-0.3,1.8-0.8,2.6
			c-0.5,0.7-1.2,1.3-2,1.5c0.7,0.3,1.2,0.7,1.7,1.3c0.4,0.6,0.7,1.4,0.7,2.3c0,1,0.1,1.6,0.2,2c0.1,0.4,0.3,0.7,0.6,0.8
			C193.2,242.8,193.3,243,193.3,243.3z M188.2,235.8c0.5,0,1-0.2,1.5-0.5s0.8-0.7,1.1-1.2c0.3-0.5,0.4-1.1,0.4-1.8
			c0-0.9-0.3-1.6-0.9-2.2c-0.6-0.6-1.4-0.9-2.3-0.9h-5.3v6.6H188.2z"/>
		<path class="st5" d="M209.8,240.1c-0.7,1.3-1.6,2.2-2.7,3c-1.2,0.7-2.5,1.1-4,1.1c-1.5,0-2.8-0.4-4-1.1c-1.2-0.7-2.1-1.7-2.7-3
			c-0.7-1.3-1-2.7-1-4.3c0-1.6,0.3-3,1-4.3c0.7-1.3,1.6-2.2,2.7-2.9s2.5-1.1,4-1.1c1.5,0,2.8,0.4,4,1.1s2.1,1.7,2.7,2.9
			c0.7,1.3,1,2.7,1,4.3C210.8,237.4,210.5,238.9,209.8,240.1z M208.5,232.3c-0.5-1-1.3-1.9-2.2-2.5c-0.9-0.6-2-0.9-3.2-0.9
			c-1.2,0-2.3,0.3-3.2,0.9c-0.9,0.6-1.7,1.4-2.2,2.5c-0.5,1-0.8,2.2-0.8,3.6s0.3,2.5,0.8,3.6c0.5,1.1,1.3,1.9,2.2,2.4
			c0.9,0.6,2,0.9,3.2,0.9c1.2,0,2.3-0.3,3.2-0.9c0.9-0.6,1.7-1.4,2.2-2.4c0.5-1.1,0.8-2.2,0.8-3.6S209,233.3,208.5,232.3z"/>
		<path class="st5" d="M228.5,228c0.1,0.1,0.2,0.3,0.2,0.5v14.7c0,0.2-0.1,0.4-0.2,0.5c-0.1,0.1-0.3,0.2-0.5,0.2
			c-0.2,0-0.4-0.1-0.5-0.2c-0.1-0.1-0.2-0.3-0.2-0.5v-12.7l-5.4,8.2c-0.2,0.2-0.3,0.3-0.5,0.3h0c-0.2,0-0.4-0.1-0.5-0.3l-5.4-8.2
			v12.7c0,0.2-0.1,0.4-0.2,0.5c-0.1,0.1-0.3,0.2-0.5,0.2s-0.4-0.1-0.5-0.2c-0.1-0.1-0.2-0.3-0.2-0.5v-14.7c0-0.2,0.1-0.3,0.2-0.5
			c0.1-0.1,0.3-0.2,0.5-0.2c0.1,0,0.2,0,0.3,0.1c0.1,0.1,0.2,0.1,0.3,0.2l6,9l6.1-9c0.2-0.2,0.4-0.3,0.6-0.3
			C228.3,227.8,228.4,227.9,228.5,228z"/>
	</g>
</g>
<g>
	<g>
		<path class="st5" d="M359.1,228c0.1,0.1,0.2,0.3,0.2,0.5v14.7c0,0.2-0.1,0.4-0.2,0.5c-0.1,0.1-0.3,0.2-0.5,0.2
			c-0.2,0-0.4-0.1-0.5-0.2c-0.1-0.1-0.2-0.3-0.2-0.5v-12.7l-5.4,8.2c-0.2,0.2-0.3,0.3-0.5,0.3h0c-0.2,0-0.4-0.1-0.5-0.3l-5.4-8.2
			v12.7c0,0.2-0.1,0.4-0.2,0.5c-0.1,0.1-0.3,0.2-0.5,0.2c-0.2,0-0.4-0.1-0.5-0.2c-0.1-0.1-0.2-0.3-0.2-0.5v-14.7
			c0-0.2,0.1-0.3,0.2-0.5c0.1-0.1,0.3-0.2,0.5-0.2c0.1,0,0.2,0,0.3,0.1c0.1,0.1,0.2,0.1,0.3,0.2l6,9l6.1-9c0.2-0.2,0.4-0.3,0.6-0.3
			C358.8,227.8,358.9,227.9,359.1,228z"/>
		<path class="st5" d="M375.6,243.3c0,0.2-0.1,0.4-0.2,0.5c-0.1,0.1-0.3,0.2-0.5,0.2c-0.2,0-0.3,0-0.4-0.1c-0.1-0.1-0.2-0.2-0.3-0.3
			l-1.7-4.2h-7.5l-1.7,4.2c-0.1,0.3-0.3,0.5-0.6,0.5c-0.2,0-0.4-0.1-0.5-0.2c-0.1-0.1-0.2-0.3-0.2-0.4v-0.1c0-0.1,0-0.2,0-0.2
			l6.1-14.9c0.1-0.3,0.4-0.5,0.7-0.5c0.2,0,0.3,0,0.4,0.1c0.1,0.1,0.2,0.2,0.3,0.3l6,14.8C375.6,243.1,375.6,243.2,375.6,243.3z
			 M365.6,237.9h6.4l-3.2-7.9L365.6,237.9z"/>
		<path class="st5" d="M387.6,228.9l-5.1,7.1v7.3c0,0.2-0.1,0.4-0.2,0.5c-0.1,0.1-0.3,0.2-0.5,0.2s-0.4-0.1-0.5-0.2
			c-0.1-0.1-0.2-0.3-0.2-0.5v-7.3l-5.2-7c-0.1-0.1-0.2-0.3-0.2-0.5c0-0.2,0.1-0.3,0.2-0.5c0.2-0.1,0.3-0.2,0.5-0.2
			c0.2,0,0.4,0.1,0.6,0.3l4.8,6.5l4.6-6.5c0.2-0.2,0.4-0.3,0.6-0.3c0.2,0,0.3,0.1,0.5,0.2c0.1,0.1,0.2,0.3,0.2,0.5
			C387.8,228.5,387.7,228.7,387.6,228.9z"/>
		<path class="st5" d="M406.3,242.8c0.1,0.1,0.2,0.3,0.2,0.5c0,0.2-0.1,0.4-0.2,0.5s-0.3,0.2-0.5,0.2h-8.6c-0.2,0-0.4-0.1-0.5-0.2
			c-0.1-0.1-0.2-0.3-0.2-0.5c0-0.2,0.1-0.3,0.2-0.5l5.3-5.9c0.9-0.9,1.5-1.7,1.9-2.5c0.4-0.7,0.6-1.4,0.6-2.2c0-1-0.3-1.9-0.9-2.5
			c-0.6-0.6-1.5-0.9-2.6-0.9c-0.8,0-1.4,0.2-2,0.5c-0.6,0.4-1,0.9-1.3,1.6c-0.2,0.3-0.4,0.4-0.6,0.4c-0.2,0-0.3-0.1-0.5-0.2
			s-0.2-0.3-0.2-0.4c0-0.1,0-0.2,0.1-0.3c0.1-0.1,0.1-0.2,0.2-0.4c0.4-0.8,1-1.5,1.8-1.9c0.8-0.5,1.7-0.7,2.6-0.7
			c1.5,0,2.8,0.4,3.6,1.3s1.3,1.9,1.3,3.3c0,0.8-0.2,1.7-0.7,2.6s-1.2,1.9-2.3,3.1l-4.2,4.8h7.1C406,242.6,406.1,242.6,406.3,242.8z
			"/>
		<path class="st5" d="M411.3,243.1c-0.8-0.7-1.5-1.7-1.9-3c-0.4-1.2-0.6-2.7-0.6-4.2c0-1.6,0.2-3,0.6-4.3s1-2.2,1.9-2.9
			c0.8-0.7,1.9-1.1,3.1-1.1c1.2,0,2.2,0.4,3.1,1.1c0.8,0.7,1.5,1.7,1.9,2.9c0.4,1.3,0.6,2.7,0.6,4.3c0,1.6-0.2,3-0.6,4.2
			c-0.4,1.3-1.1,2.2-1.9,3c-0.8,0.7-1.9,1.1-3.1,1.1C413.1,244.1,412.1,243.8,411.3,243.1z M417.4,240.9c0.7-1.2,1.1-2.9,1.1-5
			c0-2.1-0.4-3.8-1.1-5c-0.7-1.2-1.7-1.9-3-1.9c-1.3,0-2.3,0.6-3,1.9c-0.7,1.2-1.1,2.9-1.1,5c0,2.1,0.4,3.8,1.1,5
			c0.7,1.2,1.7,1.9,3,1.9C415.7,242.7,416.7,242.1,417.4,240.9z"/>
		<path class="st5" d="M426.5,228c0.1,0.1,0.2,0.3,0.2,0.5v14.7c0,0.2-0.1,0.4-0.2,0.5c-0.1,0.1-0.3,0.2-0.5,0.2
			c-0.2,0-0.4-0.1-0.5-0.2c-0.1-0.1-0.2-0.3-0.2-0.5v-13.5l-2.9,1.7c-0.1,0.1-0.2,0.1-0.3,0.1c-0.2,0-0.4-0.1-0.5-0.2
			c-0.1-0.2-0.2-0.3-0.2-0.5c0-0.1,0-0.2,0.1-0.3c0.1-0.1,0.2-0.2,0.3-0.3l3.9-2.3c0.2-0.1,0.3-0.1,0.6-0.1
			C426.3,227.8,426.4,227.9,426.5,228z"/>
		<path class="st5" d="M439.6,237.3c0.5,0.7,0.7,1.5,0.7,2.3c0,0.8-0.2,1.6-0.7,2.3c-0.4,0.7-1,1.2-1.8,1.6
			c-0.8,0.4-1.6,0.6-2.5,0.6c-0.9,0-1.7-0.2-2.5-0.6c-0.8-0.4-1.3-0.9-1.8-1.6c-0.4-0.7-0.7-1.4-0.7-2.3c0-0.9,0.2-1.7,0.7-2.3
			c0.5-0.7,1.1-1.2,1.8-1.5c-0.6-0.3-1.1-0.8-1.5-1.4s-0.6-1.3-0.6-2.1c0-0.8,0.2-1.6,0.6-2.2s1-1.2,1.7-1.6
			c0.7-0.4,1.5-0.6,2.3-0.6c0.8,0,1.6,0.2,2.3,0.6c0.7,0.4,1.2,0.9,1.6,1.6c0.4,0.7,0.6,1.4,0.6,2.2c0,0.8-0.2,1.5-0.6,2.1
			s-0.9,1.1-1.6,1.4C438.4,236.1,439.1,236.6,439.6,237.3z M437.9,241.9c0.7-0.6,1-1.3,1-2.3c0-0.6-0.2-1.1-0.5-1.6
			c-0.3-0.5-0.8-0.9-1.3-1.2c-0.5-0.3-1.1-0.4-1.8-0.4s-1.2,0.1-1.7,0.4c-0.5,0.3-1,0.7-1.3,1.2c-0.3,0.5-0.5,1-0.5,1.6
			c0,0.9,0.3,1.7,1,2.3c0.7,0.6,1.5,0.9,2.5,0.9S437.2,242.5,437.9,241.9z M433.1,230c-0.6,0.6-0.9,1.3-0.9,2.2
			c0,0.6,0.1,1.1,0.4,1.6s0.7,0.8,1.2,1.1c0.5,0.3,1,0.4,1.6,0.4c0.6,0,1.1-0.1,1.6-0.4c0.5-0.3,0.9-0.6,1.2-1.1
			c0.3-0.5,0.4-1,0.4-1.6c0-0.9-0.3-1.6-0.9-2.2c-0.6-0.6-1.3-0.9-2.3-0.9C434.4,229.1,433.6,229.4,433.1,230z"/>
		<path class="st5" d="M467.3,228c0.1,0.1,0.2,0.3,0.2,0.5c0,0.2-0.1,0.4-0.2,0.5c-0.1,0.1-0.3,0.2-0.5,0.2h-4.8v14.1
			c0,0.2-0.1,0.4-0.2,0.5c-0.1,0.1-0.3,0.2-0.5,0.2c-0.2,0-0.4-0.1-0.5-0.2c-0.1-0.1-0.2-0.3-0.2-0.5v-14.1h-4.8
			c-0.2,0-0.4-0.1-0.5-0.2s-0.2-0.3-0.2-0.5c0-0.2,0.1-0.3,0.2-0.5c0.1-0.1,0.3-0.2,0.5-0.2h10.9C467,227.8,467.2,227.9,467.3,228z"
			/>
		<path class="st5" d="M483.4,240.1c-0.7,1.3-1.6,2.2-2.7,3c-1.2,0.7-2.5,1.1-4,1.1s-2.8-0.4-4-1.1c-1.2-0.7-2.1-1.7-2.7-3
			c-0.7-1.3-1-2.7-1-4.3c0-1.6,0.3-3,1-4.3c0.7-1.3,1.6-2.2,2.7-2.9c1.2-0.7,2.5-1.1,4-1.1s2.8,0.4,4,1.1c1.2,0.7,2.1,1.7,2.7,2.9
			c0.7,1.3,1,2.7,1,4.3C484.3,237.4,484,238.9,483.4,240.1z M482.1,232.3c-0.5-1-1.3-1.9-2.2-2.5c-0.9-0.6-2-0.9-3.2-0.9
			s-2.3,0.3-3.2,0.9c-0.9,0.6-1.7,1.4-2.2,2.5s-0.8,2.2-0.8,3.6s0.3,2.5,0.8,3.6s1.3,1.9,2.2,2.4c0.9,0.6,2,0.9,3.2,0.9
			s2.3-0.3,3.2-0.9c0.9-0.6,1.7-1.4,2.2-2.4c0.5-1.1,0.8-2.2,0.8-3.6S482.6,233.3,482.1,232.3z"/>
		<path class="st5" d="M514.7,228c0.1,0.1,0.2,0.3,0.2,0.5v14.7c0,0.2-0.1,0.4-0.2,0.5c-0.1,0.1-0.3,0.2-0.5,0.2
			c-0.2,0-0.4-0.1-0.5-0.2c-0.1-0.1-0.2-0.3-0.2-0.5v-12.7l-5.4,8.2c-0.2,0.2-0.3,0.3-0.5,0.3h0c-0.2,0-0.4-0.1-0.5-0.3l-5.4-8.2
			v12.7c0,0.2-0.1,0.4-0.2,0.5c-0.1,0.1-0.3,0.2-0.5,0.2s-0.4-0.1-0.5-0.2c-0.1-0.1-0.2-0.3-0.2-0.5v-14.7c0-0.2,0.1-0.3,0.2-0.5
			c0.1-0.1,0.3-0.2,0.5-0.2c0.1,0,0.2,0,0.3,0.1c0.1,0.1,0.2,0.1,0.3,0.2l6,9l6.1-9c0.2-0.2,0.4-0.3,0.6-0.3
			C514.4,227.8,514.5,227.9,514.7,228z"/>
		<path class="st5" d="M531.2,243.3c0,0.2-0.1,0.4-0.2,0.5s-0.3,0.2-0.5,0.2c-0.2,0-0.3,0-0.4-0.1c-0.1-0.1-0.2-0.2-0.3-0.3
			l-1.7-4.2h-7.5l-1.7,4.2c-0.1,0.3-0.3,0.5-0.6,0.5c-0.2,0-0.4-0.1-0.5-0.2c-0.1-0.1-0.2-0.3-0.2-0.4v-0.1c0-0.1,0-0.2,0-0.2
			l6.1-14.9c0.1-0.3,0.4-0.5,0.7-0.5c0.2,0,0.3,0,0.4,0.1c0.1,0.1,0.2,0.2,0.3,0.3l6,14.8C531.2,243.1,531.2,243.2,531.2,243.3z
			 M521.2,237.9h6.4l-3.2-7.9L521.2,237.9z"/>
		<path class="st5" d="M543.2,228.9l-5.1,7.1v7.3c0,0.2-0.1,0.4-0.2,0.5c-0.1,0.1-0.3,0.2-0.5,0.2s-0.4-0.1-0.5-0.2
			c-0.1-0.1-0.2-0.3-0.2-0.5v-7.3l-5.2-7c-0.1-0.1-0.2-0.3-0.2-0.5c0-0.2,0.1-0.3,0.2-0.5c0.2-0.1,0.3-0.2,0.5-0.2
			c0.2,0,0.4,0.1,0.6,0.3l4.8,6.5l4.6-6.5c0.2-0.2,0.4-0.3,0.6-0.3c0.2,0,0.3,0.1,0.5,0.2c0.1,0.1,0.2,0.3,0.2,0.5
			C543.4,228.5,543.3,228.7,543.2,228.9z"/>
		<path class="st5" d="M561.9,242.8c0.1,0.1,0.2,0.3,0.2,0.5c0,0.2-0.1,0.4-0.2,0.5c-0.1,0.1-0.3,0.2-0.5,0.2h-8.6
			c-0.2,0-0.4-0.1-0.5-0.2c-0.1-0.1-0.2-0.3-0.2-0.5c0-0.2,0.1-0.3,0.2-0.5l5.3-5.9c0.9-0.9,1.5-1.7,1.9-2.5s0.6-1.4,0.6-2.2
			c0-1-0.3-1.9-0.9-2.5c-0.6-0.6-1.5-0.9-2.6-0.9c-0.8,0-1.4,0.2-2,0.5c-0.6,0.4-1,0.9-1.3,1.6c-0.2,0.3-0.4,0.4-0.6,0.4
			c-0.2,0-0.3-0.1-0.5-0.2s-0.2-0.3-0.2-0.4c0-0.1,0-0.2,0.1-0.3c0.1-0.1,0.1-0.2,0.2-0.4c0.4-0.8,1-1.5,1.8-1.9
			c0.8-0.5,1.7-0.7,2.6-0.7c1.5,0,2.8,0.4,3.6,1.3s1.3,1.9,1.3,3.3c0,0.8-0.2,1.7-0.7,2.6s-1.2,1.9-2.3,3.1l-4.2,4.8h7.1
			C561.6,242.6,561.7,242.6,561.9,242.8z"/>
		<path class="st5" d="M566.9,243.1c-0.8-0.7-1.5-1.7-1.9-3c-0.4-1.2-0.6-2.7-0.6-4.2c0-1.6,0.2-3,0.6-4.3s1-2.2,1.9-2.9
			c0.8-0.7,1.9-1.1,3.1-1.1c1.2,0,2.2,0.4,3.1,1.1c0.8,0.7,1.5,1.7,1.9,2.9c0.4,1.3,0.6,2.7,0.6,4.3c0,1.6-0.2,3-0.6,4.2
			c-0.4,1.3-1.1,2.2-1.9,3c-0.8,0.7-1.9,1.1-3.1,1.1C568.7,244.1,567.7,243.8,566.9,243.1z M573,240.9c0.7-1.2,1.1-2.9,1.1-5
			c0-2.1-0.4-3.8-1.1-5c-0.7-1.2-1.7-1.9-3-1.9c-1.3,0-2.3,0.6-3,1.9c-0.7,1.2-1.1,2.9-1.1,5c0,2.1,0.4,3.8,1.1,5
			c0.7,1.2,1.7,1.9,3,1.9C571.2,242.7,572.3,242.1,573,240.9z"/>
		<path class="st5" d="M582.1,228c0.1,0.1,0.2,0.3,0.2,0.5v14.7c0,0.2-0.1,0.4-0.2,0.5c-0.1,0.1-0.3,0.2-0.5,0.2
			c-0.2,0-0.4-0.1-0.5-0.2c-0.1-0.1-0.2-0.3-0.2-0.5v-13.5l-2.9,1.7c-0.1,0.1-0.2,0.1-0.3,0.1c-0.2,0-0.4-0.1-0.5-0.2
			c-0.1-0.2-0.2-0.3-0.2-0.5c0-0.1,0-0.2,0.1-0.3c0.1-0.1,0.2-0.2,0.3-0.3l3.9-2.3c0.2-0.1,0.3-0.1,0.6-0.1
			C581.9,227.8,582,227.9,582.1,228z"/>
		<path class="st5" d="M593.7,228.4c0.8,0.5,1.4,1.2,1.8,2.1c0.4,0.9,0.6,1.8,0.6,2.8c0,1.3-0.3,2.7-0.8,4.1c-0.5,1.5-1.3,2.8-2.4,4
			c-1.1,1.2-2.3,2.1-3.8,2.6c-0.1,0-0.2,0-0.3,0c-0.2,0-0.4-0.1-0.5-0.2c-0.1-0.1-0.2-0.3-0.2-0.5c0-0.3,0.2-0.5,0.6-0.7
			c1.3-0.5,2.4-1.4,3.5-2.6c1.1-1.2,1.8-2.5,2.2-3.9c-0.4,0.5-1,0.9-1.6,1.2c-0.7,0.3-1.4,0.4-2.1,0.4c-0.9,0-1.7-0.2-2.4-0.7
			s-1.3-1.1-1.7-1.9c-0.4-0.8-0.6-1.7-0.6-2.6c0-0.9,0.2-1.8,0.7-2.5c0.4-0.8,1-1.4,1.8-1.9s1.6-0.7,2.6-0.7
			C591.9,227.6,592.9,227.8,593.7,228.4z M592.8,236.1c0.6-0.4,1.1-0.8,1.4-1.4c0.3-0.6,0.5-1.3,0.5-2c0-0.7-0.2-1.3-0.5-1.9
			c-0.3-0.6-0.8-1-1.3-1.4c-0.6-0.3-1.3-0.5-2-0.5c-0.7,0-1.3,0.2-1.9,0.5c-0.6,0.3-1,0.8-1.3,1.4c-0.3,0.6-0.5,1.2-0.5,2
			c0,0.7,0.1,1.3,0.4,1.9c0.3,0.6,0.7,1.1,1.2,1.4c0.5,0.4,1.2,0.5,1.9,0.5C591.5,236.6,592.2,236.4,592.8,236.1z"/>
	</g>
</g>
<g>
	<g>
		<path class="st5" d="M106,347.6c-0.9-0.3-1.7-0.7-2.4-1.4c-0.4-0.4-0.6-0.8-0.6-1.2c0-0.4,0.1-0.7,0.4-0.9s0.6-0.4,0.9-0.4
			c0.3,0,0.6,0.1,0.8,0.3c0.6,0.5,1.2,0.9,1.8,1.1c0.6,0.2,1.3,0.3,2.1,0.3c0.9,0,1.6-0.2,2.2-0.6c0.6-0.4,0.9-0.9,0.9-1.4
			c0-0.7-0.3-1.2-0.9-1.6c-0.6-0.4-1.6-0.7-2.9-0.9c-3.4-0.5-5-2.1-5-4.7c0-1,0.3-1.8,0.8-2.5c0.5-0.7,1.2-1.3,2.1-1.6
			s1.8-0.6,2.9-0.6c1,0,1.9,0.1,2.7,0.4c0.9,0.3,1.6,0.7,2.1,1.1c0.4,0.4,0.7,0.8,0.7,1.2c0,0.4-0.1,0.7-0.4,0.9
			c-0.3,0.3-0.6,0.4-0.9,0.4c-0.2,0-0.4-0.1-0.6-0.2c-0.4-0.3-1-0.6-1.7-0.9c-0.7-0.3-1.4-0.4-1.9-0.4c-1,0-1.7,0.2-2.2,0.5
			c-0.5,0.4-0.8,0.8-0.8,1.4c0,0.7,0.3,1.2,0.8,1.5c0.5,0.3,1.4,0.6,2.6,0.8c1.3,0.2,2.4,0.5,3.2,0.9c0.8,0.4,1.4,0.9,1.8,1.5
			c0.4,0.6,0.6,1.4,0.6,2.5c0,1-0.3,1.8-0.8,2.5s-1.3,1.3-2.2,1.7c-0.9,0.4-1.9,0.6-2.9,0.6C107.8,348,106.8,347.9,106,347.6z"/>
	</g>
</g>
<g>
	<g>
		<path class="st5" d="M114.4,410.3c0.3,0.3,0.4,0.6,0.4,1v13.3c0,0.4-0.1,0.7-0.4,1c-0.3,0.3-0.6,0.4-1,0.4c-0.4,0-0.8-0.1-1-0.4
			c-0.3-0.3-0.4-0.6-0.4-1v-9.3l-3.8,5.8c-0.2,0.2-0.3,0.3-0.5,0.4c-0.2,0.1-0.4,0.2-0.6,0.2c-0.2,0-0.4,0-0.6-0.2
			c-0.2-0.1-0.4-0.3-0.5-0.4l-3.8-6v9.5c0,0.4-0.1,0.8-0.4,1c-0.2,0.3-0.6,0.4-1,0.4c-0.4,0-0.7-0.1-0.9-0.4c-0.2-0.3-0.4-0.6-0.4-1
			v-13.3c0-0.4,0.1-0.7,0.4-1c0.3-0.3,0.6-0.4,1-0.4c0.2,0,0.5,0.1,0.7,0.2c0.2,0.1,0.4,0.3,0.5,0.4l5,7.7l5.2-7.7
			c0.1-0.2,0.3-0.3,0.5-0.4c0.2-0.1,0.4-0.2,0.6-0.2C113.8,409.9,114.1,410,114.4,410.3z"/>
	</g>
</g>
<g>
	<g>
		<path class="st5" d="M115.4,488.5c0.3,0.2,0.4,0.6,0.4,1c0,0.4-0.1,0.7-0.4,1c-0.3,0.2-0.6,0.4-1,0.4h-3.6v12.1
			c0,0.4-0.1,0.7-0.4,1c-0.3,0.3-0.7,0.4-1.1,0.4c-0.4,0-0.8-0.1-1.1-0.4c-0.3-0.3-0.4-0.6-0.4-1v-12.1h-3.6c-0.4,0-0.8-0.1-1-0.4
			c-0.3-0.2-0.4-0.6-0.4-1c0-0.4,0.1-0.7,0.4-0.9c0.3-0.2,0.6-0.4,1-0.4h10.2C114.8,488.2,115.1,488.3,115.4,488.5z"/>
	</g>
</g>
<g>
	<g>
		<path class="st5" d="M114.9,566.8c0.3,0.3,0.5,0.6,0.5,1.1c0,0.1,0,0.3-0.1,0.5l-4.5,13.3c-0.1,0.3-0.3,0.5-0.5,0.6
			c-0.2,0.2-0.5,0.2-0.8,0.3c-0.3,0-0.5-0.1-0.8-0.2c-0.2-0.2-0.4-0.4-0.6-0.7l-3.3-7.4l-3.3,7.4c-0.1,0.3-0.3,0.5-0.6,0.7
			c-0.2,0.2-0.5,0.2-0.8,0.2c-0.3,0-0.5-0.1-0.8-0.3c-0.2-0.2-0.4-0.4-0.5-0.6l-4.5-13.3c0-0.2-0.1-0.3-0.1-0.5
			c0-0.4,0.2-0.8,0.5-1.1s0.7-0.4,1-0.4c0.3,0,0.6,0.1,0.8,0.2s0.4,0.4,0.5,0.7l3.4,10.4l3-7.2c0.1-0.3,0.3-0.5,0.5-0.7
			c0.2-0.2,0.5-0.2,0.8-0.2c0.3,0,0.5,0.1,0.8,0.2c0.2,0.2,0.4,0.4,0.5,0.7l2.8,7.1l3.4-10.3c0.1-0.3,0.3-0.5,0.5-0.7
			s0.5-0.2,0.8-0.2C114.2,566.3,114.5,566.5,114.9,566.8z"/>
	</g>
</g>
<g>
	<g>
		<path class="st5" d="M115.4,645c0.3,0.2,0.4,0.6,0.4,1s-0.1,0.7-0.4,1s-0.6,0.4-1,0.4h-3.6v12.1c0,0.4-0.1,0.7-0.4,1
			c-0.3,0.3-0.7,0.4-1.1,0.4c-0.4,0-0.8-0.1-1.1-0.4c-0.3-0.3-0.4-0.6-0.4-1v-12.1h-3.6c-0.4,0-0.8-0.1-1-0.4
			c-0.3-0.2-0.4-0.6-0.4-1c0-0.4,0.1-0.7,0.4-0.9c0.3-0.2,0.6-0.4,1-0.4h10.2C114.8,644.6,115.1,644.8,115.4,645z"/>
	</g>
</g>
<g>
	<g>
		<path class="st5" d="M106.8,725.5v4h5c0.4,0,0.7,0.1,1,0.4c0.3,0.3,0.4,0.6,0.4,1c0,0.3-0.1,0.6-0.4,0.9s-0.6,0.4-1,0.4h-5v5.4
			c0,0.4-0.1,0.7-0.4,1c-0.3,0.3-0.6,0.4-1,0.4c-0.4,0-0.8-0.1-1-0.4c-0.3-0.3-0.4-0.6-0.4-1v-13.3c0-0.4,0.1-0.7,0.4-1
			c0.3-0.3,0.6-0.4,1-0.4h7.5c0.4,0,0.7,0.1,1,0.4c0.3,0.3,0.4,0.6,0.4,1c0,0.3-0.1,0.6-0.4,0.9c-0.3,0.3-0.6,0.4-1,0.4H106.8z"/>
	</g>
</g>
<g>
	<g>
		<path class="st5" d="M106,817c-0.9-0.3-1.7-0.7-2.4-1.4c-0.4-0.4-0.6-0.8-0.6-1.2c0-0.4,0.1-0.7,0.4-0.9s0.6-0.4,0.9-0.4
			c0.3,0,0.6,0.1,0.8,0.3c0.6,0.5,1.2,0.9,1.8,1.1c0.6,0.2,1.3,0.3,2.1,0.3c0.9,0,1.6-0.2,2.2-0.6c0.6-0.4,0.9-0.9,0.9-1.4
			c0-0.7-0.3-1.2-0.9-1.6c-0.6-0.4-1.6-0.7-2.9-0.9c-3.4-0.5-5-2.1-5-4.7c0-1,0.3-1.8,0.8-2.5c0.5-0.7,1.2-1.3,2.1-1.6
			s1.8-0.6,2.9-0.6c1,0,1.9,0.1,2.7,0.4c0.9,0.3,1.6,0.7,2.1,1.1c0.4,0.4,0.7,0.8,0.7,1.2c0,0.4-0.1,0.7-0.4,0.9
			c-0.3,0.3-0.6,0.4-0.9,0.4c-0.2,0-0.4-0.1-0.6-0.2c-0.4-0.3-1-0.6-1.7-0.9c-0.7-0.3-1.4-0.4-1.9-0.4c-1,0-1.7,0.2-2.2,0.5
			c-0.5,0.4-0.8,0.8-0.8,1.4c0,0.7,0.3,1.2,0.8,1.5c0.5,0.3,1.4,0.6,2.6,0.8c1.3,0.2,2.4,0.5,3.2,0.9c0.8,0.4,1.4,0.9,1.8,1.5
			c0.4,0.6,0.6,1.4,0.6,2.5c0,1-0.3,1.8-0.8,2.5s-1.3,1.3-2.2,1.7c-0.9,0.4-1.9,0.6-2.9,0.6C107.8,817.5,106.8,817.3,106,817z"/>
	</g>
</g>
<rect x="148.7" y="378.9" class="st0" width="76.5" height="76.5"/>
<g>
	<rect x="226.4" y="302.4" class="st10" width="76.5" height="76.5"/>
</g>
<rect x="305.8" y="455.3" class="st0" width="76.5" height="76.5"/>
<rect x="148.7" y="608.3" class="st0" width="76.5" height="76.5"/>
<rect x="384.3" y="531.6" class="st0" width="76.5" height="76.5"/>
<rect x="305.8" y="684.8" class="st0" width="76.5" height="76.5"/>
<rect x="227" y="608.3" class="st0" width="76.5" height="76.5"/>
<rect x="148.7" y="761.2" class="st0" width="76.5" height="76.5"/>
<g>
	<rect x="305.8" y="761.2" class="st10" width="76.5" height="76.5"/>
</g>
<rect x="384.3" y="302.4" class="st0" width="76.5" height="76.5"/>
<line class="st3" x1="147.9" y1="684.8" x2="1156.3" y2="684.8"/>
<line class="st3" x1="147.9" y1="608.3" x2="1156.3" y2="608.3"/>
<line class="st3" x1="147.9" y1="531.8" x2="1156.3" y2="531.8"/>
<line class="st3" x1="147.9" y1="455.3" x2="1156.3" y2="455.3"/>
<line class="st3" x1="147.9" y1="378.9" x2="1156.3" y2="378.9"/>
<line class="st3" x1="147.9" y1="761.2" x2="1156.3" y2="761.2"/>
<line class="st3" x1="226.4" y1="302.4" x2="226.4" y2="837.3"/>
<line class="st3" x1="304.8" y1="302.4" x2="304.8" y2="837.3"/>
<line class="st3" x1="383.3" y1="302.4" x2="383.3" y2="837.3"/>
<line class="st3" x1="461.7" y1="302.4" x2="461.7" y2="837.3"/>
<line class="st3" x1="540.2" y1="302.4" x2="540.2" y2="837.3"/>
<line class="st3" x1="618.6" y1="302.4" x2="618.6" y2="843.6"/>
<line class="st3" x1="694.6" y1="302.4" x2="694.6" y2="837.3"/>
<line class="st3" x1="773" y1="302.4" x2="773" y2="837.3"/>
<line class="st3" x1="851.5" y1="302.4" x2="851.5" y2="837.3"/>
<line class="st3" x1="930" y1="302.4" x2="930" y2="837.3"/>
<line class="st3" x1="1008.4" y1="302.4" x2="1008.4" y2="837.3"/>
<line class="st3" x1="1086.9" y1="302.4" x2="1086.9" y2="843.6"/>
<rect x="147.9" y="302.4" class="st3" width="1008.4" height="534.9"/>
<rect x="540.2" y="534.2" transform="matrix(-1 -1.224647e-16 1.224647e-16 -1 1621.184 1713.5179)" class="st32" width="540.8" height="645.1"/>
<rect x="1080" y="534.2" transform="matrix(-1 -1.224647e-16 1.224647e-16 -1 2700.8875 1713.5179)" class="st32" width="540.8" height="645.1"/>
<line class="st3" x1="1137.4" y1="1063.5" x2="1559.4" y2="1063.5"/>
<line class="st3" x1="1137.4" y1="987.9" x2="1559.4" y2="987.9"/>
<line class="st3" x1="1137.4" y1="912.4" x2="1559.4" y2="912.4"/>
<line class="st3" x1="1139.1" y1="836.8" x2="1561.1" y2="836.8"/>
<line class="st3" x1="1139.1" y1="761.2" x2="1561.1" y2="761.2"/>
<line class="st3" x1="1139.1" y1="685.7" x2="1561.1" y2="685.7"/>
<g>
	<line class="st3" x1="599.6" y1="685.7" x2="1021.6" y2="685.7"/>
	<line class="st3" x1="599.6" y1="761.2" x2="1021.6" y2="761.2"/>
	<line class="st3" x1="599.6" y1="836.8" x2="1021.6" y2="836.8"/>
	<line class="st3" x1="599.6" y1="912.4" x2="1021.6" y2="912.4"/>
	<line class="st3" x1="599.6" y1="987.9" x2="1021.6" y2="987.9"/>
	<line class="st3" x1="599.6" y1="1063.5" x2="1021.6" y2="1063.5"/>
</g>
<rect x="1230.9" y="881.3" class="st0" width="62.7" height="182.2"/>
<rect x="1319.1" y="754.6" class="st0" width="62.7" height="308.9"/>
<rect x="1407.3" y="842.4" class="st0" width="62.7" height="220.2"/>
<rect x="1230.9" y="999.7" class="st5" width="62.7" height="62.7"/>
<rect x="1319.1" y="947.1" class="st5" width="62.7" height="116.2"/>
<rect x="1407.3" y="919.2" class="st5" width="62.7" height="143.5"/>
<g>
	<g>
		<path class="st5" d="M1248,590.4c-0.7,1.3-1.6,2.2-2.7,3c-1.2,0.7-2.5,1.1-4,1.1c-1.5,0-2.8-0.4-4-1.1c-1.2-0.7-2.1-1.7-2.7-3
			c-0.7-1.3-1-2.7-1-4.3c0-1.6,0.3-3,1-4.3c0.7-1.3,1.6-2.2,2.7-2.9s2.5-1.1,4-1.1c1.5,0,2.8,0.4,4,1.1s2.1,1.7,2.7,2.9
			c0.7,1.3,1,2.7,1,4.3C1249,587.7,1248.6,589.1,1248,590.4z M1246.7,582.5c-0.5-1-1.3-1.9-2.2-2.5c-0.9-0.6-2-0.9-3.2-0.9
			c-1.2,0-2.3,0.3-3.2,0.9c-0.9,0.6-1.7,1.4-2.2,2.5c-0.5,1-0.8,2.2-0.8,3.6s0.3,2.5,0.8,3.6c0.5,1.1,1.3,1.9,2.2,2.4
			c0.9,0.6,2,0.9,3.2,0.9c1.2,0,2.3-0.3,3.2-0.9c0.9-0.6,1.7-1.4,2.2-2.4c0.5-1.1,0.8-2.2,0.8-3.6S1247.2,583.6,1246.7,582.5z"/>
		<path class="st5" d="M1260.6,578.7c0.7,0.4,1.2,0.9,1.6,1.6s0.6,1.5,0.6,2.4s-0.2,1.7-0.6,2.4s-0.9,1.3-1.6,1.7
			c-0.7,0.4-1.4,0.6-2.3,0.6h-4.8v6.1c0,0.2-0.1,0.4-0.2,0.5c-0.1,0.1-0.3,0.2-0.5,0.2s-0.4-0.1-0.5-0.2c-0.1-0.1-0.2-0.3-0.2-0.5
			v-14.7c0-0.2,0.1-0.4,0.2-0.5c0.1-0.1,0.3-0.2,0.5-0.2h5.5C1259.2,578.1,1260,578.3,1260.6,578.7z M1260.5,585.1
			c0.6-0.6,0.8-1.4,0.8-2.4c0-1-0.3-1.7-0.8-2.3s-1.3-0.9-2.2-0.9h-4.8v6.6h4.8C1259.3,586,1260,585.7,1260.5,585.1z"/>
		<path class="st5" d="M1276.7,578.3c0.1,0.1,0.2,0.3,0.2,0.5c0,0.2-0.1,0.4-0.2,0.5s-0.3,0.2-0.5,0.2h-4.8v14.1
			c0,0.2-0.1,0.4-0.2,0.5c-0.1,0.1-0.3,0.2-0.5,0.2c-0.2,0-0.4-0.1-0.5-0.2c-0.1-0.1-0.2-0.3-0.2-0.5v-14.1h-4.8
			c-0.2,0-0.4-0.1-0.5-0.2c-0.1-0.1-0.2-0.3-0.2-0.5c0-0.2,0.1-0.3,0.2-0.5c0.1-0.1,0.3-0.2,0.5-0.2h10.9
			C1276.4,578.1,1276.6,578.1,1276.7,578.3z"/>
		<path class="st5" d="M1281,594c-0.1,0.1-0.3,0.2-0.5,0.2c-0.2,0-0.4-0.1-0.5-0.2c-0.1-0.1-0.2-0.3-0.2-0.5v-14.7
			c0-0.2,0.1-0.4,0.2-0.5c0.1-0.1,0.3-0.2,0.5-0.2c0.2,0,0.4,0.1,0.5,0.2c0.1,0.1,0.2,0.3,0.2,0.5v14.7
			C1281.3,593.7,1281.2,593.8,1281,594z"/>
		<path class="st5" d="M1300.1,578.3c0.1,0.1,0.2,0.3,0.2,0.5v14.7c0,0.2-0.1,0.4-0.2,0.5c-0.1,0.1-0.3,0.2-0.5,0.2
			c-0.2,0-0.4-0.1-0.5-0.2c-0.1-0.1-0.2-0.3-0.2-0.5v-12.7l-5.4,8.2c-0.2,0.2-0.3,0.3-0.5,0.3h0c-0.2,0-0.4-0.1-0.5-0.3l-5.4-8.2
			v12.7c0,0.2-0.1,0.4-0.2,0.5c-0.1,0.1-0.3,0.2-0.5,0.2c-0.2,0-0.4-0.1-0.5-0.2c-0.1-0.1-0.2-0.3-0.2-0.5v-14.7
			c0-0.2,0.1-0.3,0.2-0.5c0.1-0.1,0.3-0.2,0.5-0.2c0.1,0,0.2,0,0.3,0.1c0.1,0.1,0.2,0.1,0.3,0.2l6,9l6.1-9c0.2-0.2,0.4-0.3,0.6-0.3
			C1299.8,578.1,1300,578.1,1300.1,578.3z"/>
		<path class="st5" d="M1316.7,593.5c0,0.2-0.1,0.4-0.2,0.5c-0.1,0.1-0.3,0.2-0.5,0.2c-0.2,0-0.3,0-0.4-0.1
			c-0.1-0.1-0.2-0.2-0.3-0.3l-1.7-4.2h-7.5l-1.7,4.2c-0.1,0.3-0.3,0.5-0.6,0.5c-0.2,0-0.4-0.1-0.5-0.2c-0.1-0.1-0.2-0.3-0.2-0.4
			v-0.1c0-0.1,0-0.2,0-0.2l6.1-14.9c0.1-0.3,0.4-0.5,0.7-0.5c0.2,0,0.3,0,0.4,0.1c0.1,0.1,0.2,0.2,0.3,0.3l6,14.8
			C1316.6,593.4,1316.7,593.5,1316.7,593.5z M1306.6,588.2h6.4l-3.2-7.9L1306.6,588.2z"/>
		<path class="st5" d="M1328.9,593c0.1,0.1,0.2,0.3,0.2,0.5s-0.1,0.4-0.2,0.5c-0.1,0.1-0.3,0.2-0.5,0.2h-8.2c-0.2,0-0.4-0.1-0.5-0.2
			c-0.1-0.1-0.2-0.3-0.2-0.5v-14.7c0-0.2,0.1-0.4,0.2-0.5c0.1-0.1,0.3-0.2,0.5-0.2c0.2,0,0.4,0.1,0.5,0.2c0.1,0.1,0.2,0.3,0.2,0.5
			v14.1h7.5C1328.6,592.8,1328.7,592.9,1328.9,593z"/>
		<path class="st5" d="M1346.4,578.7c0.7,0.4,1.2,0.9,1.6,1.6c0.4,0.7,0.6,1.5,0.6,2.4s-0.2,1.7-0.6,2.4c-0.4,0.7-0.9,1.3-1.6,1.7
			c-0.7,0.4-1.4,0.6-2.3,0.6h-4.8v6.1c0,0.2-0.1,0.4-0.2,0.5c-0.1,0.1-0.3,0.2-0.5,0.2c-0.2,0-0.4-0.1-0.5-0.2
			c-0.1-0.1-0.2-0.3-0.2-0.5v-14.7c0-0.2,0.1-0.4,0.2-0.5c0.1-0.1,0.3-0.2,0.5-0.2h5.5C1345,578.1,1345.7,578.3,1346.4,578.7z
			 M1346.3,585.1c0.6-0.6,0.8-1.4,0.8-2.4c0-1-0.3-1.7-0.8-2.3c-0.6-0.6-1.3-0.9-2.2-0.9h-4.8v6.6h4.8
			C1345,586,1345.7,585.7,1346.3,585.1z"/>
		<path class="st5" d="M1365.1,590.4c-0.7,1.3-1.6,2.2-2.7,3c-1.2,0.7-2.5,1.1-4,1.1c-1.5,0-2.8-0.4-4-1.1c-1.2-0.7-2.1-1.7-2.7-3
			c-0.7-1.3-1-2.7-1-4.3c0-1.6,0.3-3,1-4.3c0.7-1.3,1.6-2.2,2.7-2.9s2.5-1.1,4-1.1c1.5,0,2.8,0.4,4,1.1s2.1,1.7,2.7,2.9
			c0.7,1.3,1,2.7,1,4.3C1366.1,587.7,1365.7,589.1,1365.1,590.4z M1363.8,582.5c-0.5-1-1.3-1.9-2.2-2.5c-0.9-0.6-2-0.9-3.2-0.9
			c-1.2,0-2.3,0.3-3.2,0.9c-0.9,0.6-1.7,1.4-2.2,2.5c-0.5,1-0.8,2.2-0.8,3.6s0.3,2.5,0.8,3.6c0.5,1.1,1.3,1.9,2.2,2.4
			c0.9,0.6,2,0.9,3.2,0.9c1.2,0,2.3-0.3,3.2-0.9c0.9-0.6,1.7-1.4,2.2-2.4c0.5-1.1,0.8-2.2,0.8-3.6S1364.3,583.6,1363.8,582.5z"/>
		<path class="st5" d="M1370.7,593.9c-0.9-0.4-1.7-0.9-2.5-1.7c-0.2-0.2-0.3-0.3-0.3-0.6c0-0.2,0.1-0.4,0.2-0.5s0.3-0.2,0.5-0.2
			c0.2,0,0.4,0.1,0.5,0.2c1.2,1.3,2.7,2,4.5,2c1.1,0,2-0.3,2.7-0.8s1.1-1.2,1.1-2c0-0.7-0.2-1.2-0.5-1.6c-0.4-0.4-0.8-0.8-1.4-1.1
			c-0.6-0.3-1.3-0.6-2.2-0.9c-1-0.3-1.8-0.6-2.5-1s-1.2-0.8-1.6-1.4c-0.4-0.6-0.6-1.3-0.6-2.2c0-0.8,0.2-1.5,0.7-2.2
			c0.4-0.6,1.1-1.1,1.8-1.5c0.8-0.4,1.7-0.5,2.7-0.5c0.9,0,1.8,0.2,2.6,0.5s1.5,0.8,2,1.3c0.2,0.3,0.3,0.5,0.3,0.7
			c0,0.2-0.1,0.3-0.2,0.5c-0.2,0.1-0.3,0.2-0.5,0.2c-0.2,0-0.3-0.1-0.4-0.2c-0.4-0.5-1-0.9-1.7-1.2c-0.7-0.3-1.4-0.5-2.2-0.5
			c-1.1,0-2,0.3-2.7,0.7c-0.7,0.5-1.1,1.2-1.1,2c0,0.9,0.3,1.6,1,2c0.7,0.5,1.6,0.9,2.9,1.3c1.1,0.3,2,0.7,2.7,1
			c0.7,0.3,1.3,0.8,1.7,1.4c0.4,0.6,0.7,1.4,0.7,2.4c0,0.8-0.2,1.5-0.7,2.1c-0.5,0.6-1.1,1.1-1.9,1.5c-0.8,0.4-1.7,0.6-2.7,0.6
			C1372.6,594.4,1371.6,594.2,1370.7,593.9z"/>
		<path class="st5" d="M1393,578.3c0.1,0.1,0.2,0.3,0.2,0.5c0,0.2-0.1,0.4-0.2,0.5s-0.3,0.2-0.5,0.2h-4.8v14.1
			c0,0.2-0.1,0.4-0.2,0.5c-0.1,0.1-0.3,0.2-0.5,0.2c-0.2,0-0.4-0.1-0.5-0.2c-0.1-0.1-0.2-0.3-0.2-0.5v-14.1h-4.8
			c-0.2,0-0.4-0.1-0.5-0.2c-0.1-0.1-0.2-0.3-0.2-0.5c0-0.2,0.1-0.3,0.2-0.5c0.1-0.1,0.3-0.2,0.5-0.2h10.9
			C1392.7,578.1,1392.9,578.1,1393,578.3z"/>
		<path class="st5" d="M1418.1,593c0.1,0.1,0.2,0.3,0.2,0.5s-0.1,0.4-0.2,0.5c-0.1,0.1-0.3,0.2-0.5,0.2h-8.2c-0.2,0-0.4-0.1-0.5-0.2
			c-0.1-0.1-0.2-0.3-0.2-0.5v-14.7c0-0.2,0.1-0.4,0.2-0.5c0.1-0.1,0.3-0.2,0.5-0.2c0.2,0,0.4,0.1,0.5,0.2c0.1,0.1,0.2,0.3,0.2,0.5
			v14.1h7.5C1417.8,592.8,1418,592.9,1418.1,593z"/>
		<path class="st5" d="M1430.6,593c0.1,0.1,0.2,0.3,0.2,0.5c0,0.2-0.1,0.4-0.2,0.5s-0.3,0.2-0.5,0.2h-8.4c-0.2,0-0.4-0.1-0.5-0.2
			c-0.1-0.1-0.2-0.3-0.2-0.5v-14.7c0-0.2,0.1-0.4,0.2-0.5c0.1-0.1,0.3-0.2,0.5-0.2h8.4c0.2,0,0.4,0.1,0.5,0.2
			c0.1,0.1,0.2,0.3,0.2,0.5c0,0.2-0.1,0.4-0.2,0.5c-0.1,0.1-0.3,0.2-0.5,0.2h-7.7v5.8h6.6c0.2,0,0.4,0.1,0.5,0.2
			c0.1,0.1,0.2,0.3,0.2,0.5s-0.1,0.4-0.2,0.5c-0.1,0.1-0.3,0.2-0.5,0.2h-6.6v6.3h7.7C1430.3,592.8,1430.4,592.9,1430.6,593z"/>
		<path class="st5" d="M1446.2,578.3c0.1,0.1,0.2,0.3,0.2,0.5v14.7c0,0.2-0.1,0.4-0.2,0.5c-0.1,0.1-0.3,0.2-0.5,0.2
			c-0.1,0-0.2,0-0.3-0.1c-0.1,0-0.2-0.1-0.2-0.2l-9.9-13.3v12.9c0,0.2-0.1,0.3-0.2,0.4c-0.1,0.1-0.3,0.2-0.4,0.2
			c-0.2,0-0.3-0.1-0.5-0.2c-0.1-0.1-0.2-0.3-0.2-0.4v-14.8c0-0.2,0.1-0.4,0.2-0.5c0.1-0.1,0.3-0.2,0.5-0.2c0.2,0,0.4,0.1,0.6,0.3
			l9.9,13.4v-13c0-0.2,0.1-0.3,0.2-0.5c0.1-0.1,0.3-0.2,0.5-0.2C1446,578.1,1446.1,578.1,1446.2,578.3z"/>
		<path class="st5" d="M1463,586.2c0.1,0.1,0.2,0.3,0.2,0.5v5.5c0,0.3-0.1,0.5-0.3,0.6c-0.7,0.5-1.5,0.8-2.3,1.1
			c-0.8,0.3-1.7,0.4-2.6,0.4c-1.6,0-3-0.4-4.2-1.1c-1.3-0.7-2.2-1.7-3-3s-1.1-2.7-1.1-4.2c0-1.6,0.4-3,1.1-4.2s1.7-2.2,3-3
			c1.3-0.7,2.7-1.1,4.2-1.1c0.8,0,1.6,0.1,2.4,0.3s1.4,0.5,2,0.9c0.2,0.1,0.3,0.3,0.3,0.6c0,0.2-0.1,0.4-0.2,0.5
			c-0.1,0.1-0.3,0.2-0.4,0.2c-0.2,0-0.3,0-0.4-0.1c-1.2-0.6-2.4-0.9-3.7-0.9c-1.3,0-2.5,0.3-3.5,0.9s-1.8,1.4-2.4,2.5
			c-0.6,1.1-0.9,2.2-0.9,3.5c0,1.3,0.3,2.5,0.9,3.5c0.6,1.1,1.4,1.9,2.4,2.5s2.2,0.9,3.5,0.9c0.7,0,1.3-0.1,2-0.3s1.3-0.4,1.8-0.8
			v-4.6h-3.6c-0.2,0-0.4-0.1-0.5-0.2c-0.1-0.1-0.2-0.3-0.2-0.5c0-0.2,0.1-0.4,0.2-0.5s0.3-0.2,0.5-0.2h4.4
			C1462.7,586.1,1462.9,586.1,1463,586.2z"/>
		<path class="st5" d="M1476.9,578.3c0.1,0.1,0.2,0.3,0.2,0.5c0,0.2-0.1,0.4-0.2,0.5s-0.3,0.2-0.5,0.2h-4.8v14.1
			c0,0.2-0.1,0.4-0.2,0.5c-0.1,0.1-0.3,0.2-0.5,0.2c-0.2,0-0.4-0.1-0.5-0.2c-0.1-0.1-0.2-0.3-0.2-0.5v-14.1h-4.8
			c-0.2,0-0.4-0.1-0.5-0.2c-0.1-0.1-0.2-0.3-0.2-0.5c0-0.2,0.1-0.3,0.2-0.5c0.1-0.1,0.3-0.2,0.5-0.2h10.9
			C1476.6,578.1,1476.8,578.1,1476.9,578.3z"/>
		<path class="st5" d="M1492.1,578.3c0.1,0.1,0.2,0.3,0.2,0.5v14.7c0,0.2-0.1,0.4-0.2,0.5c-0.1,0.1-0.3,0.2-0.5,0.2
			c-0.2,0-0.4-0.1-0.5-0.2c-0.1-0.1-0.2-0.3-0.2-0.5v-6.9h-9.3v6.9c0,0.2-0.1,0.4-0.2,0.5c-0.1,0.1-0.3,0.2-0.5,0.2
			c-0.2,0-0.4-0.1-0.5-0.2c-0.1-0.1-0.2-0.3-0.2-0.5v-14.7c0-0.2,0.1-0.4,0.2-0.5c0.1-0.1,0.3-0.2,0.5-0.2c0.2,0,0.4,0.1,0.5,0.2
			c0.1,0.1,0.2,0.3,0.2,0.5v6.5h9.3v-6.5c0-0.2,0.1-0.4,0.2-0.5c0.1-0.1,0.3-0.2,0.5-0.2C1491.8,578.1,1492,578.1,1492.1,578.3z"/>
	</g>
</g>
<g>
	<g>
		<path class="st5" d="M702.2,587.2c0.6,0.7,0.9,1.6,0.9,2.7c0,1.4-0.5,2.4-1.5,3.2c-1,0.7-2.5,1.1-4.4,1.1H690v-16.1h6.7
			c1.7,0,3.1,0.4,4.1,1.1c1,0.7,1.5,1.7,1.5,3c0,0.9-0.2,1.7-0.7,2.3c-0.5,0.6-1.1,1.1-2,1.4C700.7,586.1,701.5,586.5,702.2,587.2z
			 M691.1,579.1v6.4h5.5c1.4,0,2.5-0.3,3.3-0.8s1.1-1.3,1.1-2.4c0-1-0.4-1.8-1.1-2.4s-1.8-0.8-3.3-0.8H691.1z M700.7,592.3
			c0.8-0.5,1.2-1.4,1.2-2.5s-0.4-2-1.2-2.5c-0.8-0.5-2-0.8-3.6-0.8h-6v6.6h6C698.7,593.2,699.9,592.9,700.7,592.3z"/>
		<path class="st5" d="M718.4,593.1v1.1h-11.1v-16.1H718v1.1h-9.6v6.3h8.6v1h-8.6v6.6H718.4z"/>
		<path class="st5" d="M723.5,593.7c-1.1-0.4-1.9-0.9-2.5-1.6l0.5-0.9c0.6,0.6,1.3,1.1,2.3,1.5c1,0.4,2,0.6,3,0.6
			c1.5,0,2.7-0.3,3.5-0.9c0.8-0.6,1.2-1.3,1.2-2.3c0-0.7-0.2-1.3-0.6-1.7s-0.9-0.8-1.5-1s-1.4-0.5-2.5-0.7c-1.2-0.3-2.1-0.6-2.8-0.9
			c-0.7-0.3-1.3-0.7-1.8-1.3c-0.5-0.6-0.7-1.3-0.7-2.3c0-0.8,0.2-1.5,0.6-2.2c0.4-0.7,1-1.2,1.9-1.6c0.9-0.4,1.9-0.6,3.2-0.6
			c0.9,0,1.8,0.1,2.6,0.4c0.9,0.3,1.6,0.6,2.2,1.1l-0.4,0.9c-0.6-0.4-1.4-0.8-2.1-1s-1.5-0.3-2.3-0.3c-1.5,0-2.6,0.3-3.4,0.9
			c-0.8,0.6-1.2,1.4-1.2,2.3c0,0.7,0.2,1.3,0.6,1.7c0.4,0.4,0.9,0.8,1.5,1s1.4,0.5,2.5,0.7c1.2,0.3,2.1,0.6,2.8,0.9
			c0.7,0.3,1.3,0.7,1.8,1.3s0.7,1.3,0.7,2.3c0,0.8-0.2,1.5-0.6,2.1s-1.1,1.2-1.9,1.5s-1.9,0.6-3.2,0.6
			C725.7,594.3,724.6,594.1,723.5,593.7z"/>
		<path class="st5" d="M739.5,579.1h-5.8v-1.1h12.8v1.1h-5.8v15h-1.2V579.1z"/>
		<path class="st5" d="M758.4,579.1h-5.8v-1.1h12.8v1.1h-5.8v15h-1.2V579.1z"/>
		<path class="st5" d="M768.2,578.1h1.2v16.1h-1.2V578.1z"/>
		<path class="st5" d="M790.2,594.2l0-13.8l-6.7,11.6h-0.6l-6.7-11.6v13.7H775v-16.1h1l7.2,12.4l7.2-12.4h1l0,16.1H790.2z"/>
		<path class="st5" d="M808.1,593.1v1.1H797v-16.1h10.8v1.1h-9.6v6.3h8.6v1h-8.6v6.6H808.1z"/>
		<path class="st5" d="M821.4,579.1h-5.8v-1.1h12.8v1.1h-5.8v15h-1.2V579.1z"/>
		<path class="st5" d="M833.6,593.2c-1.3-0.7-2.3-1.7-3-2.9c-0.7-1.2-1.1-2.6-1.1-4.2s0.4-2.9,1.1-4.2c0.7-1.2,1.7-2.2,3-2.9
			s2.7-1.1,4.3-1.1c1.6,0,3,0.4,4.3,1.1c1.3,0.7,2.3,1.7,3,2.9c0.7,1.2,1.1,2.6,1.1,4.2s-0.4,2.9-1.1,4.2s-1.7,2.2-3,2.9
			c-1.3,0.7-2.7,1.1-4.3,1.1C836.3,594.3,834.8,593.9,833.6,593.2z M841.5,592.3c1.1-0.6,1.9-1.5,2.6-2.5s0.9-2.3,0.9-3.6
			s-0.3-2.5-0.9-3.6c-0.6-1.1-1.5-1.9-2.6-2.5c-1.1-0.6-2.3-0.9-3.7-0.9s-2.6,0.3-3.7,0.9s-2,1.5-2.6,2.5c-0.6,1.1-0.9,2.3-0.9,3.6
			s0.3,2.5,0.9,3.6s1.5,1.9,2.6,2.5s2.3,0.9,3.7,0.9S840.4,592.9,841.5,592.3z"/>
		<path class="st5" d="M866.7,579.5c1.2,1,1.7,2.3,1.7,4c0,1.7-0.6,3-1.7,4c-1.1,1-2.7,1.4-4.8,1.4h-4.6v5.3h-1.2v-16.1h5.8
			C864,578.1,865.6,578.6,866.7,579.5z M865.9,586.7c0.9-0.8,1.4-1.8,1.4-3.2s-0.5-2.5-1.4-3.2c-0.9-0.8-2.2-1.1-3.9-1.1h-4.6v8.7
			h4.6C863.7,587.8,865,587.5,865.9,586.7z"/>
		<path class="st5" d="M875.2,593.2c-1.3-0.7-2.3-1.7-3-2.9c-0.7-1.2-1.1-2.6-1.1-4.2s0.4-2.9,1.1-4.2c0.7-1.2,1.7-2.2,3-2.9
			c1.3-0.7,2.7-1.1,4.3-1.1c1.6,0,3,0.4,4.3,1.1s2.3,1.7,3,2.9c0.7,1.2,1.1,2.6,1.1,4.2s-0.4,2.9-1.1,4.2s-1.7,2.2-3,2.9
			s-2.7,1.1-4.3,1.1C877.9,594.3,876.5,593.9,875.2,593.2z M883.1,592.3c1.1-0.6,1.9-1.5,2.6-2.5c0.6-1.1,0.9-2.3,0.9-3.6
			s-0.3-2.5-0.9-3.6c-0.6-1.1-1.5-1.9-2.6-2.5s-2.3-0.9-3.7-0.9s-2.6,0.3-3.7,0.9c-1.1,0.6-2,1.5-2.6,2.5c-0.6,1.1-0.9,2.3-0.9,3.6
			s0.3,2.5,0.9,3.6s1.5,1.9,2.6,2.5c1.1,0.6,2.3,0.9,3.7,0.9S882,592.9,883.1,592.3z"/>
		<path class="st5" d="M892.8,593.7c-1.1-0.4-1.9-0.9-2.5-1.6l0.5-0.9c0.6,0.6,1.3,1.1,2.3,1.5c1,0.4,2,0.6,3,0.6
			c1.5,0,2.7-0.3,3.5-0.9c0.8-0.6,1.2-1.3,1.2-2.3c0-0.7-0.2-1.3-0.6-1.7s-0.9-0.8-1.5-1s-1.4-0.5-2.5-0.7c-1.2-0.3-2.1-0.6-2.8-0.9
			c-0.7-0.3-1.3-0.7-1.8-1.3c-0.5-0.6-0.7-1.3-0.7-2.3c0-0.8,0.2-1.5,0.6-2.2c0.4-0.7,1-1.2,1.9-1.6s1.9-0.6,3.2-0.6
			c0.9,0,1.8,0.1,2.6,0.4s1.6,0.6,2.2,1.1l-0.4,0.9c-0.6-0.4-1.4-0.8-2.1-1c-0.8-0.2-1.5-0.3-2.3-0.3c-1.5,0-2.6,0.3-3.4,0.9
			c-0.8,0.6-1.2,1.4-1.2,2.3c0,0.7,0.2,1.3,0.6,1.7c0.4,0.4,0.9,0.8,1.5,1s1.4,0.5,2.5,0.7c1.2,0.3,2.1,0.6,2.8,0.9
			c0.7,0.3,1.3,0.7,1.8,1.3c0.5,0.6,0.7,1.3,0.7,2.3c0,0.8-0.2,1.5-0.6,2.1c-0.4,0.6-1.1,1.2-1.9,1.5c-0.9,0.4-1.9,0.6-3.2,0.6
			C895,594.3,893.8,594.1,892.8,593.7z"/>
		<path class="st5" d="M908.8,579.1H903v-1.1h12.8v1.1h-5.8v15h-1.2V579.1z"/>
	</g>
</g>
<g>
	<g>
		<path class="st5" d="M683.2,645.7c1,0.7,1.8,1.7,2.3,2.9c0.5,1.2,0.7,2.6,0.7,4c0,1.5-0.2,2.9-0.7,4.1c-0.5,1.2-1.3,2.2-2.3,2.9
			c-1,0.7-2.2,1.1-3.7,1.1h-5.9c-0.2,0-0.4-0.1-0.5-0.2c-0.1-0.1-0.2-0.3-0.2-0.5v-14.7c0-0.2,0.1-0.4,0.2-0.5
			c0.1-0.1,0.3-0.2,0.5-0.2h5.9C681,644.6,682.2,645,683.2,645.7z M683.4,657.5c0.9-1.2,1.4-2.8,1.4-4.8c0-1.2-0.2-2.4-0.6-3.4
			c-0.4-1-1-1.8-1.8-2.4s-1.9-0.9-3.1-0.9h-4.9v13.4h4.9C681.1,659.4,682.5,658.8,683.4,657.5z"/>
		<path class="st5" d="M701.4,660.1c0,0.2-0.1,0.4-0.2,0.5c-0.1,0.1-0.3,0.2-0.5,0.2c-0.2,0-0.3,0-0.4-0.1s-0.2-0.2-0.3-0.3
			l-1.7-4.2h-7.5l-1.7,4.2c-0.1,0.3-0.3,0.5-0.6,0.5c-0.2,0-0.4-0.1-0.5-0.2c-0.1-0.1-0.2-0.3-0.2-0.4v-0.1c0-0.1,0-0.2,0-0.2
			L694,645c0.1-0.3,0.4-0.5,0.7-0.5c0.2,0,0.3,0,0.4,0.1c0.1,0.1,0.2,0.2,0.3,0.3l6,14.8C701.4,659.9,701.4,660,701.4,660.1z
			 M691.4,654.7h6.4l-3.2-7.9L691.4,654.7z"/>
		<path class="st5" d="M713.4,645.7l-5.1,7.1v7.3c0,0.2-0.1,0.4-0.2,0.5c-0.1,0.1-0.3,0.2-0.5,0.2s-0.4-0.1-0.5-0.2
			c-0.1-0.1-0.2-0.3-0.2-0.5v-7.3l-5.2-7c-0.1-0.1-0.2-0.3-0.2-0.5s0.1-0.3,0.2-0.5c0.2-0.1,0.3-0.2,0.5-0.2c0.2,0,0.4,0.1,0.6,0.3
			l4.8,6.5l4.6-6.5c0.2-0.2,0.4-0.3,0.6-0.3c0.2,0,0.3,0.1,0.5,0.2s0.2,0.3,0.2,0.5C713.6,645.3,713.5,645.5,713.4,645.7z"/>
	</g>
</g>
<g>
	<g>
		<path class="st5" d="M914.9,644.8c0.1,0.1,0.2,0.3,0.2,0.5c0,0.2-0.1,0.4-0.2,0.5c-0.1,0.1-0.3,0.2-0.5,0.2h-4.8v14.1
			c0,0.2-0.1,0.4-0.2,0.5c-0.1,0.1-0.3,0.2-0.5,0.2c-0.2,0-0.4-0.1-0.5-0.2c-0.1-0.1-0.2-0.3-0.2-0.5V646h-4.8
			c-0.2,0-0.4-0.1-0.5-0.2c-0.1-0.1-0.2-0.3-0.2-0.5c0-0.2,0.1-0.3,0.2-0.5c0.1-0.1,0.3-0.2,0.5-0.2h10.9
			C914.6,644.6,914.8,644.7,914.9,644.8z"/>
		<path class="st5" d="M919.3,660.5c-0.1,0.1-0.3,0.2-0.5,0.2c-0.2,0-0.4-0.1-0.5-0.2c-0.1-0.1-0.2-0.3-0.2-0.5v-14.7
			c0-0.2,0.1-0.4,0.2-0.5c0.1-0.1,0.3-0.2,0.5-0.2c0.2,0,0.4,0.1,0.5,0.2c0.1,0.1,0.2,0.3,0.2,0.5V660
			C919.5,660.2,919.4,660.4,919.3,660.5z"/>
		<path class="st5" d="M938.3,644.8c0.1,0.1,0.2,0.3,0.2,0.5v14.7c0,0.2-0.1,0.4-0.2,0.5c-0.1,0.1-0.3,0.2-0.5,0.2
			c-0.2,0-0.4-0.1-0.5-0.2c-0.1-0.1-0.2-0.3-0.2-0.5v-12.7l-5.4,8.2c-0.2,0.2-0.3,0.3-0.5,0.3h0c-0.2,0-0.4-0.1-0.5-0.3l-5.4-8.2
			v12.7c0,0.2-0.1,0.4-0.2,0.5c-0.1,0.1-0.3,0.2-0.5,0.2c-0.2,0-0.4-0.1-0.5-0.2s-0.2-0.3-0.2-0.5v-14.7c0-0.2,0.1-0.3,0.2-0.5
			c0.1-0.1,0.3-0.2,0.5-0.2c0.1,0,0.2,0,0.3,0.1c0.1,0.1,0.2,0.1,0.3,0.2l6,9l6.1-9c0.2-0.2,0.4-0.3,0.6-0.3
			C938,644.6,938.2,644.7,938.3,644.8z"/>
		<path class="st5" d="M952.4,659.6c0.1,0.1,0.2,0.3,0.2,0.5c0,0.2-0.1,0.4-0.2,0.5c-0.1,0.1-0.3,0.2-0.5,0.2h-8.4
			c-0.2,0-0.4-0.1-0.5-0.2c-0.1-0.1-0.2-0.3-0.2-0.5v-14.7c0-0.2,0.1-0.4,0.2-0.5c0.1-0.1,0.3-0.2,0.5-0.2h8.4
			c0.2,0,0.4,0.1,0.5,0.2c0.1,0.1,0.2,0.3,0.2,0.5s-0.1,0.4-0.2,0.5c-0.1,0.1-0.3,0.2-0.5,0.2h-7.7v5.8h6.6c0.2,0,0.4,0.1,0.5,0.2
			c0.1,0.1,0.2,0.3,0.2,0.5s-0.1,0.4-0.2,0.5c-0.1,0.1-0.3,0.2-0.5,0.2h-6.6v6.3h7.7C952.2,659.4,952.3,659.5,952.4,659.6z"/>
	</g>
</g>
<g>
	<g>
		<path class="st5" d="M700.2,716.8c0.1,0.1,0.2,0.3,0.2,0.5s-0.1,0.4-0.2,0.5c-0.1,0.1-0.3,0.2-0.5,0.2h-4.8v14.1
			c0,0.2-0.1,0.4-0.2,0.5c-0.1,0.1-0.3,0.2-0.5,0.2c-0.2,0-0.4-0.1-0.5-0.2c-0.1-0.1-0.2-0.3-0.2-0.5V718h-4.8
			c-0.2,0-0.4-0.1-0.5-0.2c-0.1-0.1-0.2-0.3-0.2-0.5c0-0.2,0.1-0.3,0.2-0.5c0.1-0.1,0.3-0.2,0.5-0.2h10.9
			C699.9,716.7,700.1,716.7,700.2,716.8z"/>
	</g>
</g>
<g>
	<g>
		<path class="st5" d="M688.9,808.1c-0.9-0.4-1.7-0.9-2.5-1.7c-0.2-0.2-0.3-0.3-0.3-0.6c0-0.2,0.1-0.4,0.2-0.5
			c0.1-0.2,0.3-0.2,0.5-0.2s0.4,0.1,0.5,0.2c1.2,1.3,2.7,2,4.5,2c1.1,0,2-0.3,2.7-0.8c0.7-0.5,1.1-1.2,1.1-2c0-0.7-0.2-1.2-0.5-1.6
			c-0.4-0.4-0.8-0.8-1.4-1.1c-0.6-0.3-1.3-0.6-2.2-0.9c-1-0.3-1.8-0.6-2.5-1c-0.7-0.4-1.2-0.8-1.6-1.4c-0.4-0.6-0.6-1.3-0.6-2.2
			c0-0.8,0.2-1.5,0.7-2.2c0.4-0.6,1.1-1.1,1.8-1.5c0.8-0.4,1.7-0.5,2.7-0.5c0.9,0,1.8,0.2,2.6,0.5c0.8,0.3,1.5,0.8,2,1.3
			c0.2,0.3,0.3,0.5,0.3,0.7c0,0.2-0.1,0.3-0.2,0.5c-0.2,0.1-0.3,0.2-0.5,0.2c-0.2,0-0.3-0.1-0.4-0.2c-0.4-0.5-1-0.9-1.7-1.2
			c-0.7-0.3-1.4-0.5-2.2-0.5c-1.1,0-2,0.2-2.7,0.7c-0.7,0.5-1.1,1.2-1.1,2c0,0.9,0.3,1.6,1,2c0.7,0.5,1.6,0.9,2.9,1.3
			c1.1,0.3,2,0.7,2.7,1c0.7,0.3,1.3,0.8,1.7,1.4c0.4,0.6,0.7,1.4,0.7,2.4c0,0.8-0.2,1.5-0.7,2.1c-0.5,0.6-1.1,1.1-1.9,1.5
			c-0.8,0.4-1.7,0.6-2.7,0.6C690.7,808.6,689.8,808.4,688.9,808.1z"/>
	</g>
</g>
<g>
	<g>
		<path class="st5" d="M700.2,868.7c0.1,0.1,0.2,0.3,0.2,0.5s-0.1,0.4-0.2,0.5c-0.1,0.1-0.3,0.2-0.5,0.2h-4.8v14.1
			c0,0.2-0.1,0.4-0.2,0.5c-0.1,0.1-0.3,0.2-0.5,0.2c-0.2,0-0.4-0.1-0.5-0.2c-0.1-0.1-0.2-0.3-0.2-0.5v-14.1h-4.8
			c-0.2,0-0.4-0.1-0.5-0.2c-0.1-0.1-0.2-0.3-0.2-0.5c0-0.2,0.1-0.3,0.2-0.5c0.1-0.1,0.3-0.2,0.5-0.2h10.9
			C699.9,868.5,700.1,868.6,700.2,868.7z"/>
	</g>
</g>
<g>
	<g>
		<path class="st5" d="M700.2,946.1c0.1,0.1,0.2,0.3,0.2,0.5s-0.1,0.4-0.2,0.5c-0.1,0.1-0.3,0.2-0.5,0.2h-4.8v14.1
			c0,0.2-0.1,0.4-0.2,0.5c-0.1,0.1-0.3,0.2-0.5,0.2c-0.2,0-0.4-0.1-0.5-0.2c-0.1-0.1-0.2-0.3-0.2-0.5v-14.1h-4.8
			c-0.2,0-0.4-0.1-0.5-0.2c-0.1-0.1-0.2-0.3-0.2-0.5c0-0.2,0.1-0.3,0.2-0.5c0.1-0.1,0.3-0.2,0.5-0.2h10.9
			C699.9,945.9,700.1,946,700.2,946.1z"/>
	</g>
</g>
<g>
	<g>
		<path class="st5" d="M700.2,1023.5c0.1,0.1,0.2,0.3,0.2,0.5s-0.1,0.4-0.2,0.5c-0.1,0.1-0.3,0.2-0.5,0.2h-4.8v14.1
			c0,0.2-0.1,0.4-0.2,0.5c-0.1,0.1-0.3,0.2-0.5,0.2c-0.2,0-0.4-0.1-0.5-0.2c-0.1-0.1-0.2-0.3-0.2-0.5v-14.1h-4.8
			c-0.2,0-0.4-0.1-0.5-0.2c-0.1-0.1-0.2-0.3-0.2-0.5c0-0.2,0.1-0.3,0.2-0.5c0.1-0.1,0.3-0.2,0.5-0.2h10.9
			C699.9,1023.3,700.1,1023.3,700.2,1023.5z"/>
	</g>
</g>
<g>
	<g>
		<path class="st5" d="M904,716.9c0.1,0.1,0.2,0.3,0.2,0.5v14.7c0,0.2-0.1,0.4-0.2,0.5c-0.1,0.1-0.3,0.2-0.5,0.2
			c-0.2,0-0.4-0.1-0.5-0.2c-0.1-0.1-0.2-0.3-0.2-0.5v-13.5l-2.9,1.7c-0.1,0.1-0.2,0.1-0.3,0.1c-0.2,0-0.4-0.1-0.5-0.2
			c-0.1-0.2-0.2-0.3-0.2-0.5c0-0.1,0-0.2,0.1-0.3c0.1-0.1,0.2-0.2,0.3-0.3l3.9-2.3c0.2-0.1,0.3-0.1,0.6-0.1
			C903.8,716.7,903.9,716.7,904,716.9z"/>
		<path class="st5" d="M918.1,731.6c0.1,0.1,0.2,0.3,0.2,0.5c0,0.2-0.1,0.4-0.2,0.5c-0.1,0.1-0.3,0.2-0.5,0.2H909
			c-0.2,0-0.4-0.1-0.5-0.2c-0.1-0.1-0.2-0.3-0.2-0.5c0-0.2,0.1-0.3,0.2-0.5l5.3-5.9c0.9-0.9,1.5-1.7,1.9-2.5
			c0.4-0.7,0.6-1.4,0.6-2.2c0-1-0.3-1.9-0.9-2.5c-0.6-0.6-1.5-0.9-2.6-0.9c-0.8,0-1.4,0.2-2,0.5c-0.6,0.4-1,0.9-1.3,1.6
			c-0.2,0.3-0.4,0.4-0.6,0.4c-0.2,0-0.3-0.1-0.5-0.2c-0.2-0.1-0.2-0.3-0.2-0.4c0-0.1,0-0.2,0.1-0.3c0.1-0.1,0.1-0.2,0.2-0.4
			c0.4-0.8,1-1.5,1.8-1.9c0.8-0.5,1.7-0.7,2.6-0.7c1.5,0,2.8,0.4,3.6,1.3s1.3,1.9,1.3,3.3c0,0.8-0.2,1.7-0.7,2.6
			c-0.5,0.9-1.2,1.9-2.3,3.1l-4.2,4.8h7.1C917.8,731.4,918,731.5,918.1,731.6z"/>
		<path class="st5" d="M936.2,717.2c0.7,0.4,1.2,0.9,1.6,1.6c0.4,0.7,0.6,1.5,0.6,2.4s-0.2,1.7-0.6,2.4c-0.4,0.7-0.9,1.3-1.6,1.7
			s-1.4,0.6-2.3,0.6h-4.8v6.1c0,0.2-0.1,0.4-0.2,0.5c-0.1,0.1-0.3,0.2-0.5,0.2c-0.2,0-0.4-0.1-0.5-0.2c-0.1-0.1-0.2-0.3-0.2-0.5
			v-14.7c0-0.2,0.1-0.4,0.2-0.5c0.1-0.1,0.3-0.2,0.5-0.2h5.5C934.8,716.7,935.5,716.8,936.2,717.2z M936.1,723.6
			c0.6-0.6,0.8-1.4,0.8-2.4c0-1-0.3-1.7-0.8-2.3c-0.6-0.6-1.3-0.9-2.2-0.9h-4.8v6.6h4.8C934.8,724.6,935.6,724.3,936.1,723.6z"/>
		<path class="st5" d="M956,716.8c0.1,0.1,0.2,0.3,0.2,0.5v14.7c0,0.2-0.1,0.4-0.2,0.5c-0.1,0.1-0.3,0.2-0.5,0.2
			c-0.2,0-0.4-0.1-0.5-0.2c-0.1-0.1-0.2-0.3-0.2-0.5v-12.6l-5.4,8.2c-0.2,0.2-0.3,0.3-0.5,0.3h0c-0.2,0-0.4-0.1-0.5-0.3l-5.4-8.2
			v12.7c0,0.2-0.1,0.4-0.2,0.5c-0.1,0.1-0.3,0.2-0.5,0.2c-0.2,0-0.4-0.1-0.5-0.2c-0.1-0.1-0.2-0.3-0.2-0.5v-14.7
			c0-0.2,0.1-0.3,0.2-0.5c0.1-0.1,0.3-0.2,0.5-0.2c0.1,0,0.2,0,0.3,0.1c0.1,0.1,0.2,0.1,0.3,0.2l6,9l6.1-9c0.2-0.2,0.4-0.3,0.6-0.3
			C955.7,716.7,955.9,716.7,956,716.8z"/>
	</g>
</g>
<g>
	<g>
		<path class="st5" d="M909.7,792.5c0.1,0.1,0.2,0.3,0.2,0.5c0,0.1,0,0.2-0.1,0.3l-6.3,14.7c-0.1,0.1-0.2,0.2-0.3,0.3
			c-0.1,0.1-0.3,0.1-0.4,0.1c-0.2,0-0.3-0.1-0.5-0.2c-0.1-0.1-0.2-0.3-0.2-0.5c0-0.1,0-0.2,0.1-0.3l6-13.9h-7.4
			c-0.2,0-0.3-0.1-0.5-0.2c-0.1-0.1-0.2-0.3-0.2-0.5c0-0.2,0.1-0.3,0.2-0.5c0.1-0.1,0.3-0.2,0.5-0.2h8.5
			C909.4,792.3,909.6,792.3,909.7,792.5z"/>
		<path class="st5" d="M931.1,807.7c0,0.2-0.1,0.4-0.2,0.5c-0.1,0.1-0.3,0.2-0.5,0.2c-0.2,0-0.3,0-0.4-0.1s-0.2-0.2-0.3-0.3
			l-1.7-4.2h-7.5l-1.7,4.2c-0.1,0.3-0.3,0.5-0.6,0.5c-0.2,0-0.4-0.1-0.5-0.2s-0.2-0.3-0.2-0.4v-0.1c0-0.1,0-0.2,0-0.2l6.1-14.9
			c0.1-0.3,0.4-0.5,0.7-0.5c0.2,0,0.3,0,0.4,0.1s0.2,0.2,0.3,0.3l6,14.8C931.1,807.6,931.1,807.7,931.1,807.7z M921,802.4h6.4
			l-3.2-7.9L921,802.4z"/>
		<path class="st5" d="M948.4,792.5c0.1,0.1,0.2,0.3,0.2,0.5v14.7c0,0.2-0.1,0.4-0.2,0.5c-0.1,0.1-0.3,0.2-0.5,0.2
			c-0.2,0-0.4-0.1-0.5-0.2c-0.1-0.1-0.2-0.3-0.2-0.5V795l-5.4,8.2c-0.2,0.2-0.3,0.3-0.5,0.3h0c-0.2,0-0.4-0.1-0.5-0.3l-5.4-8.2v12.7
			c0,0.2-0.1,0.4-0.2,0.5c-0.1,0.1-0.3,0.2-0.5,0.2s-0.4-0.1-0.5-0.2c-0.1-0.1-0.2-0.3-0.2-0.5V793c0-0.2,0.1-0.3,0.2-0.5
			c0.1-0.1,0.3-0.2,0.5-0.2c0.1,0,0.2,0,0.3,0.1c0.1,0.1,0.2,0.1,0.3,0.2l6,9l6.1-9c0.2-0.2,0.4-0.3,0.6-0.3
			C948.1,792.3,948.3,792.3,948.4,792.5z"/>
	</g>
</g>
<g>
	<g>
		<path class="st5" d="M907.9,875.2c0.7,0.5,1.3,1.1,1.7,2s0.6,1.7,0.6,2.6c0,0.9-0.2,1.8-0.7,2.5c-0.4,0.8-1,1.4-1.8,1.9
			s-1.6,0.7-2.6,0.7c-1.2,0-2.1-0.3-2.9-0.8c-0.8-0.5-1.4-1.2-1.8-2.1c-0.4-0.9-0.6-1.8-0.6-2.8c0-1.3,0.3-2.7,0.8-4.2
			c0.6-1.5,1.4-2.9,2.4-4.1c1.1-1.2,2.3-2.2,3.8-2.7c0.1,0,0.2,0,0.3,0c0.2,0,0.4,0.1,0.5,0.2c0.1,0.1,0.2,0.3,0.2,0.5
			c0,0.3-0.2,0.5-0.6,0.7c-1.2,0.5-2.4,1.4-3.5,2.7c-1.1,1.3-1.8,2.6-2.2,4.1c0.5-0.5,1-1,1.7-1.3s1.4-0.5,2.1-0.5
			C906.4,874.4,907.2,874.7,907.9,875.2z M907.8,882.4c0.7-0.7,1-1.6,1-2.7c0-0.7-0.1-1.3-0.4-1.9c-0.3-0.6-0.7-1.1-1.2-1.4
			c-0.5-0.4-1.2-0.6-1.9-0.6c-0.8,0-1.5,0.2-2.1,0.5c-0.6,0.4-1.1,0.8-1.4,1.4c-0.3,0.6-0.5,1.3-0.5,2c0,0.7,0.2,1.3,0.5,1.9
			s0.8,1,1.3,1.4s1.3,0.5,2,0.5C906.2,883.5,907.1,883.1,907.8,882.4z"/>
		<path class="st5" d="M931.5,884c0,0.2-0.1,0.4-0.2,0.5c-0.1,0.1-0.3,0.2-0.5,0.2c-0.2,0-0.3,0-0.4-0.1s-0.2-0.2-0.3-0.3l-1.7-4.2
			h-7.5l-1.7,4.2c-0.1,0.3-0.3,0.5-0.6,0.5c-0.2,0-0.4-0.1-0.5-0.2s-0.2-0.3-0.2-0.4V884c0-0.1,0-0.2,0-0.2l6.1-14.9
			c0.1-0.3,0.4-0.5,0.7-0.5c0.2,0,0.3,0,0.4,0.1s0.2,0.2,0.3,0.3l6,14.8C931.5,883.8,931.5,883.9,931.5,884z M921.5,878.6h6.4
			l-3.2-7.9L921.5,878.6z"/>
		<path class="st5" d="M948.8,868.7c0.1,0.1,0.2,0.3,0.2,0.5v14.7c0,0.2-0.1,0.4-0.2,0.5c-0.1,0.1-0.3,0.2-0.5,0.2
			c-0.2,0-0.4-0.1-0.5-0.2c-0.1-0.1-0.2-0.3-0.2-0.5v-12.6l-5.4,8.2c-0.2,0.2-0.3,0.3-0.5,0.3h0c-0.2,0-0.4-0.1-0.5-0.3l-5.4-8.2
			v12.7c0,0.2-0.1,0.4-0.2,0.5c-0.1,0.1-0.3,0.2-0.5,0.2c-0.2,0-0.4-0.1-0.5-0.2c-0.1-0.1-0.2-0.3-0.2-0.5v-14.7
			c0-0.2,0.1-0.3,0.2-0.5c0.1-0.1,0.3-0.2,0.5-0.2c0.1,0,0.2,0,0.3,0.1c0.1,0.1,0.2,0.1,0.3,0.2l6,9l6.1-9c0.2-0.2,0.4-0.3,0.6-0.3
			C948.5,868.5,948.7,868.6,948.8,868.7z"/>
	</g>
</g>
<g>
	<g>
		<path class="st5" d="M909.4,955.4c0.5,0.7,0.7,1.5,0.7,2.3c0,0.8-0.2,1.6-0.7,2.3c-0.4,0.7-1,1.2-1.8,1.6
			c-0.8,0.4-1.6,0.6-2.5,0.6c-0.9,0-1.7-0.2-2.5-0.6s-1.3-0.9-1.8-1.6c-0.4-0.7-0.7-1.4-0.7-2.3c0-0.9,0.2-1.7,0.7-2.3
			c0.5-0.7,1.1-1.2,1.8-1.5c-0.6-0.3-1.1-0.8-1.5-1.4c-0.4-0.6-0.6-1.3-0.6-2.1c0-0.8,0.2-1.6,0.6-2.2s1-1.2,1.7-1.6
			c0.7-0.4,1.5-0.6,2.3-0.6s1.6,0.2,2.3,0.6c0.7,0.4,1.2,0.9,1.6,1.6s0.6,1.4,0.6,2.2c0,0.8-0.2,1.5-0.6,2.1s-0.9,1.1-1.6,1.4
			C908.3,954.2,908.9,954.7,909.4,955.4z M907.7,960c0.7-0.6,1-1.3,1-2.3c0-0.6-0.2-1.1-0.5-1.6c-0.3-0.5-0.8-0.9-1.3-1.2
			c-0.5-0.3-1.1-0.4-1.8-0.4s-1.2,0.1-1.7,0.4c-0.5,0.3-1,0.7-1.3,1.2c-0.3,0.5-0.5,1-0.5,1.6c0,0.9,0.3,1.7,1,2.3
			c0.7,0.6,1.5,0.9,2.5,0.9C906.2,960.8,907,960.5,907.7,960z M902.9,948.1c-0.6,0.6-0.9,1.3-0.9,2.2c0,0.6,0.1,1.1,0.4,1.6
			c0.3,0.5,0.7,0.8,1.2,1.1c0.5,0.3,1,0.4,1.6,0.4s1.1-0.1,1.6-0.4c0.5-0.3,0.9-0.6,1.1-1.1c0.3-0.5,0.4-1,0.4-1.6
			c0-0.9-0.3-1.6-0.9-2.2s-1.3-0.9-2.3-0.9C904.2,947.2,903.5,947.5,902.9,948.1z"/>
		<path class="st5" d="M932.1,961.3c0,0.2-0.1,0.4-0.2,0.5c-0.1,0.1-0.3,0.2-0.5,0.2c-0.2,0-0.3,0-0.4-0.1c-0.1-0.1-0.2-0.2-0.3-0.3
			l-1.7-4.2h-7.5l-1.7,4.2c-0.1,0.3-0.3,0.5-0.6,0.5c-0.2,0-0.4-0.1-0.5-0.2c-0.1-0.1-0.2-0.3-0.2-0.4v-0.1c0-0.1,0-0.2,0-0.2
			l6.1-14.9c0.1-0.3,0.4-0.5,0.7-0.5c0.2,0,0.3,0,0.4,0.1s0.2,0.2,0.3,0.3l6,14.8C932.1,961.2,932.1,961.3,932.1,961.3z M922.1,956
			h6.4l-3.2-7.9L922.1,956z"/>
		<path class="st5" d="M949.5,946.1c0.1,0.1,0.2,0.3,0.2,0.5v14.7c0,0.2-0.1,0.4-0.2,0.5c-0.1,0.1-0.3,0.2-0.5,0.2
			c-0.2,0-0.4-0.1-0.5-0.2c-0.1-0.1-0.2-0.3-0.2-0.5v-12.6l-5.4,8.2c-0.2,0.2-0.3,0.3-0.5,0.3h0c-0.2,0-0.4-0.1-0.5-0.3l-5.4-8.2
			v12.7c0,0.2-0.1,0.4-0.2,0.5c-0.1,0.1-0.3,0.2-0.5,0.2s-0.4-0.1-0.5-0.2c-0.1-0.1-0.2-0.3-0.2-0.5v-14.7c0-0.2,0.1-0.3,0.2-0.5
			c0.1-0.1,0.3-0.2,0.5-0.2c0.1,0,0.2,0,0.3,0.1c0.1,0.1,0.2,0.1,0.3,0.2l6,9l6.1-9c0.2-0.2,0.4-0.3,0.6-0.3
			C949.2,945.9,949.3,946,949.5,946.1z"/>
	</g>
</g>
<g>
	<g>
		<path class="st5" d="M904,1023.5c0.1,0.1,0.2,0.3,0.2,0.5v14.7c0,0.2-0.1,0.4-0.2,0.5c-0.1,0.1-0.3,0.2-0.5,0.2
			c-0.2,0-0.4-0.1-0.5-0.2c-0.1-0.1-0.2-0.3-0.2-0.5v-13.5l-2.9,1.7c-0.1,0.1-0.2,0.1-0.3,0.1c-0.2,0-0.4-0.1-0.5-0.2
			c-0.1-0.2-0.2-0.3-0.2-0.5c0-0.1,0-0.2,0.1-0.3c0.1-0.1,0.2-0.2,0.3-0.3l3.9-2.3c0.2-0.1,0.3-0.1,0.6-0.1
			C903.8,1023.3,903.9,1023.4,904,1023.5z"/>
		<path class="st5" d="M923.2,1023.9c0.7,0.4,1.2,0.9,1.6,1.6c0.4,0.7,0.6,1.5,0.6,2.4s-0.2,1.7-0.6,2.4c-0.4,0.7-0.9,1.3-1.6,1.7
			s-1.4,0.6-2.3,0.6h-4.8v6.1c0,0.2-0.1,0.4-0.2,0.5c-0.1,0.1-0.3,0.2-0.5,0.2c-0.2,0-0.4-0.1-0.5-0.2c-0.1-0.1-0.2-0.3-0.2-0.5
			V1024c0-0.2,0.1-0.4,0.2-0.5c0.1-0.1,0.3-0.2,0.5-0.2h5.5C921.7,1023.3,922.5,1023.5,923.2,1023.9z M923.1,1030.3
			c0.6-0.6,0.8-1.4,0.8-2.4c0-1-0.3-1.7-0.8-2.3c-0.6-0.6-1.3-0.9-2.2-0.9h-4.8v6.6h4.8C921.8,1031.2,922.5,1030.9,923.1,1030.3z"/>
		<path class="st5" d="M943,1023.5c0.1,0.1,0.2,0.3,0.2,0.5v14.7c0,0.2-0.1,0.4-0.2,0.5c-0.1,0.1-0.3,0.2-0.5,0.2
			c-0.2,0-0.4-0.1-0.5-0.2c-0.1-0.1-0.2-0.3-0.2-0.5V1026l-5.4,8.2c-0.2,0.2-0.3,0.3-0.5,0.3h0c-0.2,0-0.4-0.1-0.5-0.3l-5.4-8.2
			v12.7c0,0.2-0.1,0.4-0.2,0.5c-0.1,0.1-0.3,0.2-0.5,0.2s-0.4-0.1-0.5-0.2c-0.1-0.1-0.2-0.3-0.2-0.5V1024c0-0.2,0.1-0.3,0.2-0.5
			c0.1-0.1,0.3-0.2,0.5-0.2c0.1,0,0.2,0,0.3,0.1c0.1,0.1,0.2,0.1,0.3,0.2l6,9l6.1-9c0.2-0.2,0.4-0.3,0.6-0.3
			C942.7,1023.3,942.8,1023.3,943,1023.5z"/>
	</g>
</g>
<rect x="40.7" y="42.2" transform="matrix(-1 -1.224647e-16 1.224647e-16 -1 1661.5586 1221.496)" class="st2" width="1580.1" height="1137.2"/>
<line class="st7" x1="1493.3" y1="42.2" x2="1493.3" y2="168.9"/>
<g>
	<path class="st6" d="M1599.7,74h-85.8V137c28.6,0,57.2,0,85.8,0V74z"/>
</g>
<line class="st11" x1="1575.2" y1="97.5" x2="1575.2" y2="124.7"/>
<line class="st11" x1="1562.8" y1="108.2" x2="1562.8" y2="124.7"/>
<path class="st5" d="M1541.8,108.9l-3.4-7.4l-3.3,7.5C1537.3,109,1539.5,108.9,1541.8,108.9z"/>
<line class="st11" x1="1550.2" y1="97.5" x2="1550.2" y2="124.7"/>
<line class="st11" x1="1538.4" y1="107.9" x2="1538.4" y2="124.4"/>
<line class="st6" x1="1537.4" y1="123.9" x2="1576.2" y2="123.9"/>
<path class="st5" d="M1553.6,99l-3.4-7.4l-3.3,7.5C1549.1,99,1551.3,99,1553.6,99z"/>
<path class="st5" d="M1566.2,109.1l-3.4-7.4l-3.3,7.5C1561.6,109.2,1563.9,109.2,1566.2,109.1z"/>
<path class="st5" d="M1578.5,99l-3.4-7.4l-3.3,7.5C1574,99,1576.3,99,1578.5,99z"/>
</svg>
