<?xml version="1.0" encoding="utf-8"?>
<!-- Generator: Adobe Illustrator 22.1.0, SVG Export Plug-In . SVG Version: 6.00 Build 0)  -->
<svg version="1.1" id="Layer_1" xmlns="http://www.w3.org/2000/svg" xmlns:xlink="http://www.w3.org/1999/xlink" x="0px" y="0px"
	 viewBox="0 0 755.7 791.3" style="enable-background:new 0 0 755.7 791.3;" xml:space="preserve">
<style type="text/css">
	.st0{fill:#FFD433;}
	.st1{fill:none;stroke:#26293C;stroke-width:1.2;stroke-miterlimit:10;}
	.st2{fill:none;stroke:#26293C;stroke-width:5;stroke-miterlimit:10;}
	.st3{fill:none;stroke:#F2F2F2;stroke-width:1.2;stroke-miterlimit:10;}
	.st4{fill:#D9DBDA;}
	.st5{fill:#26293C;}
	.st6{fill:#FFD433;stroke:#26293C;stroke-width:2;stroke-miterlimit:10;}
	.st7{fill:none;stroke:#26293C;stroke-width:1.2003;stroke-miterlimit:10;}
	.st8{fill:none;stroke:#FFD433;stroke-width:0.7434;stroke-miterlimit:10;}
	.st9{fill:none;stroke:#F2F2F2;stroke-width:1.3726;stroke-miterlimit:10;}
	.st10{fill:#F2F2F2;}
	.st11{fill:none;stroke:#26293C;stroke-width:2;stroke-miterlimit:10;}
	.st12{fill:#E5E5E5;stroke:#F2F2F2;stroke-width:1.072;stroke-miterlimit:10;}
	.st13{fill:none;stroke:#F2F2F2;stroke-width:1.4033;stroke-miterlimit:10;}
	.st14{fill:none;stroke:#FFD433;stroke-width:0.7838;stroke-miterlimit:10;}
	.st15{fill:none;stroke:#FFD433;stroke-miterlimit:10;}
	.st16{fill:none;stroke:#F2F2F2;stroke-width:3;stroke-miterlimit:10;}
	.st17{fill:#FFD433;stroke:#26293C;stroke-width:1.8525;stroke-miterlimit:10;}
	.st18{fill:none;stroke:#F2F2F2;stroke-width:1.3001;stroke-miterlimit:10;}
	.st19{fill:none;stroke:#F2F2F2;stroke-width:2.0632;stroke-miterlimit:10;}
	.st20{fill:#FFFFFF;stroke:#26293C;stroke-width:2;stroke-miterlimit:10;}
	.st21{fill:#EDEDED;}
	.st22{fill:#FFD433;stroke:#26293C;stroke-width:1.8509;stroke-miterlimit:10;}
	.st23{fill:none;stroke:#26293C;stroke-width:0.9518;stroke-miterlimit:10;}
	.st24{fill:none;stroke:#FFD433;stroke-width:0.8168;stroke-miterlimit:10;}
	.st25{fill:none;stroke:#26293C;stroke-width:0.9076;stroke-miterlimit:10;}
	.st26{fill:none;stroke:#D9DBDA;stroke-miterlimit:10;}
	.st27{fill:none;stroke:#F2F2F2;stroke-width:1.3998;stroke-miterlimit:10;}
	.st28{fill:none;stroke:#000000;stroke-width:2;stroke-miterlimit:10;}
</style>
<rect x="40.4" y="172.9" class="st0" width="73.4" height="73.4"/>
<line class="st1" x1="738.5" y1="141.6" x2="11.4" y2="141.6"/>
<rect x="11.4" y="15.3" transform="matrix(-1 -1.224647e-16 1.224647e-16 -1 749.899 792.9825)" class="st2" width="727.2" height="762.5"/>
<line class="st3" x1="41.5" y1="707.4" x2="705" y2="707.4"/>
<line class="st3" x1="41.5" y1="657" x2="705" y2="657"/>
<line class="st3" x1="41.5" y1="608.1" x2="705" y2="608.1"/>
<line class="st3" x1="44.3" y1="555" x2="707.8" y2="555"/>
<line class="st3" x1="44.3" y1="504.6" x2="707.8" y2="504.6"/>
<line class="st3" x1="44.3" y1="455.6" x2="707.8" y2="455.6"/>
<rect x="110.1" y="574.6" class="st4" width="37.8" height="132.8"/>
<rect x="163.3" y="521.1" class="st4" width="37.8" height="186.3"/>
<rect x="216.4" y="574.1" class="st4" width="37.8" height="132.8"/>
<rect x="269.6" y="471.6" class="st4" width="37.8" height="235.3"/>
<rect x="322.8" y="436.6" class="st4" width="37.8" height="270.3"/>
<rect x="375.3" y="574.4" class="st4" width="37.8" height="132.8"/>
<rect x="428.5" y="520.8" class="st4" width="37.8" height="186.3"/>
<rect x="481.7" y="489.5" class="st4" width="37.8" height="217.1"/>
<rect x="534.9" y="540.2" class="st4" width="37.8" height="166.4"/>
<rect x="588.1" y="482.2" class="st4" width="37.8" height="224.4"/>
<g>
	<g>
		<path class="st5" d="M80.8,201.9c0.7,0.4,1.2,1,1.6,1.8c0.4,0.8,0.6,1.6,0.6,2.5s-0.2,1.7-0.6,2.5c-0.4,0.8-1,1.4-1.6,1.8
			c-0.7,0.4-1.4,0.7-2.3,0.7h-4.3v5.1c0,0.3-0.1,0.6-0.3,0.8c-0.2,0.2-0.5,0.3-0.8,0.3c-0.3,0-0.6-0.1-0.8-0.3
			c-0.2-0.2-0.3-0.5-0.3-0.8v-13.9c0-0.3,0.1-0.6,0.3-0.8c0.2-0.2,0.5-0.3,0.8-0.3h5.3C79.4,201.3,80.1,201.5,80.8,201.9z
			 M79.7,208.7c0.4-0.3,0.6-0.6,0.8-1.1c0.2-0.4,0.3-0.9,0.3-1.4c0-0.8-0.2-1.4-0.7-2c-0.5-0.5-1-0.8-1.6-0.8h-4.3v5.7h4.3
			C79,209.1,79.4,209,79.7,208.7z"/>
	</g>
</g>
<g>
	<g>
		<path class="st5" d="M227.6,201.6c0.2,0.2,0.3,0.5,0.3,0.8v8.8c0,1.2-0.3,2.3-0.8,3.3c-0.5,1-1.3,1.7-2.2,2.3
			c-0.9,0.5-2,0.8-3.2,0.8c-1.2,0-2.3-0.3-3.2-0.8c-1-0.5-1.7-1.3-2.2-2.3c-0.5-1-0.8-2.1-0.8-3.3v-8.8c0-0.3,0.1-0.6,0.3-0.8
			s0.5-0.3,0.8-0.3c0.3,0,0.5,0.1,0.8,0.3c0.2,0.2,0.3,0.5,0.3,0.8v8.8c0,0.8,0.2,1.5,0.6,2.2c0.4,0.6,0.9,1.1,1.5,1.5
			c0.6,0.4,1.3,0.5,2,0.5c0.7,0,1.4-0.2,2-0.5c0.6-0.4,1.1-0.8,1.5-1.5c0.4-0.6,0.6-1.4,0.6-2.2v-8.8c0-0.3,0.1-0.6,0.3-0.8
			c0.2-0.2,0.4-0.3,0.8-0.3C227.1,201.2,227.4,201.3,227.6,201.6z"/>
	</g>
</g>
<g>
	<g>
		<path class="st5" d="M373.9,215.6c0.2,0.2,0.3,0.5,0.3,0.8c0,0.3-0.1,0.6-0.3,0.7c-0.2,0.2-0.5,0.3-0.8,0.3h-8
			c-0.3,0-0.6-0.1-0.8-0.3c-0.2-0.2-0.3-0.5-0.3-0.8v-13.9c0-0.3,0.1-0.6,0.3-0.8c0.2-0.2,0.5-0.3,0.8-0.3h8c0.3,0,0.6,0.1,0.8,0.3
			s0.3,0.5,0.3,0.8c0,0.3-0.1,0.6-0.3,0.7c-0.2,0.2-0.5,0.3-0.8,0.3h-6.8v4.7h5.8c0.3,0,0.6,0.1,0.8,0.3c0.2,0.2,0.3,0.5,0.3,0.8
			c0,0.3-0.1,0.6-0.3,0.8s-0.5,0.3-0.8,0.3h-5.8v5.1h6.8C373.4,215.3,373.7,215.4,373.9,215.6z"/>
	</g>
</g>
<g>
	<g>
		<path class="st5" d="M525.8,215.9c0.1,0.2,0.1,0.3,0.1,0.5c0,0.3-0.1,0.6-0.3,0.7c-0.2,0.2-0.5,0.2-0.7,0.2
			c-0.3,0-0.5-0.1-0.7-0.2c-0.5-0.3-0.8-0.7-1.1-1.3c-0.3-0.6-0.4-1.4-0.4-2.6c0-0.8-0.2-1.3-0.7-1.7c-0.5-0.4-1.1-0.6-1.8-0.6h-4.6
			v5.2c0,0.3-0.1,0.6-0.3,0.8c-0.2,0.2-0.4,0.3-0.7,0.3c-0.4,0-0.7-0.1-0.9-0.3c-0.3-0.2-0.4-0.5-0.4-0.8v-13.9
			c0-0.3,0.1-0.6,0.3-0.8c0.2-0.2,0.5-0.3,0.8-0.3h6.5c0.8,0,1.6,0.2,2.3,0.6c0.7,0.4,1.2,1,1.7,1.7s0.6,1.5,0.6,2.4
			c0,0.9-0.2,1.7-0.7,2.4s-1,1.3-1.8,1.7c0.6,0.3,1,0.7,1.3,1.2c0.3,0.5,0.5,1.1,0.5,1.8c0.1,0.9,0.1,1.5,0.2,1.8
			c0.1,0.3,0.2,0.5,0.5,0.7C525.6,215.6,525.7,215.8,525.8,215.9z M521.8,208.7c0.3-0.3,0.6-0.6,0.8-1.1c0.2-0.5,0.3-1,0.3-1.6
			c0-0.7-0.2-1.4-0.7-1.9c-0.5-0.5-1-0.8-1.6-0.8h-5.2v5.8h5.2C521.1,209.1,521.5,209,521.8,208.7z"/>
	</g>
</g>
<g>
	<g>
		<path class="st5" d="M669.1,217c-0.2,0.2-0.5,0.3-0.8,0.3c-0.3,0-0.6-0.1-0.8-0.3s-0.3-0.5-0.3-0.8v-13.9c0-0.3,0.1-0.6,0.3-0.8
			c0.2-0.2,0.5-0.3,0.8-0.3c0.3,0,0.6,0.1,0.8,0.3s0.3,0.5,0.3,0.8v13.9C669.5,216.6,669.4,216.8,669.1,217z"/>
	</g>
</g>
<g>
	<g>
		<path class="st5" d="M59.5,358.5c0.6,0.4,1.1,0.9,1.4,1.5c0.4,0.6,0.5,1.3,0.5,2.1c0,0.7-0.2,1.4-0.5,2.1
			c-0.4,0.6-0.9,1.1-1.5,1.5c-0.6,0.4-1.3,0.6-2.1,0.6c-0.9,0-1.6-0.2-2.2-0.7c-0.6-0.4-1.1-1-1.4-1.7s-0.5-1.5-0.5-2.3
			c0-0.9,0.2-1.9,0.5-3.1c0.4-1.1,1-2.1,1.8-3.1c0.8-1,1.9-1.6,3.2-2c0.1,0,0.2-0.1,0.3-0.1c0.3,0,0.5,0.1,0.6,0.2
			c0.2,0.1,0.2,0.3,0.2,0.6c0,0.2-0.1,0.4-0.2,0.5c-0.1,0.2-0.3,0.3-0.5,0.3c-0.8,0.3-1.6,0.8-2.3,1.5c-0.7,0.7-1.2,1.6-1.5,2.5
			c0.7-0.7,1.5-1,2.4-1C58.3,357.9,58.9,358.1,59.5,358.5z M59.1,363.9c0.5-0.5,0.7-1.1,0.7-1.8c0-0.7-0.2-1.3-0.7-1.8
			c-0.4-0.5-1-0.7-1.7-0.7c-0.7,0-1.3,0.2-1.8,0.7c-0.5,0.5-0.7,1.1-0.7,1.8c0,0.7,0.2,1.3,0.7,1.8c0.5,0.5,1,0.7,1.8,0.7
			C58.1,364.6,58.6,364.4,59.1,363.9z"/>
		<path class="st5" d="M65.3,366.9c-0.2,0.4-0.4,0.7-0.7,1c-0.3,0.3-0.6,0.4-0.9,0.4c-0.2,0-0.4-0.1-0.5-0.2
			c-0.1-0.1-0.2-0.2-0.2-0.4c0-0.2,0-0.3,0.1-0.4c0.1-0.1,0.2-0.1,0.3-0.2c0.1,0,0.2-0.1,0.3-0.1c0.2-0.1,0.3-0.2,0.4-0.3
			c0.1-0.1,0.1-0.3,0.1-0.5c0-0.1-0.1-0.2-0.2-0.3s-0.2-0.1-0.4-0.1c-0.2,0-0.4,0-0.5,0.1c-0.1-0.1-0.2-0.1-0.3-0.2
			c-0.1-0.1-0.1-0.2-0.1-0.4c0-0.3,0.2-0.5,0.5-0.8c0.3-0.2,0.6-0.3,1-0.3c0.4,0,0.8,0.1,1,0.4c0.3,0.3,0.4,0.7,0.4,1.2
			C65.6,366.2,65.5,366.5,65.3,366.9z"/>
		<path class="st5" d="M73.7,353.9c0.6,0.4,1.1,1,1.4,1.7c0.3,0.7,0.5,1.5,0.5,2.3c0,0.9-0.2,1.9-0.5,3c-0.4,1.1-0.9,2.1-1.8,3.1
			c-0.8,0.9-1.9,1.6-3.2,2c-0.1,0-0.2,0.1-0.3,0.1c-0.2,0-0.4-0.1-0.6-0.2c-0.2-0.1-0.3-0.3-0.3-0.6c0-0.2,0.1-0.4,0.2-0.5
			s0.3-0.3,0.5-0.3c0.9-0.3,1.6-0.8,2.4-1.5c0.7-0.7,1.2-1.5,1.5-2.4c-0.7,0.7-1.5,1-2.4,1c-0.7,0-1.3-0.2-1.9-0.6
			c-0.6-0.4-1.1-0.9-1.4-1.5c-0.4-0.6-0.5-1.3-0.5-2.1s0.2-1.4,0.5-2c0.4-0.6,0.9-1.1,1.5-1.5c0.6-0.4,1.3-0.6,2.1-0.6
			C72.3,353.2,73,353.4,73.7,353.9z M73.2,359.1c0.5-0.5,0.7-1.1,0.7-1.8c0-0.7-0.2-1.3-0.7-1.8s-1-0.7-1.8-0.7
			c-0.7,0-1.2,0.2-1.7,0.7c-0.5,0.5-0.7,1.1-0.7,1.8s0.2,1.3,0.7,1.8s1,0.7,1.7,0.7C72.1,359.8,72.7,359.6,73.2,359.1z"/>
		<path class="st5" d="M79.3,365.4c-0.7-0.6-1.2-1.3-1.6-2.3c-0.4-1-0.5-2.1-0.5-3.4c0-1.3,0.2-2.4,0.5-3.4s0.9-1.7,1.6-2.3
			c0.7-0.6,1.5-0.8,2.5-0.8c1,0,1.8,0.3,2.5,0.8c0.7,0.6,1.2,1.3,1.6,2.3s0.5,2.1,0.5,3.4c0,1.3-0.2,2.4-0.5,3.4
			c-0.4,1-0.9,1.7-1.6,2.3c-0.7,0.6-1.5,0.8-2.5,0.8C80.9,366.2,80,365.9,79.3,365.4z M83.9,363.2c0.5-0.8,0.7-2,0.7-3.5
			c0-1.5-0.2-2.7-0.7-3.5c-0.5-0.8-1.2-1.2-2-1.2s-1.6,0.4-2,1.2c-0.5,0.8-0.7,2-0.7,3.5c0,1.5,0.2,2.7,0.7,3.5
			c0.5,0.8,1.2,1.2,2,1.2S83.4,364,83.9,363.2z"/>
		<path class="st5" d="M96.3,364.7c0.2,0.2,0.2,0.3,0.2,0.6c0,0.2-0.1,0.4-0.2,0.6c-0.2,0.1-0.3,0.2-0.6,0.2h-6.4
			c-0.2,0-0.4-0.1-0.6-0.2c-0.2-0.1-0.2-0.4-0.2-0.6c0-0.2,0.1-0.4,0.3-0.6l4-4.4c1.1-1.2,1.7-2.2,1.7-3.1c0-0.6-0.2-1.2-0.6-1.6
			c-0.4-0.4-1-0.6-1.6-0.6c-0.4,0-0.9,0.1-1.3,0.4c-0.4,0.3-0.7,0.6-1,1.1c-0.2,0.3-0.4,0.4-0.7,0.4c-0.2,0-0.4-0.1-0.6-0.2
			c-0.2-0.2-0.3-0.3-0.3-0.5c0-0.1,0-0.3,0.1-0.4c0.1-0.1,0.2-0.3,0.4-0.5c0.4-0.5,0.9-0.9,1.5-1.3c0.6-0.3,1.2-0.5,1.9-0.5
			c0.8,0,1.5,0.2,2.1,0.5s1,0.8,1.4,1.3s0.5,1.2,0.5,1.9c0,1.4-0.7,2.9-2.2,4.5l-2.7,3h4.5C95.9,364.4,96.1,364.5,96.3,364.7z"/>
	</g>
</g>
<g>
	<g>
		<path class="st5" d="M60.7,325.9c0.5,0.3,1,0.8,1.3,1.4s0.5,1.2,0.5,1.9c0,0.7-0.2,1.4-0.5,2c-0.3,0.6-0.7,1.1-1.3,1.4
			c-0.5,0.3-1.1,0.5-1.8,0.5h-3.4v4c0,0.2-0.1,0.4-0.2,0.6c-0.2,0.2-0.4,0.3-0.6,0.3c-0.3,0-0.5-0.1-0.6-0.2
			c-0.2-0.2-0.2-0.4-0.2-0.6v-10.9c0-0.2,0.1-0.4,0.3-0.6c0.2-0.2,0.4-0.3,0.6-0.3h4.2C59.5,325.4,60.1,325.5,60.7,325.9z
			 M59.8,331.2c0.3-0.2,0.5-0.5,0.7-0.8c0.2-0.3,0.2-0.7,0.2-1.1c0-0.6-0.2-1.1-0.5-1.6c-0.4-0.4-0.8-0.6-1.3-0.6h-3.4v4.5h3.4
			C59.2,331.5,59.5,331.4,59.8,331.2z"/>
		<path class="st5" d="M75.3,335c-0.5,1-1.2,1.8-2.2,2.3c-0.9,0.6-2,0.9-3.1,0.9s-2.2-0.3-3.1-0.9c-0.9-0.6-1.6-1.3-2.2-2.3
			c-0.5-1-0.8-2.1-0.8-3.3c0-1.2,0.3-2.3,0.8-3.3c0.5-1,1.2-1.8,2.2-2.3c0.9-0.6,2-0.9,3.1-0.9s2.2,0.3,3.1,0.9
			c0.9,0.6,1.6,1.3,2.2,2.3c0.5,1,0.8,2.1,0.8,3.3C76.1,332.9,75.8,334,75.3,335z M73.7,329.2c-0.4-0.7-0.9-1.3-1.5-1.7
			s-1.4-0.6-2.2-0.6c-0.8,0-1.5,0.2-2.2,0.6c-0.6,0.4-1.1,1-1.5,1.7c-0.4,0.7-0.5,1.5-0.5,2.5c0,0.9,0.2,1.7,0.5,2.4
			s0.9,1.3,1.5,1.7s1.4,0.6,2.2,0.6c0.8,0,1.5-0.2,2.2-0.6s1.1-1,1.5-1.7c0.4-0.7,0.5-1.5,0.5-2.4C74.2,330.8,74.1,330,73.7,329.2z"
			/>
		<path class="st5" d="M79.9,337.8c-0.7-0.2-1.3-0.6-1.9-1.2c-0.3-0.2-0.4-0.5-0.4-0.7c0-0.2,0.1-0.4,0.3-0.6
			c0.2-0.2,0.4-0.3,0.6-0.3c0.2,0,0.4,0.1,0.5,0.2c0.5,0.4,1,0.8,1.5,1c0.5,0.2,1.1,0.3,1.7,0.3c0.8,0,1.4-0.2,1.9-0.5
			s0.8-0.8,0.8-1.3c0-0.6-0.3-1.1-0.8-1.4c-0.5-0.3-1.3-0.6-2.3-0.9c-1.2-0.3-2.2-0.7-2.9-1.2s-1-1.4-1-2.4c0-0.7,0.2-1.3,0.6-1.9
			s0.9-0.9,1.5-1.2s1.4-0.4,2.2-0.4c0.7,0,1.4,0.1,2.1,0.4c0.7,0.2,1.2,0.6,1.6,1c0.3,0.2,0.4,0.5,0.4,0.8c0,0.2-0.1,0.4-0.2,0.6
			s-0.4,0.3-0.6,0.3c-0.2,0-0.3,0-0.4-0.1c-0.3-0.3-0.7-0.6-1.3-0.8c-0.6-0.2-1.1-0.3-1.6-0.3c-0.8,0-1.4,0.2-1.9,0.5
			c-0.5,0.3-0.7,0.8-0.7,1.3c0,0.6,0.2,1,0.7,1.3c0.5,0.3,1.2,0.6,2.1,0.8c0.9,0.2,1.7,0.4,2.3,0.7c0.6,0.3,1.1,0.7,1.4,1.2
			c0.3,0.5,0.5,1.1,0.5,1.9c0,0.7-0.2,1.3-0.6,1.9c-0.4,0.5-0.9,1-1.6,1.3s-1.4,0.5-2.2,0.5C81.3,338.2,80.5,338,79.9,337.8z"/>
		<path class="st5" d="M97.6,325.6c0.2,0.1,0.2,0.4,0.2,0.6s-0.1,0.5-0.2,0.6c-0.2,0.1-0.4,0.2-0.6,0.2h-3.2v10.1
			c0,0.2-0.1,0.4-0.3,0.6c-0.2,0.2-0.4,0.3-0.7,0.3c-0.3,0-0.5-0.1-0.7-0.3c-0.2-0.2-0.3-0.4-0.3-0.6V327h-3.2
			c-0.3,0-0.5-0.1-0.6-0.2c-0.2-0.1-0.2-0.4-0.2-0.6c0-0.2,0.1-0.4,0.2-0.6c0.2-0.1,0.4-0.2,0.6-0.2H97
			C97.3,325.4,97.5,325.4,97.6,325.6z"/>
	</g>
</g>
<g>
	<g>
		<path class="st5" d="M77.2,94.5c0.2,0.3,0.3,0.7,0.3,1c0,0.5-0.2,0.9-0.5,1.3c-0.4,0.5-1,0.7-1.7,0.7c-0.6,0-1.2-0.1-1.7-0.4
			c-1.8-1-2.7-3.2-2.7-6.3c0-0.9-0.3-1.6-0.9-2.2s-1.5-0.8-2.6-0.8h-7.1v7.4c0,0.7-0.2,1.2-0.6,1.7c-0.4,0.4-0.9,0.6-1.5,0.6
			c-0.7,0-1.4-0.2-1.9-0.7c-0.5-0.4-0.8-1-0.8-1.7v-22c0-0.7,0.2-1.2,0.7-1.7c0.4-0.4,1-0.7,1.7-0.7h10.9c1.3,0,2.6,0.4,3.7,1.1
			c1.2,0.7,2.1,1.7,2.8,2.9c0.7,1.2,1,2.6,1,4.2c0,1.3-0.3,2.5-1,3.7c-0.7,1.2-1.6,2.2-2.7,2.9c1.6,1.1,2.5,2.6,2.6,4.5
			c0.1,0.4,0.1,0.8,0.1,1.2c0.1,0.8,0.2,1.3,0.3,1.7c0.1,0.3,0.3,0.6,0.7,0.8C76.8,93.9,77,94.2,77.2,94.5z M70,83.2
			c0.4-0.4,0.8-1,1.1-1.7c0.3-0.7,0.4-1.5,0.4-2.3c0-0.7-0.1-1.4-0.4-2c-0.3-0.6-0.6-1.1-1.1-1.4c-0.4-0.4-0.9-0.5-1.3-0.5h-8.3v8.6
			h8.3C69.1,83.8,69.6,83.6,70,83.2z"/>
		<path class="st5" d="M98.6,88.3c-0.5,0.4-1,0.6-1.6,0.6H84.5c0.3,1.5,1,2.7,2.1,3.5c1.1,0.8,2.3,1.3,3.7,1.3c1,0,1.8-0.1,2.4-0.3
			c0.6-0.2,1-0.4,1.4-0.6c0.3-0.2,0.6-0.4,0.7-0.4c0.5-0.2,0.9-0.3,1.3-0.3c0.5,0,1,0.2,1.4,0.6c0.4,0.4,0.6,0.8,0.6,1.3
			c0,0.7-0.4,1.3-1.1,1.9c-0.7,0.6-1.7,1.1-2.9,1.5c-1.2,0.4-2.4,0.6-3.6,0.6c-2.1,0-4-0.4-5.6-1.3c-1.6-0.9-2.8-2.1-3.7-3.7
			c-0.9-1.6-1.3-3.3-1.3-5.3c0-2.2,0.5-4.1,1.4-5.7c0.9-1.6,2.1-2.9,3.6-3.8c1.5-0.9,3.1-1.3,4.8-1.3c1.7,0,3.2,0.5,4.7,1.4
			c1.5,0.9,2.7,2.1,3.6,3.7c0.9,1.5,1.3,3.2,1.3,5C99.3,87.4,99.1,87.9,98.6,88.3z M84.6,85h10v-0.3c-0.1-1.1-0.6-2-1.6-2.7
			c-0.9-0.8-2-1.1-3.2-1.1C86.8,80.9,85.1,82.3,84.6,85z"/>
		<path class="st5" d="M121.4,77.4c0.4,0.4,0.6,1,0.6,1.7v16.1c0,0.7-0.2,1.2-0.6,1.7c-0.4,0.4-1,0.7-1.6,0.7
			c-0.7,0-1.2-0.2-1.6-0.6c-0.4-0.4-0.6-1-0.7-1.6c-0.6,0.7-1.5,1.4-2.6,1.9c-1.1,0.5-2.2,0.8-3.4,0.8c-1.7,0-3.3-0.4-4.8-1.3
			c-1.4-0.9-2.5-2.1-3.4-3.7c-0.8-1.6-1.2-3.4-1.2-5.4c0-2,0.4-3.8,1.2-5.5c0.8-1.6,1.9-2.9,3.3-3.8c1.4-0.9,3-1.3,4.7-1.3
			c1.2,0,2.4,0.2,3.4,0.7c1.1,0.4,2,1,2.7,1.7v0c0-0.7,0.2-1.2,0.6-1.7c0.4-0.4,1-0.7,1.6-0.7C120.4,76.7,121,76.9,121.4,77.4z
			 M116.1,91.8c1-1.2,1.6-2.7,1.6-4.5c0-1.8-0.5-3.3-1.6-4.6c-1-1.2-2.4-1.8-4-1.8c-1.6,0-3,0.6-4,1.8c-1,1.2-1.6,2.7-1.6,4.6
			c0,1.8,0.5,3.3,1.5,4.5c1,1.2,2.4,1.8,4,1.8C113.7,93.6,115.1,93,116.1,91.8z"/>
		<path class="st5" d="M131.3,96.8c-0.4,0.4-1,0.7-1.7,0.7c-0.6,0-1.2-0.2-1.6-0.7c-0.4-0.4-0.6-1-0.6-1.7V71.6
			c0-0.7,0.2-1.2,0.7-1.7c0.4-0.4,1-0.7,1.7-0.7c0.6,0,1.2,0.2,1.6,0.7c0.4,0.4,0.6,1,0.6,1.7v23.5
			C131.9,95.8,131.7,96.3,131.3,96.8z"/>
		<path class="st5" d="M137.4,87.4c-0.4-0.4-0.7-1-0.7-1.6c0-0.6,0.2-1.2,0.7-1.6c0.4-0.4,1-0.6,1.7-0.6h6.6c0.7,0,1.2,0.2,1.7,0.7
			c0.4,0.4,0.7,1,0.7,1.7c0,0.6-0.2,1.2-0.7,1.6c-0.4,0.4-1,0.6-1.7,0.6H139C138.3,88,137.8,87.8,137.4,87.4z"/>
		<path class="st5" d="M171.8,71.4c0.4,0.4,0.6,0.9,0.6,1.6c0,0.7-0.2,1.2-0.6,1.6c-0.4,0.4-1,0.6-1.7,0.6h-6v19.9
			c0,0.7-0.2,1.2-0.7,1.7c-0.5,0.4-1.1,0.7-1.8,0.7c-0.7,0-1.3-0.2-1.7-0.7c-0.5-0.4-0.7-1-0.7-1.7V75.2h-6c-0.7,0-1.2-0.2-1.7-0.6
			c-0.4-0.4-0.6-0.9-0.6-1.6c0-0.6,0.2-1.2,0.7-1.6c0.4-0.4,1-0.6,1.7-0.6h16.9C170.8,70.8,171.4,71,171.8,71.4z"/>
		<path class="st5" d="M176.2,74.2c-0.4-0.3-0.5-0.8-0.5-1.5V72c0-0.7,0.2-1.2,0.6-1.5c0.4-0.3,1-0.4,1.8-0.4c0.9,0,1.5,0.1,1.9,0.4
			c0.4,0.3,0.5,0.8,0.5,1.5v0.7c0,0.7-0.2,1.2-0.6,1.5c-0.4,0.3-1,0.4-1.9,0.4C177.2,74.6,176.6,74.5,176.2,74.2z M179.7,96.8
			c-0.4,0.4-1,0.7-1.6,0.7s-1.2-0.2-1.6-0.7c-0.4-0.4-0.6-1-0.6-1.7V79.4c0-0.7,0.2-1.2,0.6-1.7c0.4-0.4,1-0.7,1.6-0.7
			s1.2,0.2,1.6,0.7c0.4,0.4,0.6,1,0.6,1.7v15.7C180.4,95.8,180.2,96.3,179.7,96.8z"/>
		<path class="st5" d="M213.7,79c1,1.5,1.4,3.7,1.4,6.4v9.7c0,0.7-0.2,1.2-0.6,1.7c-0.4,0.4-1,0.7-1.6,0.7c-0.7,0-1.2-0.2-1.6-0.7
			c-0.4-0.4-0.6-1-0.6-1.7v-9.7c0-1.4-0.3-2.5-0.8-3.3c-0.5-0.8-1.5-1.2-2.9-1.2c-1.4,0-2.5,0.4-3.3,1.3c-0.8,0.8-1.2,1.9-1.2,3.2
			v9.7c0,0.7-0.2,1.2-0.6,1.7c-0.4,0.4-1,0.7-1.6,0.7c-0.7,0-1.2-0.2-1.6-0.7c-0.4-0.4-0.6-1-0.6-1.7v-9.7c0-1.4-0.3-2.5-0.8-3.3
			c-0.5-0.8-1.5-1.2-2.9-1.2c-1.4,0-2.5,0.4-3.3,1.3c-0.8,0.8-1.2,1.9-1.2,3.2v9.7c0,0.7-0.2,1.2-0.6,1.7c-0.4,0.4-1,0.7-1.6,0.7
			c-0.7,0-1.2-0.2-1.6-0.7c-0.4-0.4-0.6-1-0.6-1.7V79.4c0-0.7,0.2-1.2,0.6-1.7c0.4-0.4,1-0.7,1.6-0.7c0.7,0,1.2,0.2,1.6,0.7
			c0.4,0.4,0.6,1,0.6,1.7V80c0.7-0.9,1.6-1.7,2.6-2.3s2.2-1,3.5-1c3.2,0,5.2,1.4,6.1,4.2c0.6-1.1,1.5-2,2.6-2.9
			c1.2-0.9,2.5-1.3,4-1.3C211,76.7,212.7,77.5,213.7,79z"/>
		<path class="st5" d="M237.6,88.3c-0.5,0.4-1,0.6-1.6,0.6h-12.5c0.3,1.5,1,2.7,2.1,3.5c1.1,0.8,2.3,1.3,3.7,1.3
			c1,0,1.8-0.1,2.4-0.3c0.6-0.2,1-0.4,1.4-0.6c0.3-0.2,0.6-0.4,0.7-0.4c0.5-0.2,0.9-0.3,1.3-0.3c0.5,0,1,0.2,1.4,0.6
			c0.4,0.4,0.6,0.8,0.6,1.3c0,0.7-0.4,1.3-1.1,1.9c-0.7,0.6-1.7,1.1-2.8,1.5c-1.2,0.4-2.4,0.6-3.6,0.6c-2.1,0-4-0.4-5.6-1.3
			c-1.6-0.9-2.8-2.1-3.7-3.7c-0.9-1.6-1.3-3.3-1.3-5.3c0-2.2,0.5-4.1,1.4-5.7c0.9-1.6,2.1-2.9,3.6-3.8c1.5-0.9,3.1-1.3,4.8-1.3
			c1.7,0,3.2,0.5,4.7,1.4c1.5,0.9,2.7,2.1,3.6,3.7c0.9,1.5,1.3,3.2,1.3,5C238.3,87.4,238.1,87.9,237.6,88.3z M223.5,85h10v-0.3
			c-0.1-1.1-0.6-2-1.6-2.7c-0.9-0.8-2-1.1-3.2-1.1C225.8,80.9,224,82.3,223.5,85z"/>
		<path class="st5" d="M270.7,72.6c1.7,1.2,3,2.8,3.9,4.8c0.9,2,1.3,4.3,1.3,6.7c0,2.5-0.5,4.7-1.3,6.7c-0.9,2-2.2,3.6-3.9,4.8
			c-1.7,1.2-3.8,1.8-6.1,1.8h-9.1c-0.7,0-1.2-0.2-1.7-0.7c-0.4-0.4-0.7-1-0.7-1.7v-22c0-0.7,0.2-1.2,0.7-1.7c0.4-0.4,1-0.7,1.7-0.7
			h9.1C266.9,70.8,269,71.4,270.7,72.6z M269.3,90.5c1.1-1.7,1.7-3.8,1.7-6.4s-0.6-4.7-1.7-6.4c-1.2-1.7-2.9-2.5-5.1-2.5h-6.3v17.9
			h6.3C266.5,93.1,268.2,92.2,269.3,90.5z"/>
		<path class="st5" d="M298,77.4c0.4,0.4,0.6,1,0.6,1.7v16.1c0,0.7-0.2,1.2-0.6,1.7c-0.4,0.4-1,0.7-1.6,0.7c-0.7,0-1.2-0.2-1.6-0.6
			c-0.4-0.4-0.6-1-0.7-1.6c-0.6,0.7-1.5,1.4-2.6,1.9c-1.1,0.5-2.2,0.8-3.4,0.8c-1.7,0-3.3-0.4-4.8-1.3c-1.4-0.9-2.5-2.1-3.4-3.7
			c-0.8-1.6-1.2-3.4-1.2-5.4c0-2,0.4-3.8,1.2-5.5c0.8-1.6,1.9-2.9,3.3-3.8c1.4-0.9,3-1.3,4.7-1.3c1.2,0,2.4,0.2,3.4,0.7
			c1.1,0.4,2,1,2.7,1.7v0c0-0.7,0.2-1.2,0.6-1.7c0.4-0.4,1-0.7,1.6-0.7C297.1,76.7,297.6,76.9,298,77.4z M292.8,91.8
			c1-1.2,1.6-2.7,1.6-4.5c0-1.8-0.5-3.3-1.6-4.6c-1-1.2-2.4-1.8-4-1.8c-1.6,0-3,0.6-4,1.8c-1,1.2-1.6,2.7-1.6,4.6
			c0,1.8,0.5,3.3,1.5,4.5c1,1.2,2.4,1.8,4,1.8C290.4,93.6,291.7,93,292.8,91.8z"/>
		<path class="st5" d="M314.4,93.6c0.3,0.3,0.4,0.8,0.4,1.3c0,0.7-0.4,1.3-1.1,1.7c-0.7,0.5-1.6,0.7-2.5,0.7c-1.6,0-2.9-0.3-4-1
			c-1.1-0.7-1.6-2.1-1.6-4.3V81.7h-1.7c-0.6,0-1.1-0.2-1.5-0.6s-0.6-0.9-0.6-1.5c0-0.6,0.2-1.1,0.6-1.5c0.4-0.4,0.9-0.6,1.5-0.6h1.7
			V75c0-0.7,0.2-1.2,0.7-1.7c0.4-0.4,1-0.7,1.7-0.7c0.6,0,1.2,0.2,1.6,0.7c0.4,0.4,0.6,1,0.6,1.7v2.4h2.7c0.6,0,1.1,0.2,1.5,0.6
			c0.4,0.4,0.6,0.9,0.6,1.5c0,0.6-0.2,1.1-0.6,1.5c-0.4,0.4-0.9,0.6-1.5,0.6h-2.7V92c0,0.5,0.1,0.9,0.4,1.2c0.3,0.2,0.7,0.4,1.1,0.4
			c0.2,0,0.5-0.1,0.8-0.2c0.3-0.1,0.6-0.2,0.9-0.2C313.8,93.1,314.1,93.3,314.4,93.6z"/>
		<path class="st5" d="M337.2,77.4c0.4,0.4,0.6,1,0.6,1.7v16.1c0,0.7-0.2,1.2-0.6,1.7c-0.4,0.4-1,0.7-1.6,0.7
			c-0.7,0-1.2-0.2-1.6-0.6c-0.4-0.4-0.6-1-0.7-1.6c-0.6,0.7-1.5,1.4-2.6,1.9c-1.1,0.5-2.2,0.8-3.4,0.8c-1.7,0-3.3-0.4-4.8-1.3
			c-1.4-0.9-2.5-2.1-3.4-3.7c-0.8-1.6-1.2-3.4-1.2-5.4c0-2,0.4-3.8,1.2-5.5c0.8-1.6,1.9-2.9,3.3-3.8c1.4-0.9,3-1.3,4.7-1.3
			c1.2,0,2.4,0.2,3.4,0.7c1.1,0.4,2,1,2.7,1.7v0c0-0.7,0.2-1.2,0.6-1.7c0.4-0.4,1-0.7,1.6-0.7C336.3,76.7,336.8,76.9,337.2,77.4z
			 M332,91.8c1-1.2,1.6-2.7,1.6-4.5c0-1.8-0.5-3.3-1.6-4.6c-1-1.2-2.4-1.8-4-1.8c-1.6,0-3,0.6-4,1.8c-1,1.2-1.6,2.7-1.6,4.6
			c0,1.8,0.5,3.3,1.5,4.5c1,1.2,2.4,1.8,4,1.8C329.6,93.6,330.9,93,332,91.8z"/>
	</g>
</g>
<line class="st1" x1="612.3" y1="14.1" x2="612.3" y2="141.6"/>
<g>
	<path class="st6" d="M716.4,45h-85.8V108c28.6,0,57.2,0,85.8,0V45z"/>
</g>
<g>
	<polyline class="st6" points="640.4,89 659.6,69.9 679.2,89.5 704,64.7 	"/>
	<path class="st5" d="M702.1,73.8l4.4-12l-12,4.6C697,68.8,699.5,71.3,702.1,73.8z"/>
	<circle class="st5" cx="659.7" cy="69.7" r="4.2"/>
	<circle class="st5" cx="679.5" cy="88.4" r="3.9"/>
</g>
</svg>
