<?xml version="1.0" encoding="utf-8"?>
<!-- Generator: Adobe Illustrator 22.1.0, SVG Export Plug-In . SVG Version: 6.00 Build 0)  -->
<svg version="1.1" id="Layer_1" xmlns="http://www.w3.org/2000/svg" xmlns:xlink="http://www.w3.org/1999/xlink" x="0px" y="0px"
	 viewBox="0 0 781.5 813" style="enable-background:new 0 0 781.5 813;" xml:space="preserve">
<style type="text/css">
	.st0{fill:#FFD433;}
	.st1{fill:none;stroke:#26293C;stroke-width:1.2;stroke-miterlimit:10;}
	.st2{fill:none;stroke:#26293C;stroke-width:5;stroke-miterlimit:10;}
	.st3{fill:none;stroke:#F2F2F2;stroke-width:1.2;stroke-miterlimit:10;}
	.st4{fill:#D9DBDA;}
	.st5{fill:#26293C;}
	.st6{fill:#FFD433;stroke:#26293C;stroke-width:2;stroke-miterlimit:10;}
	.st7{fill:none;stroke:#26293C;stroke-width:1.2003;stroke-miterlimit:10;}
	.st8{fill:none;stroke:#FFD433;stroke-width:0.7434;stroke-miterlimit:10;}
	.st9{fill:none;stroke:#F2F2F2;stroke-width:1.3726;stroke-miterlimit:10;}
	.st10{fill:#F2F2F2;}
	.st11{fill:none;stroke:#26293C;stroke-width:2;stroke-miterlimit:10;}
	.st12{fill:#E5E5E5;stroke:#F2F2F2;stroke-width:1.072;stroke-miterlimit:10;}
	.st13{fill:none;stroke:#F2F2F2;stroke-width:1.4033;stroke-miterlimit:10;}
	.st14{fill:none;stroke:#FFD433;stroke-width:0.7838;stroke-miterlimit:10;}
	.st15{fill:none;stroke:#FFD433;stroke-miterlimit:10;}
	.st16{fill:none;stroke:#F2F2F2;stroke-width:3;stroke-miterlimit:10;}
	.st17{fill:#FFD433;stroke:#26293C;stroke-width:1.8525;stroke-miterlimit:10;}
	.st18{fill:none;stroke:#F2F2F2;stroke-width:1.3001;stroke-miterlimit:10;}
	.st19{fill:none;stroke:#F2F2F2;stroke-width:2.0632;stroke-miterlimit:10;}
	.st20{fill:#FFFFFF;stroke:#26293C;stroke-width:2;stroke-miterlimit:10;}
	.st21{fill:#EDEDED;}
	.st22{fill:#FFD433;stroke:#26293C;stroke-width:1.8509;stroke-miterlimit:10;}
	.st23{fill:none;stroke:#26293C;stroke-width:0.9518;stroke-miterlimit:10;}
	.st24{fill:none;stroke:#FFD433;stroke-width:0.8168;stroke-miterlimit:10;}
	.st25{fill:none;stroke:#26293C;stroke-width:0.9076;stroke-miterlimit:10;}
	.st26{fill:none;stroke:#D9DBDA;stroke-miterlimit:10;}
	.st27{fill:none;stroke:#F2F2F2;stroke-width:1.3998;stroke-miterlimit:10;}
	.st28{fill:none;stroke:#000000;stroke-width:2;stroke-miterlimit:10;}
	.st29{fill:#FFD433;stroke:#26293C;stroke-width:1.9864;stroke-miterlimit:10;}
	.st30{fill:none;stroke:#F2F2F2;stroke-width:1.3708;stroke-miterlimit:10;}
	.st31{fill:none;stroke:#26293C;stroke-width:4.7102;stroke-miterlimit:10;}
</style>
<rect x="60.7" y="180" class="st0" width="73.4" height="73.4"/>
<line class="st1" x1="752.8" y1="148.7" x2="25.7" y2="148.7"/>
<rect x="25.7" y="22.3" transform="matrix(-1 -1.224647e-16 1.224647e-16 -1 778.5101 805.9301)" class="st2" width="727.2" height="761.3"/>
<g>
	<g>
		<path class="st5" d="M102,208.9c0.7,0.4,1.2,0.9,1.6,1.6c0.4,0.7,0.6,1.5,0.6,2.4s-0.2,1.7-0.6,2.4c-0.4,0.7-0.9,1.3-1.6,1.7
			s-1.4,0.6-2.3,0.6H95v6.1c0,0.2-0.1,0.4-0.2,0.5c-0.1,0.1-0.3,0.2-0.5,0.2s-0.4-0.1-0.5-0.2c-0.1-0.1-0.2-0.3-0.2-0.5V209
			c0-0.2,0.1-0.4,0.2-0.5c0.1-0.1,0.3-0.2,0.5-0.2h5.5C100.6,208.3,101.3,208.5,102,208.9z M101.9,215.3c0.6-0.6,0.8-1.4,0.8-2.4
			c0-1-0.3-1.7-0.8-2.3c-0.6-0.6-1.3-0.9-2.2-0.9H95v6.6h4.8C100.6,216.3,101.3,216,101.9,215.3z"/>
	</g>
</g>
<g>
	<g>
		<path class="st5" d="M250,208.5c0.1,0.1,0.2,0.3,0.2,0.5v9.5c0,1.1-0.3,2.1-0.8,3.1c-0.5,0.9-1.3,1.7-2.2,2.2
			c-0.9,0.5-1.9,0.8-3,0.8c-1.1,0-2.1-0.3-3.1-0.8c-0.9-0.5-1.6-1.3-2.2-2.2c-0.5-0.9-0.8-2-0.8-3.1V209c0-0.2,0.1-0.4,0.2-0.5
			c0.1-0.1,0.3-0.2,0.5-0.2c0.2,0,0.3,0.1,0.5,0.2c0.1,0.1,0.2,0.3,0.2,0.5v9.5c0,0.9,0.2,1.6,0.6,2.4s1,1.3,1.7,1.7
			s1.5,0.6,2.3,0.6c0.8,0,1.6-0.2,2.3-0.6s1.3-1,1.7-1.7s0.6-1.5,0.6-2.4V209c0-0.2,0.1-0.4,0.2-0.5c0.1-0.1,0.3-0.2,0.5-0.2
			S249.9,208.4,250,208.5z"/>
	</g>
</g>
<g>
	<g>
		<path class="st5" d="M394.7,223.3c0.1,0.1,0.2,0.3,0.2,0.5c0,0.2-0.1,0.4-0.2,0.5c-0.1,0.1-0.3,0.2-0.5,0.2h-8.4
			c-0.2,0-0.4-0.1-0.5-0.2c-0.1-0.1-0.2-0.3-0.2-0.5V209c0-0.2,0.1-0.4,0.2-0.5c0.1-0.1,0.3-0.2,0.5-0.2h8.4c0.2,0,0.4,0.1,0.5,0.2
			c0.1,0.1,0.2,0.3,0.2,0.5s-0.1,0.4-0.2,0.5c-0.1,0.1-0.3,0.2-0.5,0.2h-7.7v5.8h6.6c0.2,0,0.4,0.1,0.5,0.2c0.1,0.1,0.2,0.3,0.2,0.5
			c0,0.2-0.1,0.4-0.2,0.5c-0.1,0.1-0.3,0.2-0.5,0.2h-6.6v6.3h7.7C394.4,223.1,394.6,223.2,394.7,223.3z"/>
	</g>
</g>
<g>
	<g>
		<path class="st5" d="M547.7,223.8c0,0.1,0,0.2-0.1,0.3c-0.1,0.1-0.1,0.2-0.3,0.3c-0.1,0.1-0.2,0.1-0.3,0.1c-0.2,0-0.3,0-0.4-0.1
			c-0.4-0.2-0.8-0.6-1-1.2c-0.3-0.6-0.4-1.4-0.4-2.6c0-1.1-0.3-1.8-0.9-2.3c-0.6-0.4-1.3-0.7-2.1-0.7H537v6.2c0,0.2-0.1,0.4-0.2,0.5
			c-0.1,0.1-0.3,0.2-0.5,0.2c-0.2,0-0.4-0.1-0.6-0.2s-0.2-0.3-0.2-0.5V209c0-0.2,0.1-0.4,0.2-0.5c0.1-0.1,0.3-0.2,0.5-0.2h6.2
			c0.9,0,1.7,0.2,2.3,0.6c0.7,0.4,1.2,0.9,1.6,1.6c0.4,0.7,0.6,1.4,0.6,2.2c0,1-0.3,1.8-0.8,2.6c-0.5,0.7-1.2,1.3-2,1.5
			c0.7,0.3,1.2,0.7,1.7,1.3s0.7,1.4,0.7,2.3c0,1,0.1,1.6,0.2,2c0.1,0.4,0.3,0.7,0.6,0.8C547.6,223.4,547.7,223.5,547.7,223.8z
			 M542.5,216.3c0.5,0,1-0.2,1.5-0.5c0.5-0.3,0.8-0.7,1.1-1.2c0.3-0.5,0.4-1.1,0.4-1.8c0-0.9-0.3-1.6-0.9-2.2
			c-0.6-0.6-1.4-0.9-2.3-0.9H537v6.6H542.5z"/>
	</g>
</g>
<g>
	<g>
		<path class="st5" d="M686,224.2c-0.1,0.1-0.3,0.2-0.5,0.2c-0.2,0-0.4-0.1-0.5-0.2c-0.1-0.1-0.2-0.3-0.2-0.5v-14.7
			c0-0.2,0.1-0.4,0.2-0.5c0.1-0.1,0.3-0.2,0.5-0.2c0.2,0,0.4,0.1,0.5,0.2c0.1,0.1,0.2,0.3,0.2,0.5v14.7
			C686.3,223.9,686.2,224.1,686,224.2z"/>
	</g>
</g>
<g>
	<g>
		<path class="st5" d="M73.8,365.6c0.6,0.4,1.1,0.9,1.4,1.5c0.4,0.6,0.5,1.3,0.5,2.1c0,0.7-0.2,1.4-0.5,2.1
			c-0.4,0.6-0.9,1.1-1.5,1.5c-0.6,0.4-1.3,0.6-2.1,0.6c-0.9,0-1.6-0.2-2.2-0.7c-0.6-0.4-1.1-1-1.4-1.7s-0.5-1.5-0.5-2.3
			c0-0.9,0.2-1.9,0.5-3.1s1-2.1,1.8-3.1s1.9-1.6,3.2-2c0.1,0,0.2-0.1,0.3-0.1c0.3,0,0.5,0.1,0.6,0.2c0.2,0.1,0.2,0.3,0.2,0.6
			c0,0.2-0.1,0.4-0.2,0.5c-0.1,0.2-0.3,0.3-0.5,0.3c-0.8,0.3-1.6,0.8-2.3,1.5c-0.7,0.7-1.2,1.6-1.5,2.5c0.7-0.7,1.5-1,2.4-1
			C72.6,365,73.3,365.2,73.8,365.6z M73.4,371c0.5-0.5,0.7-1.1,0.7-1.8c0-0.7-0.2-1.3-0.7-1.8c-0.4-0.5-1-0.7-1.7-0.7
			c-0.7,0-1.3,0.3-1.8,0.7c-0.5,0.5-0.7,1.1-0.7,1.8c0,0.7,0.2,1.3,0.7,1.8c0.5,0.5,1,0.7,1.8,0.7C72.4,371.7,72.9,371.4,73.4,371z"
			/>
		<path class="st5" d="M79.6,374c-0.2,0.4-0.4,0.7-0.7,1c-0.3,0.3-0.6,0.4-0.9,0.4c-0.2,0-0.4-0.1-0.5-0.2c-0.1-0.1-0.2-0.2-0.2-0.4
			c0-0.2,0-0.3,0.1-0.4c0.1-0.1,0.2-0.1,0.3-0.2c0.1,0,0.2-0.1,0.3-0.1c0.2-0.1,0.3-0.2,0.4-0.3c0.1-0.1,0.1-0.3,0.1-0.5
			c0-0.1-0.1-0.2-0.2-0.3s-0.2-0.1-0.4-0.1c-0.2,0-0.4,0-0.5,0.1c-0.1-0.1-0.2-0.1-0.3-0.2c-0.1-0.1-0.1-0.2-0.1-0.4
			c0-0.3,0.2-0.5,0.5-0.8c0.3-0.2,0.6-0.3,1-0.3c0.4,0,0.8,0.1,1,0.4c0.3,0.3,0.4,0.7,0.4,1.2C79.9,373.3,79.8,373.6,79.6,374z"/>
		<path class="st5" d="M88,360.9c0.6,0.4,1.1,1,1.4,1.7s0.5,1.5,0.5,2.3c0,0.9-0.2,1.9-0.5,3c-0.4,1.1-0.9,2.1-1.8,3.1
			c-0.8,0.9-1.9,1.6-3.2,2c-0.1,0-0.2,0.1-0.3,0.1c-0.2,0-0.4-0.1-0.6-0.2c-0.2-0.1-0.3-0.3-0.3-0.6c0-0.2,0.1-0.4,0.2-0.5
			c0.1-0.2,0.3-0.3,0.5-0.3c0.9-0.3,1.6-0.8,2.4-1.5c0.7-0.7,1.2-1.5,1.5-2.4c-0.7,0.7-1.5,1-2.4,1c-0.7,0-1.3-0.2-1.9-0.6
			c-0.6-0.4-1.1-0.9-1.4-1.5c-0.4-0.6-0.5-1.3-0.5-2.1c0-0.7,0.2-1.4,0.5-2c0.4-0.6,0.9-1.1,1.5-1.5c0.6-0.4,1.3-0.6,2.1-0.6
			C86.6,360.3,87.3,360.5,88,360.9z M87.5,366.2c0.5-0.5,0.7-1.1,0.7-1.8c0-0.7-0.2-1.3-0.7-1.8c-0.5-0.5-1-0.7-1.8-0.7
			c-0.7,0-1.2,0.2-1.7,0.7c-0.5,0.5-0.7,1.1-0.7,1.8c0,0.7,0.2,1.3,0.7,1.8c0.4,0.5,1,0.7,1.7,0.7C86.4,366.9,87,366.7,87.5,366.2z"
			/>
		<path class="st5" d="M93.6,372.4c-0.7-0.6-1.2-1.3-1.6-2.3c-0.4-1-0.5-2.1-0.5-3.4c0-1.3,0.2-2.4,0.5-3.4c0.4-1,0.9-1.7,1.6-2.3
			c0.7-0.6,1.5-0.8,2.5-0.8c1,0,1.8,0.3,2.5,0.8c0.7,0.6,1.2,1.3,1.6,2.3c0.4,1,0.5,2.1,0.5,3.4c0,1.3-0.2,2.4-0.5,3.4
			c-0.4,1-0.9,1.7-1.6,2.3c-0.7,0.6-1.5,0.8-2.5,0.8C95.2,373.3,94.3,373,93.6,372.4z M98.2,370.3c0.5-0.8,0.7-2,0.7-3.5
			c0-1.5-0.2-2.7-0.7-3.5c-0.5-0.8-1.2-1.2-2-1.2s-1.6,0.4-2,1.2c-0.5,0.8-0.7,2-0.7,3.5c0,1.5,0.2,2.7,0.7,3.5
			c0.5,0.8,1.2,1.2,2,1.2S97.7,371.1,98.2,370.3z"/>
		<path class="st5" d="M110.6,371.7c0.2,0.2,0.2,0.3,0.2,0.6c0,0.2-0.1,0.4-0.2,0.6c-0.2,0.1-0.3,0.2-0.6,0.2h-6.4
			c-0.2,0-0.4-0.1-0.6-0.2s-0.2-0.4-0.2-0.6c0-0.2,0.1-0.4,0.3-0.6l4-4.4c1.1-1.2,1.7-2.2,1.7-3.2c0-0.6-0.2-1.2-0.6-1.6
			c-0.4-0.4-1-0.6-1.6-0.6c-0.4,0-0.9,0.1-1.3,0.4s-0.7,0.6-1,1.1c-0.2,0.3-0.4,0.4-0.7,0.4c-0.2,0-0.4-0.1-0.6-0.2
			c-0.2-0.2-0.3-0.3-0.3-0.5c0-0.1,0-0.3,0.1-0.4c0.1-0.1,0.2-0.3,0.4-0.5c0.4-0.5,0.9-0.9,1.5-1.3c0.6-0.3,1.2-0.5,1.9-0.5
			c0.8,0,1.5,0.2,2.1,0.5c0.6,0.3,1,0.8,1.4,1.3c0.3,0.6,0.5,1.2,0.5,1.9c0,1.4-0.7,2.9-2.2,4.5l-2.7,3h4.5
			C110.2,371.5,110.4,371.6,110.6,371.7z"/>
	</g>
</g>
<g>
	<g>
		<path class="st5" d="M75,333c0.5,0.3,1,0.8,1.3,1.4c0.3,0.6,0.5,1.2,0.5,1.9c0,0.7-0.2,1.4-0.5,2c-0.3,0.6-0.7,1.1-1.3,1.4
			s-1.1,0.5-1.8,0.5h-3.4v4c0,0.2-0.1,0.4-0.2,0.6c-0.2,0.2-0.4,0.3-0.6,0.3c-0.3,0-0.5-0.1-0.6-0.2c-0.2-0.2-0.2-0.4-0.2-0.6v-10.9
			c0-0.2,0.1-0.4,0.3-0.6c0.2-0.2,0.4-0.3,0.6-0.3h4.2C73.8,332.5,74.4,332.6,75,333z M74.1,338.3c0.3-0.2,0.5-0.5,0.7-0.8
			c0.2-0.3,0.2-0.7,0.2-1.1c0-0.6-0.2-1.1-0.5-1.6c-0.4-0.4-0.8-0.6-1.3-0.6h-3.4v4.5h3.4C73.5,338.6,73.8,338.5,74.1,338.3z"/>
		<path class="st5" d="M89.6,342c-0.5,1-1.2,1.8-2.2,2.3c-0.9,0.6-2,0.9-3.1,0.9s-2.2-0.3-3.1-0.9c-0.9-0.6-1.6-1.3-2.2-2.3
			c-0.5-1-0.8-2.1-0.8-3.3s0.3-2.3,0.8-3.3c0.5-1,1.2-1.8,2.2-2.3c0.9-0.6,2-0.9,3.1-0.9s2.2,0.3,3.1,0.9c0.9,0.6,1.6,1.3,2.2,2.3
			c0.5,1,0.8,2.1,0.8,3.3S90.1,341.1,89.6,342z M88,336.3c-0.4-0.7-0.9-1.3-1.5-1.7c-0.6-0.4-1.4-0.6-2.2-0.6
			c-0.8,0-1.5,0.2-2.2,0.6c-0.6,0.4-1.1,1-1.5,1.7c-0.4,0.7-0.5,1.5-0.5,2.5c0,0.9,0.2,1.7,0.5,2.4c0.4,0.7,0.9,1.3,1.5,1.7
			c0.6,0.4,1.4,0.6,2.2,0.6c0.8,0,1.5-0.2,2.2-0.6c0.6-0.4,1.1-1,1.5-1.7c0.4-0.7,0.5-1.5,0.5-2.4C88.6,337.9,88.4,337,88,336.3z"/>
		<path class="st5" d="M94.2,344.9c-0.7-0.2-1.3-0.6-1.9-1.2c-0.3-0.2-0.4-0.5-0.4-0.7c0-0.2,0.1-0.4,0.3-0.6
			c0.2-0.2,0.4-0.3,0.6-0.3c0.2,0,0.4,0.1,0.5,0.2c0.5,0.4,1,0.8,1.5,1c0.5,0.2,1.1,0.3,1.7,0.3c0.8,0,1.4-0.2,1.9-0.5
			c0.5-0.3,0.8-0.8,0.8-1.3c0-0.6-0.3-1.1-0.8-1.4c-0.5-0.3-1.3-0.6-2.3-0.9c-1.2-0.3-2.2-0.7-2.9-1.2s-1-1.4-1-2.4
			c0-0.7,0.2-1.3,0.6-1.9s0.9-0.9,1.5-1.2s1.4-0.4,2.2-0.4c0.7,0,1.4,0.1,2.1,0.4c0.7,0.2,1.2,0.6,1.6,1c0.3,0.2,0.4,0.5,0.4,0.8
			c0,0.2-0.1,0.4-0.2,0.6s-0.4,0.3-0.6,0.3c-0.2,0-0.3,0-0.4-0.1c-0.3-0.3-0.7-0.6-1.3-0.8c-0.6-0.2-1.1-0.3-1.6-0.3
			c-0.8,0-1.4,0.2-1.9,0.5c-0.5,0.3-0.7,0.8-0.7,1.3c0,0.6,0.2,1,0.7,1.3c0.5,0.3,1.2,0.6,2.1,0.8c0.9,0.2,1.7,0.4,2.3,0.7
			c0.6,0.3,1.1,0.7,1.4,1.2c0.3,0.5,0.5,1.1,0.5,1.9c0,0.7-0.2,1.3-0.6,1.9s-0.9,1-1.6,1.3s-1.4,0.5-2.2,0.5
			C95.6,345.2,94.8,345.1,94.2,344.9z"/>
		<path class="st5" d="M111.9,332.7c0.2,0.2,0.2,0.4,0.2,0.6s-0.1,0.5-0.2,0.6c-0.2,0.1-0.4,0.2-0.6,0.2h-3.2v10.1
			c0,0.2-0.1,0.4-0.3,0.6c-0.2,0.2-0.4,0.3-0.7,0.3c-0.3,0-0.5-0.1-0.7-0.3c-0.2-0.2-0.3-0.4-0.3-0.6v-10.1h-3.2
			c-0.3,0-0.5-0.1-0.6-0.2c-0.2-0.1-0.2-0.4-0.2-0.6c0-0.2,0.1-0.4,0.2-0.6c0.2-0.1,0.4-0.2,0.6-0.2h8.2
			C111.6,332.5,111.8,332.5,111.9,332.7z"/>
	</g>
</g>
<g>
	<g>
		<path class="st5" d="M94.6,78.5c0.5,0.4,0.7,1,0.7,1.7v22c0,0.7-0.2,1.2-0.6,1.7c-0.4,0.4-1,0.7-1.7,0.7c-0.7,0-1.3-0.2-1.7-0.6
			c-0.4-0.4-0.7-1-0.7-1.7V86.9l-6.3,9.6c-0.3,0.3-0.5,0.6-0.9,0.7c-0.3,0.2-0.7,0.3-1,0.2c-0.3,0-0.7-0.1-1-0.2
			c-0.3-0.2-0.6-0.4-0.9-0.7l-6.3-9.9v15.7c0,0.7-0.2,1.2-0.6,1.7c-0.4,0.4-0.9,0.6-1.6,0.6c-0.6,0-1.2-0.2-1.6-0.7
			c-0.4-0.4-0.6-1-0.6-1.7v-22c0-0.6,0.2-1.2,0.7-1.6s1-0.7,1.7-0.7c0.4,0,0.8,0.1,1.1,0.3c0.4,0.2,0.7,0.4,0.9,0.7l8.3,12.7
			l8.5-12.7c0.2-0.3,0.5-0.6,0.8-0.7c0.3-0.2,0.7-0.3,1-0.3C93.6,77.9,94.2,78.1,94.6,78.5z"/>
		<path class="st5" d="M118.2,95.3c-0.5,0.4-1,0.6-1.6,0.6H104c0.3,1.5,1,2.7,2.1,3.5c1.1,0.8,2.3,1.3,3.7,1.3c1,0,1.8-0.1,2.4-0.3
			c0.6-0.2,1-0.4,1.4-0.6c0.3-0.2,0.6-0.4,0.7-0.4c0.5-0.2,0.9-0.3,1.3-0.3c0.5,0,1,0.2,1.4,0.6c0.4,0.4,0.6,0.8,0.6,1.3
			c0,0.7-0.4,1.3-1.1,1.9c-0.7,0.6-1.7,1.1-2.9,1.5c-1.2,0.4-2.4,0.6-3.6,0.6c-2.1,0-4-0.4-5.6-1.3c-1.6-0.9-2.8-2.1-3.7-3.7
			c-0.9-1.6-1.3-3.3-1.3-5.3c0-2.2,0.5-4.1,1.4-5.7c0.9-1.6,2.1-2.9,3.6-3.8c1.5-0.9,3.1-1.3,4.8-1.3c1.7,0,3.2,0.5,4.7,1.4
			c1.5,0.9,2.7,2.1,3.6,3.7c0.9,1.5,1.3,3.2,1.3,5C118.9,94.5,118.6,95,118.2,95.3z M104.1,92.1h10v-0.3c-0.1-1.1-0.6-2-1.6-2.7
			c-0.9-0.8-2-1.1-3.2-1.1C106.3,88,104.6,89.4,104.1,92.1z"/>
		<path class="st5" d="M140.9,84.4c0.4,0.4,0.6,1,0.6,1.7v16.1c0,0.7-0.2,1.2-0.6,1.7s-1,0.7-1.6,0.7s-1.2-0.2-1.6-0.6
			c-0.4-0.4-0.6-1-0.7-1.6c-0.6,0.7-1.5,1.4-2.6,1.9c-1.1,0.5-2.2,0.8-3.4,0.8c-1.7,0-3.3-0.4-4.8-1.3s-2.5-2.1-3.4-3.7
			c-0.8-1.6-1.2-3.4-1.2-5.4c0-2,0.4-3.8,1.2-5.5s1.9-2.9,3.3-3.8c1.4-0.9,3-1.3,4.7-1.3c1.2,0,2.4,0.2,3.4,0.7c1.1,0.4,2,1,2.7,1.7
			v0c0-0.7,0.2-1.2,0.6-1.7s1-0.7,1.6-0.7S140.5,84,140.9,84.4z M135.6,98.9c1-1.2,1.6-2.7,1.6-4.5c0-1.8-0.5-3.3-1.6-4.6
			c-1-1.2-2.4-1.8-4-1.8c-1.6,0-3,0.6-4,1.8s-1.6,2.7-1.6,4.6c0,1.8,0.5,3.3,1.5,4.5c1,1.2,2.4,1.8,4,1.8
			C133.3,100.7,134.6,100.1,135.6,98.9z"/>
		<path class="st5" d="M145,100.2c0-0.7,0.3-1.2,1-1.7c0.4-0.2,0.7-0.3,1.1-0.3c0.5,0,1,0.2,1.5,0.7c0.8,0.8,1.6,1.4,2.4,1.7
			s1.8,0.6,3,0.6c2-0.1,3-0.8,3-2.2c0-0.7-0.3-1.3-1-1.7c-0.7-0.4-1.7-0.8-3.1-1.1c-1.5-0.4-2.7-0.8-3.6-1.2s-1.7-1-2.4-1.8
			c-0.7-0.8-1-1.9-1-3.3c0-1.2,0.3-2.3,1-3.2c0.7-0.9,1.6-1.6,2.7-2.1s2.3-0.7,3.6-0.7c1.3,0,2.6,0.2,3.9,0.7c1.3,0.5,2.3,1.2,3,2.1
			c0.3,0.4,0.5,0.9,0.5,1.4c0,0.6-0.2,1.1-0.7,1.4c-0.4,0.3-0.8,0.4-1.2,0.4c-0.6,0-1-0.2-1.4-0.5c-0.5-0.6-1-1-1.8-1.3
			c-0.7-0.3-1.5-0.5-2.5-0.5c-1.9,0-2.9,0.7-2.9,2.1c0,0.6,0.2,1,0.5,1.3s0.8,0.6,1.3,0.8c0.5,0.2,1.3,0.4,2.3,0.7
			c1.4,0.4,2.5,0.8,3.4,1.2s1.7,1,2.3,1.9c0.6,0.8,0.9,1.9,0.9,3.3c0,1.2-0.4,2.3-1.1,3.2c-0.7,0.9-1.7,1.6-2.8,2.1
			c-1.2,0.5-2.3,0.7-3.6,0.7c-1.7,0-3.2-0.3-4.7-0.8c-1.4-0.6-2.6-1.5-3.5-2.7C145.1,101,145,100.7,145,100.2z"/>
		<path class="st5" d="M181.5,84.8c0.4,0.4,0.6,1,0.6,1.7v9.7c0,2.7-0.8,4.9-2.3,6.4c-1.5,1.5-3.7,2.3-6.4,2.3s-4.9-0.8-6.4-2.3
			c-1.5-1.5-2.2-3.7-2.2-6.4v-9.7c0-0.7,0.2-1.2,0.6-1.7c0.4-0.4,1-0.7,1.6-0.7c0.7,0,1.2,0.2,1.6,0.7s0.6,1,0.6,1.7v9.7
			c0,1.5,0.3,2.7,1,3.4c0.7,0.7,1.7,1.1,3.1,1.1c1.4,0,2.4-0.4,3.1-1.1s1-1.9,1-3.4v-9.7c0-0.7,0.2-1.2,0.6-1.7s1-0.7,1.6-0.7
			C180.6,84.2,181.1,84.4,181.5,84.8z"/>
		<path class="st5" d="M199.6,84.4c0.5,0.4,0.8,0.9,0.8,1.5c0,0.8-0.2,1.4-0.6,1.8c-0.4,0.4-0.9,0.6-1.4,0.6c-0.4,0-0.8-0.1-1.3-0.3
			c-0.1,0-0.2-0.1-0.5-0.2c-0.3-0.1-0.6-0.1-0.9-0.1c-0.7,0-1.3,0.2-1.9,0.6c-0.6,0.4-1.1,1-1.5,1.8c-0.4,0.8-0.6,1.8-0.6,2.9v9
			c0,0.7-0.2,1.2-0.6,1.7s-1,0.7-1.6,0.7c-0.7,0-1.2-0.2-1.6-0.7c-0.4-0.4-0.6-1-0.6-1.7V86.5c0-0.7,0.2-1.2,0.6-1.7
			c0.4-0.4,1-0.7,1.6-0.7c0.7,0,1.2,0.2,1.6,0.7s0.6,1,0.6,1.7V87c0.6-1,1.4-1.8,2.5-2.4c1.1-0.5,2.3-0.8,3.5-0.8
			C198.5,83.8,199.1,84,199.6,84.4z"/>
		<path class="st5" d="M220.3,95.3c-0.5,0.4-1,0.6-1.6,0.6h-12.5c0.3,1.5,1,2.7,2.1,3.5c1.1,0.8,2.3,1.3,3.7,1.3
			c1,0,1.8-0.1,2.4-0.3c0.6-0.2,1-0.4,1.4-0.6c0.3-0.2,0.6-0.4,0.7-0.4c0.5-0.2,0.9-0.3,1.3-0.3c0.5,0,1,0.2,1.4,0.6
			s0.6,0.8,0.6,1.3c0,0.7-0.4,1.3-1.1,1.9c-0.7,0.6-1.7,1.1-2.8,1.5c-1.2,0.4-2.4,0.6-3.6,0.6c-2.1,0-4-0.4-5.6-1.3
			c-1.6-0.9-2.8-2.1-3.7-3.7c-0.9-1.6-1.3-3.3-1.3-5.3c0-2.2,0.5-4.1,1.4-5.7c0.9-1.6,2.1-2.9,3.6-3.8s3.1-1.3,4.8-1.3
			c1.7,0,3.2,0.5,4.7,1.4c1.5,0.9,2.7,2.1,3.6,3.7c0.9,1.5,1.3,3.2,1.3,5C221,94.5,220.8,95,220.3,95.3z M206.2,92.1h10v-0.3
			c-0.1-1.1-0.6-2-1.6-2.7c-0.9-0.8-2-1.1-3.2-1.1C208.5,88,206.7,89.4,206.2,92.1z"/>
		<path class="st5" d="M250.7,85.1c1.4,0.9,2.5,2.1,3.4,3.7s1.2,3.4,1.2,5.4c0,2-0.4,3.8-1.2,5.5c-0.8,1.6-1.9,2.9-3.3,3.8
			s-3,1.3-4.7,1.3c-1.2,0-2.4-0.2-3.4-0.7c-1.1-0.5-2-1.1-2.7-1.8v7.4c0,0.7-0.2,1.2-0.6,1.7c-0.4,0.4-1,0.7-1.6,0.7
			c-0.7,0-1.2-0.2-1.6-0.6c-0.4-0.4-0.6-1-0.6-1.7V86.5c0-0.7,0.2-1.2,0.6-1.7s1-0.7,1.6-0.7c0.7,0,1.2,0.2,1.6,0.7
			c0.4,0.4,0.6,1,0.6,1.7v0.2c0.6-0.8,1.5-1.4,2.5-2c1.1-0.6,2.2-0.9,3.4-0.9C247.7,83.8,249.3,84.2,250.7,85.1z M249.4,98.9
			c1-1.2,1.6-2.7,1.6-4.6c0-1.8-0.5-3.3-1.5-4.5s-2.4-1.8-4-1.8c-1.6,0-3,0.6-4,1.8s-1.6,2.7-1.6,4.5c0,1.8,0.5,3.3,1.6,4.6
			s2.4,1.8,4,1.8C247,100.7,248.4,100.1,249.4,98.9z"/>
		<path class="st5" d="M276.7,95.3c-0.5,0.4-1,0.6-1.6,0.6h-12.5c0.3,1.5,1,2.7,2.1,3.5c1.1,0.8,2.3,1.3,3.7,1.3
			c1,0,1.8-0.1,2.4-0.3c0.6-0.2,1-0.4,1.4-0.6c0.3-0.2,0.6-0.4,0.7-0.4c0.5-0.2,0.9-0.3,1.3-0.3c0.5,0,1,0.2,1.4,0.6
			s0.6,0.8,0.6,1.3c0,0.7-0.4,1.3-1.1,1.9c-0.7,0.6-1.7,1.1-2.9,1.5c-1.2,0.4-2.4,0.6-3.6,0.6c-2.1,0-4-0.4-5.6-1.3
			c-1.6-0.9-2.8-2.1-3.7-3.7c-0.9-1.6-1.3-3.3-1.3-5.3c0-2.2,0.5-4.1,1.4-5.7c0.9-1.6,2.1-2.9,3.6-3.8c1.5-0.9,3.1-1.3,4.8-1.3
			c1.7,0,3.2,0.5,4.7,1.4c1.5,0.9,2.7,2.1,3.6,3.7c0.9,1.5,1.3,3.2,1.3,5C277.4,94.5,277.1,95,276.7,95.3z M262.6,92.1h10v-0.3
			c-0.1-1.1-0.6-2-1.6-2.7c-0.9-0.8-2-1.1-3.2-1.1C264.8,88,263.1,89.4,262.6,92.1z"/>
		<path class="st5" d="M293.7,84.4c0.5,0.4,0.8,0.9,0.8,1.5c0,0.8-0.2,1.4-0.6,1.8c-0.4,0.4-0.9,0.6-1.4,0.6c-0.4,0-0.8-0.1-1.3-0.3
			c-0.1,0-0.2-0.1-0.5-0.2c-0.3-0.1-0.6-0.1-0.9-0.1c-0.7,0-1.3,0.2-1.9,0.6c-0.6,0.4-1.1,1-1.5,1.8c-0.4,0.8-0.6,1.8-0.6,2.9v9
			c0,0.7-0.2,1.2-0.6,1.7c-0.4,0.4-1,0.7-1.6,0.7c-0.7,0-1.2-0.2-1.6-0.7c-0.4-0.4-0.6-1-0.6-1.7V86.5c0-0.7,0.2-1.2,0.6-1.7
			c0.4-0.4,1-0.7,1.6-0.7c0.7,0,1.2,0.2,1.6,0.7c0.4,0.4,0.6,1,0.6,1.7V87c0.6-1,1.4-1.8,2.5-2.4c1.1-0.5,2.3-0.8,3.5-0.8
			C292.5,83.8,293.1,84,293.7,84.4z"/>
		<path class="st5" d="M305.6,81.2c-0.4,0.5-0.5,1-0.5,1.6v1.8h3.5c0.6,0,1.1,0.2,1.5,0.6c0.4,0.4,0.6,0.9,0.6,1.5
			c0,0.6-0.2,1.1-0.6,1.5c-0.4,0.4-0.9,0.6-1.5,0.6h-3.5v13.5c0,0.7-0.2,1.2-0.6,1.7c-0.4,0.4-1,0.7-1.6,0.7c-0.7,0-1.2-0.2-1.6-0.7
			s-0.6-1-0.6-1.7V88.7h-2.1c-0.6,0-1.1-0.2-1.5-0.6c-0.4-0.4-0.6-0.9-0.6-1.5c0-0.6,0.2-1.1,0.6-1.5c0.4-0.4,0.9-0.6,1.5-0.6h2.1
			v-1.7c0-1.9,0.7-3.4,2-4.6c1.3-1.2,3.2-1.8,5.6-1.8c0.9,0,1.8,0.2,2.5,0.6c0.7,0.4,1,1,1,1.7c0,0.6-0.2,1.1-0.5,1.5
			s-0.8,0.6-1.3,0.6c-0.1,0-0.3,0-0.4,0c-0.1,0-0.3-0.1-0.4-0.1c-0.6-0.2-1.1-0.2-1.5-0.2C306.6,80.4,306,80.7,305.6,81.2z"/>
		<path class="st5" d="M331.7,99.8c-0.9,1.6-2.2,2.9-3.7,3.7c-1.6,0.9-3.3,1.3-5.2,1.3c-1.9,0-3.7-0.4-5.2-1.3
			c-1.6-0.9-2.8-2.1-3.7-3.7c-0.9-1.6-1.4-3.4-1.4-5.5c0-2,0.5-3.8,1.4-5.5s2.2-2.9,3.7-3.8c1.6-0.9,3.3-1.3,5.2-1.3
			c1.9,0,3.6,0.5,5.2,1.3c1.6,0.9,2.8,2.2,3.7,3.8s1.4,3.4,1.4,5.5C333,96.4,332.6,98.2,331.7,99.8z M327.7,91
			c-0.5-1-1.2-1.7-2.1-2.3c-0.9-0.5-1.8-0.8-2.9-0.8c-1.1,0-2,0.3-2.9,0.8c-0.9,0.5-1.6,1.3-2.1,2.3s-0.8,2.1-0.8,3.3
			c0,1.2,0.3,2.3,0.8,3.3s1.2,1.7,2.1,2.2c0.9,0.5,1.8,0.8,2.9,0.8c1.1,0,2-0.3,2.9-0.8c0.9-0.5,1.6-1.3,2.1-2.2
			c0.5-1,0.8-2.1,0.8-3.3C328.5,93.1,328.2,92,327.7,91z"/>
		<path class="st5" d="M349.3,84.4c0.5,0.4,0.8,0.9,0.8,1.5c0,0.8-0.2,1.4-0.6,1.8c-0.4,0.4-0.9,0.6-1.4,0.6c-0.4,0-0.8-0.1-1.3-0.3
			c-0.1,0-0.2-0.1-0.5-0.2c-0.3-0.1-0.6-0.1-0.9-0.1c-0.7,0-1.3,0.2-1.9,0.6c-0.6,0.4-1.1,1-1.5,1.8c-0.4,0.8-0.6,1.8-0.6,2.9v9
			c0,0.7-0.2,1.2-0.6,1.7s-1,0.7-1.6,0.7c-0.7,0-1.2-0.2-1.6-0.7c-0.4-0.4-0.6-1-0.6-1.7V86.5c0-0.7,0.2-1.2,0.6-1.7
			c0.4-0.4,1-0.7,1.6-0.7c0.7,0,1.2,0.2,1.6,0.7s0.6,1,0.6,1.7V87c0.6-1,1.4-1.8,2.5-2.4c1.1-0.5,2.3-0.8,3.5-0.8
			C348.2,83.8,348.8,84,349.3,84.4z"/>
		<path class="st5" d="M382,86.1c1,1.5,1.4,3.7,1.4,6.4v9.7c0,0.7-0.2,1.2-0.6,1.7c-0.4,0.4-1,0.7-1.6,0.7c-0.7,0-1.2-0.2-1.6-0.7
			s-0.6-1-0.6-1.7v-9.7c0-1.4-0.3-2.5-0.8-3.3s-1.5-1.2-2.9-1.2c-1.4,0-2.5,0.4-3.3,1.3c-0.8,0.8-1.2,1.9-1.2,3.2v9.7
			c0,0.7-0.2,1.2-0.6,1.7s-1,0.7-1.6,0.7c-0.7,0-1.2-0.2-1.6-0.7c-0.4-0.4-0.6-1-0.6-1.7v-9.7c0-1.4-0.3-2.5-0.8-3.3
			c-0.5-0.8-1.5-1.2-2.9-1.2c-1.4,0-2.5,0.4-3.3,1.3s-1.2,1.9-1.2,3.2v9.7c0,0.7-0.2,1.2-0.6,1.7c-0.4,0.4-1,0.7-1.6,0.7
			c-0.7,0-1.2-0.2-1.6-0.7s-0.6-1-0.6-1.7V86.5c0-0.7,0.2-1.2,0.6-1.7s1-0.7,1.6-0.7c0.7,0,1.2,0.2,1.6,0.7c0.4,0.4,0.6,1,0.6,1.7
			v0.6c0.7-0.9,1.6-1.7,2.6-2.3c1.1-0.6,2.2-1,3.5-1c3.2,0,5.2,1.4,6.1,4.2c0.6-1.1,1.5-2,2.6-2.9c1.2-0.9,2.5-1.3,4-1.3
			C379.3,83.8,381,84.6,382,86.1z"/>
		<path class="st5" d="M406.5,84.4c0.4,0.4,0.6,1,0.6,1.7v16.1c0,0.7-0.2,1.2-0.6,1.7c-0.4,0.4-1,0.7-1.6,0.7
			c-0.7,0-1.2-0.2-1.6-0.6c-0.4-0.4-0.6-1-0.7-1.6c-0.6,0.7-1.5,1.4-2.6,1.9c-1.1,0.5-2.2,0.8-3.4,0.8c-1.7,0-3.3-0.4-4.8-1.3
			s-2.5-2.1-3.4-3.7s-1.2-3.4-1.2-5.4c0-2,0.4-3.8,1.2-5.5s1.9-2.9,3.3-3.8c1.4-0.9,3-1.3,4.7-1.3c1.2,0,2.4,0.2,3.4,0.7
			c1.1,0.4,2,1,2.7,1.7v0c0-0.7,0.2-1.2,0.6-1.7s1-0.7,1.6-0.7C405.5,83.8,406,84,406.5,84.4z M401.2,98.9c1-1.2,1.6-2.7,1.6-4.5
			c0-1.8-0.5-3.3-1.6-4.6c-1-1.2-2.4-1.8-4-1.8c-1.6,0-3,0.6-4,1.8s-1.6,2.7-1.6,4.6c0,1.8,0.5,3.3,1.5,4.5c1,1.2,2.4,1.8,4,1.8
			S400.1,100.1,401.2,98.9z"/>
		<path class="st5" d="M428.3,86.1c1,1.5,1.5,3.7,1.5,6.4v9.7c0,0.7-0.2,1.2-0.6,1.7c-0.4,0.4-1,0.7-1.6,0.7c-0.7,0-1.2-0.2-1.6-0.7
			s-0.6-1-0.6-1.7v-9.7c0-1.4-0.3-2.5-0.9-3.3c-0.6-0.8-1.6-1.2-3-1.2c-1.5,0-2.6,0.4-3.5,1.3s-1.3,1.9-1.3,3.2v9.7
			c0,0.7-0.2,1.2-0.6,1.7s-1,0.7-1.6,0.7c-0.7,0-1.2-0.2-1.6-0.7c-0.4-0.4-0.6-1-0.6-1.7V86.5c0-0.7,0.2-1.2,0.6-1.7
			c0.4-0.4,1-0.7,1.6-0.7c0.7,0,1.2,0.2,1.6,0.7s0.6,1,0.6,1.7v0.6c0.7-0.9,1.6-1.7,2.7-2.4c1.1-0.7,2.3-1,3.6-1
			C425.5,83.8,427.3,84.6,428.3,86.1z"/>
		<path class="st5" d="M448.8,84.8c1.3,0.7,2,1.6,2,2.7c0,0.6-0.2,1-0.5,1.5c-0.3,0.4-0.8,0.6-1.3,0.6c-0.4,0-0.7-0.1-1-0.2
			c-0.3-0.1-0.5-0.3-0.7-0.5c-0.2-0.2-0.5-0.3-0.7-0.5c-0.3-0.1-0.6-0.2-1.1-0.3c-0.5-0.1-0.9-0.2-1.2-0.2c-1.9,0-3.4,0.6-4.5,1.8
			c-1.1,1.2-1.6,2.7-1.6,4.6c0,1.8,0.5,3.3,1.6,4.5c1.1,1.2,2.5,1.8,4.2,1.8c1.2,0,2.2-0.2,2.8-0.5c0.2-0.1,0.4-0.2,0.6-0.4
			c0.3-0.2,0.5-0.3,0.7-0.4c0.2-0.1,0.5-0.2,0.8-0.2c0.6,0,1.1,0.2,1.5,0.6s0.6,0.9,0.6,1.6c0,0.6-0.4,1.2-1.1,1.7s-1.6,1-2.8,1.3
			c-1.2,0.3-2.4,0.5-3.7,0.5c-2,0-3.7-0.5-5.1-1.4c-1.5-0.9-2.6-2.2-3.4-3.8c-0.8-1.6-1.2-3.4-1.2-5.4c0-2.1,0.4-3.9,1.3-5.5
			c0.8-1.6,2-2.8,3.6-3.7c1.5-0.9,3.2-1.3,5.2-1.3C445.7,83.8,447.4,84.1,448.8,84.8z"/>
		<path class="st5" d="M471.8,95.3c-0.5,0.4-1,0.6-1.6,0.6h-12.5c0.3,1.5,1,2.7,2.1,3.5c1.1,0.8,2.3,1.3,3.7,1.3
			c1,0,1.8-0.1,2.4-0.3c0.6-0.2,1-0.4,1.4-0.6c0.3-0.2,0.6-0.4,0.7-0.4c0.5-0.2,0.9-0.3,1.3-0.3c0.5,0,1,0.2,1.4,0.6
			s0.6,0.8,0.6,1.3c0,0.7-0.4,1.3-1.1,1.9c-0.7,0.6-1.7,1.1-2.8,1.5c-1.2,0.4-2.4,0.6-3.6,0.6c-2.1,0-4-0.4-5.6-1.3
			c-1.6-0.9-2.8-2.1-3.7-3.7c-0.9-1.6-1.3-3.3-1.3-5.3c0-2.2,0.5-4.1,1.4-5.7c0.9-1.6,2.1-2.9,3.6-3.8c1.5-0.9,3.1-1.3,4.8-1.3
			c1.7,0,3.2,0.5,4.7,1.4c1.5,0.9,2.7,2.1,3.6,3.7c0.9,1.5,1.3,3.2,1.3,5C472.5,94.5,472.2,95,471.8,95.3z M457.7,92.1h10v-0.3
			c-0.1-1.1-0.6-2-1.6-2.7c-0.9-0.8-2-1.1-3.2-1.1C460,88,458.2,89.4,457.7,92.1z"/>
	</g>
</g>
<line class="st1" x1="626.6" y1="21.1" x2="626.6" y2="148.7"/>
<g>
	<path class="st6" d="M731.8,56.1h-85.8V119c28.6,0,57.2,0,85.8,0V56.1z"/>
</g>
<rect x="663.8" y="94.2" class="st29" width="10.8" height="16.5"/>
<rect x="683.1" y="85.1" class="st29" width="10.8" height="25.5"/>
<rect x="703.1" y="74.2" class="st29" width="10.8" height="36.5"/>
<polygon class="st5" points="708.5,67.8 705.9,69.2 706.4,66.3 704.3,64.3 707.2,63.9 708.5,61.3 709.8,63.9 712.6,64.3 710.6,66.3 
	711,69.2 "/>
<line class="st30" x1="71.5" y1="713.5" x2="707.8" y2="713.5"/>
<line class="st30" x1="71.5" y1="664.5" x2="707.8" y2="664.5"/>
<line class="st30" x1="74.2" y1="611.5" x2="710.5" y2="611.5"/>
<line class="st30" x1="74.2" y1="561.1" x2="710.5" y2="561.1"/>
<line class="st30" x1="74.2" y1="512.1" x2="710.5" y2="512.1"/>
<rect x="125.9" y="676.4" class="st4" width="37.8" height="37.8"/>
<rect x="179.1" y="664.5" class="st4" width="37.8" height="50.3"/>
<rect x="232.3" y="639.6" class="st4" width="37.8" height="74.8"/>
<rect x="285.5" y="613.2" class="st4" width="37.8" height="100.9"/>
<rect x="338.7" y="591.6" class="st4" width="37.8" height="122.6"/>
<rect x="391.2" y="575.3" class="st4" width="37.8" height="139.1"/>
<rect x="444.4" y="555.6" class="st4" width="37.8" height="158.5"/>
<rect x="497.6" y="522.3" class="st4" width="37.8" height="192.2"/>
<rect x="550.8" y="478.3" class="st4" width="37.8" height="235.8"/>
<rect x="604" y="436.4" class="st4" width="37.8" height="277.8"/>
</svg>
