<?xml version="1.0" encoding="utf-8"?>
<!-- Generator: Adobe Illustrator 22.1.0, SVG Export Plug-In . SVG Version: 6.00 Build 0)  -->
<svg version="1.1" id="Layer_1" xmlns="http://www.w3.org/2000/svg" xmlns:xlink="http://www.w3.org/1999/xlink" x="0px" y="0px"
	 viewBox="0 0 1692 1306" style="enable-background:new 0 0 1692 1306;" xml:space="preserve">
<style type="text/css">
	.st0{fill:#FFD433;}
	.st1{fill:none;stroke:#26293C;stroke-width:1.2;stroke-miterlimit:10;}
	.st2{fill:none;stroke:#26293C;stroke-width:5;stroke-miterlimit:10;}
	.st3{fill:none;stroke:#F2F2F2;stroke-width:1.2;stroke-miterlimit:10;}
	.st4{fill:#D9DBDA;}
	.st5{fill:#26293C;}
	.st6{fill:#FFD433;stroke:#26293C;stroke-width:2;stroke-miterlimit:10;}
	.st7{fill:none;stroke:#26293C;stroke-width:1.2003;stroke-miterlimit:10;}
	.st8{fill:none;stroke:#FFD433;stroke-width:0.7434;stroke-miterlimit:10;}
	.st9{fill:none;stroke:#F2F2F2;stroke-width:1.3726;stroke-miterlimit:10;}
	.st10{fill:#F2F2F2;}
	.st11{fill:none;stroke:#26293C;stroke-width:2;stroke-miterlimit:10;}
	.st12{fill:#E5E5E5;stroke:#F2F2F2;stroke-width:1.072;stroke-miterlimit:10;}
	.st13{fill:none;stroke:#F2F2F2;stroke-width:1.4033;stroke-miterlimit:10;}
	.st14{fill:none;stroke:#FFD433;stroke-width:0.7838;stroke-miterlimit:10;}
	.st15{fill:none;stroke:#FFD433;stroke-miterlimit:10;}
	.st16{fill:none;stroke:#F2F2F2;stroke-width:3;stroke-miterlimit:10;}
	.st17{fill:#FFD433;stroke:#26293C;stroke-width:1.8525;stroke-miterlimit:10;}
	.st18{fill:none;stroke:#F2F2F2;stroke-width:1.3001;stroke-miterlimit:10;}
	.st19{fill:none;stroke:#F2F2F2;stroke-width:2.0632;stroke-miterlimit:10;}
	.st20{fill:#FFFFFF;stroke:#26293C;stroke-width:2;stroke-miterlimit:10;}
	.st21{fill:#EDEDED;}
	.st22{fill:#FFD433;stroke:#26293C;stroke-width:1.8509;stroke-miterlimit:10;}
	.st23{fill:none;stroke:#26293C;stroke-width:0.9518;stroke-miterlimit:10;}
	.st24{fill:none;stroke:#FFD433;stroke-width:0.8168;stroke-miterlimit:10;}
	.st25{fill:none;stroke:#26293C;stroke-width:0.9076;stroke-miterlimit:10;}
	.st26{fill:none;stroke:#D9DBDA;stroke-miterlimit:10;}
	.st27{fill:none;stroke:#F2F2F2;stroke-width:1.3998;stroke-miterlimit:10;}
	.st28{fill:none;stroke:#000000;stroke-width:2;stroke-miterlimit:10;}
</style>
<rect x="42.4" y="197.8" class="st0" width="391.9" height="56.7"/>
<rect x="866.3" y="299.8" class="st1" width="328.8" height="424"/>
<g>
	<g>
		<g>
			<path class="st0" d="M1020.1,412.5c1,1.2,1.5,2.6,1.5,4.2c0,1.9-0.6,3.6-1.9,4.9s-2.9,1.9-4.7,1.9c-1.9,0-3.6-0.6-4.9-1.9
				c-1.3-1.3-1.9-2.9-1.9-4.9c0-1.9,0.5-4.4,1.5-7.5l6.3-22h5.7l-5.2,22.8C1017.9,410.5,1019.1,411.3,1020.1,412.5z M1044.9,412.5
				c1,1.2,1.5,2.6,1.5,4.2c0,1.9-0.6,3.6-1.9,4.9s-2.9,1.9-4.7,1.9c-1.9,0-3.6-0.6-4.9-1.9s-1.9-2.9-1.9-4.9c0-1.9,0.5-4.4,1.5-7.5
				l6.3-22h5.7l-5.2,22.8C1042.7,410.5,1043.9,411.3,1044.9,412.5z"/>
		</g>
	</g>
	<g>
		<g>
			<path class="st0" d="M1009.2,593.6c-1-1.2-1.5-2.6-1.5-4.2c0-1.9,0.6-3.6,1.9-4.9s2.9-1.9,4.7-1.9c1.9,0,3.6,0.6,4.9,1.9
				s1.9,2.9,1.9,4.9c0,1.9-0.5,4.4-1.5,7.5l-6.3,22h-5.7l5.2-22.8C1011.4,595.6,1010.2,594.8,1009.2,593.6z M1034,593.6
				c-1-1.2-1.5-2.6-1.5-4.2c0-1.9,0.6-3.6,1.9-4.9s2.9-1.9,4.7-1.9c1.9,0,3.6,0.6,4.9,1.9c1.3,1.3,1.9,2.9,1.9,4.9
				c0,1.9-0.5,4.4-1.5,7.5l-6.3,22h-5.7l5.2-22.8C1036.2,595.6,1035,594.8,1034,593.6z"/>
		</g>
	</g>
</g>
<line class="st1" x1="105.5" y1="1113.7" x2="432.5" y2="1113.7"/>
<line class="st1" x1="484.5" y1="639.5" x2="811.5" y2="639.5"/>
<line class="st1" x1="866.5" y1="1113.7" x2="1193.5" y2="1113.7"/>
<line class="st1" x1="1247.1" y1="639.8" x2="1574.1" y2="639.8"/>
<line class="st1" x1="1247.1" y1="1113.7" x2="1574.1" y2="1113.7"/>
<line class="st7" x1="42.4" y1="168.1" x2="1647.7" y2="168.1"/>
<g>
	<g>
		<path class="st5" d="M108.3,121.6c0.2,0.3,0.3,0.7,0.3,1c0,0.5-0.2,0.9-0.5,1.3c-0.4,0.5-1,0.7-1.7,0.7c-0.6,0-1.2-0.1-1.7-0.4
			c-1.8-1-2.7-3.2-2.7-6.3c0-0.9-0.3-1.6-0.9-2.2c-0.6-0.5-1.5-0.8-2.6-0.8h-7.1v7.4c0,0.7-0.2,1.2-0.6,1.7
			c-0.4,0.4-0.9,0.6-1.5,0.6c-0.7,0-1.4-0.2-1.9-0.7c-0.5-0.4-0.8-1-0.8-1.7v-22c0-0.7,0.2-1.2,0.7-1.7c0.4-0.4,1-0.7,1.7-0.7h10.9
			c1.3,0,2.6,0.4,3.7,1.1c1.2,0.7,2.1,1.7,2.8,2.9s1,2.6,1,4.2c0,1.3-0.3,2.5-1,3.7c-0.7,1.2-1.6,2.2-2.7,2.9
			c1.6,1.1,2.5,2.6,2.6,4.5c0.1,0.4,0.1,0.8,0.1,1.2c0.1,0.8,0.2,1.3,0.3,1.7c0.1,0.3,0.3,0.6,0.7,0.8
			C107.8,121,108.1,121.3,108.3,121.6z M101,110.3c0.4-0.4,0.8-1,1.1-1.7c0.3-0.7,0.4-1.5,0.4-2.3c0-0.7-0.1-1.4-0.4-2
			c-0.3-0.6-0.6-1.1-1.1-1.4c-0.4-0.4-0.9-0.5-1.3-0.5h-8.3v8.6h8.3C100.2,110.9,100.6,110.7,101,110.3z"/>
		<path class="st5" d="M129.7,115.4c-0.5,0.4-1,0.6-1.6,0.6h-12.5c0.3,1.5,1,2.7,2.1,3.5c1.1,0.8,2.3,1.3,3.7,1.3
			c1,0,1.8-0.1,2.4-0.3c0.6-0.2,1-0.4,1.4-0.6c0.3-0.2,0.6-0.4,0.7-0.4c0.5-0.2,0.9-0.3,1.3-0.3c0.5,0,1,0.2,1.4,0.6
			c0.4,0.4,0.6,0.8,0.6,1.3c0,0.7-0.4,1.3-1.1,1.9c-0.7,0.6-1.7,1.1-2.8,1.5c-1.2,0.4-2.4,0.6-3.6,0.6c-2.1,0-4-0.4-5.6-1.3
			c-1.6-0.9-2.8-2.1-3.7-3.7c-0.9-1.6-1.3-3.3-1.3-5.3c0-2.2,0.5-4.1,1.4-5.7c0.9-1.6,2.1-2.9,3.6-3.8c1.5-0.9,3.1-1.3,4.8-1.3
			c1.7,0,3.2,0.5,4.7,1.4c1.5,0.9,2.7,2.1,3.6,3.7s1.3,3.2,1.3,5C130.4,114.5,130.2,115,129.7,115.4z M115.6,112.1h10v-0.3
			c-0.1-1.1-0.6-2-1.6-2.7c-0.9-0.8-2-1.1-3.2-1.1C117.9,108,116.1,109.4,115.6,112.1z"/>
		<path class="st5" d="M152.5,104.5c0.4,0.4,0.6,1,0.6,1.7v16.1c0,0.7-0.2,1.2-0.6,1.7c-0.4,0.4-1,0.7-1.6,0.7
			c-0.7,0-1.2-0.2-1.6-0.6c-0.4-0.4-0.6-1-0.7-1.6c-0.6,0.7-1.5,1.4-2.6,1.9c-1.1,0.5-2.2,0.8-3.4,0.8c-1.7,0-3.3-0.4-4.8-1.3
			c-1.4-0.9-2.5-2.1-3.4-3.7c-0.8-1.6-1.2-3.4-1.2-5.4c0-2,0.4-3.8,1.2-5.5c0.8-1.6,1.9-2.9,3.3-3.8c1.4-0.9,3-1.3,4.7-1.3
			c1.2,0,2.4,0.2,3.4,0.7c1.1,0.4,2,1,2.7,1.7v0c0-0.7,0.2-1.2,0.6-1.7c0.4-0.4,1-0.7,1.6-0.7C151.5,103.8,152,104,152.5,104.5z
			 M147.2,118.9c1-1.2,1.6-2.7,1.6-4.5s-0.5-3.3-1.6-4.6c-1-1.2-2.4-1.8-4-1.8c-1.6,0-3,0.6-4,1.8s-1.6,2.7-1.6,4.6s0.5,3.3,1.5,4.5
			c1,1.2,2.4,1.8,4,1.8S146.1,120.1,147.2,118.9z"/>
		<path class="st5" d="M162.3,123.9c-0.4,0.4-1,0.7-1.7,0.7c-0.6,0-1.2-0.2-1.6-0.7c-0.4-0.4-0.6-1-0.6-1.7V98.7
			c0-0.7,0.2-1.2,0.7-1.7c0.4-0.4,1-0.7,1.7-0.7c0.6,0,1.2,0.2,1.6,0.7c0.4,0.4,0.6,1,0.6,1.7v23.5
			C163,122.9,162.8,123.4,162.3,123.9z"/>
		<path class="st5" d="M168.4,114.5c-0.4-0.4-0.7-1-0.7-1.6c0-0.6,0.2-1.2,0.7-1.6c0.4-0.4,1-0.6,1.7-0.6h6.6c0.7,0,1.2,0.2,1.7,0.7
			c0.4,0.4,0.7,1,0.7,1.7c0,0.6-0.2,1.2-0.7,1.6s-1,0.6-1.7,0.6h-6.6C169.4,115.1,168.8,114.9,168.4,114.5z"/>
		<path class="st5" d="M194.1,120.7c0.3,0.3,0.4,0.8,0.4,1.3c0,0.7-0.4,1.3-1.1,1.7c-0.7,0.5-1.6,0.7-2.5,0.7c-1.6,0-2.9-0.3-4-1
			c-1.1-0.7-1.6-2.1-1.6-4.3v-10.5h-1.7c-0.6,0-1.1-0.2-1.5-0.6c-0.4-0.4-0.6-0.9-0.6-1.5c0-0.6,0.2-1.1,0.6-1.5
			c0.4-0.4,0.9-0.6,1.5-0.6h1.7v-2.4c0-0.7,0.2-1.2,0.7-1.7c0.4-0.4,1-0.7,1.7-0.7c0.6,0,1.2,0.2,1.6,0.7c0.4,0.4,0.6,1,0.6,1.7v2.4
			h2.7c0.6,0,1.1,0.2,1.5,0.6s0.6,0.9,0.6,1.5c0,0.6-0.2,1.1-0.6,1.5c-0.4,0.4-0.9,0.6-1.5,0.6h-2.7V119c0,0.5,0.1,0.9,0.4,1.2
			c0.3,0.2,0.7,0.4,1.1,0.4c0.2,0,0.5-0.1,0.8-0.2c0.3-0.1,0.6-0.2,0.9-0.2C193.5,120.2,193.8,120.4,194.1,120.7z"/>
		<path class="st5" d="M199,101.3c-0.4-0.3-0.5-0.8-0.5-1.5v-0.7c0-0.7,0.2-1.2,0.6-1.5c0.4-0.3,1-0.4,1.8-0.4
			c0.9,0,1.5,0.1,1.9,0.4s0.5,0.8,0.5,1.5v0.7c0,0.7-0.2,1.2-0.6,1.5c-0.4,0.3-1,0.4-1.9,0.4C200,101.7,199.4,101.6,199,101.3z
			 M202.5,123.9c-0.4,0.4-1,0.7-1.6,0.7c-0.7,0-1.2-0.2-1.6-0.7c-0.4-0.4-0.6-1-0.6-1.7v-15.7c0-0.7,0.2-1.2,0.6-1.7
			c0.4-0.4,1-0.7,1.6-0.7c0.7,0,1.2,0.2,1.6,0.7c0.4,0.4,0.6,1,0.6,1.7v15.7C203.2,122.9,203,123.4,202.5,123.9z"/>
		<path class="st5" d="M236.5,106.1c1,1.5,1.4,3.7,1.4,6.4v9.7c0,0.7-0.2,1.2-0.6,1.7c-0.4,0.4-1,0.7-1.6,0.7
			c-0.7,0-1.2-0.2-1.6-0.7c-0.4-0.4-0.6-1-0.6-1.7v-9.7c0-1.4-0.3-2.5-0.8-3.3s-1.5-1.2-2.9-1.2c-1.4,0-2.5,0.4-3.3,1.3
			c-0.8,0.8-1.2,1.9-1.2,3.2v9.7c0,0.7-0.2,1.2-0.6,1.7c-0.4,0.4-1,0.7-1.6,0.7c-0.7,0-1.2-0.2-1.6-0.7c-0.4-0.4-0.6-1-0.6-1.7v-9.7
			c0-1.4-0.3-2.5-0.8-3.3s-1.5-1.2-2.9-1.2c-1.4,0-2.5,0.4-3.3,1.3c-0.8,0.8-1.2,1.9-1.2,3.2v9.7c0,0.7-0.2,1.2-0.6,1.7
			c-0.4,0.4-1,0.7-1.6,0.7s-1.2-0.2-1.6-0.7c-0.4-0.4-0.6-1-0.6-1.7v-15.7c0-0.7,0.2-1.2,0.6-1.7c0.4-0.4,1-0.7,1.6-0.7
			s1.2,0.2,1.6,0.7c0.4,0.4,0.6,1,0.6,1.7v0.6c0.7-0.9,1.6-1.7,2.6-2.3s2.2-1,3.5-1c3.2,0,5.2,1.4,6.1,4.2c0.6-1.1,1.5-2,2.6-2.9
			c1.2-0.9,2.5-1.3,4-1.3C233.8,103.8,235.6,104.6,236.5,106.1z"/>
		<path class="st5" d="M260.4,115.4c-0.5,0.4-1,0.6-1.6,0.6h-12.5c0.3,1.5,1,2.7,2.1,3.5c1.1,0.8,2.3,1.3,3.7,1.3
			c1,0,1.8-0.1,2.4-0.3s1-0.4,1.4-0.6c0.3-0.2,0.6-0.4,0.7-0.4c0.5-0.2,0.9-0.3,1.3-0.3c0.5,0,1,0.2,1.4,0.6
			c0.4,0.4,0.6,0.8,0.6,1.3c0,0.7-0.4,1.3-1.1,1.9c-0.7,0.6-1.7,1.1-2.9,1.5c-1.2,0.4-2.4,0.6-3.6,0.6c-2.1,0-4-0.4-5.6-1.3
			c-1.6-0.9-2.8-2.1-3.7-3.7c-0.9-1.6-1.3-3.3-1.3-5.3c0-2.2,0.5-4.1,1.4-5.7c0.9-1.6,2.1-2.9,3.6-3.8c1.5-0.9,3.1-1.3,4.8-1.3
			c1.7,0,3.2,0.5,4.7,1.4c1.5,0.9,2.7,2.1,3.6,3.7s1.3,3.2,1.3,5C261.1,114.5,260.9,115,260.4,115.4z M246.3,112.1h10v-0.3
			c-0.1-1.1-0.6-2-1.6-2.7c-0.9-0.8-2-1.1-3.2-1.1C248.6,108,246.9,109.4,246.3,112.1z"/>
		<path class="st5" d="M295.1,98.5c0.4,0.4,0.6,0.9,0.6,1.6c0,0.7-0.2,1.2-0.6,1.6c-0.4,0.4-1,0.6-1.7,0.6h-6v19.9
			c0,0.7-0.2,1.2-0.7,1.7c-0.5,0.4-1.1,0.7-1.8,0.7s-1.3-0.2-1.7-0.7c-0.5-0.4-0.7-1-0.7-1.7v-19.9h-6c-0.7,0-1.2-0.2-1.7-0.6
			s-0.6-0.9-0.6-1.6c0-0.6,0.2-1.2,0.7-1.6c0.4-0.4,1-0.6,1.7-0.6h16.9C294.1,97.9,294.7,98.1,295.1,98.5z"/>
		<path class="st5" d="M309.6,104.5c0.5,0.4,0.8,0.9,0.8,1.5c0,0.8-0.2,1.4-0.6,1.8c-0.4,0.4-0.9,0.6-1.4,0.6
			c-0.4,0-0.8-0.1-1.3-0.3c-0.1,0-0.2-0.1-0.5-0.2c-0.3-0.1-0.6-0.1-0.9-0.1c-0.7,0-1.3,0.2-1.9,0.6c-0.6,0.4-1.1,1-1.5,1.8
			c-0.4,0.8-0.6,1.8-0.6,2.9v9c0,0.7-0.2,1.2-0.6,1.7c-0.4,0.4-1,0.7-1.6,0.7c-0.7,0-1.2-0.2-1.6-0.7c-0.4-0.4-0.6-1-0.6-1.7v-15.7
			c0-0.7,0.2-1.2,0.6-1.7c0.4-0.4,1-0.7,1.6-0.7c0.7,0,1.2,0.2,1.6,0.7c0.4,0.4,0.6,1,0.6,1.7v0.5c0.6-1,1.4-1.8,2.5-2.4
			c1.1-0.5,2.3-0.8,3.5-0.8C308.4,103.8,309.1,104,309.6,104.5z"/>
		<path class="st5" d="M331.2,104.5c0.4,0.4,0.6,1,0.6,1.7v16.1c0,0.7-0.2,1.2-0.6,1.7c-0.4,0.4-1,0.7-1.6,0.7s-1.2-0.2-1.6-0.6
			c-0.4-0.4-0.6-1-0.7-1.6c-0.6,0.7-1.5,1.4-2.6,1.9c-1.1,0.5-2.2,0.8-3.4,0.8c-1.7,0-3.3-0.4-4.8-1.3c-1.4-0.9-2.5-2.1-3.4-3.7
			c-0.8-1.6-1.2-3.4-1.2-5.4c0-2,0.4-3.8,1.2-5.5c0.8-1.6,1.9-2.9,3.3-3.8c1.4-0.9,3-1.3,4.7-1.3c1.2,0,2.4,0.2,3.4,0.7
			c1.1,0.4,2,1,2.7,1.7v0c0-0.7,0.2-1.2,0.6-1.7c0.4-0.4,1-0.7,1.6-0.7S330.8,104,331.2,104.5z M325.9,118.9c1-1.2,1.6-2.7,1.6-4.5
			s-0.5-3.3-1.6-4.6s-2.4-1.8-4-1.8c-1.6,0-3,0.6-4,1.8s-1.6,2.7-1.6,4.6s0.5,3.3,1.5,4.5c1,1.2,2.4,1.8,4,1.8
			S324.9,120.1,325.9,118.9z"/>
		<path class="st5" d="M350.9,104.8c1.3,0.7,2,1.6,2,2.7c0,0.6-0.2,1-0.5,1.5c-0.3,0.4-0.8,0.6-1.3,0.6c-0.4,0-0.7-0.1-1-0.2
			c-0.3-0.1-0.5-0.3-0.7-0.5s-0.5-0.3-0.7-0.5c-0.3-0.1-0.6-0.2-1.1-0.3c-0.5-0.1-0.9-0.2-1.2-0.2c-1.9,0-3.4,0.6-4.5,1.8
			c-1.1,1.2-1.6,2.7-1.6,4.6c0,1.8,0.5,3.3,1.6,4.5c1.1,1.2,2.5,1.8,4.2,1.8c1.2,0,2.2-0.2,2.8-0.5c0.2-0.1,0.4-0.2,0.6-0.4
			c0.3-0.2,0.5-0.3,0.7-0.4c0.2-0.1,0.5-0.2,0.8-0.2c0.6,0,1.1,0.2,1.5,0.6c0.4,0.4,0.6,0.9,0.6,1.6c0,0.6-0.4,1.2-1.1,1.7
			c-0.7,0.5-1.6,1-2.8,1.3c-1.2,0.3-2.4,0.5-3.7,0.5c-2,0-3.7-0.5-5.1-1.4c-1.5-0.9-2.6-2.2-3.4-3.8c-0.8-1.6-1.2-3.4-1.2-5.4
			c0-2.1,0.4-3.9,1.3-5.5c0.8-1.6,2-2.8,3.6-3.7c1.5-0.9,3.2-1.3,5.2-1.3C347.8,103.8,349.5,104.1,350.9,104.8z"/>
		<path class="st5" d="M374,122.2c0,0.6-0.2,1.2-0.7,1.6c-0.5,0.4-1,0.6-1.6,0.6c-0.7,0-1.2-0.3-1.7-0.8l-6.8-7.2l-1.9,1.7v4
			c0,0.7-0.2,1.2-0.6,1.7c-0.4,0.4-1,0.7-1.6,0.7c-0.7,0-1.2-0.2-1.6-0.7c-0.4-0.4-0.6-1-0.6-1.7V98.7c0-0.7,0.2-1.2,0.6-1.7
			c0.4-0.4,1-0.7,1.6-0.7c0.7,0,1.2,0.2,1.6,0.7c0.4,0.4,0.6,1,0.6,1.7v14.1l8.1-7.9c0.5-0.5,1-0.7,1.7-0.7c0.6,0,1.1,0.2,1.5,0.7
			c0.4,0.5,0.7,0.9,0.7,1.4c0,0.6-0.3,1.2-0.9,1.7l-5.7,5.3l6.7,7.2C373.8,121,374,121.6,374,122.2z"/>
		<path class="st5" d="M394.7,115.4c-0.5,0.4-1,0.6-1.6,0.6h-12.5c0.3,1.5,1,2.7,2.1,3.5c1.1,0.8,2.3,1.3,3.7,1.3
			c1,0,1.8-0.1,2.4-0.3c0.6-0.2,1-0.4,1.4-0.6c0.3-0.2,0.6-0.4,0.7-0.4c0.5-0.2,0.9-0.3,1.3-0.3c0.5,0,1,0.2,1.4,0.6
			c0.4,0.4,0.6,0.8,0.6,1.3c0,0.7-0.4,1.3-1.1,1.9c-0.7,0.6-1.7,1.1-2.9,1.5s-2.4,0.6-3.6,0.6c-2.1,0-4-0.4-5.6-1.3
			c-1.6-0.9-2.8-2.1-3.7-3.7c-0.9-1.6-1.3-3.3-1.3-5.3c0-2.2,0.5-4.1,1.4-5.7c0.9-1.6,2.1-2.9,3.6-3.8c1.5-0.9,3.1-1.3,4.8-1.3
			c1.7,0,3.3,0.5,4.7,1.4c1.5,0.9,2.7,2.1,3.6,3.7s1.3,3.2,1.3,5C395.4,114.5,395.1,115,394.7,115.4z M380.6,112.1h10v-0.3
			c-0.1-1.1-0.6-2-1.6-2.7c-0.9-0.8-2-1.1-3.2-1.1C382.8,108,381.1,109.4,380.6,112.1z"/>
		<path class="st5" d="M411.7,104.5c0.5,0.4,0.8,0.9,0.8,1.5c0,0.8-0.2,1.4-0.6,1.8c-0.4,0.4-0.9,0.6-1.4,0.6
			c-0.4,0-0.8-0.1-1.3-0.3c-0.1,0-0.2-0.1-0.5-0.2c-0.3-0.1-0.6-0.1-0.9-0.1c-0.7,0-1.3,0.2-1.9,0.6c-0.6,0.4-1.1,1-1.5,1.8
			c-0.4,0.8-0.6,1.8-0.6,2.9v9c0,0.7-0.2,1.2-0.6,1.7c-0.4,0.4-1,0.7-1.6,0.7c-0.7,0-1.2-0.2-1.6-0.7c-0.4-0.4-0.6-1-0.6-1.7v-15.7
			c0-0.7,0.2-1.2,0.6-1.7c0.4-0.4,1-0.7,1.6-0.7c0.7,0,1.2,0.2,1.6,0.7c0.4,0.4,0.6,1,0.6,1.7v0.5c0.6-1,1.4-1.8,2.5-2.4
			c1.1-0.5,2.3-0.8,3.5-0.8C410.5,103.8,411.2,104,411.7,104.5z"/>
		<path class="st5" d="M416.5,109.1c-0.4-0.4-0.6-1-0.6-1.7v-0.6c0-0.7,0.2-1.3,0.6-1.7c0.4-0.4,1-0.6,1.7-0.6h0.5
			c0.7,0,1.3,0.2,1.7,0.6c0.4,0.4,0.6,1,0.6,1.7v0.6c0,0.7-0.2,1.3-0.6,1.7c-0.4,0.4-1,0.6-1.7,0.6h-0.5
			C417.4,109.7,416.9,109.5,416.5,109.1z M416.5,123.9c-0.4-0.4-0.6-1-0.6-1.7v-0.6c0-0.7,0.2-1.3,0.6-1.7c0.4-0.4,1-0.6,1.7-0.6
			h0.5c0.7,0,1.3,0.2,1.7,0.6c0.4,0.4,0.6,1,0.6,1.7v0.6c0,0.7-0.2,1.3-0.6,1.7c-0.4,0.4-1,0.6-1.7,0.6h-0.5
			C417.4,124.5,416.9,124.3,416.5,123.9z"/>
		<path class="st5" d="M454.8,104.5c0.4,0.4,0.6,1,0.6,1.7v16.1c0,0.7-0.2,1.2-0.6,1.7c-0.4,0.4-1,0.7-1.6,0.7
			c-0.7,0-1.2-0.2-1.6-0.6c-0.4-0.4-0.6-1-0.7-1.6c-0.6,0.7-1.5,1.4-2.6,1.9c-1.1,0.5-2.2,0.8-3.4,0.8c-1.7,0-3.3-0.4-4.8-1.3
			c-1.4-0.9-2.5-2.1-3.4-3.7c-0.8-1.6-1.2-3.4-1.2-5.4c0-2,0.4-3.8,1.2-5.5c0.8-1.6,1.9-2.9,3.3-3.8c1.4-0.9,3-1.3,4.7-1.3
			c1.2,0,2.4,0.2,3.4,0.7c1.1,0.4,2,1,2.7,1.7v0c0-0.7,0.2-1.2,0.6-1.7c0.4-0.4,1-0.7,1.6-0.7C453.8,103.8,454.4,104,454.8,104.5z
			 M449.5,118.9c1-1.2,1.6-2.7,1.6-4.5s-0.5-3.3-1.6-4.6c-1-1.2-2.4-1.8-4-1.8c-1.6,0-3,0.6-4,1.8s-1.6,2.7-1.6,4.6s0.5,3.3,1.5,4.5
			c1,1.2,2.4,1.8,4,1.8S448.5,120.1,449.5,118.9z"/>
		<path class="st5" d="M476.7,104.9c0.4,0.4,0.6,1,0.6,1.7v9.7c0,2.7-0.8,4.9-2.3,6.4c-1.5,1.5-3.7,2.3-6.4,2.3s-4.9-0.8-6.4-2.3
			c-1.5-1.5-2.2-3.7-2.2-6.4v-9.7c0-0.7,0.2-1.2,0.6-1.7c0.4-0.4,1-0.7,1.6-0.7s1.2,0.2,1.6,0.7c0.4,0.4,0.6,1,0.6,1.7v9.7
			c0,1.5,0.3,2.7,1,3.4c0.7,0.7,1.7,1.1,3.1,1.1c1.4,0,2.4-0.4,3.1-1.1c0.7-0.7,1-1.9,1-3.4v-9.7c0-0.7,0.2-1.2,0.6-1.7
			c0.4-0.4,1-0.7,1.6-0.7S476.3,104.4,476.7,104.9z"/>
		<path class="st5" d="M500.4,97c0.4,0.4,0.6,1,0.6,1.7v23.5c0,0.7-0.2,1.2-0.6,1.7c-0.4,0.4-1,0.7-1.6,0.7s-1.2-0.2-1.6-0.6
			c-0.4-0.4-0.6-1-0.7-1.6c-0.6,0.7-1.5,1.4-2.6,1.9c-1.1,0.5-2.2,0.8-3.4,0.8c-1.7,0-3.3-0.4-4.8-1.3c-1.4-0.9-2.5-2.1-3.4-3.7
			c-0.8-1.6-1.2-3.4-1.2-5.4c0-2,0.4-3.8,1.2-5.5c0.8-1.6,1.9-2.9,3.3-3.8c1.4-0.9,3-1.3,4.7-1.3c1.2,0,2.4,0.2,3.4,0.7
			c1.1,0.4,2,1,2.7,1.7v-7.4c0-0.7,0.2-1.2,0.6-1.7c0.4-0.4,1-0.7,1.6-0.7S500,96.6,500.4,97z M495.1,118.9c1-1.2,1.6-2.7,1.6-4.5
			s-0.5-3.3-1.6-4.6s-2.4-1.8-4-1.8c-1.6,0-3,0.6-4,1.8s-1.6,2.7-1.6,4.6s0.5,3.3,1.5,4.5c1,1.2,2.4,1.8,4,1.8
			S494.1,120.1,495.1,118.9z"/>
		<path class="st5" d="M523.5,115.4c-0.5,0.4-1,0.6-1.6,0.6h-12.5c0.3,1.5,1,2.7,2.1,3.5c1.1,0.8,2.3,1.3,3.7,1.3
			c1,0,1.8-0.1,2.4-0.3s1-0.4,1.4-0.6c0.3-0.2,0.6-0.4,0.7-0.4c0.5-0.2,0.9-0.3,1.3-0.3c0.5,0,1,0.2,1.4,0.6
			c0.4,0.4,0.6,0.8,0.6,1.3c0,0.7-0.4,1.3-1.1,1.9c-0.7,0.6-1.7,1.1-2.9,1.5c-1.2,0.4-2.4,0.6-3.6,0.6c-2.1,0-4-0.4-5.6-1.3
			c-1.6-0.9-2.8-2.1-3.7-3.7c-0.9-1.6-1.3-3.3-1.3-5.3c0-2.2,0.5-4.1,1.4-5.7c0.9-1.6,2.1-2.9,3.6-3.8c1.5-0.9,3.1-1.3,4.8-1.3
			c1.7,0,3.2,0.5,4.7,1.4c1.5,0.9,2.7,2.1,3.6,3.7s1.3,3.2,1.3,5C524.2,114.5,523.9,115,523.5,115.4z M509.4,112.1h10v-0.3
			c-0.1-1.1-0.6-2-1.6-2.7c-0.9-0.8-2-1.1-3.2-1.1C511.7,108,509.9,109.4,509.4,112.1z"/>
		<path class="st5" d="M556.7,106.1c1,1.5,1.4,3.7,1.4,6.4v9.7c0,0.7-0.2,1.2-0.6,1.7c-0.4,0.4-1,0.7-1.6,0.7
			c-0.7,0-1.2-0.2-1.6-0.7c-0.4-0.4-0.6-1-0.6-1.7v-9.7c0-1.4-0.3-2.5-0.8-3.3c-0.5-0.8-1.5-1.2-2.9-1.2c-1.4,0-2.5,0.4-3.3,1.3
			c-0.8,0.8-1.2,1.9-1.2,3.2v9.7c0,0.7-0.2,1.2-0.6,1.7c-0.4,0.4-1,0.7-1.6,0.7s-1.2-0.2-1.6-0.7c-0.4-0.4-0.6-1-0.6-1.7v-9.7
			c0-1.4-0.3-2.5-0.8-3.3c-0.5-0.8-1.5-1.2-2.9-1.2c-1.4,0-2.5,0.4-3.3,1.3c-0.8,0.8-1.2,1.9-1.2,3.2v9.7c0,0.7-0.2,1.2-0.6,1.7
			c-0.4,0.4-1,0.7-1.6,0.7c-0.7,0-1.2-0.2-1.6-0.7c-0.4-0.4-0.6-1-0.6-1.7v-15.7c0-0.7,0.2-1.2,0.6-1.7c0.4-0.4,1-0.7,1.6-0.7
			c0.7,0,1.2,0.2,1.6,0.7c0.4,0.4,0.6,1,0.6,1.7v0.6c0.7-0.9,1.6-1.7,2.6-2.3s2.2-1,3.5-1c3.2,0,5.2,1.4,6.1,4.2
			c0.6-1.1,1.5-2,2.6-2.9c1.2-0.9,2.5-1.3,4-1.3C554,103.8,555.7,104.6,556.7,106.1z"/>
		<path class="st5" d="M581.1,104.5c0.4,0.4,0.6,1,0.6,1.7v16.1c0,0.7-0.2,1.2-0.6,1.7c-0.4,0.4-1,0.7-1.6,0.7
			c-0.7,0-1.2-0.2-1.6-0.6c-0.4-0.4-0.6-1-0.7-1.6c-0.6,0.7-1.5,1.4-2.6,1.9c-1.1,0.5-2.2,0.8-3.4,0.8c-1.7,0-3.3-0.4-4.8-1.3
			c-1.4-0.9-2.5-2.1-3.4-3.7c-0.8-1.6-1.2-3.4-1.2-5.4c0-2,0.4-3.8,1.2-5.5c0.8-1.6,1.9-2.9,3.3-3.8c1.4-0.9,3-1.3,4.7-1.3
			c1.2,0,2.4,0.2,3.4,0.7c1.1,0.4,2,1,2.7,1.7v0c0-0.7,0.2-1.2,0.6-1.7c0.4-0.4,1-0.7,1.6-0.7C580.2,103.8,580.7,104,581.1,104.5z
			 M575.9,118.9c1-1.2,1.6-2.7,1.6-4.5s-0.5-3.3-1.6-4.6c-1-1.2-2.4-1.8-4-1.8c-1.6,0-3,0.6-4,1.8s-1.6,2.7-1.6,4.6s0.5,3.3,1.5,4.5
			c1,1.2,2.4,1.8,4,1.8S574.8,120.1,575.9,118.9z"/>
		<path class="st5" d="M599.2,104.5c0.5,0.4,0.8,0.9,0.8,1.5c0,0.8-0.2,1.4-0.6,1.8c-0.4,0.4-0.9,0.6-1.4,0.6
			c-0.4,0-0.8-0.1-1.3-0.3c-0.1,0-0.2-0.1-0.5-0.2s-0.6-0.1-0.9-0.1c-0.7,0-1.3,0.2-1.9,0.6s-1.1,1-1.5,1.8
			c-0.4,0.8-0.6,1.8-0.6,2.9v9c0,0.7-0.2,1.2-0.6,1.7c-0.4,0.4-1,0.7-1.6,0.7c-0.7,0-1.2-0.2-1.6-0.7c-0.4-0.4-0.6-1-0.6-1.7v-15.7
			c0-0.7,0.2-1.2,0.6-1.7c0.4-0.4,1-0.7,1.6-0.7c0.7,0,1.2,0.2,1.6,0.7c0.4,0.4,0.6,1,0.6,1.7v0.5c0.6-1,1.4-1.8,2.5-2.4
			c1.1-0.5,2.3-0.8,3.5-0.8C598,103.8,598.7,104,599.2,104.5z"/>
		<path class="st5" d="M601.7,120.2c0-0.7,0.3-1.2,1-1.7c0.4-0.2,0.7-0.3,1.1-0.3c0.5,0,1,0.2,1.5,0.7c0.8,0.8,1.6,1.4,2.4,1.7
			s1.8,0.6,3,0.6c2-0.1,3-0.8,3-2.2c0-0.7-0.3-1.3-1-1.7c-0.7-0.4-1.7-0.8-3.1-1.1c-1.5-0.4-2.7-0.8-3.6-1.2c-0.9-0.4-1.7-1-2.4-1.8
			c-0.7-0.8-1-1.9-1-3.3c0-1.2,0.3-2.3,1-3.2c0.7-0.9,1.6-1.6,2.7-2.1c1.1-0.5,2.3-0.7,3.6-0.7c1.3,0,2.6,0.2,3.9,0.7
			c1.3,0.5,2.3,1.2,3,2.1c0.3,0.4,0.5,0.9,0.5,1.4c0,0.6-0.2,1.1-0.7,1.4c-0.4,0.3-0.8,0.4-1.2,0.4c-0.6,0-1-0.2-1.4-0.5
			c-0.5-0.6-1-1-1.8-1.3c-0.7-0.3-1.5-0.5-2.5-0.5c-1.9,0-2.9,0.7-2.9,2.1c0,0.6,0.2,1,0.5,1.3c0.4,0.3,0.8,0.6,1.3,0.8
			s1.3,0.4,2.3,0.7c1.4,0.4,2.5,0.8,3.4,1.2c0.9,0.4,1.7,1,2.3,1.9s1,1.9,1,3.3c0,1.2-0.4,2.3-1.1,3.2c-0.7,0.9-1.7,1.6-2.8,2.1
			c-1.2,0.5-2.3,0.7-3.6,0.7c-1.7,0-3.2-0.3-4.7-0.8c-1.4-0.6-2.6-1.5-3.5-2.7C601.8,121.1,601.7,120.7,601.7,120.2z"/>
		<path class="st5" d="M647.4,105.2c1.4,0.9,2.5,2.1,3.4,3.7c0.8,1.6,1.2,3.4,1.2,5.4c0,2-0.4,3.8-1.2,5.5c-0.8,1.6-1.9,2.9-3.3,3.8
			c-1.4,0.9-3,1.3-4.7,1.3c-1.2,0-2.4-0.2-3.4-0.7c-1.1-0.5-2-1.1-2.7-1.8v7.4c0,0.7-0.2,1.2-0.6,1.7c-0.4,0.4-1,0.7-1.6,0.7
			c-0.7,0-1.2-0.2-1.6-0.6c-0.4-0.4-0.6-1-0.6-1.7v-23.3c0-0.7,0.2-1.2,0.6-1.7c0.4-0.4,1-0.7,1.6-0.7c0.7,0,1.2,0.2,1.6,0.7
			c0.4,0.4,0.6,1,0.6,1.7v0.2c0.6-0.8,1.5-1.4,2.5-2s2.2-0.9,3.4-0.9C644.4,103.8,646,104.3,647.4,105.2z M646.1,118.9
			c1-1.2,1.6-2.7,1.6-4.6c0-1.8-0.5-3.3-1.5-4.5c-1-1.2-2.4-1.8-4-1.8s-3,0.6-4,1.8c-1,1.2-1.6,2.7-1.6,4.5c0,1.8,0.5,3.3,1.6,4.6
			s2.4,1.8,4,1.8C643.7,120.7,645.1,120.1,646.1,118.9z"/>
		<path class="st5" d="M656,101.3c-0.4-0.3-0.5-0.8-0.5-1.5v-0.7c0-0.7,0.2-1.2,0.6-1.5c0.4-0.3,1-0.4,1.8-0.4
			c0.9,0,1.5,0.1,1.9,0.4s0.5,0.8,0.5,1.5v0.7c0,0.7-0.2,1.2-0.6,1.5c-0.4,0.3-1,0.4-1.9,0.4C657,101.7,656.3,101.6,656,101.3z
			 M659.5,123.9c-0.4,0.4-1,0.7-1.6,0.7c-0.7,0-1.2-0.2-1.6-0.7c-0.4-0.4-0.6-1-0.6-1.7v-15.7c0-0.7,0.2-1.2,0.6-1.7
			c0.4-0.4,1-0.7,1.6-0.7c0.7,0,1.2,0.2,1.6,0.7c0.4,0.4,0.6,1,0.6,1.7v15.7C660.1,122.9,659.9,123.4,659.5,123.9z"/>
		<path class="st5" d="M683.3,104.5c0.4,0.4,0.6,1,0.6,1.7V123c0,3.1-1,5.4-2.9,6.9s-4.3,2.2-7.3,2.2c-0.8,0-1.8-0.1-3.1-0.4
			c-1.3-0.3-2.3-0.5-2.8-0.8c-1.2-0.5-1.9-1.3-1.9-2.2c0-0.2,0-0.4,0.1-0.6c0.2-0.6,0.4-1,0.8-1.3c0.4-0.3,0.8-0.4,1.2-0.4
			c0.3,0,0.5,0,0.7,0.1c0.1,0,0.7,0.3,1.9,0.7c1.2,0.4,2.2,0.7,3.1,0.7c1.9,0,3.3-0.4,4.2-1.1c0.9-0.7,1.4-1.8,1.4-3.2v-1.8
			c-0.6,0.8-1.4,1.5-2.5,2.1c-1.1,0.6-2.3,0.9-3.6,0.9c-1.8,0-3.4-0.4-4.8-1.3c-1.5-0.9-2.6-2.1-3.4-3.7c-0.8-1.6-1.3-3.4-1.3-5.4
			c0-2,0.4-3.8,1.2-5.5c0.8-1.6,2-2.9,3.4-3.8c1.4-0.9,3-1.3,4.8-1.3c1.3,0,2.5,0.3,3.6,0.8c1.1,0.5,2,1.2,2.7,1.9v-0.4
			c0-0.7,0.2-1.2,0.6-1.7c0.4-0.4,1-0.7,1.6-0.7S682.8,104,683.3,104.5z M677.9,118.9c1.1-1.2,1.6-2.7,1.6-4.5s-0.5-3.3-1.6-4.6
			s-2.5-1.8-4.2-1.8c-1.7,0-3.1,0.6-4.1,1.8s-1.6,2.7-1.6,4.6s0.5,3.3,1.6,4.5c1.1,1.2,2.4,1.8,4.1,1.8
			C675.5,120.7,676.9,120.1,677.9,118.9z"/>
		<path class="st5" d="M705.3,104.9c0.4,0.4,0.6,1,0.6,1.7v9.7c0,2.7-0.8,4.9-2.3,6.4c-1.5,1.5-3.7,2.3-6.4,2.3s-4.9-0.8-6.4-2.3
			c-1.5-1.5-2.2-3.7-2.2-6.4v-9.7c0-0.7,0.2-1.2,0.6-1.7c0.4-0.4,1-0.7,1.6-0.7s1.2,0.2,1.6,0.7c0.4,0.4,0.6,1,0.6,1.7v9.7
			c0,1.5,0.3,2.7,1,3.4c0.7,0.7,1.7,1.1,3.1,1.1c1.4,0,2.4-0.4,3.1-1.1c0.7-0.7,1-1.9,1-3.4v-9.7c0-0.7,0.2-1.2,0.6-1.7
			c0.4-0.4,1-0.7,1.6-0.7S704.8,104.4,705.3,104.9z"/>
		<path class="st5" d="M728.4,115.4c-0.5,0.4-1,0.6-1.6,0.6h-12.5c0.3,1.5,1,2.7,2.1,3.5c1.1,0.8,2.3,1.3,3.7,1.3
			c1,0,1.8-0.1,2.4-0.3c0.6-0.2,1-0.4,1.4-0.6c0.3-0.2,0.6-0.4,0.7-0.4c0.5-0.2,0.9-0.3,1.3-0.3c0.5,0,1,0.2,1.4,0.6
			c0.4,0.4,0.6,0.8,0.6,1.3c0,0.7-0.4,1.3-1.1,1.9c-0.7,0.6-1.7,1.1-2.9,1.5s-2.4,0.6-3.6,0.6c-2.1,0-4-0.4-5.6-1.3
			c-1.6-0.9-2.8-2.1-3.7-3.7c-0.9-1.6-1.3-3.3-1.3-5.3c0-2.2,0.5-4.1,1.4-5.7c0.9-1.6,2.1-2.9,3.6-3.8c1.5-0.9,3.1-1.3,4.8-1.3
			c1.7,0,3.3,0.5,4.7,1.4c1.5,0.9,2.7,2.1,3.6,3.7s1.3,3.2,1.3,5C729.1,114.5,728.8,115,728.4,115.4z M714.3,112.1h10v-0.3
			c-0.1-1.1-0.6-2-1.6-2.7c-0.9-0.8-2-1.1-3.2-1.1C716.6,108,714.8,109.4,714.3,112.1z"/>
		<path class="st5" d="M743.7,120.7c0.3,0.3,0.4,0.8,0.4,1.3c0,0.7-0.4,1.3-1.1,1.7c-0.7,0.5-1.6,0.7-2.5,0.7c-1.6,0-2.9-0.3-4-1
			c-1.1-0.7-1.6-2.1-1.6-4.3v-10.5h-1.7c-0.6,0-1.1-0.2-1.5-0.6c-0.4-0.4-0.6-0.9-0.6-1.5c0-0.6,0.2-1.1,0.6-1.5
			c0.4-0.4,0.9-0.6,1.5-0.6h1.7v-2.4c0-0.7,0.2-1.2,0.7-1.7c0.4-0.4,1-0.7,1.7-0.7c0.6,0,1.2,0.2,1.6,0.7c0.4,0.4,0.6,1,0.6,1.7v2.4
			h2.7c0.6,0,1.1,0.2,1.5,0.6c0.4,0.4,0.6,0.9,0.6,1.5c0,0.6-0.2,1.1-0.6,1.5c-0.4,0.4-0.9,0.6-1.5,0.6h-2.7V119
			c0,0.5,0.1,0.9,0.4,1.2c0.3,0.2,0.7,0.4,1.1,0.4c0.2,0,0.5-0.1,0.8-0.2c0.3-0.1,0.6-0.2,0.9-0.2
			C743.1,120.2,743.4,120.4,743.7,120.7z"/>
	</g>
</g>
<circle class="st16" cx="739.4" cy="380.9" r="21"/>
<polygon class="st16" points="486.5,564.4 486.5,476.3 572.4,400.5 647.1,479.2 686.4,439.9 814.3,553.4 814.3,564.4 "/>
<line class="st1" x1="105.5" y1="640.5" x2="432.5" y2="640.5"/>
<circle class="st16" cx="358.9" cy="380.9" r="21"/>
<polygon class="st16" points="106,564.4 106,476.3 191.9,400.5 266.6,479.2 305.9,439.9 433.8,553.4 433.8,564.4 "/>
<circle class="st16" cx="1500.5" cy="380.9" r="21"/>
<polygon class="st16" points="1247.6,564.4 1247.6,476.3 1333.5,400.5 1408.2,479.2 1447.5,439.9 1575.4,553.4 1575.4,564.4 "/>
<circle class="st16" cx="358.9" cy="860.3" r="21"/>
<polygon class="st16" points="106,1043.8 106,955.7 191.9,879.9 266.6,958.6 305.9,919.3 433.8,1032.8 433.8,1043.8 "/>
<rect x="484.5" y="300.6" class="st1" width="328.8" height="421.8"/>
<rect x="1247.1" y="300.9" class="st1" width="328.8" height="421.8"/>
<rect x="105.5" y="775.6" class="st1" width="328.8" height="424"/>
<rect x="484.5" y="775.3" class="st1" width="328.8" height="424"/>
<circle class="st16" cx="1119" cy="860.3" r="21"/>
<path class="st0" d="M1306.3,698.7h-23.3c-3.4,0-6.2-2.8-6.2-6.2v-23.3c0-3.4,2.8-6.2,6.2-6.2h23.3c3.4,0,6.2,2.8,6.2,6.2v23.3
	C1312.4,695.9,1309.7,698.7,1306.3,698.7z"/>
<path class="st0" d="M545.4,698.3h-23.3c-3.4,0-6.2-2.8-6.2-6.2v-23.3c0-3.4,2.8-6.2,6.2-6.2h23.3c3.4,0,6.2,2.8,6.2,6.2v23.3
	C551.6,695.5,548.9,698.3,545.4,698.3z"/>
<path class="st0" d="M167.7,698.6h-23.3c-3.4,0-6.2-2.8-6.2-6.2v-23.3c0-3.4,2.8-6.2,6.2-6.2h23.3c3.4,0,6.2,2.8,6.2,6.2v23.3
	C173.9,695.8,171.1,698.6,167.7,698.6z"/>
<path class="st0" d="M1306.3,1172.2h-23.2c-3.4,0-6.2-2.8-6.2-6.2v-23.2c0-3.4,2.8-6.2,6.2-6.2h23.2c3.4,0,6.2,2.8,6.2,6.2v23.2
	C1312.5,1169.5,1309.7,1172.2,1306.3,1172.2z"/>
<path class="st0" d="M929.4,1172.3h-23.3c-3.4,0-6.2-2.8-6.2-6.2v-23.3c0-3.4,2.8-6.2,6.2-6.2h23.3c3.4,0,6.2,2.8,6.2,6.2v23.3
	C935.6,1169.5,932.9,1172.3,929.4,1172.3z"/>
<polygon class="st16" points="866.1,1043.8 866.1,955.7 952,879.9 1026.7,958.6 1066,919.3 1193.9,1032.8 1193.9,1043.8 "/>
<rect x="866.5" y="775.6" class="st1" width="328.8" height="424"/>
<circle class="st16" cx="1500.5" cy="860.3" r="21"/>
<polygon class="st16" points="1247.6,1043.8 1247.6,955.7 1333.5,879.9 1408.2,958.6 1447.5,919.3 1575.4,1032.8 1575.4,1043.8 "/>
<rect x="1247.1" y="775.6" class="st1" width="328.8" height="424"/>
<g>
	<g>
		<g>
			<path class="st5" d="M533.8,661.1c2.8,0,5.6-0.1,8.4,0c4.5,0.2,7.8,2.3,9.9,6.3c0.8,1.5,1.1,3,1.1,4.7c0,3.4,0,6.9,0,10.3
				c0,2,0,4,0,6c0,2.4-0.6,4.6-2,6.5c-1.9,2.7-4.5,4.3-7.7,4.7c-1.1,0.2-2.3,0.1-3.5,0.1c-4.8,0-9.5,0-14.3,0
				c-4.8,0-9.1-3.1-10.6-7.6c-0.4-1.1-0.6-2.3-0.6-3.5c0-5.5,0-10.9,0-16.4c0-5.9,4.6-10.8,10.5-11.2c1.8-0.1,3.7,0,5.5,0
				C531.6,661.1,532.7,661.1,533.8,661.1C533.8,661.1,533.8,661.1,533.8,661.1z M517.4,680.5C517.4,680.5,517.4,680.5,517.4,680.5
				c0,2.7,0,5.5,0,8.2c0,4.5,3.7,8.2,8.2,8.2c5.5,0,10.9,0,16.4,0c1.7,0,3.2-0.5,4.6-1.4c2.3-1.7,3.5-3.9,3.6-6.8c0-2.8,0-5.6,0-8.5
				c0-2.6,0-5.3,0-7.9c0-4.4-3.7-8.1-8.1-8.1c-1.5,0-2.9,0-4.4,0c-4,0-8,0-12,0c-1.6,0-3,0.4-4.3,1.2c-2.5,1.6-3.9,4-3.9,7
				C517.4,675,517.4,677.7,517.4,680.5z"/>
		</g>
	</g>
	<g>
		<path class="st5" d="M542.9,673.9c0.8-0.2,1.6-0.5,2.5-0.7c-0.5,0.8-1.2,1.5-1.9,2.1c-0.3,0.2-0.4,0.4-0.4,0.8
			c0,4.4-1.6,8-4.9,10.9c-1.9,1.7-4.2,2.7-6.7,3c-2.3,0.3-4.5,0.1-6.7-0.6c-0.8-0.3-1.6-0.7-2.4-1.2c2.6,0.2,4.8-0.6,6.8-2.3
			c-2.4-0.3-3.9-1.8-5.2-3.6c1,0.1,1.9,0.1,2.7,0.2c0,0,0-0.1,0-0.1c-1-0.5-2-1.1-2.8-1.9c-0.8-0.8-1.6-1.6-1.8-2.9
			c1,0.4,1.9,1,3.1,0.5c-1.3-1.2-2-2.6-2-4.2c0-1.1,0.2-2.1,0.8-3.1c1.9,4.2,5.3,5.7,9.7,5.7c0-0.5,0-1.1,0-1.6
			c-0.2-2.1,1.9-3.8,3.5-4.1c1.6-0.2,3,0.1,4.2,1.3c0.1,0.1,0.3,0.2,0.4,0.1c0.8-0.3,1.6-0.6,2.4-0.9c0.1,0,0.2-0.1,0.4-0.2
			c-0.3,1.1-1,2-1.9,2.6C542.9,673.8,542.9,673.8,542.9,673.9z"/>
	</g>
</g>
<g>
	<g>
		<g>
			<path class="st5" d="M1294.6,661.2c2.8,0,5.6-0.1,8.4,0c4.5,0.2,7.8,2.3,9.9,6.3c0.8,1.5,1.1,3,1.1,4.7c0,3.4,0,6.9,0,10.3
				c0,2,0,4,0,6c0,2.4-0.6,4.6-2,6.5c-1.9,2.7-4.5,4.3-7.7,4.7c-1.1,0.2-2.3,0.1-3.5,0.1c-4.8,0-9.5,0-14.3,0
				c-4.8,0-9.1-3.1-10.6-7.6c-0.4-1.1-0.6-2.3-0.6-3.5c0-5.5,0-10.9,0-16.4c0-5.9,4.6-10.8,10.5-11.2c1.8-0.1,3.7,0,5.5,0
				C1292.4,661.1,1293.5,661.2,1294.6,661.2C1294.6,661.2,1294.6,661.2,1294.6,661.2z M1278.2,680.5
				C1278.2,680.5,1278.2,680.5,1278.2,680.5c0,2.7,0,5.5,0,8.2c0,4.5,3.7,8.2,8.2,8.2c5.5,0,10.9,0,16.4,0c1.7,0,3.3-0.5,4.6-1.4
				c2.3-1.7,3.5-3.9,3.6-6.8c0-2.8,0-5.7,0-8.5c0-2.6,0-5.3,0-7.9c0-4.5-3.7-8.1-8.1-8.1c-1.5,0-2.9,0-4.4,0c-4,0-8,0-12,0
				c-1.6,0-3,0.4-4.3,1.2c-2.5,1.6-3.9,4-3.9,7C1278.2,675.1,1278.2,677.8,1278.2,680.5z"/>
		</g>
	</g>
	<g>
		<path class="st5" d="M1303.7,673.9c0.8-0.2,1.6-0.5,2.5-0.7c-0.5,0.8-1.2,1.5-1.9,2.1c-0.3,0.2-0.4,0.4-0.4,0.8
			c0,4.4-1.7,8-4.9,11c-1.9,1.7-4.2,2.7-6.7,3c-2.3,0.3-4.5,0.1-6.7-0.6c-0.8-0.3-1.7-0.7-2.4-1.2c2.6,0.2,4.8-0.6,6.8-2.3
			c-2.4-0.3-3.9-1.8-5.2-3.6c1,0.1,1.9,0.1,2.8,0.2c0,0,0-0.1,0-0.1c-1-0.5-2-1.1-2.8-1.9c-0.8-0.8-1.6-1.6-1.8-2.9
			c1,0.4,1.9,1,3.1,0.5c-1.3-1.2-2-2.6-2-4.2c0-1.1,0.2-2.1,0.8-3.1c1.9,4.2,5.3,5.7,9.7,5.7c0-0.5,0-1.1,0-1.7
			c-0.2-2.1,1.9-3.8,3.5-4.1c1.6-0.2,3,0.1,4.3,1.3c0.1,0.1,0.3,0.2,0.4,0.1c0.8-0.3,1.6-0.6,2.4-0.9c0.1,0,0.2-0.1,0.4-0.2
			c-0.3,1.1-1,2-1.9,2.6C1303.7,673.9,1303.7,673.9,1303.7,673.9z"/>
	</g>
</g>
<g>
	<path class="st5" d="M917.8,1135.1c2.8,0,5.6-0.1,8.4,0c4.5,0.2,7.8,2.3,9.9,6.3c0.8,1.5,1.1,3,1.1,4.7c0,3.4,0,6.9,0,10.3
		c0,2,0,4,0,6c0,2.4-0.6,4.6-2,6.5c-1.9,2.7-4.5,4.3-7.7,4.7c-1.1,0.2-2.3,0.1-3.5,0.1c-4.8,0-9.5,0-14.3,0c-4.8,0-9.1-3.1-10.6-7.6
		c-0.4-1.1-0.6-2.3-0.6-3.5c0-5.5,0-10.9,0-16.4c0-5.9,4.6-10.8,10.5-11.2c1.8-0.1,3.7,0,5.5,0
		C915.6,1135.1,916.7,1135.1,917.8,1135.1C917.8,1135.1,917.8,1135.1,917.8,1135.1z M901.4,1154.5
		C901.4,1154.5,901.4,1154.5,901.4,1154.5c0,2.7,0,5.5,0,8.2c0,4.5,3.7,8.2,8.2,8.2c5.5,0,10.9,0,16.4,0c1.7,0,3.3-0.5,4.6-1.4
		c2.3-1.7,3.5-3.9,3.6-6.8c0-2.8,0-5.6,0-8.5c0-2.6,0-5.3,0-7.9c0-4.5-3.7-8.1-8.1-8.1c-1.5,0-2.9,0-4.4,0c-4,0-8,0-12,0
		c-1.6,0-3,0.4-4.3,1.2c-2.5,1.6-3.9,4-3.9,7C901.4,1149.1,901.4,1151.8,901.4,1154.5z"/>
	<path class="st5" d="M928.2,1154.5c0.1,5.6-4.6,10.4-10.3,10.5c-5.7,0.1-10.5-4.6-10.6-10.3c-0.1-5.7,4.4-10.5,10.2-10.6
		C923.4,1144,928.1,1148.6,928.2,1154.5z M910.3,1154.5c0,4.1,3.3,7.5,7.4,7.4c4.2,0,7.5-3.3,7.5-7.5c0-4.1-3.4-7.4-7.6-7.4
		C913.6,1147.1,910.3,1150.4,910.3,1154.5z"/>
	<path class="st5" d="M929.7,1141.1c0.8,0,1.5,0.7,1.5,1.5c0,0.8-0.7,1.5-1.5,1.5c-0.8,0-1.5-0.7-1.5-1.5
		C928.2,1141.7,928.9,1141.1,929.7,1141.1z"/>
</g>
<g>
	<g>
		<g>
			<path class="st5" d="M1294.7,1135.1c2.8,0,5.6-0.1,8.3,0c4.5,0.2,7.8,2.3,9.8,6.3c0.8,1.5,1.1,3,1.1,4.7c0,3.4,0,6.9,0,10.3
				c0,2,0,4,0,6c0,2.4-0.6,4.6-2,6.5c-1.9,2.7-4.5,4.3-7.7,4.7c-1.1,0.2-2.3,0.1-3.5,0.1c-4.7,0-9.5,0-14.2,0c-4.8,0-9-3.1-10.6-7.6
				c-0.4-1.1-0.6-2.3-0.6-3.5c0-5.4,0-10.9,0-16.3c0-5.9,4.6-10.8,10.5-11.1c1.8-0.1,3.7,0,5.5,0
				C1292.5,1135.1,1293.6,1135.1,1294.7,1135.1C1294.7,1135.1,1294.7,1135.1,1294.7,1135.1z M1278.4,1154.4
				C1278.4,1154.4,1278.4,1154.4,1278.4,1154.4c0,2.7,0,5.5,0,8.2c0,4.5,3.7,8.1,8.2,8.1c5.4,0,10.9,0,16.3,0c1.7,0,3.2-0.5,4.6-1.4
				c2.3-1.6,3.5-3.9,3.6-6.8c0-2.8,0-5.6,0-8.4c0-2.6,0-5.3,0-7.9c0-4.4-3.6-8.1-8.1-8.1c-1.5,0-2.9,0-4.4,0c-4,0-8,0-12,0
				c-1.6,0-3,0.4-4.3,1.2c-2.5,1.6-3.8,4-3.9,7C1278.4,1149,1278.4,1151.7,1278.4,1154.4z"/>
		</g>
	</g>
	<g>
		<path class="st5" d="M1303.8,1147.8c0.8-0.2,1.6-0.5,2.5-0.7c-0.5,0.8-1.2,1.5-1.9,2.1c-0.3,0.2-0.4,0.4-0.4,0.8
			c0,4.4-1.6,8-4.9,10.9c-1.9,1.7-4.2,2.6-6.7,3c-2.3,0.3-4.5,0.1-6.7-0.6c-0.8-0.3-1.6-0.6-2.4-1.2c2.6,0.2,4.8-0.6,6.8-2.3
			c-2.4-0.3-3.8-1.8-5.2-3.6c1,0.1,1.9,0.1,2.7,0.2c0,0,0-0.1,0-0.1c-1-0.5-2-1.1-2.8-1.9c-0.8-0.8-1.6-1.6-1.8-2.8
			c1,0.4,1.9,1,3.1,0.5c-1.3-1.2-2-2.6-2-4.2c0-1.1,0.2-2.1,0.8-3.1c1.9,4.2,5.3,5.7,9.7,5.7c0-0.5,0-1.1,0-1.6
			c-0.2-2.1,1.9-3.8,3.5-4.1c1.6-0.2,3,0.1,4.2,1.3c0.1,0.1,0.3,0.2,0.4,0.1c0.8-0.3,1.6-0.6,2.4-0.9c0.1,0,0.2-0.1,0.4-0.2
			c-0.3,1.1-1,2-1.9,2.6C1303.8,1147.8,1303.8,1147.8,1303.8,1147.8z"/>
	</g>
</g>
<g>
	<g>
		<path class="st5" d="M120.4,233.8c0,0.3-0.1,0.6-0.3,0.8s-0.4,0.3-0.7,0.3c-0.2,0-0.4-0.1-0.6-0.2s-0.3-0.3-0.4-0.5l-1.4-3.4h-7.1
			l-1.4,3.4c-0.1,0.2-0.2,0.4-0.4,0.5s-0.4,0.2-0.6,0.2c-0.3,0-0.6-0.1-0.7-0.3c-0.2-0.2-0.3-0.4-0.3-0.7c0-0.1,0-0.2,0-0.4
			l5.9-14.2c0.1-0.2,0.3-0.4,0.4-0.6s0.4-0.2,0.7-0.1c0.2,0,0.4,0.1,0.6,0.2c0.2,0.1,0.3,0.3,0.4,0.5l5.8,14
			C120.4,233.5,120.4,233.7,120.4,233.8z M110.7,228.7h5.4l-2.7-6.4L110.7,228.7z"/>
		<path class="st5" d="M131.4,219.4c0.7,0.4,1.2,1,1.6,1.8s0.6,1.6,0.6,2.5c0,0.9-0.2,1.7-0.6,2.5s-1,1.4-1.6,1.8
			c-0.7,0.4-1.4,0.7-2.3,0.7h-4.3v5.1c0,0.3-0.1,0.6-0.3,0.8s-0.5,0.3-0.8,0.3c-0.3,0-0.6-0.1-0.8-0.3c-0.2-0.2-0.3-0.5-0.3-0.8
			v-13.9c0-0.3,0.1-0.6,0.3-0.8c0.2-0.2,0.5-0.3,0.8-0.3h5.3C130,218.7,130.7,218.9,131.4,219.4z M130.3,226.1
			c0.4-0.3,0.6-0.6,0.8-1.1c0.2-0.4,0.3-0.9,0.3-1.4c0-0.8-0.2-1.4-0.7-2c-0.5-0.5-1-0.8-1.6-0.8h-4.3v5.7h4.3
			C129.6,226.5,130,226.4,130.3,226.1z"/>
		<path class="st5" d="M149.1,233.4c0.1,0.2,0.1,0.3,0.1,0.5c0,0.3-0.1,0.6-0.3,0.7s-0.5,0.2-0.7,0.2s-0.5-0.1-0.7-0.2
			c-0.5-0.3-0.8-0.7-1.1-1.3s-0.4-1.4-0.4-2.6c0-0.8-0.2-1.3-0.7-1.7c-0.5-0.4-1.1-0.6-1.8-0.6h-4.6v5.2c0,0.3-0.1,0.6-0.3,0.8
			c-0.2,0.2-0.4,0.3-0.7,0.3c-0.4,0-0.7-0.1-0.9-0.3s-0.4-0.5-0.4-0.8v-13.9c0-0.3,0.1-0.6,0.3-0.8s0.5-0.3,0.8-0.3h6.5
			c0.8,0,1.6,0.2,2.3,0.6c0.7,0.4,1.2,1,1.7,1.7s0.6,1.5,0.6,2.4c0,0.9-0.2,1.7-0.7,2.4c-0.5,0.7-1.1,1.3-1.8,1.7
			c0.6,0.3,1,0.7,1.3,1.2s0.5,1.1,0.5,1.8c0.1,0.9,0.1,1.5,0.2,1.8c0.1,0.3,0.2,0.5,0.5,0.7C148.9,233.1,149.1,233.2,149.1,233.4z
			 M145.1,226.2c0.3-0.3,0.6-0.6,0.8-1.1s0.3-1,0.3-1.6c0-0.7-0.2-1.4-0.7-1.9s-1-0.8-1.6-0.8h-5.2v5.8h5.2
			C144.4,226.6,144.8,226.4,145.1,226.2z"/>
		<path class="st5" d="M160.4,234c-0.9-0.7-1.6-1.7-2-2.9s-0.7-2.7-0.7-4.3c0-1.6,0.2-3.1,0.7-4.3c0.5-1.2,1.1-2.2,2-2.9
			c0.9-0.7,2-1.1,3.2-1.1s2.3,0.4,3.2,1.1c0.9,0.7,1.6,1.7,2,2.9c0.5,1.2,0.7,2.7,0.7,4.3c0,1.6-0.2,3.1-0.7,4.3
			c-0.5,1.2-1.1,2.2-2,2.9c-0.9,0.7-2,1.1-3.2,1.1S161.3,234.7,160.4,234z M166.2,231.2c0.6-1.1,0.9-2.6,0.9-4.5
			c0-1.9-0.3-3.4-0.9-4.5s-1.5-1.6-2.6-1.6s-2,0.5-2.6,1.6s-0.9,2.6-0.9,4.5c0,1.9,0.3,3.4,0.9,4.5c0.6,1.1,1.5,1.6,2.6,1.6
			S165.6,232.3,166.2,231.2z"/>
		<path class="st5" d="M179.2,225.3c0.7,0.4,1.2,1,1.6,1.8c0.4,0.8,0.6,1.6,0.6,2.5c0,1.1-0.3,2-0.8,2.9c-0.5,0.8-1.2,1.5-2.1,1.9
			c-0.9,0.4-1.9,0.7-3.1,0.7c-0.6,0-1.2-0.1-1.8-0.3c-0.6-0.2-1.1-0.4-1.5-0.7c-0.4-0.2-0.6-0.5-0.6-0.9c0-0.3,0.1-0.6,0.3-0.8
			s0.5-0.4,0.7-0.4c0.3,0,0.6,0.1,0.8,0.3c0.6,0.6,1.4,0.9,2.4,0.9c0.6,0,1.2-0.1,1.7-0.4s0.9-0.7,1.2-1.2s0.5-1.1,0.5-1.8
			c0-1-0.3-1.8-0.9-2.3c-0.6-0.5-1.3-0.8-2.2-0.8c-0.2,0-0.6,0.1-1.1,0.2c-0.3,0.1-0.6,0.1-0.8,0.1c-0.3,0-0.5-0.1-0.7-0.3
			c-0.2-0.2-0.3-0.4-0.3-0.7c0-0.2,0-0.3,0.1-0.4c0.1-0.1,0.2-0.3,0.3-0.4l3.9-4.3h-5.3c-0.3,0-0.5-0.1-0.7-0.3s-0.3-0.4-0.3-0.7
			c0-0.3,0.1-0.5,0.3-0.7s0.4-0.3,0.7-0.3h7.3c0.4,0,0.6,0.1,0.8,0.3s0.3,0.5,0.3,0.8c0,0.3-0.1,0.6-0.4,0.9l-3.6,4
			C177.8,224.6,178.5,224.8,179.2,225.3z"/>
		<path class="st5" d="M190.5,228c-0.2-0.2-0.3-0.5-0.3-0.8c0-0.3,0.1-0.6,0.3-0.8s0.5-0.3,0.8-0.3h4.4c0.3,0,0.6,0.1,0.8,0.3
			s0.3,0.5,0.3,0.8c0,0.3-0.1,0.6-0.3,0.8c-0.2,0.2-0.5,0.3-0.8,0.3h-4.4C190.9,228.3,190.7,228.2,190.5,228z"/>
		<path class="st5" d="M221,219c0.2,0.2,0.3,0.5,0.3,0.8v13.9c0,0.3-0.1,0.6-0.3,0.8s-0.5,0.3-0.8,0.3c-0.3,0-0.6-0.1-0.8-0.3
			s-0.3-0.5-0.3-0.8v-10.6l-4.5,6.8c-0.1,0.1-0.2,0.3-0.4,0.3s-0.3,0.1-0.5,0.1c-0.2,0-0.3,0-0.5-0.1c-0.2-0.1-0.3-0.2-0.4-0.3
			l-4.5-7v10.9c0,0.3-0.1,0.6-0.3,0.8c-0.2,0.2-0.4,0.3-0.8,0.3c-0.3,0-0.6-0.1-0.7-0.3s-0.3-0.5-0.3-0.8v-13.9
			c0-0.3,0.1-0.5,0.3-0.8c0.2-0.2,0.5-0.3,0.8-0.3c0.2,0,0.4,0,0.5,0.1c0.2,0.1,0.3,0.2,0.4,0.4l5.5,8.3l5.5-8.3
			c0.2-0.3,0.6-0.5,0.9-0.5C220.5,218.7,220.8,218.8,221,219z"/>
		<path class="st5" d="M237.6,233.8c0,0.3-0.1,0.6-0.3,0.8s-0.4,0.3-0.7,0.3c-0.2,0-0.4-0.1-0.6-0.2c-0.2-0.1-0.3-0.3-0.4-0.5
			l-1.4-3.4H227l-1.4,3.4c-0.1,0.2-0.2,0.4-0.4,0.5c-0.2,0.1-0.4,0.2-0.6,0.2c-0.3,0-0.6-0.1-0.7-0.3c-0.2-0.2-0.3-0.4-0.3-0.7
			c0-0.1,0-0.2,0-0.4l5.9-14.2c0.1-0.2,0.3-0.4,0.4-0.6s0.4-0.2,0.7-0.1c0.2,0,0.4,0.1,0.6,0.2c0.2,0.1,0.3,0.3,0.4,0.5l5.8,14
			C237.6,233.5,237.6,233.7,237.6,233.8z M227.9,228.7h5.4l-2.7-6.4L227.9,228.7z"/>
		<path class="st5" d="M249.8,220.4l-4.9,7v6.3c0,0.3-0.1,0.6-0.3,0.8s-0.5,0.3-0.7,0.3c-0.3,0-0.6-0.1-0.8-0.3s-0.3-0.5-0.3-0.8
			v-6.5l-4.9-6.6c-0.2-0.3-0.3-0.6-0.3-0.8c0-0.3,0.1-0.6,0.4-0.8c0.2-0.2,0.5-0.3,0.8-0.3c0.4,0,0.7,0.2,0.9,0.5l4.3,6l4.2-6
			c0.2-0.4,0.6-0.5,0.9-0.5c0.3,0,0.5,0.1,0.8,0.3c0.2,0.2,0.3,0.5,0.3,0.8C250,220,249.9,220.2,249.8,220.4z"/>
		<path class="st5" d="M260.5,234c-0.9-0.7-1.6-1.7-2-2.9c-0.5-1.2-0.7-2.7-0.7-4.3c0-1.6,0.2-3.1,0.7-4.3c0.5-1.2,1.1-2.2,2-2.9
			c0.9-0.7,2-1.1,3.2-1.1c1.3,0,2.3,0.4,3.2,1.1c0.9,0.7,1.6,1.7,2,2.9c0.5,1.2,0.7,2.7,0.7,4.3c0,1.6-0.2,3.1-0.7,4.3
			c-0.5,1.2-1.1,2.2-2,2.9s-2,1.1-3.2,1.1C262.5,235,261.4,234.7,260.5,234z M266.3,231.2c0.6-1.1,0.9-2.6,0.9-4.5
			c0-1.9-0.3-3.4-0.9-4.5s-1.5-1.6-2.6-1.6s-2,0.5-2.6,1.6s-0.9,2.6-0.9,4.5c0,1.9,0.3,3.4,0.9,4.5c0.6,1.1,1.5,1.6,2.6,1.6
			S265.7,232.3,266.3,231.2z"/>
		<path class="st5" d="M279.4,225.3c0.7,0.4,1.2,1,1.6,1.8s0.6,1.6,0.6,2.5c0,1.1-0.3,2-0.8,2.9c-0.5,0.8-1.2,1.5-2.1,1.9
			s-1.9,0.7-3.1,0.7c-0.6,0-1.2-0.1-1.8-0.3c-0.6-0.2-1.1-0.4-1.5-0.7c-0.4-0.2-0.6-0.5-0.6-0.9c0-0.3,0.1-0.6,0.3-0.8
			s0.5-0.4,0.7-0.4c0.3,0,0.6,0.1,0.8,0.3c0.6,0.6,1.4,0.9,2.4,0.9c0.6,0,1.2-0.1,1.7-0.4s0.9-0.7,1.2-1.2s0.5-1.1,0.5-1.8
			c0-1-0.3-1.8-0.9-2.3c-0.6-0.5-1.3-0.8-2.2-0.8c-0.2,0-0.6,0.1-1.1,0.2c-0.3,0.1-0.6,0.1-0.8,0.1c-0.3,0-0.5-0.1-0.7-0.3
			c-0.2-0.2-0.3-0.4-0.3-0.7c0-0.2,0-0.3,0.1-0.4c0.1-0.1,0.2-0.3,0.3-0.4l3.9-4.3h-5.3c-0.3,0-0.5-0.1-0.7-0.3s-0.3-0.4-0.3-0.7
			c0-0.3,0.1-0.5,0.3-0.7s0.4-0.3,0.7-0.3h7.3c0.4,0,0.6,0.1,0.8,0.3s0.3,0.5,0.3,0.8c0,0.3-0.1,0.6-0.4,0.9l-3.6,4
			C277.9,224.6,278.7,224.8,279.4,225.3z"/>
	</g>
</g>
<g>
	<path class="st5" d="M156.1,661.3c2.8,0,5.6-0.1,8.4,0c4.5,0.2,7.8,2.3,9.9,6.3c0.8,1.5,1.1,3,1.1,4.7c0,3.4,0,6.9,0,10.3
		c0,2,0,4,0,6c0,2.4-0.6,4.6-2,6.5c-1.9,2.7-4.5,4.3-7.7,4.7c-1.1,0.2-2.3,0.1-3.5,0.1c-4.7,0-9.5,0-14.2,0c-4.8,0-9-3.1-10.6-7.6
		c-0.4-1.1-0.6-2.3-0.6-3.5c0-5.5,0-10.9,0-16.4c0-5.9,4.6-10.8,10.5-11.1c1.8-0.1,3.7,0,5.5,0C153.9,661.3,155,661.3,156.1,661.3
		C156.1,661.3,156.1,661.3,156.1,661.3z M139.7,680.6C139.7,680.6,139.7,680.6,139.7,680.6c0,2.7,0,5.5,0,8.2c0,4.5,3.7,8.1,8.2,8.2
		c5.4,0,10.9,0,16.3,0c1.7,0,3.2-0.5,4.6-1.4c2.3-1.7,3.5-3.9,3.6-6.8c0-2.8,0-5.6,0-8.5c0-2.6,0-5.3,0-7.9c0-4.4-3.6-8.1-8.1-8.1
		c-1.5,0-2.9,0-4.4,0c-4,0-8,0-12,0c-1.6,0-3,0.4-4.3,1.2c-2.5,1.6-3.8,4-3.9,7C139.7,675.2,139.7,677.9,139.7,680.6z"/>
	<path class="st5" d="M166.5,680.6c0.1,5.6-4.6,10.4-10.2,10.5c-5.7,0.1-10.5-4.5-10.6-10.2c-0.1-5.7,4.4-10.5,10.2-10.6
		C161.7,670.1,166.4,674.7,166.5,680.6z M148.6,680.6c0,4.1,3.3,7.4,7.4,7.4c4.2,0,7.5-3.3,7.5-7.5c0-4.1-3.4-7.4-7.6-7.3
		C151.9,673.2,148.6,676.6,148.6,680.6z"/>
	<path class="st5" d="M168,667.2c0.8,0,1.5,0.7,1.5,1.5c0,0.8-0.7,1.5-1.5,1.5c-0.8,0-1.5-0.7-1.5-1.5
		C166.5,667.9,167.1,667.2,168,667.2z"/>
</g>
<g>
	<g>
		<path d="M327.7,680.5c0.1,0.1,0.2,0.3,0.2,0.5c0,0.2-0.1,0.4-0.2,0.5s-0.3,0.2-0.5,0.2h-0.8v2.4c0,0.2-0.1,0.4-0.2,0.5
			s-0.3,0.2-0.5,0.2s-0.4-0.1-0.5-0.2s-0.2-0.3-0.2-0.5v-2.4h-4.4c-0.2,0-0.4-0.1-0.5-0.2c-0.2-0.1-0.2-0.3-0.2-0.5
			c0-0.2,0.1-0.4,0.2-0.5l5.1-6.4c0.1-0.1,0.2-0.2,0.3-0.2c0.1-0.1,0.2-0.1,0.3-0.1c0.2,0,0.4,0.1,0.5,0.2c0.1,0.1,0.2,0.3,0.2,0.5
			v5.8h0.8C327.4,680.3,327.6,680.3,327.7,680.5z M321.7,680.3h3.1v-4L321.7,680.3z"/>
		<path d="M331.5,684.3c-0.6-0.5-1.1-1.2-1.4-2c-0.3-0.9-0.5-1.9-0.5-3c0-1.1,0.2-2.1,0.5-3c0.3-0.9,0.8-1.5,1.4-2
			c0.6-0.5,1.4-0.7,2.2-0.7c0.9,0,1.6,0.2,2.2,0.7c0.6,0.5,1.1,1.2,1.4,2s0.5,1.9,0.5,3c0,1.1-0.2,2.1-0.5,3c-0.3,0.9-0.8,1.5-1.4,2
			c-0.6,0.5-1.4,0.7-2.2,0.7C332.9,685,332.2,684.8,331.5,684.3z M335.6,682.4c0.4-0.7,0.6-1.8,0.6-3.1c0-1.3-0.2-2.4-0.6-3.1
			c-0.4-0.7-1-1.1-1.8-1.1s-1.4,0.4-1.8,1.1c-0.4,0.7-0.6,1.8-0.6,3.1c0,1.3,0.2,2.4,0.6,3.1c0.4,0.7,1,1.1,1.8,1.1
			S335.2,683.1,335.6,682.4z"/>
		<path d="M356.6,679.8v4.3c0,0.2-0.1,0.4-0.2,0.6c-0.1,0.1-0.3,0.2-0.5,0.2c-0.2,0-0.4-0.1-0.6-0.2s-0.2-0.3-0.2-0.5v-4.3
			c0-1.4-0.6-2.1-1.8-2.1c-0.4,0-0.8,0.1-1.1,0.3s-0.6,0.4-0.8,0.8c-0.2,0.3-0.3,0.7-0.3,1.1v4.3c0,0.2-0.1,0.4-0.2,0.5
			c-0.1,0.1-0.3,0.2-0.6,0.2c-0.2,0-0.4-0.1-0.5-0.2c-0.1-0.1-0.2-0.3-0.2-0.6v-4.3c0-0.6-0.1-1.1-0.4-1.5s-0.7-0.6-1.3-0.6
			c-0.6,0-1.1,0.2-1.6,0.6c-0.4,0.4-0.6,0.9-0.6,1.5v4.3c0,0.2-0.1,0.4-0.2,0.5c-0.1,0.1-0.3,0.2-0.6,0.2c-0.2,0-0.4-0.1-0.5-0.2
			c-0.1-0.1-0.2-0.3-0.2-0.6v-6.8c0-0.2,0.1-0.4,0.2-0.5c0.1-0.1,0.3-0.2,0.5-0.2c0.2,0,0.4,0.1,0.6,0.2c0.1,0.1,0.2,0.3,0.2,0.5
			v0.6c0.3-0.4,0.6-0.8,1.1-1c0.5-0.3,1-0.4,1.5-0.4c1.3,0,2.2,0.6,2.6,1.8c0.2-0.4,0.6-0.9,1.2-1.2c0.5-0.4,1.1-0.5,1.7-0.5
			C355.7,676.4,356.6,677.5,356.6,679.8z"/>
		<path d="M358.9,675.2c-0.1-0.1-0.2-0.3-0.2-0.5v-0.3c0-0.3,0.1-0.4,0.2-0.5c0.1-0.1,0.4-0.2,0.7-0.2c0.3,0,0.5,0.1,0.6,0.2
			c0.1,0.1,0.2,0.3,0.2,0.5v0.3c0,0.3-0.1,0.4-0.2,0.5s-0.4,0.2-0.7,0.2C359.3,675.4,359,675.3,358.9,675.2z M360.1,684.7
			c-0.1,0.1-0.3,0.2-0.6,0.2c-0.2,0-0.4-0.1-0.5-0.2s-0.2-0.3-0.2-0.5v-6.9c0-0.2,0.1-0.4,0.2-0.5s0.3-0.2,0.5-0.2
			c0.2,0,0.4,0.1,0.6,0.2s0.2,0.3,0.2,0.5v6.9C360.3,684.3,360.3,684.5,360.1,684.7z"/>
		<path d="M369.7,679.8v4.4c0,0.2-0.1,0.4-0.2,0.5c-0.1,0.1-0.3,0.2-0.6,0.2c-0.2,0-0.4-0.1-0.5-0.2s-0.2-0.3-0.2-0.5v-4.3
			c0-0.6-0.1-1.1-0.4-1.5c-0.3-0.4-0.8-0.6-1.4-0.6c-0.4,0-0.8,0.1-1.2,0.3s-0.6,0.4-0.8,0.8c-0.2,0.3-0.3,0.7-0.3,1v4.3
			c0,0.2-0.1,0.4-0.2,0.5s-0.3,0.2-0.6,0.2c-0.2,0-0.4-0.1-0.5-0.2c-0.1-0.1-0.2-0.3-0.2-0.6v-6.8c0-0.2,0.1-0.4,0.2-0.5
			s0.3-0.2,0.5-0.2c0.2,0,0.4,0.1,0.6,0.2s0.2,0.3,0.2,0.5v0.6c0.3-0.4,0.7-0.8,1.2-1.1c0.5-0.3,1-0.4,1.6-0.4
			C368.7,676.3,369.7,677.5,369.7,679.8z"/>
		<path d="M383.7,676.6c0.1,0.1,0.2,0.3,0.2,0.6v6.9c0,0.2-0.1,0.4-0.2,0.5c-0.1,0.1-0.3,0.2-0.6,0.2c-0.2,0-0.4-0.1-0.5-0.2
			c-0.1-0.1-0.2-0.3-0.2-0.6v-0.4c-0.3,0.4-0.7,0.7-1.1,1c-0.5,0.3-1,0.4-1.6,0.4c-0.7,0-1.4-0.2-2-0.6c-0.6-0.4-1.1-0.9-1.4-1.6
			s-0.5-1.4-0.5-2.2s0.2-1.6,0.5-2.2c0.3-0.7,0.8-1.2,1.4-1.6c0.6-0.4,1.2-0.6,1.9-0.6c0.6,0,1.1,0.1,1.6,0.4
			c0.5,0.2,0.9,0.5,1.2,0.9v-0.4c0-0.2,0.1-0.4,0.2-0.6c0.1-0.1,0.3-0.2,0.5-0.2C383.4,676.4,383.6,676.5,383.7,676.6z M381.2,683.3
			c0.4-0.3,0.7-0.6,0.9-1.1c0.2-0.4,0.3-1,0.3-1.5c0-0.6-0.1-1.1-0.3-1.5s-0.5-0.8-0.9-1.1c-0.4-0.3-0.8-0.4-1.3-0.4
			s-0.9,0.1-1.3,0.4s-0.7,0.6-0.9,1.1c-0.2,0.4-0.3,1-0.3,1.5s0.1,1.1,0.3,1.5c0.2,0.4,0.5,0.8,0.9,1.1s0.8,0.4,1.3,0.4
			S380.9,683.5,381.2,683.3z"/>
		<path d="M393.8,676.6c0.1,0.1,0.2,0.3,0.2,0.6v7c0,0.9-0.2,1.6-0.6,2.2c-0.4,0.6-0.9,1-1.5,1.3c-0.6,0.3-1.3,0.4-2.1,0.4
			c-0.4,0-0.9-0.1-1.5-0.2c-0.6-0.1-0.9-0.3-1.1-0.5c-0.3-0.2-0.5-0.4-0.5-0.6c0-0.1,0-0.1,0.1-0.3c0.1-0.3,0.3-0.4,0.6-0.4
			c0.1,0,0.3,0,0.4,0.1c0.9,0.3,1.5,0.5,2,0.5c0.9,0,1.5-0.2,2-0.6c0.5-0.4,0.7-1,0.7-1.7v-0.9c-0.2,0.4-0.6,0.8-1.1,1.1
			c-0.5,0.3-1.1,0.4-1.7,0.4c-0.7,0-1.4-0.2-2-0.6c-0.6-0.4-1.1-0.9-1.4-1.6c-0.3-0.7-0.5-1.4-0.5-2.2s0.2-1.6,0.5-2.2
			c0.3-0.7,0.8-1.2,1.4-1.6c0.6-0.4,1.3-0.6,2-0.6c0.6,0,1.1,0.1,1.6,0.4c0.5,0.3,0.9,0.6,1.2,1v-0.5c0-0.2,0.1-0.4,0.2-0.6
			c0.1-0.1,0.3-0.2,0.5-0.2C393.4,676.4,393.6,676.5,393.8,676.6z M391.2,683.3c0.4-0.3,0.7-0.6,1-1.1c0.2-0.5,0.3-1,0.3-1.5
			s-0.1-1.1-0.3-1.5c-0.2-0.4-0.5-0.8-1-1.1s-0.9-0.4-1.4-0.4c-0.5,0-1,0.1-1.4,0.4c-0.4,0.3-0.7,0.6-1,1.1c-0.2,0.5-0.3,1-0.3,1.5
			s0.1,1.1,0.3,1.5c0.2,0.5,0.5,0.8,1,1.1c0.4,0.3,0.9,0.4,1.4,0.4C390.4,683.6,390.8,683.5,391.2,683.3z"/>
		<path d="M403.3,682.9c-0.4,0.7-0.9,1.2-1.5,1.6c-0.6,0.4-1.4,0.6-2.1,0.6s-1.5-0.2-2.1-0.6c-0.6-0.4-1.2-0.9-1.5-1.6
			c-0.4-0.7-0.6-1.4-0.6-2.2s0.2-1.6,0.6-2.3c0.4-0.7,0.9-1.2,1.5-1.6c0.6-0.4,1.4-0.6,2.1-0.6s1.5,0.2,2.1,0.6
			c0.6,0.4,1.2,0.9,1.5,1.6c0.4,0.7,0.6,1.4,0.6,2.3S403.7,682.3,403.3,682.9z M402,679.1c-0.2-0.5-0.6-0.8-1-1.1
			c-0.4-0.3-0.9-0.4-1.4-0.4s-1,0.1-1.4,0.4s-0.7,0.6-1,1.1c-0.2,0.5-0.4,1-0.4,1.5c0,0.6,0.1,1.1,0.4,1.5c0.2,0.4,0.6,0.8,1,1
			c0.4,0.3,0.9,0.4,1.4,0.4s1-0.1,1.4-0.4c0.4-0.3,0.7-0.6,1-1c0.2-0.4,0.4-1,0.4-1.5C402.3,680.1,402.2,679.6,402,679.1z"/>
	</g>
</g>
<g>
	<g>
		<path d="M706.7,678.3c0.5,0.3,0.9,0.7,1.1,1.2s0.4,1.1,0.4,1.8c0,0.8-0.2,1.4-0.5,2c-0.4,0.6-0.8,1-1.5,1.3
			c-0.6,0.3-1.3,0.5-2.1,0.5c-0.4,0-0.8-0.1-1.2-0.2s-0.7-0.3-1-0.5c-0.3-0.2-0.4-0.4-0.4-0.7c0-0.2,0.1-0.4,0.2-0.6
			c0.1-0.2,0.3-0.3,0.5-0.3c0.2,0,0.4,0.1,0.6,0.2c0.4,0.4,1,0.6,1.6,0.6c0.4,0,0.8-0.1,1.2-0.3c0.4-0.2,0.6-0.5,0.9-0.8
			s0.3-0.8,0.3-1.2c0-0.7-0.2-1.2-0.6-1.6c-0.4-0.4-0.9-0.6-1.5-0.6c-0.2,0-0.4,0-0.7,0.1c-0.2,0.1-0.4,0.1-0.5,0.1
			c-0.2,0-0.3-0.1-0.5-0.2c-0.1-0.1-0.2-0.3-0.2-0.5c0-0.1,0-0.2,0.1-0.3c0-0.1,0.1-0.2,0.2-0.3l2.7-3h-3.7c-0.2,0-0.4-0.1-0.5-0.2
			s-0.2-0.3-0.2-0.5c0-0.2,0.1-0.4,0.2-0.5s0.3-0.2,0.5-0.2h5.1c0.2,0,0.4,0.1,0.6,0.2s0.2,0.3,0.2,0.5c0,0.2-0.1,0.4-0.3,0.6
			l-2.5,2.8C705.6,677.8,706.2,677.9,706.7,678.3z"/>
		<path d="M711.6,684.3c-0.6-0.5-1.1-1.2-1.4-2c-0.3-0.9-0.5-1.9-0.5-3c0-1.1,0.2-2.1,0.5-3s0.8-1.5,1.4-2c0.6-0.5,1.4-0.7,2.2-0.7
			c0.9,0,1.6,0.2,2.2,0.7c0.6,0.5,1.1,1.2,1.4,2c0.3,0.9,0.5,1.9,0.5,3c0,1.1-0.2,2.1-0.5,3c-0.3,0.9-0.8,1.5-1.4,2
			c-0.6,0.5-1.4,0.7-2.2,0.7C712.9,685,712.2,684.8,711.6,684.3z M715.6,682.4c0.4-0.7,0.6-1.8,0.6-3.1c0-1.3-0.2-2.4-0.6-3.1
			c-0.4-0.7-1-1.1-1.8-1.1c-0.8,0-1.4,0.4-1.8,1.1c-0.4,0.7-0.6,1.8-0.6,3.1c0,1.3,0.2,2.4,0.6,3.1c0.4,0.7,1,1.1,1.8,1.1
			C714.6,683.5,715.2,683.1,715.6,682.4z"/>
		<path d="M736.6,679.8v4.3c0,0.2-0.1,0.4-0.2,0.6c-0.1,0.1-0.3,0.2-0.5,0.2s-0.4-0.1-0.6-0.2s-0.2-0.3-0.2-0.5v-4.3
			c0-1.4-0.6-2.1-1.8-2.1c-0.4,0-0.8,0.1-1.1,0.3s-0.6,0.4-0.8,0.8c-0.2,0.3-0.3,0.7-0.3,1.1v4.3c0,0.2-0.1,0.4-0.2,0.5
			c-0.1,0.1-0.3,0.2-0.6,0.2c-0.2,0-0.4-0.1-0.5-0.2c-0.1-0.1-0.2-0.3-0.2-0.6v-4.3c0-0.6-0.1-1.1-0.4-1.5c-0.3-0.4-0.7-0.6-1.3-0.6
			c-0.6,0-1.1,0.2-1.6,0.6c-0.4,0.4-0.6,0.9-0.6,1.5v4.3c0,0.2-0.1,0.4-0.2,0.5c-0.1,0.1-0.3,0.2-0.6,0.2c-0.2,0-0.4-0.1-0.5-0.2
			c-0.1-0.1-0.2-0.3-0.2-0.6v-6.8c0-0.2,0.1-0.4,0.2-0.5c0.1-0.1,0.3-0.2,0.5-0.2c0.2,0,0.4,0.1,0.6,0.2c0.1,0.1,0.2,0.3,0.2,0.5
			v0.6c0.3-0.4,0.6-0.8,1.1-1c0.5-0.3,1-0.4,1.5-0.4c1.3,0,2.2,0.6,2.6,1.8c0.2-0.4,0.6-0.9,1.2-1.2c0.5-0.4,1.1-0.5,1.7-0.5
			C735.7,676.4,736.6,677.5,736.6,679.8z"/>
		<path d="M738.9,675.2c-0.1-0.1-0.2-0.3-0.2-0.5v-0.3c0-0.3,0.1-0.4,0.2-0.5c0.1-0.1,0.4-0.2,0.7-0.2s0.5,0.1,0.6,0.2
			c0.1,0.1,0.2,0.3,0.2,0.5v0.3c0,0.3-0.1,0.4-0.2,0.5s-0.4,0.2-0.7,0.2C739.3,675.4,739,675.3,738.9,675.2z M740.1,684.7
			c-0.1,0.1-0.3,0.2-0.6,0.2c-0.2,0-0.4-0.1-0.5-0.2s-0.2-0.3-0.2-0.5v-6.9c0-0.2,0.1-0.4,0.2-0.5s0.3-0.2,0.5-0.2
			c0.2,0,0.4,0.1,0.6,0.2s0.2,0.3,0.2,0.5v6.9C740.3,684.3,740.3,684.5,740.1,684.7z"/>
		<path d="M749.7,679.8v4.4c0,0.2-0.1,0.4-0.2,0.5s-0.3,0.2-0.6,0.2c-0.2,0-0.4-0.1-0.5-0.2s-0.2-0.3-0.2-0.5v-4.3
			c0-0.6-0.1-1.1-0.4-1.5c-0.3-0.4-0.8-0.6-1.4-0.6c-0.4,0-0.8,0.1-1.2,0.3c-0.3,0.2-0.6,0.4-0.8,0.8s-0.3,0.7-0.3,1v4.3
			c0,0.2-0.1,0.4-0.2,0.5s-0.3,0.2-0.6,0.2s-0.4-0.1-0.5-0.2c-0.1-0.1-0.2-0.3-0.2-0.6v-6.8c0-0.2,0.1-0.4,0.2-0.5s0.3-0.2,0.5-0.2
			c0.2,0,0.4,0.1,0.6,0.2s0.2,0.3,0.2,0.5v0.6c0.3-0.4,0.7-0.8,1.2-1.1c0.5-0.3,1-0.4,1.6-0.4C748.7,676.3,749.7,677.5,749.7,679.8z
			"/>
		<path d="M763.7,676.6c0.1,0.1,0.2,0.3,0.2,0.6v6.9c0,0.2-0.1,0.4-0.2,0.5c-0.1,0.1-0.3,0.2-0.6,0.2c-0.2,0-0.4-0.1-0.5-0.2
			c-0.1-0.1-0.2-0.3-0.2-0.6v-0.4c-0.3,0.4-0.7,0.7-1.1,1c-0.5,0.3-1,0.4-1.6,0.4c-0.7,0-1.4-0.2-2-0.6c-0.6-0.4-1.1-0.9-1.4-1.6
			s-0.5-1.4-0.5-2.2s0.2-1.6,0.5-2.2c0.3-0.7,0.8-1.2,1.4-1.6c0.6-0.4,1.2-0.6,1.9-0.6c0.6,0,1.1,0.1,1.6,0.4
			c0.5,0.2,0.9,0.5,1.2,0.9v-0.4c0-0.2,0.1-0.4,0.2-0.6c0.1-0.1,0.3-0.2,0.5-0.2C763.4,676.4,763.6,676.5,763.7,676.6z M761.3,683.3
			c0.4-0.3,0.7-0.6,0.9-1.1c0.2-0.4,0.3-1,0.3-1.5c0-0.6-0.1-1.1-0.3-1.5s-0.5-0.8-0.9-1.1c-0.4-0.3-0.8-0.4-1.3-0.4
			s-0.9,0.1-1.3,0.4c-0.4,0.3-0.7,0.6-0.9,1.1c-0.2,0.4-0.3,1-0.3,1.5s0.1,1.1,0.3,1.5c0.2,0.4,0.5,0.8,0.9,1.1
			c0.4,0.3,0.8,0.4,1.3,0.4S760.9,683.5,761.3,683.3z"/>
		<path d="M773.8,676.6c0.1,0.1,0.2,0.3,0.2,0.6v7c0,0.9-0.2,1.6-0.6,2.2c-0.4,0.6-0.9,1-1.5,1.3c-0.6,0.3-1.3,0.4-2.1,0.4
			c-0.4,0-0.9-0.1-1.5-0.2s-0.9-0.3-1.1-0.5c-0.3-0.2-0.5-0.4-0.5-0.6c0-0.1,0-0.1,0.1-0.3c0.1-0.3,0.3-0.4,0.6-0.4
			c0.1,0,0.3,0,0.4,0.1c0.9,0.3,1.5,0.5,2,0.5c0.9,0,1.5-0.2,2-0.6c0.5-0.4,0.7-1,0.7-1.7v-0.9c-0.2,0.4-0.6,0.8-1.1,1.1
			c-0.5,0.3-1.1,0.4-1.7,0.4c-0.7,0-1.4-0.2-2-0.6c-0.6-0.4-1.1-0.9-1.4-1.6c-0.3-0.7-0.5-1.4-0.5-2.2s0.2-1.6,0.5-2.2
			c0.3-0.7,0.8-1.2,1.4-1.6c0.6-0.4,1.3-0.6,2-0.6c0.6,0,1.1,0.1,1.6,0.4s0.9,0.6,1.2,1v-0.5c0-0.2,0.1-0.4,0.2-0.6
			c0.1-0.1,0.3-0.2,0.5-0.2C773.5,676.4,773.6,676.5,773.8,676.6z M771.2,683.3c0.4-0.3,0.7-0.6,1-1.1c0.2-0.5,0.3-1,0.3-1.5
			s-0.1-1.1-0.3-1.5c-0.2-0.4-0.5-0.8-1-1.1c-0.4-0.3-0.9-0.4-1.4-0.4c-0.5,0-1,0.1-1.4,0.4c-0.4,0.3-0.7,0.6-1,1.1
			c-0.2,0.5-0.3,1-0.3,1.5s0.1,1.1,0.3,1.5c0.2,0.5,0.5,0.8,1,1.1c0.4,0.3,0.9,0.4,1.4,0.4C770.4,683.6,770.8,683.5,771.2,683.3z"/>
		<path d="M783.3,682.9c-0.4,0.7-0.9,1.2-1.5,1.6c-0.6,0.4-1.4,0.6-2.1,0.6c-0.8,0-1.5-0.2-2.1-0.6c-0.6-0.4-1.2-0.9-1.5-1.6
			c-0.4-0.7-0.6-1.4-0.6-2.2s0.2-1.6,0.6-2.3s0.9-1.2,1.5-1.6c0.6-0.4,1.4-0.6,2.1-0.6c0.8,0,1.5,0.2,2.1,0.6
			c0.6,0.4,1.2,0.9,1.5,1.6s0.6,1.4,0.6,2.3S783.7,682.3,783.3,682.9z M782,679.1c-0.2-0.5-0.6-0.8-1-1.1c-0.4-0.3-0.9-0.4-1.4-0.4
			c-0.5,0-1,0.1-1.4,0.4s-0.7,0.6-1,1.1c-0.2,0.5-0.4,1-0.4,1.5c0,0.6,0.1,1.1,0.4,1.5s0.6,0.8,1,1c0.4,0.3,0.9,0.4,1.4,0.4
			c0.5,0,1-0.1,1.4-0.4c0.4-0.3,0.7-0.6,1-1s0.4-1,0.4-1.5C782.3,680.1,782.2,679.6,782,679.1z"/>
	</g>
</g>
<g>
	<g>
		<path d="M1470.9,683.9c0.1,0.1,0.2,0.3,0.2,0.5c0,0.2-0.1,0.4-0.2,0.5s-0.3,0.2-0.5,0.2h-5.7c-0.2,0-0.4-0.1-0.5-0.2
			c-0.1-0.1-0.2-0.3-0.2-0.5c0-0.2,0.1-0.4,0.2-0.5l3.6-3.9c1-1.1,1.5-2,1.5-2.8c0-0.6-0.2-1.1-0.6-1.4s-0.9-0.6-1.4-0.6
			c-0.4,0-0.8,0.1-1.1,0.3c-0.4,0.2-0.7,0.5-0.9,1c-0.2,0.2-0.4,0.3-0.6,0.3c-0.2,0-0.4-0.1-0.5-0.2c-0.2-0.1-0.2-0.3-0.2-0.5
			c0-0.1,0-0.2,0.1-0.4s0.2-0.3,0.3-0.4c0.4-0.5,0.8-0.8,1.3-1.1c0.5-0.3,1.1-0.4,1.6-0.4c0.7,0,1.3,0.1,1.9,0.4
			c0.5,0.3,0.9,0.7,1.2,1.2c0.3,0.5,0.4,1.1,0.4,1.7c0,1.2-0.7,2.5-2,4l-2.4,2.6h4C1470.6,683.7,1470.7,683.7,1470.9,683.9z"/>
		<path d="M1477.8,678.1c0.6,0.3,1,0.8,1.3,1.3c0.3,0.6,0.5,1.2,0.5,1.9c0,0.7-0.2,1.4-0.6,2c-0.4,0.6-0.9,1.1-1.6,1.4
			s-1.4,0.5-2.2,0.5c-0.4,0-0.9-0.1-1.3-0.2c-0.4-0.1-0.8-0.3-1.1-0.6c-0.1-0.1-0.2-0.2-0.3-0.3s-0.1-0.3-0.1-0.4
			c0-0.2,0.1-0.3,0.2-0.4c0.1-0.1,0.3-0.2,0.5-0.2c0.1,0,0.3,0.1,0.6,0.2c0.5,0.4,1,0.5,1.5,0.5c0.5,0,1-0.1,1.4-0.3
			c0.4-0.2,0.8-0.5,1-0.9c0.2-0.4,0.4-0.8,0.4-1.3c0-0.7-0.2-1.2-0.7-1.6c-0.4-0.4-1-0.6-1.7-0.6c-0.3,0-0.5,0-0.8,0.1
			c-0.2,0.1-0.5,0.2-0.8,0.3c-0.1,0.1-0.3,0.1-0.4,0.2c-0.1,0-0.2,0.1-0.3,0.1c-0.3,0-0.5-0.1-0.7-0.3c-0.2-0.2-0.2-0.4-0.2-0.6
			l0-0.2l0.6-4.1c0-0.2,0.1-0.3,0.3-0.4c0.1-0.1,0.3-0.2,0.5-0.2h4.7c0.2,0,0.4,0.1,0.5,0.2c0.1,0.1,0.2,0.3,0.2,0.5
			c0,0.2-0.1,0.4-0.2,0.5c-0.1,0.1-0.3,0.2-0.5,0.2h-4.2l-0.4,2.7c0.2-0.1,0.5-0.2,0.9-0.3c0.3-0.1,0.7-0.1,1-0.1
			C1476.6,677.6,1477.2,677.7,1477.8,678.1z"/>
		<path d="M1498.7,680v4.3c0,0.2-0.1,0.4-0.2,0.6c-0.1,0.1-0.3,0.2-0.5,0.2s-0.4-0.1-0.6-0.2s-0.2-0.3-0.2-0.5v-4.3
			c0-1.4-0.6-2.1-1.8-2.1c-0.4,0-0.8,0.1-1.1,0.3s-0.6,0.4-0.8,0.8c-0.2,0.3-0.3,0.7-0.3,1.1v4.3c0,0.2-0.1,0.4-0.2,0.5
			c-0.1,0.1-0.3,0.2-0.6,0.2c-0.2,0-0.4-0.1-0.5-0.2c-0.1-0.1-0.2-0.3-0.2-0.6V680c0-0.6-0.1-1.1-0.4-1.5c-0.3-0.4-0.7-0.6-1.3-0.6
			c-0.6,0-1.1,0.2-1.6,0.6c-0.4,0.4-0.6,0.9-0.6,1.5v4.3c0,0.2-0.1,0.4-0.2,0.5c-0.1,0.1-0.3,0.2-0.6,0.2c-0.2,0-0.4-0.1-0.5-0.2
			c-0.1-0.1-0.2-0.3-0.2-0.6v-6.8c0-0.2,0.1-0.4,0.2-0.5c0.1-0.1,0.3-0.2,0.5-0.2c0.2,0,0.4,0.1,0.6,0.2c0.1,0.1,0.2,0.3,0.2,0.5
			v0.6c0.3-0.4,0.6-0.8,1.1-1c0.5-0.3,1-0.4,1.5-0.4c1.3,0,2.2,0.6,2.6,1.8c0.2-0.4,0.6-0.9,1.2-1.2c0.5-0.4,1.1-0.5,1.7-0.5
			C1497.8,676.5,1498.7,677.7,1498.7,680z"/>
		<path d="M1501,675.4c-0.1-0.1-0.2-0.3-0.2-0.5v-0.3c0-0.3,0.1-0.4,0.2-0.5c0.1-0.1,0.4-0.2,0.7-0.2s0.5,0.1,0.6,0.2
			c0.1,0.1,0.2,0.3,0.2,0.5v0.3c0,0.3-0.1,0.4-0.2,0.5s-0.4,0.2-0.7,0.2C1501.3,675.6,1501.1,675.5,1501,675.4z M1502.2,684.9
			c-0.1,0.1-0.3,0.2-0.6,0.2c-0.2,0-0.4-0.1-0.5-0.2s-0.2-0.3-0.2-0.5v-6.9c0-0.2,0.1-0.4,0.2-0.5s0.3-0.2,0.5-0.2
			c0.2,0,0.4,0.1,0.6,0.2s0.2,0.3,0.2,0.5v6.9C1502.4,684.5,1502.3,684.7,1502.2,684.9z"/>
		<path d="M1511.8,680v4.4c0,0.2-0.1,0.4-0.2,0.5s-0.3,0.2-0.6,0.2c-0.2,0-0.4-0.1-0.5-0.2s-0.2-0.3-0.2-0.5V680
			c0-0.6-0.1-1.1-0.4-1.5c-0.3-0.4-0.8-0.6-1.4-0.6c-0.4,0-0.8,0.1-1.2,0.3c-0.3,0.2-0.6,0.4-0.8,0.8s-0.3,0.7-0.3,1v4.3
			c0,0.2-0.1,0.4-0.2,0.5s-0.3,0.2-0.6,0.2s-0.4-0.1-0.5-0.2c-0.1-0.1-0.2-0.3-0.2-0.6v-6.8c0-0.2,0.1-0.4,0.2-0.5s0.3-0.2,0.5-0.2
			c0.2,0,0.4,0.1,0.6,0.2s0.2,0.3,0.2,0.5v0.6c0.3-0.4,0.7-0.8,1.2-1.1c0.5-0.3,1-0.4,1.6-0.4C1510.8,676.5,1511.8,677.7,1511.8,680
			z"/>
		<path d="M1525.8,676.8c0.1,0.1,0.2,0.3,0.2,0.6v6.9c0,0.2-0.1,0.4-0.2,0.5c-0.1,0.1-0.3,0.2-0.6,0.2c-0.2,0-0.4-0.1-0.5-0.2
			c-0.1-0.1-0.2-0.3-0.2-0.6v-0.4c-0.3,0.4-0.7,0.7-1.1,1c-0.5,0.3-1,0.4-1.6,0.4c-0.7,0-1.4-0.2-2-0.6c-0.6-0.4-1.1-0.9-1.4-1.6
			s-0.5-1.4-0.5-2.2s0.2-1.6,0.5-2.2c0.3-0.7,0.8-1.2,1.4-1.6c0.6-0.4,1.2-0.6,1.9-0.6c0.6,0,1.1,0.1,1.6,0.4
			c0.5,0.2,0.9,0.5,1.2,0.9v-0.4c0-0.2,0.1-0.4,0.2-0.6c0.1-0.1,0.3-0.2,0.5-0.2C1525.5,676.6,1525.7,676.7,1525.8,676.8z
			 M1523.3,683.4c0.4-0.3,0.7-0.6,0.9-1.1c0.2-0.4,0.3-1,0.3-1.5c0-0.6-0.1-1.1-0.3-1.5s-0.5-0.8-0.9-1.1c-0.4-0.3-0.8-0.4-1.3-0.4
			s-0.9,0.1-1.3,0.4c-0.4,0.3-0.7,0.6-0.9,1.1c-0.2,0.4-0.3,1-0.3,1.5s0.1,1.1,0.3,1.5c0.2,0.4,0.5,0.8,0.9,1.1
			c0.4,0.3,0.8,0.4,1.3,0.4S1523,683.7,1523.3,683.4z"/>
		<path d="M1535.9,676.8c0.1,0.1,0.2,0.3,0.2,0.6v7c0,0.9-0.2,1.6-0.6,2.2c-0.4,0.6-0.9,1-1.5,1.3c-0.6,0.3-1.3,0.4-2.1,0.4
			c-0.4,0-0.9-0.1-1.5-0.2s-0.9-0.3-1.1-0.5c-0.3-0.2-0.5-0.4-0.5-0.6c0-0.1,0-0.1,0.1-0.3c0.1-0.3,0.3-0.4,0.6-0.4
			c0.1,0,0.3,0,0.4,0.1c0.9,0.3,1.5,0.5,2,0.5c0.9,0,1.5-0.2,2-0.6c0.5-0.4,0.7-1,0.7-1.7v-0.9c-0.2,0.4-0.6,0.8-1.1,1.1
			c-0.5,0.3-1.1,0.4-1.7,0.4c-0.7,0-1.4-0.2-2-0.6c-0.6-0.4-1.1-0.9-1.4-1.6c-0.3-0.7-0.5-1.4-0.5-2.2s0.2-1.6,0.5-2.2
			c0.3-0.7,0.8-1.2,1.4-1.6c0.6-0.4,1.3-0.6,2-0.6c0.6,0,1.1,0.1,1.6,0.4s0.9,0.6,1.2,1v-0.5c0-0.2,0.1-0.4,0.2-0.6
			c0.1-0.1,0.3-0.2,0.5-0.2C1535.5,676.6,1535.7,676.7,1535.9,676.8z M1533.3,683.5c0.4-0.3,0.7-0.6,1-1.1c0.2-0.5,0.3-1,0.3-1.5
			s-0.1-1.1-0.3-1.5c-0.2-0.4-0.5-0.8-1-1.1c-0.4-0.3-0.9-0.4-1.4-0.4c-0.5,0-1,0.1-1.4,0.4c-0.4,0.3-0.7,0.6-1,1.1
			c-0.2,0.5-0.3,1-0.3,1.5s0.1,1.1,0.3,1.5c0.2,0.5,0.5,0.8,1,1.1c0.4,0.3,0.9,0.4,1.4,0.4C1532.4,683.8,1532.9,683.7,1533.3,683.5z
			"/>
		<path d="M1545.4,683.1c-0.4,0.7-0.9,1.2-1.5,1.6c-0.6,0.4-1.4,0.6-2.1,0.6c-0.8,0-1.5-0.2-2.1-0.6c-0.6-0.4-1.2-0.9-1.5-1.6
			c-0.4-0.7-0.6-1.4-0.6-2.2s0.2-1.6,0.6-2.3s0.9-1.2,1.5-1.6c0.6-0.4,1.4-0.6,2.1-0.6c0.8,0,1.5,0.2,2.1,0.6
			c0.6,0.4,1.2,0.9,1.5,1.6s0.6,1.4,0.6,2.3S1545.8,682.5,1545.4,683.1z M1544.1,679.3c-0.2-0.5-0.6-0.8-1-1.1
			c-0.4-0.3-0.9-0.4-1.4-0.4c-0.5,0-1,0.1-1.4,0.4s-0.7,0.6-1,1.1c-0.2,0.5-0.4,1-0.4,1.5c0,0.6,0.1,1.1,0.4,1.5s0.6,0.8,1,1
			c0.4,0.3,0.9,0.4,1.4,0.4c0.5,0,1-0.1,1.4-0.4c0.4-0.3,0.7-0.6,1-1s0.4-1,0.4-1.5C1544.4,680.3,1544.3,679.8,1544.1,679.3z"/>
	</g>
</g>
<g>
	<g>
		<path d="M327.6,1157.8c0.1,0.1,0.2,0.3,0.2,0.5c0,0.2-0.1,0.4-0.2,0.5s-0.3,0.2-0.5,0.2h-5.7c-0.2,0-0.4-0.1-0.5-0.2
			c-0.1-0.1-0.2-0.3-0.2-0.5c0-0.2,0.1-0.4,0.2-0.5l3.6-3.9c1-1.1,1.5-2,1.5-2.8c0-0.6-0.2-1.1-0.6-1.4s-0.9-0.6-1.4-0.6
			c-0.4,0-0.8,0.1-1.1,0.3c-0.4,0.2-0.7,0.5-0.9,1c-0.2,0.2-0.4,0.3-0.6,0.3c-0.2,0-0.4-0.1-0.5-0.2c-0.2-0.1-0.2-0.3-0.2-0.5
			c0-0.1,0-0.2,0.1-0.4s0.2-0.3,0.3-0.4c0.4-0.5,0.8-0.8,1.3-1.1c0.5-0.3,1.1-0.4,1.6-0.4c0.7,0,1.3,0.1,1.9,0.4
			c0.5,0.3,0.9,0.7,1.2,1.2c0.3,0.5,0.4,1.1,0.4,1.7c0,1.2-0.7,2.5-2,4l-2.4,2.6h4C327.3,1157.6,327.5,1157.7,327.6,1157.8z"/>
		<path d="M331,1158.4c-0.6-0.5-1.1-1.2-1.4-2c-0.3-0.9-0.5-1.9-0.5-3c0-1.1,0.2-2.1,0.5-3c0.3-0.9,0.8-1.5,1.4-2
			c0.6-0.5,1.4-0.7,2.2-0.7s1.6,0.2,2.2,0.7c0.6,0.5,1.1,1.2,1.4,2s0.5,1.9,0.5,3c0,1.1-0.2,2.1-0.5,3c-0.3,0.9-0.8,1.5-1.4,2
			c-0.6,0.5-1.4,0.7-2.2,0.7S331.6,1158.9,331,1158.4z M335.1,1156.5c0.4-0.7,0.6-1.8,0.6-3.1c0-1.3-0.2-2.4-0.6-3.1
			c-0.4-0.7-1-1.1-1.8-1.1c-0.8,0-1.4,0.4-1.8,1.1c-0.4,0.7-0.6,1.8-0.6,3.1c0,1.3,0.2,2.4,0.6,3.1c0.4,0.7,1,1.1,1.8,1.1
			C334,1157.6,334.6,1157.3,335.1,1156.5z"/>
		<path d="M356.1,1154v4.3c0,0.2-0.1,0.4-0.2,0.6c-0.1,0.1-0.3,0.2-0.5,0.2c-0.2,0-0.4-0.1-0.6-0.2s-0.2-0.3-0.2-0.5v-4.3
			c0-1.4-0.6-2.1-1.8-2.1c-0.4,0-0.8,0.1-1.1,0.3s-0.6,0.4-0.8,0.8c-0.2,0.3-0.3,0.7-0.3,1.1v4.3c0,0.2-0.1,0.4-0.2,0.5
			c-0.1,0.1-0.3,0.2-0.6,0.2c-0.2,0-0.4-0.1-0.5-0.2c-0.1-0.1-0.2-0.3-0.2-0.6v-4.3c0-0.6-0.1-1.1-0.4-1.5s-0.7-0.6-1.3-0.6
			c-0.6,0-1.1,0.2-1.6,0.6c-0.4,0.4-0.6,0.9-0.6,1.5v4.3c0,0.2-0.1,0.4-0.2,0.5c-0.1,0.1-0.3,0.2-0.6,0.2c-0.2,0-0.4-0.1-0.5-0.2
			c-0.1-0.1-0.2-0.3-0.2-0.6v-6.8c0-0.2,0.1-0.4,0.2-0.5c0.1-0.1,0.3-0.2,0.5-0.2c0.2,0,0.4,0.1,0.6,0.2c0.1,0.1,0.2,0.3,0.2,0.5
			v0.6c0.3-0.4,0.6-0.8,1.1-1c0.5-0.3,1-0.4,1.5-0.4c1.3,0,2.2,0.6,2.6,1.8c0.2-0.4,0.6-0.9,1.2-1.2c0.5-0.4,1.1-0.5,1.7-0.5
			C355.1,1150.5,356.1,1151.6,356.1,1154z"/>
		<path d="M358.4,1149.3c-0.1-0.1-0.2-0.3-0.2-0.5v-0.3c0-0.3,0.1-0.4,0.2-0.5c0.1-0.1,0.4-0.2,0.7-0.2c0.3,0,0.5,0.1,0.6,0.2
			c0.1,0.1,0.2,0.3,0.2,0.5v0.3c0,0.3-0.1,0.4-0.2,0.5s-0.4,0.2-0.7,0.2C358.7,1149.5,358.5,1149.4,358.4,1149.3z M359.6,1158.8
			c-0.1,0.1-0.3,0.2-0.6,0.2c-0.2,0-0.4-0.1-0.5-0.2s-0.2-0.3-0.2-0.5v-6.9c0-0.2,0.1-0.4,0.2-0.5s0.3-0.2,0.5-0.2
			c0.2,0,0.4,0.1,0.6,0.2s0.2,0.3,0.2,0.5v6.9C359.8,1158.4,359.7,1158.6,359.6,1158.8z"/>
		<path d="M369.1,1153.9v4.4c0,0.2-0.1,0.4-0.2,0.5c-0.1,0.1-0.3,0.2-0.6,0.2c-0.2,0-0.4-0.1-0.5-0.2s-0.2-0.3-0.2-0.5v-4.3
			c0-0.6-0.1-1.1-0.4-1.5c-0.3-0.4-0.8-0.6-1.4-0.6c-0.4,0-0.8,0.1-1.2,0.3s-0.6,0.4-0.8,0.8c-0.2,0.3-0.3,0.7-0.3,1v4.3
			c0,0.2-0.1,0.4-0.2,0.5s-0.3,0.2-0.6,0.2c-0.2,0-0.4-0.1-0.5-0.2c-0.1-0.1-0.2-0.3-0.2-0.6v-6.8c0-0.2,0.1-0.4,0.2-0.5
			s0.3-0.2,0.5-0.2c0.2,0,0.4,0.1,0.6,0.2s0.2,0.3,0.2,0.5v0.6c0.3-0.4,0.7-0.8,1.2-1.1c0.5-0.3,1-0.4,1.6-0.4
			C368.2,1150.4,369.1,1151.6,369.1,1153.9z"/>
		<path d="M383.2,1150.7c0.1,0.1,0.2,0.3,0.2,0.6v6.9c0,0.2-0.1,0.4-0.2,0.5c-0.1,0.1-0.3,0.2-0.6,0.2c-0.2,0-0.4-0.1-0.5-0.2
			c-0.1-0.1-0.2-0.3-0.2-0.6v-0.4c-0.3,0.4-0.7,0.7-1.1,1c-0.5,0.3-1,0.4-1.6,0.4c-0.7,0-1.4-0.2-2-0.6c-0.6-0.4-1.1-0.9-1.4-1.6
			s-0.5-1.4-0.5-2.2s0.2-1.6,0.5-2.2c0.3-0.7,0.8-1.2,1.4-1.6c0.6-0.4,1.2-0.6,1.9-0.6c0.6,0,1.1,0.1,1.6,0.4
			c0.5,0.2,0.9,0.5,1.2,0.9v-0.4c0-0.2,0.1-0.4,0.2-0.6c0.1-0.1,0.3-0.2,0.5-0.2C382.9,1150.5,383.1,1150.6,383.2,1150.7z
			 M380.7,1157.4c0.4-0.3,0.7-0.6,0.9-1.1c0.2-0.4,0.3-1,0.3-1.5c0-0.6-0.1-1.1-0.3-1.5s-0.5-0.8-0.9-1.1c-0.4-0.3-0.8-0.4-1.3-0.4
			s-0.9,0.1-1.3,0.4s-0.7,0.6-0.9,1.1c-0.2,0.4-0.3,1-0.3,1.5s0.1,1.1,0.3,1.5c0.2,0.4,0.5,0.8,0.9,1.1s0.8,0.4,1.3,0.4
			S380.3,1157.6,380.7,1157.4z"/>
		<path d="M393.2,1150.7c0.1,0.1,0.2,0.3,0.2,0.6v7c0,0.9-0.2,1.6-0.6,2.2c-0.4,0.6-0.9,1-1.5,1.3c-0.6,0.3-1.3,0.4-2.1,0.4
			c-0.4,0-0.9-0.1-1.5-0.2c-0.6-0.1-0.9-0.3-1.1-0.5c-0.3-0.2-0.5-0.4-0.5-0.6c0-0.1,0-0.1,0.1-0.3c0.1-0.3,0.3-0.4,0.6-0.4
			c0.1,0,0.3,0,0.4,0.1c0.9,0.3,1.5,0.5,2,0.5c0.9,0,1.5-0.2,2-0.6c0.5-0.4,0.7-1,0.7-1.7v-0.9c-0.2,0.4-0.6,0.8-1.1,1.1
			c-0.5,0.3-1.1,0.4-1.7,0.4c-0.7,0-1.4-0.2-2-0.6c-0.6-0.4-1.1-0.9-1.4-1.6c-0.3-0.7-0.5-1.4-0.5-2.2s0.2-1.6,0.5-2.2
			c0.3-0.7,0.8-1.2,1.4-1.6c0.6-0.4,1.3-0.6,2-0.6c0.6,0,1.1,0.1,1.6,0.4c0.5,0.3,0.9,0.6,1.2,1v-0.5c0-0.2,0.1-0.4,0.2-0.6
			c0.1-0.1,0.3-0.2,0.5-0.2C392.9,1150.5,393.1,1150.6,393.2,1150.7z M390.7,1157.4c0.4-0.3,0.7-0.6,1-1.1c0.2-0.5,0.3-1,0.3-1.5
			s-0.1-1.1-0.3-1.5c-0.2-0.4-0.5-0.8-1-1.1s-0.9-0.4-1.4-0.4c-0.5,0-1,0.1-1.4,0.4c-0.4,0.3-0.7,0.6-1,1.1c-0.2,0.5-0.3,1-0.3,1.5
			s0.1,1.1,0.3,1.5c0.2,0.5,0.5,0.8,1,1.1c0.4,0.3,0.9,0.4,1.4,0.4C389.8,1157.7,390.3,1157.6,390.7,1157.4z"/>
		<path d="M402.8,1157c-0.4,0.7-0.9,1.2-1.5,1.6c-0.6,0.4-1.4,0.6-2.1,0.6s-1.5-0.2-2.1-0.6c-0.6-0.4-1.2-0.9-1.5-1.6
			c-0.4-0.7-0.6-1.4-0.6-2.2s0.2-1.6,0.6-2.3c0.4-0.7,0.9-1.2,1.5-1.6c0.6-0.4,1.4-0.6,2.1-0.6s1.5,0.2,2.1,0.6
			c0.6,0.4,1.2,0.9,1.5,1.6c0.4,0.7,0.6,1.4,0.6,2.3S403.1,1156.4,402.8,1157z M401.4,1153.3c-0.2-0.5-0.6-0.8-1-1.1
			c-0.4-0.3-0.9-0.4-1.4-0.4s-1,0.1-1.4,0.4s-0.7,0.6-1,1.1c-0.2,0.5-0.4,1-0.4,1.5c0,0.6,0.1,1.1,0.4,1.5c0.2,0.4,0.6,0.8,1,1
			c0.4,0.3,0.9,0.4,1.4,0.4s1-0.1,1.4-0.4c0.4-0.3,0.7-0.6,1-1c0.2-0.4,0.4-1,0.4-1.5C401.8,1154.2,401.7,1153.7,401.4,1153.3z"/>
	</g>
</g>
<g>
	<g>
		<path d="M1082,1148c0.1,0.1,0.2,0.3,0.2,0.5v9.7c0,0.2-0.1,0.4-0.2,0.5c-0.2,0.1-0.4,0.2-0.6,0.2s-0.4-0.1-0.6-0.2
			c-0.1-0.2-0.2-0.3-0.2-0.5v-8.3l-1.4,0.8c-0.1,0.1-0.3,0.1-0.4,0.1c-0.2,0-0.4-0.1-0.5-0.2c-0.1-0.2-0.2-0.3-0.2-0.5
			c0-0.1,0-0.3,0.1-0.4c0.1-0.1,0.2-0.2,0.3-0.3l2.5-1.5c0.1-0.1,0.3-0.1,0.6-0.1C1081.6,1147.8,1081.8,1147.9,1082,1148z"/>
		<path d="M1089.6,1152c0.6,0.3,1,0.8,1.3,1.3c0.3,0.6,0.5,1.2,0.5,1.9c0,0.7-0.2,1.4-0.6,2c-0.4,0.6-0.9,1.1-1.6,1.4
			c-0.7,0.3-1.4,0.5-2.2,0.5c-0.4,0-0.9-0.1-1.3-0.2c-0.4-0.1-0.8-0.3-1.1-0.6c-0.1-0.1-0.2-0.2-0.3-0.3s-0.1-0.3-0.1-0.4
			c0-0.2,0.1-0.3,0.2-0.4c0.1-0.1,0.3-0.2,0.5-0.2c0.1,0,0.3,0.1,0.6,0.2c0.5,0.4,1,0.5,1.5,0.5c0.5,0,1-0.1,1.4-0.3
			c0.4-0.2,0.8-0.5,1-0.9c0.2-0.4,0.4-0.8,0.4-1.3c0-0.7-0.2-1.2-0.7-1.6c-0.4-0.4-1-0.6-1.7-0.6c-0.3,0-0.5,0-0.8,0.1
			c-0.2,0.1-0.5,0.2-0.8,0.3c-0.1,0.1-0.3,0.1-0.4,0.2c-0.1,0-0.2,0.1-0.3,0.1c-0.3,0-0.5-0.1-0.7-0.3c-0.2-0.2-0.2-0.4-0.2-0.6
			l0-0.2l0.6-4.1c0-0.2,0.1-0.3,0.3-0.4c0.1-0.1,0.3-0.2,0.5-0.2h4.7c0.2,0,0.4,0.1,0.5,0.2c0.1,0.1,0.2,0.3,0.2,0.5
			c0,0.2-0.1,0.4-0.2,0.5c-0.1,0.1-0.3,0.2-0.5,0.2h-4.2l-0.4,2.7c0.2-0.1,0.5-0.2,0.9-0.3s0.7-0.1,1-0.1
			C1088.4,1151.5,1089.1,1151.7,1089.6,1152z"/>
		<path d="M1110.5,1154v4.3c0,0.2-0.1,0.4-0.2,0.6c-0.1,0.1-0.3,0.2-0.5,0.2s-0.4-0.1-0.6-0.2c-0.1-0.2-0.2-0.3-0.2-0.5v-4.3
			c0-1.4-0.6-2.1-1.8-2.1c-0.4,0-0.8,0.1-1.1,0.3c-0.3,0.2-0.6,0.4-0.8,0.8c-0.2,0.3-0.3,0.7-0.3,1.1v4.3c0,0.2-0.1,0.4-0.2,0.5
			c-0.1,0.1-0.3,0.2-0.6,0.2c-0.2,0-0.4-0.1-0.5-0.2c-0.1-0.1-0.2-0.3-0.2-0.6v-4.3c0-0.6-0.1-1.1-0.4-1.5c-0.3-0.4-0.7-0.6-1.3-0.6
			c-0.6,0-1.1,0.2-1.6,0.6c-0.4,0.4-0.6,0.9-0.6,1.5v4.3c0,0.2-0.1,0.4-0.2,0.5c-0.1,0.1-0.3,0.2-0.6,0.2c-0.2,0-0.4-0.1-0.5-0.2
			c-0.1-0.1-0.2-0.3-0.2-0.6v-6.8c0-0.2,0.1-0.4,0.2-0.5c0.1-0.1,0.3-0.2,0.5-0.2c0.2,0,0.4,0.1,0.6,0.2c0.1,0.2,0.2,0.3,0.2,0.5
			v0.6c0.3-0.4,0.6-0.8,1.1-1c0.5-0.3,1-0.4,1.5-0.4c1.3,0,2.2,0.6,2.6,1.8c0.2-0.4,0.6-0.9,1.2-1.2c0.5-0.4,1.1-0.5,1.7-0.5
			C1109.6,1150.5,1110.5,1151.6,1110.5,1154z"/>
		<path d="M1112.8,1149.3c-0.1-0.1-0.2-0.3-0.2-0.5v-0.3c0-0.3,0.1-0.4,0.2-0.5c0.1-0.1,0.4-0.2,0.7-0.2s0.5,0.1,0.6,0.2
			c0.1,0.1,0.2,0.3,0.2,0.5v0.3c0,0.3-0.1,0.4-0.2,0.5c-0.1,0.1-0.4,0.2-0.7,0.2C1113.2,1149.5,1113,1149.4,1112.8,1149.3z
			 M1114,1158.8c-0.1,0.1-0.3,0.2-0.6,0.2c-0.2,0-0.4-0.1-0.5-0.2c-0.1-0.2-0.2-0.3-0.2-0.5v-6.9c0-0.2,0.1-0.4,0.2-0.5
			c0.1-0.1,0.3-0.2,0.5-0.2c0.2,0,0.4,0.1,0.6,0.2c0.1,0.2,0.2,0.3,0.2,0.5v6.9C1114.3,1158.4,1114.2,1158.6,1114,1158.8z"/>
		<path d="M1123.6,1153.9v4.4c0,0.2-0.1,0.4-0.2,0.5c-0.1,0.1-0.3,0.2-0.6,0.2c-0.2,0-0.4-0.1-0.5-0.2c-0.1-0.2-0.2-0.3-0.2-0.5
			v-4.3c0-0.6-0.1-1.1-0.4-1.5c-0.3-0.4-0.8-0.6-1.4-0.6c-0.4,0-0.8,0.1-1.2,0.3c-0.3,0.2-0.6,0.4-0.8,0.8s-0.3,0.7-0.3,1v4.3
			c0,0.2-0.1,0.4-0.2,0.5c-0.1,0.1-0.3,0.2-0.6,0.2s-0.4-0.1-0.5-0.2c-0.1-0.1-0.2-0.3-0.2-0.6v-6.8c0-0.2,0.1-0.4,0.2-0.5
			c0.1-0.1,0.3-0.2,0.5-0.2c0.2,0,0.4,0.1,0.6,0.2c0.1,0.2,0.2,0.3,0.2,0.5v0.6c0.3-0.4,0.7-0.8,1.2-1.1c0.5-0.3,1-0.4,1.6-0.4
			C1122.6,1150.4,1123.6,1151.6,1123.6,1153.9z"/>
		<path d="M1137.7,1150.7c0.1,0.1,0.2,0.3,0.2,0.6v6.9c0,0.2-0.1,0.4-0.2,0.5c-0.1,0.1-0.3,0.2-0.6,0.2c-0.2,0-0.4-0.1-0.5-0.2
			c-0.1-0.1-0.2-0.3-0.2-0.6v-0.4c-0.3,0.4-0.7,0.7-1.1,1c-0.5,0.3-1,0.4-1.6,0.4c-0.7,0-1.4-0.2-2-0.6c-0.6-0.4-1.1-0.9-1.4-1.6
			c-0.3-0.7-0.5-1.4-0.5-2.2s0.2-1.6,0.5-2.2s0.8-1.2,1.4-1.6c0.6-0.4,1.2-0.6,1.9-0.6c0.6,0,1.1,0.1,1.6,0.4
			c0.5,0.2,0.9,0.5,1.2,0.9v-0.4c0-0.2,0.1-0.4,0.2-0.6c0.1-0.1,0.3-0.2,0.5-0.2C1137.3,1150.5,1137.5,1150.6,1137.7,1150.7z
			 M1135.2,1157.4c0.4-0.3,0.7-0.6,0.9-1.1s0.3-1,0.3-1.5c0-0.6-0.1-1.1-0.3-1.5c-0.2-0.4-0.5-0.8-0.9-1.1c-0.4-0.3-0.8-0.4-1.3-0.4
			s-0.9,0.1-1.3,0.4c-0.4,0.3-0.7,0.6-0.9,1.1c-0.2,0.4-0.3,1-0.3,1.5c0,0.6,0.1,1.1,0.3,1.5s0.5,0.8,0.9,1.1
			c0.4,0.3,0.8,0.4,1.3,0.4S1134.8,1157.6,1135.2,1157.4z"/>
		<path d="M1147.7,1150.7c0.1,0.1,0.2,0.3,0.2,0.6v7c0,0.9-0.2,1.6-0.6,2.2c-0.4,0.6-0.9,1-1.5,1.3c-0.6,0.3-1.3,0.4-2.1,0.4
			c-0.4,0-0.9-0.1-1.5-0.2c-0.6-0.2-0.9-0.3-1.1-0.5c-0.3-0.2-0.5-0.4-0.5-0.6c0-0.1,0-0.2,0.1-0.3c0.1-0.3,0.3-0.4,0.6-0.4
			c0.1,0,0.3,0,0.4,0.1c0.9,0.3,1.5,0.5,2,0.5c0.9,0,1.5-0.2,2-0.6c0.5-0.4,0.7-1,0.7-1.7v-0.9c-0.2,0.4-0.6,0.8-1.1,1.1
			c-0.5,0.3-1.1,0.4-1.7,0.4c-0.7,0-1.4-0.2-2-0.6c-0.6-0.4-1.1-0.9-1.4-1.6c-0.3-0.7-0.5-1.4-0.5-2.2s0.2-1.6,0.5-2.2
			c0.3-0.7,0.8-1.2,1.4-1.6c0.6-0.4,1.3-0.6,2-0.6c0.6,0,1.1,0.1,1.6,0.4c0.5,0.3,0.9,0.6,1.2,1v-0.5c0-0.2,0.1-0.4,0.2-0.6
			c0.1-0.1,0.3-0.2,0.5-0.2C1147.4,1150.5,1147.5,1150.6,1147.7,1150.7z M1145.1,1157.4c0.4-0.3,0.7-0.6,1-1.1
			c0.2-0.5,0.3-1,0.3-1.5c0-0.6-0.1-1.1-0.3-1.5c-0.2-0.4-0.5-0.8-1-1.1c-0.4-0.3-0.9-0.4-1.4-0.4c-0.5,0-1,0.1-1.4,0.4
			c-0.4,0.3-0.7,0.6-1,1.1c-0.2,0.5-0.3,1-0.3,1.5s0.1,1.1,0.3,1.5c0.2,0.5,0.5,0.8,1,1.1c0.4,0.3,0.9,0.4,1.4,0.4
			C1144.3,1157.7,1144.7,1157.6,1145.1,1157.4z"/>
		<path d="M1157.2,1157c-0.4,0.7-0.9,1.2-1.5,1.6c-0.6,0.4-1.4,0.6-2.1,0.6c-0.8,0-1.5-0.2-2.1-0.6c-0.6-0.4-1.2-0.9-1.5-1.6
			s-0.6-1.4-0.6-2.2s0.2-1.6,0.6-2.3s0.9-1.2,1.5-1.6c0.6-0.4,1.4-0.6,2.1-0.6c0.8,0,1.5,0.2,2.1,0.6s1.2,0.9,1.5,1.6
			s0.6,1.4,0.6,2.3S1157.6,1156.4,1157.2,1157z M1155.9,1153.3c-0.2-0.5-0.6-0.8-1-1.1c-0.4-0.3-0.9-0.4-1.4-0.4
			c-0.5,0-1,0.1-1.4,0.4c-0.4,0.3-0.7,0.6-1,1.1c-0.2,0.5-0.4,1-0.4,1.5c0,0.6,0.1,1.1,0.4,1.5c0.2,0.4,0.6,0.8,1,1s0.9,0.4,1.4,0.4
			c0.5,0,1-0.1,1.4-0.4c0.4-0.3,0.7-0.6,1-1c0.2-0.4,0.4-1,0.4-1.5C1156.3,1154.2,1156.1,1153.7,1155.9,1153.3z"/>
	</g>
</g>
<g>
	<g>
		<path d="M1463.6,1148c0.1,0.1,0.2,0.3,0.2,0.5v9.7c0,0.2-0.1,0.4-0.2,0.5c-0.2,0.2-0.4,0.2-0.6,0.2c-0.2,0-0.4-0.1-0.6-0.2
			c-0.1-0.1-0.2-0.3-0.2-0.5v-8.3l-1.4,0.8c-0.1,0.1-0.3,0.1-0.4,0.1c-0.2,0-0.4-0.1-0.5-0.2c-0.2-0.2-0.2-0.3-0.2-0.5
			c0-0.1,0-0.3,0.1-0.4c0.1-0.1,0.2-0.2,0.3-0.3l2.5-1.5c0.1-0.1,0.3-0.1,0.6-0.1C1463.3,1147.7,1463.5,1147.8,1463.6,1148z"/>
		<path d="M1467.8,1158.3c-0.6-0.5-1.1-1.2-1.4-2c-0.3-0.9-0.5-1.9-0.5-3c0-1.1,0.2-2.1,0.5-3c0.3-0.9,0.8-1.5,1.4-2
			c0.6-0.5,1.4-0.7,2.2-0.7c0.9,0,1.6,0.2,2.2,0.7c0.6,0.5,1.1,1.2,1.4,2c0.3,0.9,0.5,1.9,0.5,3c0,1.1-0.2,2.1-0.5,3
			c-0.3,0.9-0.8,1.5-1.4,2s-1.4,0.7-2.2,0.7C1469.1,1159.1,1468.4,1158.8,1467.8,1158.3z M1471.8,1156.4c0.4-0.7,0.6-1.8,0.6-3.1
			c0-1.3-0.2-2.4-0.6-3.1s-1-1.1-1.8-1.1c-0.8,0-1.4,0.4-1.8,1.1s-0.6,1.8-0.6,3.1c0,1.3,0.2,2.4,0.6,3.1s1,1.1,1.8,1.1
			C1470.8,1157.5,1471.4,1157.2,1471.8,1156.4z"/>
		<path d="M1492.8,1153.9v4.3c0,0.2-0.1,0.4-0.2,0.6s-0.3,0.2-0.5,0.2s-0.4-0.1-0.6-0.2c-0.1-0.1-0.2-0.3-0.2-0.5v-4.3
			c0-1.4-0.6-2.1-1.8-2.1c-0.4,0-0.8,0.1-1.1,0.3c-0.3,0.2-0.6,0.4-0.8,0.8c-0.2,0.3-0.3,0.7-0.3,1.1v4.3c0,0.2-0.1,0.4-0.2,0.5
			c-0.1,0.2-0.3,0.2-0.6,0.2c-0.2,0-0.4-0.1-0.5-0.2s-0.2-0.3-0.2-0.6v-4.3c0-0.6-0.1-1.1-0.4-1.5c-0.3-0.4-0.7-0.6-1.3-0.6
			c-0.6,0-1.1,0.2-1.6,0.6c-0.4,0.4-0.6,0.9-0.6,1.5v4.3c0,0.2-0.1,0.4-0.2,0.5c-0.1,0.2-0.3,0.2-0.6,0.2c-0.2,0-0.4-0.1-0.5-0.2
			s-0.2-0.3-0.2-0.6v-6.8c0-0.2,0.1-0.4,0.2-0.5c0.1-0.2,0.3-0.2,0.5-0.2c0.2,0,0.4,0.1,0.6,0.2c0.1,0.1,0.2,0.3,0.2,0.5v0.6
			c0.3-0.4,0.6-0.8,1.1-1c0.5-0.3,1-0.4,1.5-0.4c1.3,0,2.2,0.6,2.6,1.8c0.2-0.4,0.6-0.9,1.2-1.2c0.5-0.4,1.1-0.5,1.7-0.5
			C1491.9,1150.4,1492.8,1151.6,1492.8,1153.9z"/>
		<path d="M1495.1,1149.2c-0.1-0.1-0.2-0.3-0.2-0.5v-0.3c0-0.3,0.1-0.4,0.2-0.5c0.1-0.1,0.4-0.2,0.7-0.2s0.5,0.1,0.6,0.2
			c0.1,0.1,0.2,0.3,0.2,0.5v0.3c0,0.3-0.1,0.4-0.2,0.5c-0.1,0.1-0.4,0.2-0.7,0.2C1495.5,1149.4,1495.2,1149.3,1495.1,1149.2z
			 M1496.3,1158.7c-0.1,0.2-0.3,0.2-0.6,0.2c-0.2,0-0.4-0.1-0.5-0.2c-0.1-0.1-0.2-0.3-0.2-0.5v-6.9c0-0.2,0.1-0.4,0.2-0.5
			c0.1-0.2,0.3-0.2,0.5-0.2c0.2,0,0.4,0.1,0.6,0.2c0.1,0.1,0.2,0.3,0.2,0.5v6.9C1496.5,1158.4,1496.5,1158.6,1496.3,1158.7z"/>
		<path d="M1505.9,1153.8v4.4c0,0.2-0.1,0.4-0.2,0.5c-0.1,0.2-0.3,0.2-0.6,0.2c-0.2,0-0.4-0.1-0.5-0.2c-0.1-0.1-0.2-0.3-0.2-0.5
			v-4.3c0-0.6-0.1-1.1-0.4-1.5c-0.3-0.4-0.8-0.6-1.4-0.6c-0.4,0-0.8,0.1-1.2,0.3c-0.3,0.2-0.6,0.4-0.8,0.8s-0.3,0.7-0.3,1v4.3
			c0,0.2-0.1,0.4-0.2,0.5c-0.1,0.2-0.3,0.2-0.6,0.2s-0.4-0.1-0.5-0.2s-0.2-0.3-0.2-0.6v-6.8c0-0.2,0.1-0.4,0.2-0.5
			c0.1-0.2,0.3-0.2,0.5-0.2c0.2,0,0.4,0.1,0.6,0.2c0.1,0.1,0.2,0.3,0.2,0.5v0.6c0.3-0.4,0.7-0.8,1.2-1.1s1-0.4,1.6-0.4
			C1504.9,1150.3,1505.9,1151.5,1505.9,1153.8z"/>
		<path d="M1519.9,1150.6c0.1,0.1,0.2,0.3,0.2,0.6v6.9c0,0.2-0.1,0.4-0.2,0.5c-0.1,0.2-0.3,0.2-0.6,0.2c-0.2,0-0.4-0.1-0.5-0.2
			c-0.1-0.1-0.2-0.3-0.2-0.6v-0.4c-0.3,0.4-0.7,0.7-1.1,1s-1,0.4-1.6,0.4c-0.7,0-1.4-0.2-2-0.6s-1.1-0.9-1.4-1.6
			c-0.3-0.7-0.5-1.4-0.5-2.2s0.2-1.6,0.5-2.2c0.3-0.7,0.8-1.2,1.4-1.6c0.6-0.4,1.2-0.6,1.9-0.6c0.6,0,1.1,0.1,1.6,0.4
			c0.5,0.2,0.9,0.5,1.2,0.9v-0.4c0-0.2,0.1-0.4,0.2-0.6c0.1-0.1,0.3-0.2,0.5-0.2C1519.6,1150.4,1519.8,1150.5,1519.9,1150.6z
			 M1517.5,1157.3c0.4-0.3,0.7-0.6,0.9-1.1c0.2-0.4,0.3-1,0.3-1.5c0-0.6-0.1-1.1-0.3-1.5c-0.2-0.4-0.5-0.8-0.9-1.1
			c-0.4-0.3-0.8-0.4-1.3-0.4s-0.9,0.1-1.3,0.4c-0.4,0.3-0.7,0.6-0.9,1.1s-0.3,1-0.3,1.5c0,0.6,0.1,1.1,0.3,1.5
			c0.2,0.4,0.5,0.8,0.9,1.1c0.4,0.3,0.8,0.4,1.3,0.4S1517.1,1157.5,1517.5,1157.3z"/>
		<path d="M1530,1150.6c0.1,0.1,0.2,0.3,0.2,0.6v7c0,0.9-0.2,1.6-0.6,2.2c-0.4,0.6-0.9,1-1.5,1.3c-0.6,0.3-1.3,0.4-2.1,0.4
			c-0.4,0-0.9-0.1-1.5-0.2c-0.6-0.1-0.9-0.3-1.1-0.5c-0.3-0.2-0.5-0.4-0.5-0.6c0-0.1,0-0.1,0.1-0.3c0.1-0.3,0.3-0.4,0.6-0.4
			c0.1,0,0.3,0,0.4,0.1c0.9,0.3,1.5,0.5,2,0.5c0.9,0,1.5-0.2,2-0.6c0.5-0.4,0.7-1,0.7-1.7v-0.9c-0.2,0.4-0.6,0.8-1.1,1.1
			c-0.5,0.3-1.1,0.4-1.7,0.4c-0.7,0-1.4-0.2-2-0.6c-0.6-0.4-1.1-0.9-1.4-1.6c-0.3-0.7-0.5-1.4-0.5-2.2s0.2-1.6,0.5-2.2
			c0.3-0.7,0.8-1.2,1.4-1.6c0.6-0.4,1.3-0.6,2-0.6c0.6,0,1.1,0.1,1.6,0.4c0.5,0.3,0.9,0.6,1.2,1v-0.5c0-0.2,0.1-0.4,0.2-0.6
			c0.1-0.1,0.3-0.2,0.5-0.2C1529.6,1150.4,1529.8,1150.5,1530,1150.6z M1527.4,1157.3c0.4-0.3,0.7-0.6,1-1.1c0.2-0.5,0.3-1,0.3-1.5
			c0-0.6-0.1-1.1-0.3-1.5c-0.2-0.4-0.5-0.8-1-1.1c-0.4-0.3-0.9-0.4-1.4-0.4c-0.5,0-1,0.1-1.4,0.4c-0.4,0.3-0.7,0.6-1,1.1
			c-0.2,0.5-0.3,1-0.3,1.5s0.1,1.1,0.3,1.5c0.2,0.5,0.5,0.8,1,1.1c0.4,0.3,0.9,0.4,1.4,0.4C1526.6,1157.7,1527,1157.6,1527.4,1157.3
			z"/>
		<path d="M1539.5,1157c-0.4,0.7-0.9,1.2-1.5,1.6s-1.4,0.6-2.1,0.6c-0.8,0-1.5-0.2-2.1-0.6c-0.6-0.4-1.2-0.9-1.5-1.6
			c-0.4-0.7-0.6-1.4-0.6-2.2s0.2-1.6,0.6-2.3s0.9-1.2,1.5-1.6c0.6-0.4,1.4-0.6,2.1-0.6c0.8,0,1.5,0.2,2.1,0.6
			c0.6,0.4,1.2,0.9,1.5,1.6s0.6,1.4,0.6,2.3S1539.9,1156.3,1539.5,1157z M1538.2,1153.2c-0.2-0.5-0.6-0.8-1-1.1
			c-0.4-0.3-0.9-0.4-1.4-0.4c-0.5,0-1,0.1-1.4,0.4c-0.4,0.3-0.7,0.6-1,1.1s-0.4,1-0.4,1.5c0,0.6,0.1,1.1,0.4,1.5
			c0.2,0.4,0.6,0.8,1,1c0.4,0.3,0.9,0.4,1.4,0.4c0.5,0,1-0.1,1.4-0.4c0.4-0.3,0.7-0.6,1-1c0.2-0.4,0.4-1,0.4-1.5
			C1538.5,1154.2,1538.4,1153.6,1538.2,1153.2z"/>
	</g>
</g>
<g>
	<g>
		<path d="M577.1,683.8c-0.3-0.3-0.5-0.6-0.5-1.1c-0.3,0.5-0.7,0.9-1.2,1.2c-0.5,0.2-0.9,0.4-1.5,0.4c-0.4,0-0.8-0.1-1.2-0.3
			c-0.4-0.2-0.6-0.5-0.9-0.9c-0.2-0.4-0.3-0.9-0.3-1.4c0-0.7,0.2-1.4,0.5-2.1s0.8-1.3,1.4-1.8c0.6-0.5,1.2-0.7,1.9-0.7
			c0.4,0,0.8,0.1,1.2,0.4c0.3,0.2,0.6,0.6,0.7,1l0.1-0.7c0-0.1,0.1-0.3,0.2-0.4s0.3-0.2,0.5-0.2c0.4,0,0.7,0.2,0.7,0.6
			c0,0.1,0,0.2,0,0.2l-0.7,4.4c0,0.1,0,0.1,0,0.2c0,0.3,0.1,0.5,0.2,0.6c0.1,0.1,0.3,0.2,0.5,0.2c0.4,0,0.9-0.2,1.3-0.6
			c0.4-0.4,0.7-1,0.9-1.7s0.3-1.4,0.3-2.1c0-0.8-0.2-1.5-0.6-2.1s-0.9-1.1-1.6-1.4c-0.7-0.3-1.5-0.5-2.4-0.5c-1.4,0-2.7,0.3-3.8,0.8
			c-1.1,0.6-2,1.4-2.7,2.4c-0.7,1.1-1,2.3-1,3.7c0,0.9,0.2,1.6,0.5,2.4c0.3,0.7,0.9,1.3,1.6,1.8c0.7,0.5,1.7,0.7,2.8,0.7
			c0.8,0,1.4-0.1,1.9-0.2c0.5-0.1,1.1-0.4,1.7-0.7c0.1-0.1,0.2-0.1,0.3-0.1c0.2,0,0.3,0.1,0.4,0.3c0,0,0,0.1,0,0.2
			c0,0.2-0.2,0.4-0.5,0.5c-0.7,0.3-1.3,0.6-1.8,0.8s-1.2,0.3-2,0.3c-1.4,0-2.5-0.3-3.4-0.8c-0.9-0.6-1.6-1.3-2-2.2s-0.6-1.9-0.6-2.9
			c0-1.6,0.4-3,1.1-4.3c0.8-1.2,1.8-2.2,3.1-2.8c1.3-0.7,2.8-1,4.4-1c1.2,0,2.2,0.2,3,0.7c0.8,0.4,1.5,1.1,1.9,1.8
			c0.4,0.8,0.6,1.6,0.6,2.5c0,0.9-0.2,1.7-0.5,2.6s-0.8,1.5-1.4,2.1s-1.3,0.8-2.1,0.8C577.9,684.2,577.5,684.1,577.1,683.8z
			 M575.5,682.6c0.4-0.3,0.7-0.6,0.9-1c0.2-0.4,0.4-0.8,0.4-1.2c0.1-0.3,0.1-0.6,0.1-0.9c0-0.5-0.1-0.9-0.4-1.1s-0.6-0.4-1.1-0.4
			c-0.5,0-0.9,0.2-1.3,0.5c-0.4,0.4-0.7,0.8-0.9,1.3s-0.3,1-0.3,1.5c0,0.5,0.1,0.8,0.4,1.1c0.2,0.3,0.5,0.4,0.9,0.4
			C574.8,683,575.2,682.9,575.5,682.6z"/>
		<path d="M594.7,674.1c0.1,0.1,0.2,0.3,0.2,0.5v9.7c0,0.2-0.1,0.4-0.2,0.5c-0.1,0.1-0.3,0.2-0.6,0.2c-0.2,0-0.4-0.1-0.6-0.2
			c-0.1-0.1-0.2-0.3-0.2-0.6v-7.4l-3.1,4.7c-0.1,0.1-0.2,0.2-0.3,0.2c-0.1,0.1-0.2,0.1-0.3,0.1c-0.1,0-0.2,0-0.3-0.1
			c-0.1-0.1-0.2-0.1-0.3-0.2l-3.1-4.8v7.6c0,0.2-0.1,0.4-0.2,0.6c-0.1,0.1-0.3,0.2-0.5,0.2c-0.2,0-0.4-0.1-0.5-0.2
			c-0.1-0.1-0.2-0.3-0.2-0.6v-9.7c0-0.2,0.1-0.4,0.2-0.5c0.1-0.2,0.3-0.2,0.6-0.2c0.1,0,0.3,0,0.4,0.1c0.1,0.1,0.2,0.1,0.3,0.3
			l3.8,5.7l3.8-5.7c0.2-0.2,0.4-0.4,0.6-0.4C594.4,673.9,594.5,673.9,594.7,674.1z"/>
		<path d="M604.7,676.8c0.1,0.1,0.2,0.3,0.2,0.6v6.9c0,0.2-0.1,0.4-0.2,0.5s-0.3,0.2-0.6,0.2s-0.4-0.1-0.5-0.2
			c-0.1-0.1-0.2-0.3-0.2-0.6v-0.4c-0.3,0.4-0.7,0.7-1.1,1c-0.5,0.3-1,0.4-1.6,0.4c-0.7,0-1.4-0.2-2-0.6c-0.6-0.4-1.1-0.9-1.4-1.6
			s-0.5-1.4-0.5-2.2s0.2-1.6,0.5-2.2c0.3-0.7,0.8-1.2,1.4-1.6c0.6-0.4,1.2-0.6,1.9-0.6c0.6,0,1.1,0.1,1.6,0.4
			c0.5,0.2,0.9,0.5,1.2,0.9v-0.4c0-0.2,0.1-0.4,0.2-0.6c0.1-0.1,0.3-0.2,0.5-0.2S604.6,676.7,604.7,676.8z M602.3,683.4
			c0.4-0.3,0.7-0.6,0.9-1.1c0.2-0.4,0.3-1,0.3-1.5c0-0.6-0.1-1.1-0.3-1.5s-0.5-0.8-0.9-1.1c-0.4-0.3-0.8-0.4-1.3-0.4
			c-0.5,0-0.9,0.1-1.3,0.4c-0.4,0.3-0.7,0.6-0.9,1.1c-0.2,0.4-0.3,1-0.3,1.5s0.1,1.1,0.3,1.5c0.2,0.4,0.5,0.8,0.9,1.1
			c0.4,0.3,0.8,0.4,1.3,0.4C601.4,683.8,601.9,683.7,602.3,683.4z"/>
		<path d="M613.8,676.8c0.1,0.1,0.2,0.3,0.2,0.5v6.9c0,1.3-0.4,2.3-1.1,3c-0.7,0.7-1.7,1-2.9,1c-0.4,0-0.8,0-1.2-0.1
			c-0.4-0.1-0.7-0.2-0.9-0.3c-0.4-0.2-0.6-0.4-0.6-0.7c0-0.1,0-0.1,0-0.2c0.1-0.2,0.2-0.3,0.3-0.4s0.3-0.1,0.4-0.1
			c0.1,0,0.2,0,0.2,0c0.3,0.1,0.6,0.3,0.9,0.4c0.3,0.1,0.6,0.1,0.9,0.1c1.7,0,2.5-0.8,2.5-2.5V684c-0.3,0.4-0.7,0.7-1.1,0.9
			c-0.5,0.2-1,0.3-1.6,0.3c-0.9,0-1.6-0.3-2.1-0.8c-0.5-0.6-0.7-1.3-0.7-2.2v-4.8c0-0.2,0.1-0.4,0.2-0.6c0.1-0.1,0.3-0.2,0.5-0.2
			c0.2,0,0.4,0.1,0.6,0.2s0.2,0.3,0.2,0.5v4.4c0,0.7,0.2,1.2,0.5,1.6c0.3,0.3,0.8,0.5,1.4,0.5c0.6,0,1.1-0.2,1.5-0.6
			c0.4-0.4,0.6-0.9,0.6-1.5v-4.4c0-0.2,0.1-0.4,0.2-0.6c0.1-0.1,0.3-0.2,0.5-0.2C613.5,676.6,613.7,676.7,613.8,676.8z"/>
		<path d="M624.3,676.8c0.1,0.1,0.2,0.3,0.2,0.6v6.9c0,0.2-0.1,0.4-0.2,0.5c-0.1,0.1-0.3,0.2-0.6,0.2c-0.2,0-0.4-0.1-0.5-0.2
			c-0.1-0.1-0.2-0.3-0.2-0.6v-0.4c-0.3,0.4-0.7,0.7-1.1,1c-0.5,0.3-1,0.4-1.6,0.4c-0.7,0-1.4-0.2-2-0.6c-0.6-0.4-1.1-0.9-1.4-1.6
			s-0.5-1.4-0.5-2.2s0.2-1.6,0.5-2.2c0.3-0.7,0.8-1.2,1.4-1.6c0.6-0.4,1.2-0.6,1.9-0.6c0.6,0,1.1,0.1,1.6,0.4
			c0.5,0.2,0.9,0.5,1.2,0.9v-0.4c0-0.2,0.1-0.4,0.2-0.6c0.1-0.1,0.3-0.2,0.5-0.2C623.9,676.6,624.1,676.7,624.3,676.8z M621.8,683.4
			c0.4-0.3,0.7-0.6,0.9-1.1c0.2-0.4,0.3-1,0.3-1.5c0-0.6-0.1-1.1-0.3-1.5s-0.5-0.8-0.9-1.1c-0.4-0.3-0.8-0.4-1.3-0.4
			s-0.9,0.1-1.3,0.4c-0.4,0.3-0.7,0.6-0.9,1.1c-0.2,0.4-0.3,1-0.3,1.5s0.1,1.1,0.3,1.5c0.2,0.4,0.5,0.8,0.9,1.1
			c0.4,0.3,0.8,0.4,1.3,0.4S621.4,683.7,621.8,683.4z"/>
	</g>
</g>
<g>
	<g>
		<path d="M1341,1149.1c1.1,0.6,2,1.4,2.6,2.5s0.9,2.3,0.9,3.7c0,1.3-0.2,2.4-0.7,3.1c-0.4,0.8-1,1.1-1.8,1.1
			c-0.5,0-0.9-0.2-1.2-0.5s-0.5-0.7-0.5-1.3v-0.3c-0.3,0.6-0.8,1.1-1.4,1.5c-0.6,0.4-1.3,0.5-2,0.5c-0.7,0-1.4-0.2-2-0.5
			c-0.6-0.4-1.1-0.8-1.4-1.5c-0.3-0.6-0.5-1.3-0.5-2.1c0-0.8,0.2-1.5,0.5-2.1s0.8-1.1,1.4-1.5c0.6-0.4,1.3-0.5,2-0.5
			c0.8,0,1.4,0.2,2,0.5c0.6,0.4,1,0.8,1.4,1.5v-1.9h0.7v6.3c0,0.4,0.1,0.8,0.3,1c0.2,0.2,0.4,0.3,0.8,0.3c0.5,0,1-0.3,1.3-1
			c0.3-0.6,0.5-1.5,0.5-2.6c0-1.3-0.3-2.4-0.9-3.4c-0.6-1-1.4-1.7-2.4-2.3c-1-0.5-2.2-0.8-3.5-0.8c-1.3,0-2.5,0.3-3.5,0.8
			c-1,0.6-1.8,1.3-2.4,2.3c-0.6,1-0.9,2.1-0.9,3.4s0.3,2.4,0.8,3.4c0.6,1,1.3,1.8,2.4,2.3c1,0.6,2.2,0.8,3.5,0.8
			c0.5,0,1-0.1,1.6-0.2c0.5-0.1,1-0.3,1.5-0.5l0.2,0.6c-0.4,0.2-1,0.4-1.6,0.5c-0.6,0.1-1.2,0.2-1.7,0.2c-1.4,0-2.7-0.3-3.8-0.9
			c-1.1-0.6-2-1.5-2.6-2.6c-0.6-1.1-0.9-2.4-0.9-3.8s0.3-2.7,0.9-3.8c0.6-1.1,1.5-1.9,2.6-2.6c1.1-0.6,2.4-0.9,3.8-0.9
			C1338.6,1148.3,1339.9,1148.5,1341,1149.1z M1338.8,1158.5c0.5-0.3,0.9-0.7,1.2-1.2c0.3-0.5,0.4-1.1,0.4-1.8
			c0-0.7-0.1-1.3-0.4-1.8c-0.3-0.5-0.7-0.9-1.2-1.2c-0.5-0.3-1.1-0.4-1.7-0.4s-1.2,0.1-1.7,0.4c-0.5,0.3-0.9,0.7-1.2,1.2
			s-0.4,1.1-0.4,1.8s0.1,1.3,0.4,1.8s0.7,0.9,1.2,1.2c0.5,0.3,1.1,0.4,1.7,0.4S1338.3,1158.8,1338.8,1158.5z"/>
		<path d="M1358,1159.5l0-9.6l-4.7,8.1h-0.4l-4.7-8.1v9.6h-0.8v-11.2h0.7l5,8.7l5-8.7h0.7l0,11.2H1358z"/>
		<path d="M1367.6,1151.9c0.6,0.5,0.8,1.3,0.8,2.3v5.3h-0.8v-1.5c-0.3,0.5-0.7,0.9-1.2,1.1c-0.5,0.3-1.1,0.4-1.8,0.4
			c-0.9,0-1.7-0.2-2.2-0.7c-0.5-0.4-0.8-1-0.8-1.7c0-0.7,0.2-1.3,0.7-1.7c0.5-0.4,1.3-0.6,2.4-0.6h2.9v-0.7c0-0.8-0.2-1.4-0.6-1.8
			c-0.4-0.4-1-0.6-1.8-0.6c-0.6,0-1.1,0.1-1.6,0.3c-0.5,0.2-0.9,0.4-1.3,0.8l-0.4-0.6c0.4-0.4,0.9-0.7,1.5-0.9
			c0.6-0.2,1.2-0.3,1.8-0.3C1366.3,1151.1,1367.1,1151.4,1367.6,1151.9z M1366.6,1158.5c0.5-0.3,0.8-0.8,1.1-1.4v-1.6h-2.8
			c-0.8,0-1.4,0.2-1.8,0.4c-0.4,0.3-0.6,0.7-0.6,1.2c0,0.5,0.2,1,0.6,1.3c0.4,0.3,1,0.5,1.7,0.5
			C1365.5,1158.9,1366.1,1158.8,1366.6,1158.5z"/>
		<path d="M1378.3,1151.2l-4.3,9.5c-0.3,0.7-0.7,1.3-1.1,1.6c-0.4,0.3-0.9,0.5-1.5,0.5c-0.4,0-0.7-0.1-1.1-0.2
			c-0.3-0.1-0.6-0.3-0.9-0.6l0.4-0.6c0.4,0.4,0.9,0.7,1.6,0.7c0.4,0,0.8-0.1,1-0.3c0.3-0.2,0.6-0.6,0.8-1.2l0.4-1l-3.8-8.3h0.8
			l3.3,7.5l3.3-7.5H1378.3z"/>
		<path d="M1385,1151.9c0.6,0.5,0.8,1.3,0.8,2.3v5.3h-0.8v-1.5c-0.3,0.5-0.7,0.9-1.2,1.1c-0.5,0.3-1.1,0.4-1.8,0.4
			c-0.9,0-1.7-0.2-2.2-0.7s-0.8-1-0.8-1.7c0-0.7,0.2-1.3,0.7-1.7c0.5-0.4,1.3-0.6,2.4-0.6h2.9v-0.7c0-0.8-0.2-1.4-0.6-1.8
			c-0.4-0.4-1-0.6-1.8-0.6c-0.6,0-1.1,0.1-1.6,0.3c-0.5,0.2-0.9,0.4-1.3,0.8l-0.4-0.6c0.4-0.4,0.9-0.7,1.5-0.9
			c0.6-0.2,1.2-0.3,1.8-0.3C1383.6,1151.1,1384.4,1151.4,1385,1151.9z M1383.9,1158.5c0.5-0.3,0.9-0.8,1.1-1.4v-1.6h-2.8
			c-0.8,0-1.4,0.2-1.8,0.4s-0.6,0.7-0.6,1.2c0,0.5,0.2,1,0.6,1.3c0.4,0.3,1,0.5,1.7,0.5C1382.9,1158.9,1383.4,1158.8,1383.9,1158.5z
			"/>
	</g>
</g>
<g>
	<path class="st0" d="M167.8,1172.4h-23.3c-3.4,0-6.2-2.8-6.2-6.2V1143c0-3.4,2.8-6.2,6.2-6.2h23.3c3.4,0,6.2,2.8,6.2,6.2v23.3
		C173.9,1169.7,171.2,1172.4,167.8,1172.4z"/>
	<g>
		<path class="st5" d="M156.1,1135.1c2.8,0,5.6-0.1,8.4,0c4.5,0.2,7.8,2.3,9.9,6.3c0.8,1.5,1.1,3,1.1,4.7c0,3.4,0,6.9,0,10.3
			c0,2,0,4,0,6c0,2.4-0.6,4.6-2,6.5c-1.9,2.7-4.5,4.3-7.7,4.7c-1.1,0.2-2.3,0.1-3.5,0.1c-4.7,0-9.5,0-14.2,0c-4.8,0-9-3.1-10.6-7.6
			c-0.4-1.1-0.6-2.3-0.6-3.5c0-5.5,0-10.9,0-16.4c0-5.9,4.6-10.8,10.5-11.1c1.8-0.1,3.7,0,5.5,0
			C153.9,1135.1,155,1135.1,156.1,1135.1C156.1,1135.1,156.1,1135.1,156.1,1135.1z M139.8,1154.5
			C139.8,1154.5,139.8,1154.5,139.8,1154.5c0,2.7,0,5.5,0,8.2c0,4.5,3.7,8.1,8.2,8.2c5.4,0,10.9,0,16.3,0c1.7,0,3.2-0.5,4.6-1.4
			c2.3-1.7,3.5-3.9,3.6-6.8c0-2.8,0-5.6,0-8.5c0-2.6,0-5.3,0-7.9c0-4.4-3.6-8.1-8.1-8.1c-1.5,0-2.9,0-4.4,0c-4,0-8,0-12,0
			c-1.6,0-3,0.4-4.3,1.2c-2.5,1.6-3.8,4-3.9,7C139.7,1149,139.8,1151.7,139.8,1154.5z"/>
		<path class="st5" d="M166.5,1154.4c0.1,5.6-4.6,10.4-10.2,10.5c-5.7,0.1-10.5-4.5-10.6-10.2c-0.1-5.7,4.4-10.5,10.2-10.6
			C161.8,1143.9,166.5,1148.5,166.5,1154.4z M148.7,1154.5c0,4.1,3.3,7.4,7.4,7.4c4.2,0,7.5-3.3,7.5-7.5c0-4.1-3.4-7.4-7.6-7.3
			C152,1147,148.7,1150.4,148.7,1154.5z"/>
		<path class="st5" d="M168,1141.1c0.8,0,1.5,0.7,1.5,1.5c0,0.8-0.7,1.5-1.5,1.5c-0.8,0-1.5-0.7-1.5-1.5
			C166.5,1141.7,167.2,1141.1,168,1141.1z"/>
	</g>
</g>
<g>
	<g>
		<path d="M1339.1,684.6c-0.3-0.3-0.5-0.6-0.5-1.1c-0.3,0.5-0.7,0.9-1.2,1.2c-0.5,0.2-0.9,0.4-1.5,0.4c-0.4,0-0.8-0.1-1.2-0.3
			c-0.4-0.2-0.6-0.5-0.9-0.9c-0.2-0.4-0.3-0.9-0.3-1.4c0-0.7,0.2-1.4,0.5-2.1s0.8-1.3,1.4-1.8c0.6-0.5,1.2-0.7,1.9-0.7
			c0.4,0,0.8,0.1,1.2,0.4c0.3,0.2,0.6,0.6,0.7,1l0.1-0.7c0-0.1,0.1-0.3,0.2-0.4s0.3-0.2,0.5-0.2c0.4,0,0.7,0.2,0.7,0.6
			c0,0.1,0,0.2,0,0.2l-0.7,4.4c0,0.1,0,0.1,0,0.2c0,0.3,0.1,0.5,0.2,0.6c0.1,0.1,0.3,0.2,0.5,0.2c0.4,0,0.9-0.2,1.3-0.6
			c0.4-0.4,0.7-1,0.9-1.7s0.3-1.4,0.3-2.1c0-0.8-0.2-1.5-0.6-2.1s-0.9-1.1-1.6-1.4c-0.7-0.3-1.5-0.5-2.4-0.5c-1.4,0-2.7,0.3-3.8,0.8
			c-1.1,0.6-2,1.4-2.7,2.4c-0.7,1.1-1,2.3-1,3.7c0,0.9,0.2,1.6,0.5,2.4c0.3,0.7,0.9,1.3,1.6,1.8c0.7,0.5,1.7,0.7,2.8,0.7
			c0.8,0,1.4-0.1,1.9-0.2c0.5-0.1,1.1-0.4,1.7-0.7c0.1-0.1,0.2-0.1,0.3-0.1c0.2,0,0.3,0.1,0.4,0.3c0,0,0,0.1,0,0.2
			c0,0.2-0.2,0.4-0.5,0.5c-0.7,0.3-1.3,0.6-1.8,0.8s-1.2,0.3-2,0.3c-1.4,0-2.5-0.3-3.4-0.8c-0.9-0.6-1.6-1.3-2-2.2s-0.6-1.9-0.6-2.9
			c0-1.6,0.4-3,1.1-4.3c0.8-1.2,1.8-2.2,3.1-2.8c1.3-0.7,2.8-1,4.4-1c1.2,0,2.2,0.2,3,0.7c0.8,0.4,1.5,1.1,1.9,1.8
			c0.4,0.8,0.6,1.6,0.6,2.5c0,0.9-0.2,1.7-0.5,2.6s-0.8,1.5-1.4,2.1s-1.3,0.8-2.1,0.8C1339.9,685,1339.5,684.9,1339.1,684.6z
			 M1337.5,683.4c0.4-0.3,0.7-0.6,0.9-1c0.2-0.4,0.4-0.8,0.4-1.2c0.1-0.3,0.1-0.6,0.1-0.9c0-0.5-0.1-0.9-0.4-1.1s-0.6-0.4-1.1-0.4
			c-0.5,0-0.9,0.2-1.3,0.5c-0.4,0.4-0.7,0.8-0.9,1.3s-0.3,1-0.3,1.5c0,0.5,0.1,0.8,0.4,1.1c0.2,0.3,0.5,0.4,0.9,0.4
			C1336.8,683.8,1337.2,683.7,1337.5,683.4z"/>
		<path d="M1356.7,674.9c0.1,0.1,0.2,0.3,0.2,0.5v9.7c0,0.2-0.1,0.4-0.2,0.5c-0.1,0.1-0.3,0.2-0.6,0.2c-0.2,0-0.4-0.1-0.6-0.2
			c-0.1-0.1-0.2-0.3-0.2-0.6v-7.4l-3.1,4.7c-0.1,0.1-0.2,0.2-0.3,0.2c-0.1,0.1-0.2,0.1-0.3,0.1c-0.1,0-0.2,0-0.3-0.1
			c-0.1-0.1-0.2-0.1-0.3-0.2l-3.1-4.8v7.6c0,0.2-0.1,0.4-0.2,0.6c-0.1,0.1-0.3,0.2-0.5,0.2c-0.2,0-0.4-0.1-0.5-0.2
			c-0.1-0.1-0.2-0.3-0.2-0.6v-9.7c0-0.2,0.1-0.4,0.2-0.5c0.1-0.2,0.3-0.2,0.6-0.2c0.1,0,0.3,0,0.4,0.1c0.1,0.1,0.2,0.1,0.3,0.3
			l3.8,5.7l3.8-5.7c0.2-0.2,0.4-0.4,0.6-0.4C1356.4,674.7,1356.5,674.8,1356.7,674.9z"/>
		<path d="M1366.7,677.6c0.1,0.1,0.2,0.3,0.2,0.6v6.9c0,0.2-0.1,0.4-0.2,0.5s-0.3,0.2-0.6,0.2s-0.4-0.1-0.5-0.2
			c-0.1-0.1-0.2-0.3-0.2-0.6v-0.4c-0.3,0.4-0.7,0.7-1.1,1c-0.5,0.3-1,0.4-1.6,0.4c-0.7,0-1.4-0.2-2-0.6c-0.6-0.4-1.1-0.9-1.4-1.6
			s-0.5-1.4-0.5-2.2s0.2-1.6,0.5-2.2c0.3-0.7,0.8-1.2,1.4-1.6c0.6-0.4,1.2-0.6,1.9-0.6c0.6,0,1.1,0.1,1.6,0.4
			c0.5,0.2,0.9,0.5,1.2,0.9v-0.4c0-0.2,0.1-0.4,0.2-0.6c0.1-0.1,0.3-0.2,0.5-0.2S1366.6,677.5,1366.7,677.6z M1364.3,684.3
			c0.4-0.3,0.7-0.6,0.9-1.1c0.2-0.4,0.3-1,0.3-1.5c0-0.6-0.1-1.1-0.3-1.5s-0.5-0.8-0.9-1.1c-0.4-0.3-0.8-0.4-1.3-0.4
			c-0.5,0-0.9,0.1-1.3,0.4c-0.4,0.3-0.7,0.6-0.9,1.1c-0.2,0.4-0.3,1-0.3,1.5s0.1,1.1,0.3,1.5c0.2,0.4,0.5,0.8,0.9,1.1
			c0.4,0.3,0.8,0.4,1.3,0.4C1363.4,684.6,1363.9,684.5,1364.3,684.3z"/>
		<path d="M1375.8,677.6c0.1,0.1,0.2,0.3,0.2,0.5v6.9c0,1.3-0.4,2.3-1.1,3c-0.7,0.7-1.7,1-2.9,1c-0.4,0-0.8,0-1.2-0.1
			c-0.4-0.1-0.7-0.2-0.9-0.3c-0.4-0.2-0.6-0.4-0.6-0.7c0-0.1,0-0.1,0-0.2c0.1-0.2,0.2-0.3,0.3-0.4s0.3-0.1,0.4-0.1
			c0.1,0,0.2,0,0.2,0c0.3,0.1,0.6,0.3,0.9,0.4c0.3,0.1,0.6,0.1,0.9,0.1c1.7,0,2.5-0.8,2.5-2.5v-0.3c-0.3,0.4-0.7,0.7-1.1,0.9
			c-0.5,0.2-1,0.3-1.6,0.3c-0.9,0-1.6-0.3-2.1-0.8c-0.5-0.6-0.7-1.3-0.7-2.2v-4.8c0-0.2,0.1-0.4,0.2-0.6c0.1-0.1,0.3-0.2,0.5-0.2
			c0.2,0,0.4,0.1,0.6,0.2s0.2,0.3,0.2,0.5v4.4c0,0.7,0.2,1.2,0.5,1.6c0.3,0.3,0.8,0.5,1.4,0.5c0.6,0,1.1-0.2,1.5-0.6
			c0.4-0.4,0.6-0.9,0.6-1.5v-4.4c0-0.2,0.1-0.4,0.2-0.6c0.1-0.1,0.3-0.2,0.5-0.2C1375.5,677.4,1375.7,677.5,1375.8,677.6z"/>
		<path d="M1386.3,677.6c0.1,0.1,0.2,0.3,0.2,0.6v6.9c0,0.2-0.1,0.4-0.2,0.5c-0.1,0.1-0.3,0.2-0.6,0.2c-0.2,0-0.4-0.1-0.5-0.2
			c-0.1-0.1-0.2-0.3-0.2-0.6v-0.4c-0.3,0.4-0.7,0.7-1.1,1c-0.5,0.3-1,0.4-1.6,0.4c-0.7,0-1.4-0.2-2-0.6c-0.6-0.4-1.1-0.9-1.4-1.6
			s-0.5-1.4-0.5-2.2s0.2-1.6,0.5-2.2c0.3-0.7,0.8-1.2,1.4-1.6c0.6-0.4,1.2-0.6,1.9-0.6c0.6,0,1.1,0.1,1.6,0.4
			c0.5,0.2,0.9,0.5,1.2,0.9v-0.4c0-0.2,0.1-0.4,0.2-0.6c0.1-0.1,0.3-0.2,0.5-0.2C1385.9,677.4,1386.1,677.5,1386.3,677.6z
			 M1383.8,684.3c0.4-0.3,0.7-0.6,0.9-1.1c0.2-0.4,0.3-1,0.3-1.5c0-0.6-0.1-1.1-0.3-1.5s-0.5-0.8-0.9-1.1c-0.4-0.3-0.8-0.4-1.3-0.4
			s-0.9,0.1-1.3,0.4c-0.4,0.3-0.7,0.6-0.9,1.1c-0.2,0.4-0.3,1-0.3,1.5s0.1,1.1,0.3,1.5c0.2,0.4,0.5,0.8,0.9,1.1
			c0.4,0.3,0.8,0.4,1.3,0.4S1383.4,684.5,1383.8,684.3z"/>
	</g>
</g>
<rect x="105.5" y="300.6" class="st1" width="328.8" height="422.1"/>
<rect x="42.4" y="42.7" class="st2" width="1605.3" height="1225.4"/>
<line class="st7" x1="1522.1" y1="40.5" x2="1522.1" y2="168.1"/>
<g>
	<path class="st6" d="M1628.6,67.2h-85.8v62.9c28.6,0,57.2,0,85.8,0V67.2z"/>
</g>
<polygon class="st6" points="1600.1,97.7 1577.1,84.5 1577.1,111 "/>
<line class="st6" x1="1585.7" y1="130.1" x2="1585.7" y2="141.2"/>
<circle class="st6" cx="1585.7" cy="145.2" r="3.9"/>
<g>
	<rect x="923.7" y="466" class="st10" width="213.3" height="13.3"/>
	<g>
		<rect x="923.7" y="497.4" class="st10" width="213.3" height="13.3"/>
	</g>
	<g>
		<rect x="923.7" y="529.7" class="st10" width="213.3" height="13.3"/>
	</g>
</g>
<g>
	<g>
		<g>
			<path class="st0" d="M638.2,887.2c1,1.2,1.5,2.6,1.5,4.2c0,1.9-0.6,3.6-1.9,4.9s-2.9,1.9-4.7,1.9c-1.9,0-3.6-0.6-4.9-1.9
				c-1.3-1.3-1.9-2.9-1.9-4.9c0-1.9,0.5-4.4,1.5-7.5l6.3-22h5.7l-5.2,22.8C635.9,885.2,637.2,886,638.2,887.2z M662.9,887.2
				c1,1.2,1.5,2.6,1.5,4.2c0,1.9-0.6,3.6-1.9,4.9s-2.9,1.9-4.7,1.9c-1.9,0-3.6-0.6-4.9-1.9s-1.9-2.9-1.9-4.9c0-1.9,0.5-4.4,1.5-7.5
				l6.3-22h5.7l-5.2,22.8C660.7,885.2,662,886,662.9,887.2z"/>
		</g>
	</g>
	<g>
		<g>
			<path class="st0" d="M627.3,1068.4c-1-1.2-1.5-2.6-1.5-4.2c0-1.9,0.6-3.6,1.9-4.9s2.9-1.9,4.7-1.9c1.9,0,3.6,0.6,4.9,1.9
				s1.9,2.9,1.9,4.9c0,1.9-0.5,4.4-1.5,7.5l-6.3,22h-5.7l5.2-22.8C629.5,1070.4,628.2,1069.6,627.3,1068.4z M652,1068.4
				c-1-1.2-1.5-2.6-1.5-4.2c0-1.9,0.6-3.6,1.9-4.9s2.9-1.9,4.7-1.9c1.9,0,3.6,0.6,4.9,1.9c1.3,1.3,1.9,2.9,1.9,4.9
				c0,1.9-0.5,4.4-1.5,7.5l-6.3,22h-5.7l5.2-22.8C654.3,1070.4,653,1069.6,652,1068.4z"/>
		</g>
	</g>
</g>
<g>
	<rect x="541.8" y="940.8" class="st10" width="213.3" height="13.3"/>
	<g>
		<rect x="541.8" y="972.1" class="st10" width="213.3" height="13.3"/>
	</g>
	<g>
		<rect x="541.8" y="1004.5" class="st10" width="213.3" height="13.3"/>
	</g>
</g>
<g>
	<g>
		<g>
			<g>
				<path class="st5" d="M321.4,212.8c1.8,0,3.6-0.1,5.4,0c2.9,0.1,5,1.5,6.3,4.1c0.5,0.9,0.7,2,0.7,3c0,2.2,0,4.4,0,6.6
					c0,1.3,0,2.6,0,3.8c0,1.5-0.4,2.9-1.3,4.2c-1.2,1.7-2.9,2.7-5,3c-0.7,0.1-1.5,0.1-2.2,0.1c-3.1,0-6.1,0-9.2,0
					c-3.1,0-5.8-2-6.8-4.9c-0.2-0.7-0.4-1.5-0.4-2.2c0-3.5,0-7,0-10.5c0-3.8,3-6.9,6.7-7.2c1.2-0.1,2.4,0,3.5,0
					C320,212.8,320.7,212.8,321.4,212.8C321.4,212.8,321.4,212.8,321.4,212.8z M310.9,225.2C310.9,225.2,310.9,225.2,310.9,225.2
					c0,1.8,0,3.5,0,5.3c0,2.9,2.3,5.2,5.3,5.2c3.5,0,7,0,10.5,0c1.1,0,2.1-0.3,3-0.9c1.5-1.1,2.3-2.5,2.3-4.4c0-1.8,0-3.6,0-5.4
					c0-1.7,0-3.4,0-5.1c0-2.9-2.3-5.2-5.2-5.2c-0.9,0-1.9,0-2.8,0c-2.6,0-5.1,0-7.7,0c-1,0-1.9,0.2-2.8,0.8
					c-1.6,1.1-2.5,2.6-2.5,4.5C310.8,221.7,310.9,223.4,310.9,225.2z"/>
			</g>
		</g>
		<g>
			<path class="st5" d="M327.2,220.9c0.5-0.1,1-0.3,1.6-0.5c-0.3,0.5-0.7,1-1.2,1.4c-0.2,0.1-0.2,0.3-0.2,0.5c0,2.8-1.1,5.1-3.1,7
				c-1.2,1.1-2.7,1.7-4.3,1.9c-1.5,0.2-2.9,0.1-4.3-0.4c-0.5-0.2-1.1-0.4-1.5-0.8c1.7,0.2,3.1-0.4,4.4-1.4c-1.5-0.2-2.5-1.1-3.3-2.3
				c0.6,0,1.2,0.1,1.8,0.1c0,0,0-0.1,0-0.1c-0.7-0.3-1.3-0.7-1.8-1.2c-0.5-0.5-1-1-1.1-1.8c0.6,0.2,1.2,0.6,2,0.3
				c-0.8-0.8-1.3-1.6-1.3-2.7c0-0.7,0.2-1.4,0.5-2c1.2,2.7,3.4,3.7,6.2,3.7c0-0.3,0-0.7,0-1.1c-0.1-1.4,1.2-2.4,2.3-2.6
				c1-0.2,2,0.1,2.7,0.8c0.1,0.1,0.2,0.1,0.3,0.1c0.5-0.2,1-0.4,1.5-0.6c0.1,0,0.1-0.1,0.2-0.1C328.2,219.9,327.8,220.5,327.2,220.9
				C327.2,220.9,327.2,220.9,327.2,220.9z"/>
		</g>
	</g>
</g>
<g>
	<g>
		<path class="st5" d="M354.8,212.8c1.8,0,3.6-0.1,5.4,0c2.9,0.1,5,1.5,6.3,4.1c0.5,0.9,0.7,2,0.7,3c0,2.2,0,4.4,0,6.6
			c0,1.3,0,2.6,0,3.8c0,1.5-0.4,2.9-1.3,4.2c-1.2,1.7-2.9,2.7-5,3c-0.7,0.1-1.5,0.1-2.2,0.1c-3.1,0-6.1,0-9.2,0
			c-3.1,0-5.8-2-6.8-4.9c-0.2-0.7-0.4-1.5-0.4-2.2c0-3.5,0-7,0-10.5c0-3.8,3-6.9,6.7-7.2c1.2-0.1,2.4,0,3.5,0
			C353.4,212.8,354.1,212.8,354.8,212.8C354.8,212.8,354.8,212.8,354.8,212.8z M344.3,225.2C344.3,225.2,344.3,225.2,344.3,225.2
			c0,1.8,0,3.5,0,5.3c0,2.9,2.3,5.2,5.3,5.2c3.5,0,7,0,10.5,0c1.1,0,2.1-0.3,3-0.9c1.5-1.1,2.3-2.5,2.3-4.4c0-1.8,0-3.6,0-5.4
			c0-1.7,0-3.4,0-5.1c0-2.9-2.3-5.2-5.2-5.2c-0.9,0-1.9,0-2.8,0c-2.6,0-5.1,0-7.7,0c-1,0-1.9,0.2-2.8,0.8c-1.6,1.1-2.5,2.6-2.5,4.5
			C344.3,221.7,344.3,223.5,344.3,225.2z"/>
		<path class="st5" d="M361.5,225.2c0.1,3.6-2.9,6.7-6.6,6.7c-3.7,0.1-6.7-2.9-6.8-6.6c-0.1-3.7,2.8-6.7,6.5-6.8
			C358.5,218.4,361.5,221.4,361.5,225.2z M350.1,225.2c0,2.6,2.1,4.8,4.7,4.8c2.7,0,4.8-2.1,4.8-4.8c0-2.6-2.2-4.7-4.9-4.7
			C352.2,220.4,350,222.6,350.1,225.2z"/>
		<path class="st5" d="M362.5,216.6c0.5,0,1,0.4,1,1c0,0.5-0.4,0.9-0.9,1c-0.5,0-1-0.4-1-1C361.5,217,361.9,216.6,362.5,216.6z"/>
	</g>
</g>
<g>
	<g>
		<g>
			<g>
				<g>
					<path class="st5" d="M387.1,234.2c-1.9-0.1-3.5-0.1-5.1-0.2c-0.4,0-0.9,0-1.3-0.2c-0.8-0.2-1.2-0.8-1.4-1.5
						c-0.3-1.2-0.3-2.4-0.3-3.7c0-1.1,0-2.2,0.2-3.3c0.2-1,0.9-1.6,1.9-1.7c1.9-0.1,3.7-0.2,5.6-0.2c1.5,0,3,0.1,4.4,0.1
						c0.4,0,0.9,0.1,1.3,0.1c0.8,0.1,1.5,0.7,1.6,1.5c0.1,0.8,0.2,1.7,0.2,2.5c0,1,0,2.1,0,3.1c0,0.6-0.1,1.2-0.3,1.8
						c-0.2,0.8-0.9,1.3-1.7,1.3C390.5,234,388.7,234.1,387.1,234.2z M387.1,225.2c0,2.3,0,4.6,0,6.9c0.3,0,0.6,0,0.9,0
						c0-0.2,0-0.3,0-0.4c0.1,0.1,0.3,0.2,0.4,0.3c0.5,0.4,1.1,0.2,1.3-0.4c0-0.2,0.1-0.3,0.1-0.5c0-1,0-2,0-3.1
						c0-0.2-0.1-0.5-0.2-0.7c-0.1-0.2-0.3-0.3-0.5-0.4c-0.3,0-0.5,0-0.7,0.2c-0.1,0.1-0.2,0.2-0.4,0.3c0-0.8,0-1.5,0-2.2
						C387.7,225.2,387.4,225.2,387.1,225.2z M393.3,229.7c0-0.6,0-1.2-0.1-1.8c-0.1-0.7-0.7-1.1-1.4-1c-0.7,0-1.2,0.5-1.3,1.1
						c-0.1,0.7-0.1,1.3-0.1,2c0,0.3,0,0.7,0.1,1c0.1,0.6,0.4,0.9,1,1.1c0.5,0.1,1,0.1,1.4-0.4c0.4-0.4,0.3-0.9,0.3-1.4
						c-0.2,0-0.3,0-0.5,0c-0.2,0-0.3,0-0.5,0c0,0.2,0,0.4,0,0.6c0,0.2-0.2,0.4-0.4,0.4c-0.2,0-0.4-0.1-0.5-0.3
						c-0.1-0.4-0.1-0.8-0.1-1.3C392.1,229.7,392.7,229.7,393.3,229.7z M386.3,232.1c0-1.7,0-3.4,0-5.1c-0.3,0-0.6,0-0.9,0
						c0,0.1,0,0.2,0,0.2c0,1.1,0,2.3,0,3.4c0,0.3-0.1,0.5-0.3,0.6c-0.1,0.1-0.3,0.1-0.3,0.1c-0.1,0-0.1-0.2-0.1-0.3
						c0-1.3,0-2.5,0-3.8c0-0.1,0-0.2,0-0.3c-0.3,0-0.6,0-0.9,0c0,0.1,0,0.2,0,0.3c0,1,0,2.1,0,3.1c0,0.4,0,0.7,0,1.1
						c0,0.7,0.5,0.9,1.1,0.6c0.1,0,0.1-0.1,0.2-0.1c0.1-0.1,0.3-0.2,0.4-0.4c0,0.2,0,0.4,0,0.5C385.7,232.1,385.9,232.1,386.3,232.1
						z M382.3,232.1c0-2,0-3.9,0-5.9c0.4,0,0.7,0,1.1,0c0-0.3,0-0.7,0-1c-1.1,0-2.1,0-3.2,0c0,0.3,0,0.6,0,1c0.4,0,0.7,0,1.1,0
						c0,2,0,3.9,0,5.9C381.7,232.1,382,232.1,382.3,232.1z"/>
				</g>
			</g>
			<g>
				<path class="st5" d="M391.4,222.4c-0.3,0-0.6,0-0.9,0c0-0.2,0-0.3,0-0.5c-0.2,0.1-0.3,0.3-0.5,0.4c-0.1,0.1-0.3,0.2-0.4,0.2
					c-0.5,0.1-0.8-0.1-0.8-0.6c0-0.2,0-0.4,0-0.6c0-1.3,0-2.6,0-3.9c0,0,0-0.1,0-0.2c0.3,0,0.6,0,0.9,0c0,0.1,0,0.2,0,0.3
					c0,1.3,0,2.5,0,3.8c0,0.1,0,0.3,0.1,0.3c0.1,0,0.3,0,0.4-0.1c0.2-0.1,0.3-0.3,0.3-0.6c0-1.1,0-2.3,0-3.4c0-0.1,0-0.2,0-0.2
					c0.3,0,0.6,0,0.9,0C391.4,219,391.4,220.7,391.4,222.4z"/>
			</g>
			<g>
				<path class="st5" d="M383.9,222.4c-0.4,0-0.7,0-1,0c0-0.1,0-0.1,0-0.2c0-0.3,0-0.7,0-1c0.1-1.2-0.1-2.4-0.6-3.5
					c-0.2-0.6-0.4-1.3-0.7-2c0-0.1,0-0.1-0.1-0.2c0.3,0,0.7,0,1,0c0,0,0.1,0.1,0.1,0.2c0.2,0.8,0.4,1.5,0.6,2.3c0,0.1,0,0.1,0.1,0.3
					c0.1-0.4,0.2-0.8,0.3-1.2c0.1-0.5,0.2-0.9,0.4-1.4c0-0.1,0.1-0.2,0.2-0.2c0.3,0,0.6,0,0.9,0c0,0.1,0,0.2-0.1,0.3
					c-0.4,1.2-0.7,2.4-1.1,3.6c0,0.1-0.1,0.3-0.1,0.5c0,0.8,0,1.6,0,2.3C383.9,222.3,383.9,222.3,383.9,222.4z"/>
			</g>
			<g>
				<g>
					<path class="st5" d="M388,219.9c0,0.5,0,1-0.1,1.5c-0.1,1-1.3,1.5-2.1,0.9c-0.4-0.3-0.5-0.7-0.5-1.1c0-0.9-0.1-1.8,0-2.7
						c0.1-1.3,1.5-1.4,2.1-0.9c0.4,0.3,0.5,0.8,0.6,1.2C387.9,219.1,387.9,219.5,388,219.9C387.9,219.9,387.9,219.9,388,219.9z
						 M387,219.9C387,219.9,387,219.9,387,219.9c0-0.5,0-0.9,0-1.4c0-0.3-0.3-0.5-0.6-0.4c-0.2,0.1-0.3,0.2-0.3,0.4c0,0.5,0,1,0,1.5
						c0,0.4,0,0.8,0,1.2c0,0.2,0.1,0.4,0.3,0.5c0.3,0.1,0.5-0.1,0.5-0.4C387,220.8,387,220.3,387,219.9z"/>
				</g>
			</g>
			<path class="st0" d="M387.1,225.2c0.3,0,0.6,0,0.9,0c0,0.7,0,1.4,0,2.2c0.2-0.1,0.3-0.2,0.4-0.3c0.2-0.2,0.4-0.2,0.7-0.2
				c0.2,0,0.4,0.1,0.5,0.4c0.1,0.2,0.2,0.5,0.2,0.7c0,1,0,2,0,3.1c0,0.2,0,0.3-0.1,0.5c-0.2,0.6-0.8,0.8-1.3,0.4
				c-0.1-0.1-0.2-0.2-0.4-0.3c0,0.2,0,0.3,0,0.4c-0.3,0-0.6,0-0.9,0C387.1,229.8,387.1,227.5,387.1,225.2z M388,229.5
				c0,0.5,0,0.9,0,1.4c0,0.2,0.1,0.3,0.4,0.4c0.2,0,0.3,0,0.4-0.2c0-0.1,0.1-0.2,0.1-0.3c0-0.8,0-1.7,0-2.5c0-0.1,0-0.2-0.1-0.3
				c-0.1-0.2-0.2-0.3-0.4-0.2c-0.2,0-0.3,0.2-0.3,0.4C388,228.6,388,229,388,229.5z"/>
			<path class="st0" d="M393.3,229.7c-0.7,0-1.3,0-1.9,0c0,0.4,0,0.9,0.1,1.3c0,0.2,0.2,0.4,0.5,0.3c0.2,0,0.4-0.2,0.4-0.4
				c0-0.2,0-0.4,0-0.6c0.2,0,0.3,0,0.5,0c0.2,0,0.3,0,0.5,0c0,0.5,0,1-0.3,1.4c-0.4,0.4-0.9,0.5-1.4,0.4c-0.6-0.1-0.9-0.5-1-1.1
				c-0.1-0.3-0.1-0.7-0.1-1c0-0.7,0-1.3,0.1-2c0.1-0.7,0.6-1.1,1.3-1.1c0.7,0,1.3,0.3,1.4,1C393.3,228.5,393.3,229.1,393.3,229.7z
				 M392.4,228.9c0-0.3,0-0.5-0.1-0.8c0-0.2-0.2-0.4-0.4-0.4c-0.2,0-0.4,0.1-0.4,0.4c0,0.3,0,0.5-0.1,0.8
				C391.8,228.9,392.1,228.9,392.4,228.9z"/>
			<path class="st0" d="M386.3,232.1c-0.3,0-0.6,0-0.9,0c0-0.2,0-0.3,0-0.5c-0.2,0.1-0.3,0.3-0.4,0.4c-0.1,0.1-0.1,0.1-0.2,0.1
				c-0.6,0.3-1.1,0-1.1-0.6c0-0.4,0-0.7,0-1.1c0-1,0-2.1,0-3.1c0-0.1,0-0.2,0-0.3c0.3,0,0.6,0,0.9,0c0,0.1,0,0.2,0,0.3
				c0,1.3,0,2.5,0,3.8c0,0.1,0,0.3,0.1,0.3c0.1,0,0.3,0,0.3-0.1c0.2-0.1,0.3-0.3,0.3-0.6c0-1.1,0-2.3,0-3.4c0-0.1,0-0.2,0-0.2
				c0.3,0,0.6,0,0.9,0C386.3,228.7,386.3,230.3,386.3,232.1z"/>
			<path class="st0" d="M382.3,232.1c-0.4,0-0.7,0-1,0c0-2,0-3.9,0-5.9c-0.4,0-0.7,0-1.1,0c0-0.3,0-0.6,0-1c1.1,0,2.1,0,3.2,0
				c0,0.3,0,0.6,0,1c-0.4,0-0.7,0-1.1,0C382.3,228.1,382.3,230.1,382.3,232.1z"/>
			<g>
				<path class="st5" d="M388,229.5c0-0.5,0-0.9,0-1.4c0-0.2,0.1-0.3,0.3-0.4c0.2,0,0.4,0,0.4,0.2c0,0.1,0.1,0.2,0.1,0.3
					c0,0.8,0,1.7,0,2.5c0,0.1,0,0.2-0.1,0.3c-0.1,0.2-0.2,0.3-0.4,0.2c-0.2,0-0.4-0.2-0.4-0.4C388,230.4,388,230,388,229.5z"/>
			</g>
			<g>
				<path class="st5" d="M392.4,228.9c-0.3,0-0.6,0-0.9,0c0-0.3,0-0.6,0.1-0.8c0-0.3,0.2-0.4,0.4-0.4c0.2,0,0.4,0.1,0.4,0.4
					C392.4,228.4,392.4,228.6,392.4,228.9z"/>
			</g>
		</g>
		<g>
			<g>
				<path class="st5" d="M386.8,212.8c1.8,0,3.6-0.1,5.4,0c2.9,0.1,5,1.5,6.3,4.1c0.5,0.9,0.7,2,0.7,3c0,2.2,0,4.4,0,6.6
					c0,1.3,0,2.6,0,3.8c0,1.5-0.4,2.9-1.3,4.2c-1.2,1.7-2.9,2.7-5,3c-0.7,0.1-1.5,0.1-2.2,0.1c-3.1,0-6.1,0-9.2,0
					c-3.1,0-5.8-2-6.8-4.9c-0.2-0.7-0.4-1.5-0.4-2.2c0-3.5,0-7,0-10.5c0-3.8,3-6.9,6.7-7.2c1.2-0.1,2.4,0,3.5,0
					C385.3,212.8,386,212.8,386.8,212.8C386.8,212.8,386.8,212.8,386.8,212.8z M376.3,225.2C376.3,225.2,376.3,225.2,376.3,225.2
					c0,1.8,0,3.5,0,5.3c0,2.9,2.3,5.2,5.3,5.2c3.5,0,7,0,10.5,0c1.1,0,2.1-0.3,3-0.9c1.5-1.1,2.3-2.5,2.3-4.4c0-1.8,0-3.6,0-5.4
					c0-1.7,0-3.4,0-5.1c0-2.9-2.3-5.2-5.2-5.2c-0.9,0-1.9,0-2.8,0c-2.6,0-5.1,0-7.7,0c-1,0-1.9,0.2-2.8,0.8
					c-1.6,1.1-2.5,2.6-2.5,4.5C376.2,221.7,376.3,223.5,376.3,225.2z"/>
			</g>
		</g>
	</g>
</g>
</svg>
