<?xml version="1.0" encoding="utf-8"?>
<!-- Generator: Adobe Illustrator 22.1.0, SVG Export Plug-In . SVG Version: 6.00 Build 0)  -->
<svg version="1.1" id="Layer_1" xmlns="http://www.w3.org/2000/svg" xmlns:xlink="http://www.w3.org/1999/xlink" x="0px" y="0px"
	 viewBox="0 0 777 813" style="enable-background:new 0 0 777 813;" xml:space="preserve">
<style type="text/css">
	.st0{fill:#FFD433;}
	.st1{fill:none;stroke:#26293C;stroke-width:1.2;stroke-miterlimit:10;}
	.st2{fill:none;stroke:#26293C;stroke-width:5;stroke-miterlimit:10;}
	.st3{fill:none;stroke:#F2F2F2;stroke-width:1.2;stroke-miterlimit:10;}
	.st4{fill:#D9DBDA;}
	.st5{fill:#26293C;}
	.st6{fill:#FFD433;stroke:#26293C;stroke-width:2;stroke-miterlimit:10;}
	.st7{fill:none;stroke:#26293C;stroke-width:1.2003;stroke-miterlimit:10;}
	.st8{fill:none;stroke:#FFD433;stroke-width:0.7434;stroke-miterlimit:10;}
	.st9{fill:none;stroke:#F2F2F2;stroke-width:1.3726;stroke-miterlimit:10;}
	.st10{fill:#F2F2F2;}
	.st11{fill:none;stroke:#26293C;stroke-width:2;stroke-miterlimit:10;}
	.st12{fill:#E5E5E5;stroke:#F2F2F2;stroke-width:1.072;stroke-miterlimit:10;}
	.st13{fill:none;stroke:#F2F2F2;stroke-width:1.4033;stroke-miterlimit:10;}
	.st14{fill:none;stroke:#FFD433;stroke-width:0.7838;stroke-miterlimit:10;}
	.st15{fill:none;stroke:#FFD433;stroke-miterlimit:10;}
	.st16{fill:none;stroke:#F2F2F2;stroke-width:3;stroke-miterlimit:10;}
	.st17{fill:#FFD433;stroke:#26293C;stroke-width:1.8525;stroke-miterlimit:10;}
	.st18{fill:none;stroke:#F2F2F2;stroke-width:1.3001;stroke-miterlimit:10;}
	.st19{fill:none;stroke:#F2F2F2;stroke-width:2.0632;stroke-miterlimit:10;}
	.st20{fill:#FFFFFF;stroke:#26293C;stroke-width:2;stroke-miterlimit:10;}
	.st21{fill:#EDEDED;}
	.st22{fill:#FFD433;stroke:#26293C;stroke-width:1.8509;stroke-miterlimit:10;}
	.st23{fill:none;stroke:#26293C;stroke-width:0.9518;stroke-miterlimit:10;}
	.st24{fill:none;stroke:#FFD433;stroke-width:0.8168;stroke-miterlimit:10;}
	.st25{fill:none;stroke:#26293C;stroke-width:0.9076;stroke-miterlimit:10;}
	.st26{fill:none;stroke:#D9DBDA;stroke-miterlimit:10;}
	.st27{fill:none;stroke:#F2F2F2;stroke-width:1.3998;stroke-miterlimit:10;}
	.st28{fill:none;stroke:#000000;stroke-width:2;stroke-miterlimit:10;}
	.st29{fill:#FFD433;stroke:#26293C;stroke-width:1.9864;stroke-miterlimit:10;}
	.st30{fill:none;stroke:#F2F2F2;stroke-width:1.3708;stroke-miterlimit:10;}
	.st31{fill:none;stroke:#26293C;stroke-width:4.7102;stroke-miterlimit:10;}
</style>
<rect x="56.8" y="190.4" class="st0" width="73.4" height="73.4"/>
<line class="st1" x1="752" y1="152.6" x2="24.9" y2="152.6"/>
<rect x="24.9" y="26.2" transform="matrix(-1 -1.224647e-16 1.224647e-16 -1 776.8984 814.9048)" class="st2" width="727.2" height="762.5"/>
<line class="st3" x1="55" y1="718.4" x2="718.5" y2="718.4"/>
<line class="st3" x1="55" y1="668" x2="718.5" y2="668"/>
<line class="st3" x1="55" y1="619" x2="718.5" y2="619"/>
<line class="st3" x1="57.8" y1="565.9" x2="721.3" y2="565.9"/>
<line class="st3" x1="57.8" y1="515.6" x2="721.3" y2="515.6"/>
<line class="st3" x1="57.8" y1="466.6" x2="721.3" y2="466.6"/>
<rect x="123.6" y="585.6" class="st21" width="37.8" height="132.8"/>
<rect x="176.8" y="532.1" class="st21" width="37.8" height="186.3"/>
<rect x="229.9" y="585.1" class="st21" width="37.8" height="132.8"/>
<rect x="283.1" y="482.5" class="st21" width="37.8" height="235.3"/>
<rect x="336.3" y="447.5" class="st21" width="37.8" height="270.3"/>
<g>
	<g>
		<path class="st5" d="M96.3,217.9c0.7,0.4,1.2,1,1.6,1.8s0.6,1.6,0.6,2.5c0,0.9-0.2,1.7-0.6,2.5s-1,1.4-1.6,1.8
			c-0.7,0.4-1.4,0.7-2.3,0.7h-4.3v5.1c0,0.3-0.1,0.6-0.3,0.8s-0.5,0.3-0.8,0.3c-0.3,0-0.6-0.1-0.8-0.3c-0.2-0.2-0.3-0.5-0.3-0.8
			v-13.9c0-0.3,0.1-0.6,0.3-0.8c0.2-0.2,0.5-0.3,0.8-0.3h5.3C94.9,217.3,95.6,217.5,96.3,217.9z M95.2,224.7
			c0.4-0.3,0.6-0.6,0.8-1.1c0.2-0.4,0.3-0.9,0.3-1.4c0-0.8-0.2-1.4-0.7-2c-0.5-0.5-1-0.8-1.6-0.8h-4.3v5.7h4.3
			C94.5,225.1,94.9,224.9,95.2,224.7z"/>
	</g>
</g>
<g>
	<g>
		<path class="st5" d="M243.1,217.5c0.2,0.2,0.3,0.5,0.3,0.8v8.8c0,1.2-0.3,2.3-0.8,3.3c-0.5,1-1.3,1.7-2.2,2.3
			c-0.9,0.5-2,0.8-3.2,0.8c-1.2,0-2.3-0.3-3.2-0.8c-1-0.5-1.7-1.3-2.2-2.3c-0.5-1-0.8-2.1-0.8-3.3v-8.8c0-0.3,0.1-0.6,0.3-0.8
			c0.2-0.2,0.5-0.3,0.8-0.3c0.3,0,0.5,0.1,0.8,0.3c0.2,0.2,0.3,0.5,0.3,0.8v8.8c0,0.8,0.2,1.5,0.6,2.2c0.4,0.6,0.9,1.1,1.5,1.5
			s1.3,0.5,2,0.5c0.7,0,1.4-0.2,2-0.5c0.6-0.4,1.1-0.8,1.5-1.5c0.4-0.6,0.6-1.4,0.6-2.2v-8.8c0-0.3,0.1-0.6,0.3-0.8s0.4-0.3,0.8-0.3
			C242.6,217.2,242.9,217.3,243.1,217.5z"/>
	</g>
</g>
<g>
	<g>
		<path class="st5" d="M389.4,231.6c0.2,0.2,0.3,0.5,0.3,0.8c0,0.3-0.1,0.6-0.3,0.7s-0.5,0.3-0.8,0.3h-8c-0.3,0-0.6-0.1-0.8-0.3
			c-0.2-0.2-0.3-0.5-0.3-0.8v-13.9c0-0.3,0.1-0.6,0.3-0.8c0.2-0.2,0.5-0.3,0.8-0.3h8c0.3,0,0.6,0.1,0.8,0.3s0.3,0.5,0.3,0.8
			c0,0.3-0.1,0.6-0.3,0.7s-0.5,0.3-0.8,0.3h-6.8v4.7h5.8c0.3,0,0.6,0.1,0.8,0.3c0.2,0.2,0.3,0.5,0.3,0.8c0,0.3-0.1,0.6-0.3,0.8
			c-0.2,0.2-0.5,0.3-0.8,0.3h-5.8v5.1h6.8C388.9,231.2,389.2,231.3,389.4,231.6z"/>
	</g>
</g>
<g>
	<g>
		<path class="st5" d="M541.3,231.9c0.1,0.2,0.1,0.3,0.1,0.5c0,0.3-0.1,0.6-0.3,0.7c-0.2,0.2-0.5,0.2-0.7,0.2s-0.5-0.1-0.7-0.2
			c-0.5-0.3-0.8-0.7-1.1-1.3c-0.3-0.6-0.4-1.4-0.4-2.6c0-0.8-0.2-1.3-0.7-1.7c-0.5-0.4-1.1-0.6-1.8-0.6H531v5.2
			c0,0.3-0.1,0.6-0.3,0.8s-0.4,0.3-0.7,0.3c-0.4,0-0.7-0.1-0.9-0.3c-0.3-0.2-0.4-0.5-0.4-0.8v-13.9c0-0.3,0.1-0.6,0.3-0.8
			c0.2-0.2,0.5-0.3,0.8-0.3h6.5c0.8,0,1.6,0.2,2.3,0.6s1.2,1,1.7,1.7s0.6,1.5,0.6,2.4c0,0.9-0.2,1.7-0.7,2.4c-0.5,0.7-1,1.3-1.8,1.7
			c0.6,0.3,1,0.7,1.3,1.2c0.3,0.5,0.5,1.1,0.5,1.8c0.1,0.9,0.1,1.5,0.2,1.8c0.1,0.3,0.2,0.5,0.5,0.7
			C541.1,231.6,541.2,231.8,541.3,231.9z M537.3,224.7c0.3-0.3,0.6-0.6,0.8-1.1c0.2-0.5,0.3-1,0.3-1.6c0-0.7-0.2-1.4-0.7-1.9
			c-0.5-0.5-1-0.8-1.6-0.8H531v5.8h5.2C536.6,225.1,537,225,537.3,224.7z"/>
	</g>
</g>
<g>
	<g>
		<path class="st5" d="M684.6,233c-0.2,0.2-0.5,0.3-0.8,0.3c-0.3,0-0.6-0.1-0.8-0.3s-0.3-0.5-0.3-0.8v-13.9c0-0.3,0.1-0.6,0.3-0.8
			s0.5-0.3,0.8-0.3c0.3,0,0.6,0.1,0.8,0.3s0.3,0.5,0.3,0.8v13.9C685,232.5,684.9,232.8,684.6,233z"/>
	</g>
</g>
<g>
	<g>
		<path class="st5" d="M70.5,369.6c0.2,0.2,0.2,0.4,0.2,0.6v10.9c0,0.2-0.1,0.4-0.3,0.6c-0.2,0.2-0.4,0.3-0.7,0.3s-0.5-0.1-0.6-0.3
			c-0.2-0.2-0.3-0.4-0.3-0.6v-9.4l-1.6,1c-0.1,0.1-0.3,0.1-0.4,0.1c-0.2,0-0.4-0.1-0.6-0.3c-0.2-0.2-0.3-0.4-0.3-0.6
			c0-0.1,0-0.3,0.1-0.4s0.2-0.2,0.3-0.3l2.8-1.7c0.2-0.1,0.4-0.1,0.6-0.1C70.1,369.4,70.3,369.5,70.5,369.6z"/>
		<path class="st5" d="M80.9,376.7c0.3,0.5,0.5,1.1,0.5,1.7c0,0.7-0.2,1.3-0.5,1.8s-0.9,1-1.5,1.3c-0.6,0.3-1.3,0.5-2.1,0.5
			c-0.7,0-1.4-0.2-2.1-0.5s-1.1-0.8-1.5-1.3c-0.4-0.6-0.5-1.2-0.5-1.8c0-0.6,0.2-1.2,0.5-1.7s0.8-0.9,1.3-1.2
			c-0.4-0.3-0.8-0.6-1.1-1c-0.3-0.4-0.4-1-0.4-1.5c0-0.6,0.2-1.2,0.5-1.8s0.8-1,1.4-1.3c0.6-0.3,1.2-0.5,1.9-0.5
			c0.7,0,1.3,0.2,1.9,0.5c0.6,0.3,1,0.7,1.4,1.3s0.5,1.1,0.5,1.8c0,0.6-0.1,1.1-0.5,1.6c-0.3,0.4-0.7,0.8-1.1,1
			C80.1,375.8,80.6,376.2,80.9,376.7z M79.1,379.9c0.5-0.4,0.7-0.9,0.7-1.5c0-0.6-0.2-1.1-0.7-1.5c-0.5-0.4-1-0.6-1.7-0.6
			c-0.6,0-1.2,0.2-1.7,0.6c-0.5,0.4-0.7,0.9-0.7,1.5c0,0.6,0.2,1.1,0.7,1.5c0.4,0.4,1,0.6,1.7,0.6C78.1,380.5,78.6,380.3,79.1,379.9
			z M75.9,371.5c-0.4,0.4-0.6,0.8-0.6,1.4c0,0.6,0.2,1,0.6,1.4c0.4,0.4,0.9,0.6,1.5,0.6c0.6,0,1-0.2,1.4-0.6
			c0.4-0.4,0.6-0.8,0.6-1.4c0-0.6-0.2-1.1-0.6-1.4c-0.4-0.4-0.9-0.6-1.5-0.6C76.8,371,76.3,371.2,75.9,371.5z"/>
		<path class="st5" d="M85.7,382.9c-0.2,0.4-0.4,0.7-0.7,1c-0.3,0.3-0.6,0.4-0.9,0.4c-0.2,0-0.4-0.1-0.5-0.2
			c-0.1-0.1-0.2-0.2-0.2-0.4c0-0.2,0-0.3,0.1-0.4c0.1-0.1,0.2-0.1,0.3-0.2c0.1,0,0.2-0.1,0.3-0.1c0.2-0.1,0.3-0.2,0.4-0.3
			s0.1-0.3,0.1-0.5c0-0.1-0.1-0.2-0.2-0.3c-0.1-0.1-0.2-0.1-0.4-0.1c-0.2,0-0.4,0-0.5,0.1c-0.1-0.1-0.2-0.1-0.3-0.2
			c-0.1-0.1-0.1-0.2-0.1-0.4c0-0.3,0.2-0.5,0.5-0.8c0.3-0.2,0.6-0.3,1-0.3c0.4,0,0.8,0.1,1,0.4c0.3,0.3,0.4,0.7,0.4,1.2
			C86,382.2,85.9,382.5,85.7,382.9z"/>
		<path class="st5" d="M95.9,380.6c0.2,0.2,0.2,0.3,0.2,0.6c0,0.2-0.1,0.4-0.2,0.6c-0.2,0.1-0.3,0.2-0.6,0.2H89
			c-0.2,0-0.4-0.1-0.6-0.2s-0.2-0.4-0.2-0.6c0-0.2,0.1-0.4,0.3-0.6l4-4.4c1.1-1.2,1.7-2.2,1.7-3.2c0-0.6-0.2-1.2-0.6-1.6
			s-1-0.6-1.6-0.6c-0.4,0-0.9,0.1-1.3,0.4s-0.7,0.6-1,1.1c-0.2,0.3-0.4,0.4-0.7,0.4c-0.2,0-0.4-0.1-0.6-0.2
			c-0.2-0.2-0.3-0.3-0.3-0.5c0-0.1,0-0.3,0.1-0.4c0.1-0.1,0.2-0.3,0.4-0.5c0.4-0.5,0.9-0.9,1.5-1.3c0.6-0.3,1.2-0.5,1.9-0.5
			c0.8,0,1.5,0.2,2.1,0.5c0.6,0.3,1,0.8,1.4,1.3c0.3,0.6,0.5,1.2,0.5,1.9c0,1.4-0.7,2.9-2.2,4.5l-2.7,3h4.5
			C95.6,380.4,95.8,380.5,95.9,380.6z"/>
		<path class="st5" d="M99.7,381.3c-0.7-0.6-1.2-1.3-1.6-2.3c-0.4-1-0.5-2.1-0.5-3.4c0-1.3,0.2-2.4,0.5-3.4c0.4-1,0.9-1.7,1.6-2.3
			c0.7-0.6,1.5-0.8,2.5-0.8s1.8,0.3,2.5,0.8c0.7,0.6,1.2,1.3,1.6,2.3c0.4,1,0.5,2.1,0.5,3.4c0,1.3-0.2,2.4-0.5,3.4
			c-0.4,1-0.9,1.7-1.6,2.3c-0.7,0.6-1.5,0.8-2.5,0.8S100.4,381.9,99.7,381.3z M104.3,379.2c0.5-0.8,0.7-2,0.7-3.5
			c0-1.5-0.2-2.7-0.7-3.5s-1.2-1.2-2-1.2c-0.9,0-1.6,0.4-2,1.2s-0.7,2-0.7,3.5c0,1.5,0.2,2.7,0.7,3.5s1.2,1.2,2,1.2
			C103.1,380.4,103.8,380,104.3,379.2z"/>
		<path class="st5" d="M116.7,380.6c0.2,0.2,0.2,0.3,0.2,0.6c0,0.2-0.1,0.4-0.2,0.6c-0.2,0.1-0.3,0.2-0.6,0.2h-6.4
			c-0.2,0-0.4-0.1-0.6-0.2c-0.2-0.2-0.2-0.4-0.2-0.6c0-0.2,0.1-0.4,0.3-0.6l4-4.4c1.1-1.2,1.7-2.2,1.7-3.2c0-0.6-0.2-1.2-0.6-1.6
			s-1-0.6-1.6-0.6c-0.4,0-0.9,0.1-1.3,0.4c-0.4,0.3-0.7,0.6-1,1.1c-0.2,0.3-0.4,0.4-0.7,0.4c-0.2,0-0.4-0.1-0.6-0.2
			c-0.2-0.2-0.3-0.3-0.3-0.5c0-0.1,0-0.3,0.1-0.4c0.1-0.1,0.2-0.3,0.4-0.5c0.4-0.5,0.9-0.9,1.5-1.3c0.6-0.3,1.2-0.5,1.9-0.5
			c0.8,0,1.5,0.2,2.1,0.5c0.6,0.3,1,0.8,1.4,1.3c0.3,0.6,0.5,1.2,0.5,1.9c0,1.4-0.7,2.9-2.2,4.5l-2.7,3h4.5
			C116.4,380.4,116.6,380.5,116.7,380.6z"/>
	</g>
</g>
<g>
	<g>
		<path class="st5" d="M74.2,341.9c0.5,0.3,1,0.8,1.3,1.4c0.3,0.6,0.5,1.2,0.5,1.9c0,0.7-0.2,1.4-0.5,2c-0.3,0.6-0.7,1.1-1.3,1.4
			c-0.5,0.3-1.1,0.5-1.8,0.5H69v4c0,0.2-0.1,0.4-0.2,0.6c-0.2,0.2-0.4,0.3-0.6,0.3c-0.3,0-0.5-0.1-0.6-0.2c-0.2-0.2-0.2-0.4-0.2-0.6
			v-10.9c0-0.2,0.1-0.4,0.3-0.6s0.4-0.3,0.6-0.3h4.2C73,341.4,73.6,341.5,74.2,341.9z M73.3,347.2c0.3-0.2,0.5-0.5,0.7-0.8
			c0.2-0.3,0.2-0.7,0.2-1.1c0-0.6-0.2-1.1-0.5-1.6c-0.4-0.4-0.8-0.6-1.3-0.6H69v4.5h3.4C72.7,347.5,73,347.4,73.3,347.2z"/>
		<path class="st5" d="M88.8,351c-0.5,1-1.2,1.8-2.2,2.3c-0.9,0.6-2,0.9-3.1,0.9s-2.2-0.3-3.1-0.9c-0.9-0.6-1.6-1.3-2.2-2.3
			c-0.5-1-0.8-2.1-0.8-3.3s0.3-2.3,0.8-3.3c0.5-1,1.2-1.8,2.2-2.3c0.9-0.6,2-0.9,3.1-0.9s2.2,0.3,3.1,0.9c0.9,0.6,1.6,1.3,2.2,2.3
			c0.5,1,0.8,2.1,0.8,3.3S89.3,350,88.8,351z M87.2,345.2c-0.4-0.7-0.9-1.3-1.5-1.7c-0.6-0.4-1.4-0.6-2.2-0.6s-1.5,0.2-2.2,0.6
			c-0.6,0.4-1.1,1-1.5,1.7c-0.4,0.7-0.5,1.5-0.5,2.5c0,0.9,0.2,1.7,0.5,2.4c0.4,0.7,0.9,1.3,1.5,1.7c0.6,0.4,1.4,0.6,2.2,0.6
			s1.5-0.2,2.2-0.6c0.6-0.4,1.1-1,1.5-1.7c0.4-0.7,0.5-1.5,0.5-2.4C87.7,346.8,87.6,345.9,87.2,345.2z"/>
		<path class="st5" d="M93.4,353.8c-0.7-0.2-1.3-0.6-1.9-1.2c-0.3-0.2-0.4-0.5-0.4-0.7c0-0.2,0.1-0.4,0.3-0.6
			c0.2-0.2,0.4-0.3,0.6-0.3c0.2,0,0.4,0.1,0.5,0.2c0.5,0.4,1,0.8,1.5,1c0.5,0.2,1.1,0.3,1.7,0.3c0.8,0,1.4-0.2,1.9-0.5
			c0.5-0.3,0.8-0.8,0.8-1.3c0-0.6-0.3-1.1-0.8-1.4c-0.5-0.3-1.3-0.6-2.3-0.9c-1.2-0.3-2.2-0.7-2.9-1.2s-1-1.4-1-2.4
			c0-0.7,0.2-1.3,0.6-1.9s0.9-0.9,1.5-1.2c0.7-0.3,1.4-0.4,2.2-0.4c0.7,0,1.4,0.1,2.1,0.4c0.7,0.2,1.2,0.6,1.6,1
			c0.3,0.2,0.4,0.5,0.4,0.8c0,0.2-0.1,0.4-0.2,0.6s-0.4,0.3-0.6,0.3c-0.2,0-0.3,0-0.4-0.1c-0.3-0.3-0.7-0.6-1.3-0.8
			s-1.1-0.3-1.6-0.3c-0.8,0-1.4,0.2-1.9,0.5c-0.5,0.3-0.7,0.8-0.7,1.3c0,0.6,0.2,1,0.7,1.3c0.5,0.3,1.2,0.6,2.1,0.8
			c0.9,0.2,1.7,0.4,2.3,0.7c0.6,0.3,1.1,0.7,1.4,1.2s0.5,1.1,0.5,1.9c0,0.7-0.2,1.3-0.6,1.9c-0.4,0.5-0.9,1-1.6,1.3
			s-1.4,0.5-2.2,0.5C94.8,354.1,94,354,93.4,353.8z"/>
		<path class="st5" d="M111.1,341.6c0.2,0.2,0.2,0.4,0.2,0.6s-0.1,0.5-0.2,0.6c-0.2,0.1-0.4,0.2-0.6,0.2h-3.2v10.1
			c0,0.2-0.1,0.4-0.3,0.6c-0.2,0.2-0.4,0.3-0.7,0.3s-0.5-0.1-0.7-0.3c-0.2-0.2-0.3-0.4-0.3-0.6V343h-3.2c-0.3,0-0.5-0.1-0.6-0.2
			c-0.2-0.1-0.2-0.4-0.2-0.6c0-0.2,0.1-0.4,0.2-0.6c0.2-0.1,0.4-0.2,0.6-0.2h8.2C110.8,341.4,111,341.4,111.1,341.6z"/>
	</g>
</g>
<g>
	<g>
		<path class="st5" d="M651.4,747.8c0.7,0.4,1.2,1,1.6,1.8c0.4,0.8,0.6,1.6,0.6,2.5c0,1.1-0.3,2-0.8,2.9s-1.2,1.5-2.1,1.9
			c-0.9,0.4-1.9,0.7-3.1,0.7c-0.6,0-1.2-0.1-1.8-0.3c-0.6-0.2-1.1-0.4-1.5-0.7c-0.4-0.2-0.6-0.5-0.6-0.9c0-0.3,0.1-0.6,0.3-0.8
			c0.2-0.2,0.5-0.4,0.7-0.4c0.3,0,0.6,0.1,0.8,0.3c0.6,0.6,1.4,0.9,2.4,0.9c0.6,0,1.2-0.1,1.7-0.4c0.5-0.3,0.9-0.7,1.2-1.2
			s0.5-1.1,0.5-1.8c0-1-0.3-1.8-0.9-2.3c-0.6-0.5-1.3-0.8-2.2-0.8c-0.2,0-0.6,0.1-1.1,0.2c-0.3,0.1-0.6,0.1-0.8,0.1
			c-0.3,0-0.5-0.1-0.7-0.3c-0.2-0.2-0.3-0.4-0.3-0.7c0-0.2,0-0.3,0.1-0.4c0.1-0.1,0.2-0.3,0.3-0.4l3.9-4.3h-5.3
			c-0.3,0-0.5-0.1-0.7-0.3s-0.3-0.4-0.3-0.7s0.1-0.5,0.3-0.7c0.2-0.2,0.4-0.3,0.7-0.3h7.3c0.4,0,0.6,0.1,0.8,0.3s0.3,0.5,0.3,0.8
			c0,0.3-0.1,0.6-0.4,0.9l-3.6,4C650,747.1,650.7,747.3,651.4,747.8z"/>
		<path class="st5" d="M658.5,756.5c-0.9-0.7-1.6-1.7-2-2.9c-0.5-1.2-0.7-2.7-0.7-4.3c0-1.6,0.2-3.1,0.7-4.3c0.5-1.2,1.1-2.2,2-2.9
			c0.9-0.7,2-1.1,3.2-1.1c1.3,0,2.3,0.4,3.2,1.1s1.6,1.7,2,2.9c0.5,1.2,0.7,2.7,0.7,4.3c0,1.6-0.2,3.1-0.7,4.3
			c-0.5,1.2-1.1,2.2-2,2.9s-2,1.1-3.2,1.1C660.4,757.5,659.4,757.2,658.5,756.5z M664.3,753.7c0.6-1.1,0.9-2.6,0.9-4.5
			c0-1.9-0.3-3.4-0.9-4.5c-0.6-1.1-1.5-1.6-2.6-1.6s-2,0.5-2.6,1.6c-0.6,1.1-0.9,2.6-0.9,4.5c0,1.9,0.3,3.4,0.9,4.5s1.5,1.6,2.6,1.6
			S663.7,754.8,664.3,753.7z"/>
		<path class="st5" d="M681,742.3c1,0.7,1.8,1.7,2.3,2.9c0.5,1.2,0.8,2.6,0.8,4.1c0,1.5-0.3,2.9-0.8,4.1c-0.5,1.2-1.3,2.2-2.3,2.9
			s-2.3,1.1-3.7,1.1h-5.7c-0.3,0-0.6-0.1-0.8-0.3s-0.3-0.5-0.3-0.8v-13.9c0-0.3,0.1-0.6,0.3-0.8s0.5-0.3,0.8-0.3h5.7
			C678.8,741.2,680,741.5,681,742.3z M680.6,753.5c0.8-1.1,1.2-2.5,1.2-4.3c0-1.7-0.4-3.1-1.2-4.3c-0.8-1.1-2-1.7-3.5-1.7h-4.3v11.9
			h4.3C678.7,755.2,679.9,754.6,680.6,753.5z"/>
	</g>
</g>
<g>
	<g>
		<path class="st5" d="M610.6,741.5c0.2,0.2,0.3,0.5,0.3,0.8c0,0.2,0,0.3-0.1,0.5l-6.2,13.9c-0.1,0.2-0.2,0.4-0.4,0.5
			c-0.2,0.1-0.4,0.2-0.6,0.2c-0.3,0-0.6-0.1-0.8-0.3c-0.2-0.2-0.3-0.4-0.3-0.7c0-0.2,0-0.3,0.1-0.5l5.6-12.6h-6.6
			c-0.3,0-0.5-0.1-0.7-0.3c-0.2-0.2-0.3-0.4-0.3-0.7s0.1-0.5,0.3-0.7c0.2-0.2,0.4-0.3,0.7-0.3h8.2
			C610.1,741.2,610.3,741.3,610.6,741.5z"/>
		<path class="st5" d="M624.1,742.3c1,0.7,1.8,1.7,2.3,2.9c0.5,1.2,0.8,2.6,0.8,4.1c0,1.5-0.3,2.9-0.8,4.1c-0.5,1.2-1.3,2.2-2.3,2.9
			c-1,0.7-2.3,1.1-3.7,1.1h-5.7c-0.3,0-0.6-0.1-0.8-0.3s-0.3-0.5-0.3-0.8v-13.9c0-0.3,0.1-0.6,0.3-0.8s0.5-0.3,0.8-0.3h5.7
			C621.9,741.2,623.1,741.5,624.1,742.3z M623.7,753.5c0.8-1.1,1.2-2.5,1.2-4.3c0-1.7-0.4-3.1-1.2-4.3c-0.8-1.1-2-1.7-3.5-1.7h-4.3
			v11.9h4.3C621.8,755.2,622.9,754.6,623.7,753.5z"/>
	</g>
</g>
<g>
	<g>
		<path class="st5" d="M538.8,755.6c0.2,0.2,0.3,0.4,0.3,0.7s-0.1,0.5-0.3,0.7c-0.2,0.2-0.4,0.3-0.7,0.3h-8.2
			c-0.3,0-0.6-0.1-0.8-0.3c-0.2-0.2-0.3-0.4-0.3-0.8c0-0.3,0.1-0.5,0.3-0.8l5.1-5.6c1.4-1.5,2.1-2.9,2.1-4c0-0.8-0.3-1.5-0.8-2.1
			c-0.5-0.5-1.2-0.8-2.1-0.8c-0.6,0-1.1,0.2-1.6,0.5c-0.5,0.3-0.9,0.8-1.3,1.4c-0.2,0.3-0.5,0.5-0.9,0.5c-0.3,0-0.5-0.1-0.7-0.3
			c-0.2-0.2-0.3-0.4-0.3-0.7c0-0.2,0.1-0.3,0.2-0.5s0.3-0.4,0.5-0.6c0.5-0.7,1.2-1.2,1.9-1.6c0.8-0.4,1.6-0.6,2.4-0.6
			c1,0,1.9,0.2,2.7,0.6c0.8,0.4,1.3,1,1.7,1.7s0.6,1.5,0.6,2.5c0,1.8-1,3.7-2.9,5.7l-3.5,3.8h5.7
			C538.3,755.3,538.6,755.4,538.8,755.6z"/>
		<path class="st5" d="M553,751c0.2,0.2,0.3,0.4,0.3,0.7s-0.1,0.5-0.3,0.7c-0.2,0.2-0.4,0.3-0.7,0.3H551v3.5c0,0.3-0.1,0.6-0.3,0.8
			s-0.5,0.3-0.8,0.3s-0.6-0.1-0.8-0.3s-0.3-0.5-0.3-0.8v-3.5h-6.3c-0.3,0-0.5-0.1-0.7-0.3c-0.2-0.2-0.3-0.5-0.3-0.8
			c0-0.3,0.1-0.5,0.3-0.7l7.3-9.2c0.1-0.1,0.2-0.2,0.4-0.3c0.2-0.1,0.3-0.1,0.5-0.1c0.3,0,0.6,0.1,0.8,0.3s0.3,0.5,0.3,0.8v8.4h1.2
			C552.5,750.7,552.8,750.8,553,751z M544.3,750.7h4.5v-5.8L544.3,750.7z"/>
		<path class="st5" d="M569,741.5c0.2,0.2,0.3,0.5,0.3,0.8v13.9c0,0.3-0.1,0.6-0.3,0.8s-0.5,0.3-0.8,0.3c-0.3,0-0.6-0.1-0.8-0.3
			c-0.2-0.2-0.3-0.5-0.3-0.8v-6h-8.2v6c0,0.3-0.1,0.6-0.3,0.8c-0.2,0.2-0.5,0.3-0.8,0.3c-0.3,0-0.6-0.1-0.8-0.3
			c-0.2-0.2-0.3-0.5-0.3-0.8v-13.9c0-0.3,0.1-0.6,0.3-0.8c0.2-0.2,0.5-0.3,0.8-0.3c0.3,0,0.6,0.1,0.8,0.3c0.2,0.2,0.3,0.5,0.3,0.8
			v5.8h8.2v-5.8c0-0.3,0.1-0.6,0.3-0.8s0.5-0.3,0.8-0.3C568.6,741.2,568.8,741.3,569,741.5z"/>
		<path class="st5" d="M585.8,755.9c0.1,0.2,0.1,0.3,0.1,0.5c0,0.3-0.1,0.6-0.3,0.7c-0.2,0.2-0.5,0.2-0.7,0.2
			c-0.3,0-0.5-0.1-0.7-0.2c-0.5-0.3-0.8-0.7-1.1-1.3c-0.3-0.6-0.4-1.4-0.4-2.6c0-0.8-0.2-1.3-0.7-1.7c-0.5-0.4-1.1-0.6-1.8-0.6h-4.6
			v5.2c0,0.3-0.1,0.6-0.3,0.8c-0.2,0.2-0.4,0.3-0.7,0.3c-0.4,0-0.7-0.1-0.9-0.3s-0.4-0.5-0.4-0.8v-13.9c0-0.3,0.1-0.6,0.3-0.8
			c0.2-0.2,0.5-0.3,0.8-0.3h6.5c0.8,0,1.6,0.2,2.3,0.6c0.7,0.4,1.2,1,1.7,1.7c0.4,0.7,0.6,1.5,0.6,2.4c0,0.9-0.2,1.7-0.7,2.4
			c-0.5,0.7-1,1.3-1.8,1.7c0.6,0.3,1,0.7,1.3,1.2c0.3,0.5,0.5,1.1,0.5,1.8c0.1,0.9,0.1,1.5,0.2,1.8c0.1,0.3,0.2,0.5,0.5,0.7
			C585.6,755.6,585.7,755.7,585.8,755.9z M581.8,748.6c0.3-0.3,0.6-0.6,0.8-1.1s0.3-1,0.3-1.6c0-0.7-0.2-1.4-0.7-1.9s-1-0.8-1.6-0.8
			h-5.2v5.8h5.2C581.1,749.1,581.4,748.9,581.8,748.6z"/>
	</g>
</g>
<rect x="388.8" y="643.1" class="st4" width="37.8" height="74.8"/>
<rect x="442" y="559.1" class="st4" width="37.8" height="158.5"/>
<rect x="495.2" y="658.3" class="st4" width="37.8" height="59.6"/>
<rect x="548.4" y="675.5" class="st4" width="37.8" height="42.1"/>
<rect x="601.6" y="624" class="st4" width="37.8" height="93.7"/>
<g>
	<g>
		<path class="st5" d="M83.8,83c1.2,0.8,2.1,1.8,2.8,3.1c0.7,1.3,1.1,2.7,1.1,4.3c0,1.5-0.4,2.9-1.1,4.3c-0.7,1.3-1.6,2.4-2.8,3.1
			c-1.2,0.8-2.4,1.2-3.7,1.2h-6.6v7.2c0,0.7-0.2,1.2-0.6,1.7c-0.4,0.4-0.9,0.6-1.6,0.6c-0.6,0-1.2-0.2-1.6-0.7
			c-0.4-0.4-0.6-1-0.6-1.7v-22c0-0.7,0.2-1.2,0.7-1.7s1-0.7,1.7-0.7h8.7C81.4,81.8,82.6,82.2,83.8,83z M81.5,94
			c0.5-0.4,0.8-0.9,1.1-1.6c0.3-0.6,0.4-1.3,0.4-2s-0.1-1.4-0.4-2c-0.3-0.6-0.7-1.2-1.1-1.6s-0.9-0.6-1.4-0.6h-6.6v8.4h6.6
			C80.6,94.6,81,94.4,81.5,94z"/>
		<path class="st5" d="M104.1,88.3c0.5,0.4,0.8,0.9,0.8,1.5c0,0.8-0.2,1.4-0.6,1.8c-0.4,0.4-0.9,0.6-1.4,0.6c-0.4,0-0.8-0.1-1.3-0.3
			c-0.1,0-0.2-0.1-0.5-0.2c-0.3-0.1-0.6-0.1-0.9-0.1c-0.7,0-1.3,0.2-1.9,0.6c-0.6,0.4-1.1,1-1.5,1.8c-0.4,0.8-0.6,1.8-0.6,2.9v9
			c0,0.7-0.2,1.2-0.6,1.7c-0.4,0.4-1,0.7-1.6,0.7c-0.7,0-1.2-0.2-1.6-0.7s-0.6-1-0.6-1.7V90.4c0-0.7,0.2-1.2,0.6-1.7s1-0.7,1.6-0.7
			c0.7,0,1.2,0.2,1.6,0.7c0.4,0.4,0.6,1,0.6,1.7v0.5c0.6-1,1.4-1.8,2.5-2.4c1.1-0.5,2.3-0.8,3.5-0.8C103,87.7,103.6,87.9,104.1,88.3
			z"/>
		<path class="st5" d="M124.8,99.2c-0.5,0.4-1,0.6-1.6,0.6h-12.5c0.3,1.5,1,2.7,2.1,3.5c1.1,0.8,2.3,1.3,3.7,1.3
			c1,0,1.8-0.1,2.4-0.3c0.6-0.2,1-0.4,1.4-0.6c0.3-0.2,0.6-0.4,0.7-0.4c0.5-0.2,0.9-0.3,1.3-0.3c0.5,0,1,0.2,1.4,0.6
			s0.6,0.8,0.6,1.3c0,0.7-0.4,1.3-1.1,1.9c-0.7,0.6-1.7,1.1-2.8,1.5c-1.2,0.4-2.4,0.6-3.6,0.6c-2.1,0-4-0.4-5.6-1.3
			s-2.8-2.1-3.7-3.7c-0.9-1.6-1.3-3.3-1.3-5.3c0-2.2,0.5-4.1,1.4-5.7c0.9-1.6,2.1-2.9,3.6-3.8c1.5-0.9,3.1-1.3,4.8-1.3
			c1.7,0,3.2,0.5,4.7,1.4c1.5,0.9,2.7,2.1,3.6,3.7c0.9,1.5,1.3,3.2,1.3,5C125.5,98.4,125.3,98.9,124.8,99.2z M110.7,96h10v-0.3
			c-0.1-1.1-0.6-2-1.6-2.7c-0.9-0.8-2-1.1-3.2-1.1C113,91.9,111.2,93.3,110.7,96z"/>
		<path class="st5" d="M147.4,80.9c0.4,0.4,0.6,1,0.6,1.7v23.5c0,0.7-0.2,1.2-0.6,1.7s-1,0.7-1.6,0.7c-0.7,0-1.2-0.2-1.6-0.6
			c-0.4-0.4-0.6-1-0.7-1.6c-0.6,0.7-1.5,1.4-2.6,1.9c-1.1,0.5-2.2,0.8-3.4,0.8c-1.7,0-3.3-0.4-4.8-1.3s-2.5-2.1-3.4-3.7
			s-1.2-3.4-1.2-5.4c0-2,0.4-3.8,1.2-5.5c0.8-1.6,1.9-2.9,3.3-3.8c1.4-0.9,3-1.3,4.7-1.3c1.2,0,2.4,0.2,3.4,0.7c1.1,0.4,2,1,2.7,1.7
			v-7.4c0-0.7,0.2-1.2,0.6-1.7c0.4-0.4,1-0.7,1.6-0.7C146.4,80.3,147,80.5,147.4,80.9z M142.1,102.8c1-1.2,1.6-2.7,1.6-4.5
			c0-1.8-0.5-3.3-1.6-4.6s-2.4-1.8-4-1.8c-1.6,0-3,0.6-4,1.8c-1,1.2-1.6,2.7-1.6,4.6c0,1.8,0.5,3.3,1.5,4.5c1,1.2,2.4,1.8,4,1.8
			C139.7,104.6,141.1,104,142.1,102.8z"/>
		<path class="st5" d="M153.1,85.2c-0.4-0.3-0.5-0.8-0.5-1.5V83c0-0.7,0.2-1.2,0.6-1.5c0.4-0.3,1-0.4,1.8-0.4c0.9,0,1.5,0.1,1.9,0.4
			c0.4,0.3,0.5,0.8,0.5,1.5v0.7c0,0.7-0.2,1.2-0.6,1.5c-0.4,0.3-1,0.4-1.9,0.4C154.1,85.6,153.5,85.5,153.1,85.2z M156.6,107.7
			c-0.4,0.4-1,0.7-1.6,0.7c-0.7,0-1.2-0.2-1.6-0.7c-0.4-0.4-0.6-1-0.6-1.7V90.4c0-0.7,0.2-1.2,0.6-1.7c0.4-0.4,1-0.7,1.6-0.7
			c0.7,0,1.2,0.2,1.6,0.7s0.6,1,0.6,1.7v15.7C157.3,106.7,157.1,107.3,156.6,107.7z"/>
		<path class="st5" d="M176,88.7c1.3,0.7,2,1.6,2,2.7c0,0.6-0.2,1-0.5,1.5c-0.3,0.4-0.8,0.6-1.3,0.6c-0.4,0-0.7-0.1-1-0.2
			c-0.3-0.1-0.5-0.3-0.7-0.5c-0.2-0.2-0.5-0.3-0.7-0.5c-0.3-0.1-0.6-0.2-1.1-0.3c-0.5-0.1-0.9-0.2-1.2-0.2c-1.9,0-3.4,0.6-4.5,1.8
			c-1.1,1.2-1.6,2.7-1.6,4.6c0,1.8,0.5,3.3,1.6,4.5c1.1,1.2,2.5,1.8,4.2,1.8c1.2,0,2.2-0.2,2.8-0.5c0.2-0.1,0.4-0.2,0.6-0.4
			c0.3-0.2,0.5-0.3,0.7-0.4c0.2-0.1,0.5-0.2,0.8-0.2c0.6,0,1.1,0.2,1.5,0.6c0.4,0.4,0.6,0.9,0.6,1.6c0,0.6-0.4,1.2-1.1,1.7
			s-1.6,1-2.8,1.3c-1.2,0.3-2.4,0.5-3.7,0.5c-2,0-3.7-0.5-5.1-1.4s-2.6-2.2-3.4-3.8c-0.8-1.6-1.2-3.4-1.2-5.4c0-2.1,0.4-3.9,1.3-5.5
			c0.8-1.6,2-2.8,3.6-3.7c1.5-0.9,3.2-1.3,5.2-1.3C173,87.7,174.7,88,176,88.7z"/>
		<path class="st5" d="M192.3,104.6c0.3,0.3,0.4,0.8,0.4,1.3c0,0.7-0.4,1.3-1.1,1.7s-1.6,0.7-2.5,0.7c-1.6,0-2.9-0.3-4-1
			c-1.1-0.7-1.6-2.1-1.6-4.3V92.6h-1.7c-0.6,0-1.1-0.2-1.5-0.6s-0.6-0.9-0.6-1.5c0-0.6,0.2-1.1,0.6-1.5c0.4-0.4,0.9-0.6,1.5-0.6h1.7
			V86c0-0.7,0.2-1.2,0.7-1.7c0.4-0.4,1-0.7,1.7-0.7c0.6,0,1.2,0.2,1.6,0.7c0.4,0.4,0.6,1,0.6,1.7v2.4h2.7c0.6,0,1.1,0.2,1.5,0.6
			s0.6,0.9,0.6,1.5c0,0.6-0.2,1.1-0.6,1.5c-0.4,0.4-0.9,0.6-1.5,0.6h-2.7v10.3c0,0.5,0.1,0.9,0.4,1.2c0.3,0.2,0.7,0.4,1.1,0.4
			c0.2,0,0.5-0.1,0.8-0.2c0.3-0.1,0.6-0.2,0.9-0.2C191.7,104.1,192,104.3,192.3,104.6z"/>
		<path class="st5" d="M197.2,85.2c-0.4-0.3-0.5-0.8-0.5-1.5V83c0-0.7,0.2-1.2,0.6-1.5c0.4-0.3,1-0.4,1.8-0.4c0.9,0,1.5,0.1,1.9,0.4
			c0.4,0.3,0.5,0.8,0.5,1.5v0.7c0,0.7-0.2,1.2-0.6,1.5c-0.4,0.3-1,0.4-1.9,0.4C198.2,85.6,197.6,85.5,197.2,85.2z M200.7,107.7
			c-0.4,0.4-1,0.7-1.6,0.7c-0.7,0-1.2-0.2-1.6-0.7s-0.6-1-0.6-1.7V90.4c0-0.7,0.2-1.2,0.6-1.7s1-0.7,1.6-0.7c0.7,0,1.2,0.2,1.6,0.7
			c0.4,0.4,0.6,1,0.6,1.7v15.7C201.4,106.7,201.2,107.3,200.7,107.7z"/>
		<path class="st5" d="M224.2,103.7c-0.9,1.6-2.2,2.9-3.7,3.7s-3.3,1.3-5.2,1.3c-1.9,0-3.7-0.4-5.2-1.3c-1.6-0.9-2.8-2.1-3.7-3.7
			c-0.9-1.6-1.4-3.4-1.4-5.5c0-2,0.5-3.8,1.4-5.5c0.9-1.6,2.2-2.9,3.7-3.8c1.6-0.9,3.3-1.3,5.2-1.3c1.9,0,3.6,0.5,5.2,1.3
			c1.6,0.9,2.8,2.2,3.7,3.8c0.9,1.6,1.4,3.4,1.4,5.5C225.6,100.3,225.1,102.1,224.2,103.7z M220.2,94.9c-0.5-1-1.2-1.7-2.1-2.3
			c-0.9-0.5-1.8-0.8-2.9-0.8c-1.1,0-2,0.3-2.9,0.8c-0.9,0.5-1.6,1.3-2.1,2.3c-0.5,1-0.8,2.1-0.8,3.3c0,1.2,0.3,2.3,0.8,3.3
			c0.5,1,1.2,1.7,2.1,2.2c0.9,0.5,1.8,0.8,2.9,0.8c1.1,0,2-0.3,2.9-0.8c0.9-0.5,1.6-1.3,2.1-2.2c0.5-1,0.8-2.1,0.8-3.3
			C221,97,220.8,95.9,220.2,94.9z"/>
		<path class="st5" d="M245.6,90c1,1.5,1.5,3.7,1.5,6.4v9.7c0,0.7-0.2,1.2-0.6,1.7s-1,0.7-1.6,0.7s-1.2-0.2-1.6-0.7s-0.6-1-0.6-1.7
			v-9.7c0-1.4-0.3-2.5-0.9-3.3c-0.6-0.8-1.6-1.2-3-1.2c-1.5,0-2.6,0.4-3.5,1.3c-0.8,0.8-1.3,1.9-1.3,3.2v9.7c0,0.7-0.2,1.2-0.6,1.7
			s-1,0.7-1.6,0.7c-0.7,0-1.2-0.2-1.6-0.7c-0.4-0.4-0.6-1-0.6-1.7V90.4c0-0.7,0.2-1.2,0.6-1.7c0.4-0.4,1-0.7,1.6-0.7
			c0.7,0,1.2,0.2,1.6,0.7s0.6,1,0.6,1.7V91c0.7-0.9,1.6-1.7,2.7-2.4c1.1-0.7,2.3-1,3.6-1C242.8,87.7,244.6,88.5,245.6,90z"/>
		<path class="st5" d="M250.5,104.1c0-0.7,0.3-1.2,1-1.7c0.4-0.2,0.7-0.3,1.1-0.3c0.5,0,1,0.2,1.5,0.7c0.8,0.8,1.6,1.4,2.4,1.7
			c0.8,0.4,1.8,0.6,3,0.6c2-0.1,3-0.8,3-2.2c0-0.7-0.3-1.3-1-1.7c-0.7-0.4-1.7-0.8-3.1-1.1c-1.5-0.4-2.7-0.8-3.6-1.2
			c-0.9-0.4-1.7-1-2.4-1.8c-0.7-0.8-1-1.9-1-3.3c0-1.2,0.3-2.3,1-3.2c0.7-0.9,1.6-1.6,2.7-2.1c1.1-0.5,2.3-0.7,3.6-0.7
			c1.3,0,2.6,0.2,3.9,0.7c1.3,0.5,2.3,1.2,3,2.1c0.3,0.4,0.5,0.9,0.5,1.4c0,0.6-0.2,1.1-0.7,1.4c-0.4,0.3-0.8,0.4-1.2,0.4
			c-0.6,0-1-0.2-1.4-0.5c-0.5-0.6-1-1-1.8-1.3c-0.7-0.3-1.5-0.5-2.5-0.5c-1.9,0-2.9,0.7-2.9,2.1c0,0.6,0.2,1,0.5,1.3
			c0.4,0.3,0.8,0.6,1.3,0.8s1.3,0.4,2.3,0.7c1.4,0.4,2.5,0.8,3.4,1.2s1.7,1,2.3,1.9c0.6,0.8,1,1.9,1,3.3c0,1.2-0.4,2.3-1.1,3.2
			s-1.7,1.6-2.8,2.1c-1.2,0.5-2.3,0.7-3.6,0.7c-1.7,0-3.2-0.3-4.7-0.8s-2.6-1.5-3.5-2.7C250.6,104.9,250.5,104.6,250.5,104.1z"/>
	</g>
</g>
<rect x="636.8" y="762.8" class="st0" width="52.1" height="5.5"/>
<line class="st1" x1="624.5" y1="24.8" x2="624.5" y2="152.3"/>
<rect x="658.8" y="96" transform="matrix(0.7071 0.7071 -0.7071 0.7071 277.7725 -434.9834)" class="st6" width="10.3" height="43.6"/>
<circle class="st6" cx="699.7" cy="82.1" r="33.7"/>
<g>
	<polyline class="st11" points="675.7,91.5 689.6,77.7 703.8,91.9 721.8,73.9 	"/>
	<path class="st5" d="M720.5,80.5l3.2-8.7l-8.7,3.3C716.8,76.9,718.6,78.7,720.5,80.5z"/>
	<circle class="st5" cx="689.7" cy="77.5" r="3"/>
	<circle class="st5" cx="704.1" cy="91" r="2.8"/>
</g>
</svg>
