<?xml version="1.0" encoding="utf-8"?>
<!-- Generator: Adobe Illustrator 22.1.0, SVG Export Plug-In . SVG Version: 6.00 Build 0)  -->
<svg version="1.1" id="Layer_1" xmlns="http://www.w3.org/2000/svg" xmlns:xlink="http://www.w3.org/1999/xlink" x="0px" y="0px"
	 viewBox="0 0 779.5 808" style="enable-background:new 0 0 779.5 808;" xml:space="preserve">
<style type="text/css">
	.st0{fill:#FFD433;}
	.st1{fill:none;stroke:#26293C;stroke-width:1.2;stroke-miterlimit:10;}
	.st2{fill:none;stroke:#26293C;stroke-width:5;stroke-miterlimit:10;}
	.st3{fill:none;stroke:#F2F2F2;stroke-width:1.2;stroke-miterlimit:10;}
	.st4{fill:#D9DBDA;}
	.st5{fill:#26293C;}
	.st6{fill:#FFD433;stroke:#26293C;stroke-width:2;stroke-miterlimit:10;}
	.st7{fill:none;stroke:#26293C;stroke-width:1.2003;stroke-miterlimit:10;}
	.st8{fill:none;stroke:#FFD433;stroke-width:0.7434;stroke-miterlimit:10;}
	.st9{fill:none;stroke:#F2F2F2;stroke-width:1.3726;stroke-miterlimit:10;}
	.st10{fill:#F2F2F2;}
	.st11{fill:none;stroke:#26293C;stroke-width:2;stroke-miterlimit:10;}
	.st12{fill:#E5E5E5;stroke:#F2F2F2;stroke-width:1.072;stroke-miterlimit:10;}
	.st13{fill:none;stroke:#F2F2F2;stroke-width:1.4033;stroke-miterlimit:10;}
	.st14{fill:none;stroke:#FFD433;stroke-width:0.7838;stroke-miterlimit:10;}
	.st15{fill:none;stroke:#FFD433;stroke-miterlimit:10;}
	.st16{fill:none;stroke:#F2F2F2;stroke-width:3;stroke-miterlimit:10;}
	.st17{fill:#FFD433;stroke:#26293C;stroke-width:1.8525;stroke-miterlimit:10;}
	.st18{fill:none;stroke:#F2F2F2;stroke-width:1.3001;stroke-miterlimit:10;}
	.st19{fill:none;stroke:#F2F2F2;stroke-width:2.0632;stroke-miterlimit:10;}
	.st20{fill:#FFFFFF;stroke:#26293C;stroke-width:2;stroke-miterlimit:10;}
	.st21{fill:#EDEDED;}
	.st22{fill:#FFD433;stroke:#26293C;stroke-width:1.8509;stroke-miterlimit:10;}
	.st23{fill:none;stroke:#26293C;stroke-width:0.9518;stroke-miterlimit:10;}
	.st24{fill:none;stroke:#FFD433;stroke-width:0.8168;stroke-miterlimit:10;}
	.st25{fill:none;stroke:#26293C;stroke-width:0.9076;stroke-miterlimit:10;}
	.st26{fill:none;stroke:#D9DBDA;stroke-miterlimit:10;}
	.st27{fill:none;stroke:#F2F2F2;stroke-width:1.3998;stroke-miterlimit:10;}
	.st28{fill:none;stroke:#000000;stroke-width:2;stroke-miterlimit:10;}
</style>
<line class="st7" x1="756.3" y1="149.6" x2="27.3" y2="149.6"/>
<rect x="27.3" y="22.9" transform="matrix(-1 -1.224647e-16 1.224647e-16 -1 783.5345 810.1135)" class="st2" width="729" height="764.4"/>
<line class="st13" x1="57.5" y1="716.8" x2="722.6" y2="716.8"/>
<line class="st13" x1="57.5" y1="666.3" x2="722.6" y2="666.3"/>
<line class="st13" x1="57.5" y1="617.1" x2="722.6" y2="617.1"/>
<line class="st13" x1="60.3" y1="563.9" x2="725.4" y2="563.9"/>
<line class="st13" x1="60.3" y1="513.4" x2="725.4" y2="513.4"/>
<line class="st13" x1="60.3" y1="464.3" x2="725.4" y2="464.3"/>
<rect x="126.2" y="583.7" class="st0" width="37.9" height="133.1"/>
<rect x="179.5" y="530" class="st0" width="37.9" height="186.8"/>
<rect x="232.9" y="583.1" class="st0" width="37.9" height="133.1"/>
<rect x="286.2" y="480.3" class="st0" width="37.9" height="235.9"/>
<rect x="339.5" y="445.2" class="st0" width="37.9" height="271"/>
<rect x="392.1" y="583.4" class="st0" width="37.9" height="133.1"/>
<rect x="445.5" y="529.7" class="st0" width="37.9" height="186.8"/>
<rect x="498.8" y="498.3" class="st0" width="37.9" height="217.7"/>
<rect x="552.1" y="549.1" class="st0" width="37.9" height="166.9"/>
<rect x="605.4" y="491" class="st0" width="37.9" height="225"/>
<g>
	<g>
		<path class="st5" d="M77.2,105.7c-1.4-0.5-2.7-1.2-4-2.3c-0.7-0.6-1-1.3-1-2c0-0.6,0.2-1.1,0.6-1.5s1-0.7,1.6-0.7
			c0.5,0,0.9,0.2,1.3,0.5c1,0.8,2,1.4,3,1.8c1,0.4,2.1,0.6,3.4,0.6c1.4,0,2.6-0.3,3.7-1c1-0.6,1.5-1.4,1.5-2.4c0-1.1-0.5-2-1.5-2.7
			c-1-0.6-2.6-1.1-4.8-1.5c-5.5-0.8-8.3-3.4-8.3-7.8c0-1.6,0.4-3,1.3-4.2c0.8-1.2,2-2.1,3.4-2.7s3.1-0.9,4.8-0.9
			c1.6,0,3.1,0.2,4.5,0.7s2.6,1.1,3.5,1.9c0.7,0.6,1.1,1.3,1.1,2c0,0.6-0.2,1.1-0.6,1.5c-0.4,0.4-0.9,0.7-1.5,0.7
			c-0.4,0-0.7-0.1-1-0.3c-0.7-0.5-1.6-1-2.8-1.5c-1.2-0.4-2.2-0.7-3.2-0.7c-1.6,0-2.8,0.3-3.7,0.9c-0.9,0.6-1.3,1.4-1.3,2.3
			c0,1.1,0.5,1.9,1.3,2.5c0.9,0.6,2.3,1,4.2,1.4c2.2,0.4,3.9,0.9,5.2,1.5c1.3,0.6,2.3,1.4,2.9,2.4c0.7,1,1,2.4,1,4.1
			c0,1.6-0.5,3-1.3,4.2c-0.9,1.2-2.1,2.1-3.6,2.8c-1.5,0.6-3.1,1-4.8,1C80.2,106.4,78.6,106.1,77.2,105.7z"/>
		<path class="st5" d="M113.3,96.8c-0.5,0.4-1,0.6-1.6,0.6H99.2c0.3,1.5,1,2.7,2.1,3.5c1.1,0.8,2.3,1.3,3.7,1.3c1,0,1.8-0.1,2.4-0.3
			c0.6-0.2,1-0.4,1.4-0.6c0.3-0.2,0.6-0.4,0.7-0.4c0.5-0.2,0.9-0.3,1.3-0.3c0.5,0,1,0.2,1.4,0.6s0.6,0.8,0.6,1.3
			c0,0.7-0.4,1.3-1.1,1.9c-0.7,0.6-1.7,1.1-2.9,1.5c-1.2,0.4-2.4,0.6-3.6,0.6c-2.1,0-4-0.4-5.6-1.3s-2.8-2.1-3.7-3.7
			s-1.3-3.3-1.3-5.3c0-2.2,0.5-4.1,1.4-5.7c0.9-1.6,2.1-2.9,3.6-3.8c1.5-0.9,3.1-1.3,4.8-1.3c1.7,0,3.2,0.5,4.7,1.4
			c1.5,0.9,2.7,2.1,3.6,3.7c0.9,1.5,1.3,3.2,1.3,5C114,95.9,113.8,96.4,113.3,96.8z M99.2,93.6h10v-0.3c-0.1-1.1-0.6-2-1.6-2.7
			c-0.9-0.8-2-1.1-3.2-1.1C101.5,89.5,99.8,90.8,99.2,93.6z"/>
		<path class="st5" d="M134.1,87.6c1,1.5,1.5,3.7,1.5,6.4v9.7c0,0.7-0.2,1.2-0.6,1.7c-0.4,0.4-1,0.7-1.6,0.7s-1.2-0.2-1.6-0.7
			s-0.6-1-0.6-1.7v-9.7c0-1.4-0.3-2.5-0.9-3.3c-0.6-0.8-1.6-1.2-3-1.2c-1.5,0-2.6,0.4-3.5,1.3s-1.3,1.9-1.3,3.2v9.7
			c0,0.7-0.2,1.2-0.6,1.7s-1,0.7-1.6,0.7c-0.7,0-1.2-0.2-1.6-0.7c-0.4-0.4-0.6-1-0.6-1.7V88c0-0.7,0.2-1.2,0.6-1.7
			c0.4-0.4,1-0.7,1.6-0.7c0.7,0,1.2,0.2,1.6,0.7s0.6,1,0.6,1.7v0.6c0.7-0.9,1.6-1.7,2.7-2.4c1.1-0.7,2.3-1,3.6-1
			C131.3,85.3,133.1,86,134.1,87.6z"/>
		<path class="st5" d="M151.3,102.2c0.3,0.3,0.4,0.8,0.4,1.3c0,0.7-0.4,1.3-1.1,1.7s-1.6,0.7-2.5,0.7c-1.6,0-2.9-0.3-4-1
			s-1.6-2.1-1.6-4.3V90.2h-1.7c-0.6,0-1.1-0.2-1.5-0.6s-0.6-0.9-0.6-1.5c0-0.6,0.2-1.1,0.6-1.5c0.4-0.4,0.9-0.6,1.5-0.6h1.7v-2.4
			c0-0.7,0.2-1.2,0.7-1.7s1-0.7,1.7-0.7c0.6,0,1.2,0.2,1.6,0.7s0.6,1,0.6,1.7V86h2.7c0.6,0,1.1,0.2,1.5,0.6s0.6,0.9,0.6,1.5
			c0,0.6-0.2,1.1-0.6,1.5c-0.4,0.4-0.9,0.6-1.5,0.6H147v10.3c0,0.5,0.1,0.9,0.4,1.2c0.3,0.2,0.7,0.4,1.1,0.4c0.2,0,0.5-0.1,0.8-0.2
			c0.3-0.1,0.6-0.2,0.9-0.2C150.6,101.7,151,101.9,151.3,102.2z"/>
		<path class="st5" d="M156.2,82.8c-0.4-0.3-0.5-0.8-0.5-1.5v-0.7c0-0.7,0.2-1.2,0.6-1.5c0.4-0.3,1-0.4,1.8-0.4
			c0.9,0,1.5,0.1,1.9,0.4c0.4,0.3,0.5,0.8,0.5,1.5v0.7c0,0.7-0.2,1.2-0.6,1.5c-0.4,0.3-1,0.4-1.9,0.4
			C157.1,83.2,156.5,83,156.2,82.8z M159.7,105.3c-0.4,0.4-1,0.7-1.6,0.7s-1.2-0.2-1.6-0.7s-0.6-1-0.6-1.7V88c0-0.7,0.2-1.2,0.6-1.7
			s1-0.7,1.6-0.7s1.2,0.2,1.6,0.7c0.4,0.4,0.6,1,0.6,1.7v15.7C160.3,104.3,160.1,104.9,159.7,105.3z"/>
		<path class="st5" d="M193.7,87.6c1,1.5,1.4,3.7,1.4,6.4v9.7c0,0.7-0.2,1.2-0.6,1.7c-0.4,0.4-1,0.7-1.6,0.7c-0.7,0-1.2-0.2-1.6-0.7
			s-0.6-1-0.6-1.7v-9.7c0-1.4-0.3-2.5-0.8-3.3s-1.5-1.2-2.9-1.2c-1.4,0-2.5,0.4-3.3,1.3c-0.8,0.8-1.2,1.9-1.2,3.2v9.7
			c0,0.7-0.2,1.2-0.6,1.7s-1,0.7-1.6,0.7c-0.7,0-1.2-0.2-1.6-0.7s-0.6-1-0.6-1.7v-9.7c0-1.4-0.3-2.5-0.8-3.3
			c-0.5-0.8-1.5-1.2-2.9-1.2c-1.4,0-2.5,0.4-3.3,1.3s-1.2,1.9-1.2,3.2v9.7c0,0.7-0.2,1.2-0.6,1.7s-1,0.7-1.6,0.7
			c-0.7,0-1.2-0.2-1.6-0.7c-0.4-0.4-0.6-1-0.6-1.7V88c0-0.7,0.2-1.2,0.6-1.7c0.4-0.4,1-0.7,1.6-0.7c0.7,0,1.2,0.2,1.6,0.7
			s0.6,1,0.6,1.7v0.6c0.7-0.9,1.6-1.7,2.6-2.3c1.1-0.6,2.2-1,3.5-1c3.2,0,5.2,1.4,6.1,4.2c0.6-1.1,1.5-2,2.6-2.9
			c1.2-0.9,2.5-1.3,4-1.3C191,85.3,192.7,86,193.7,87.6z"/>
		<path class="st5" d="M217.6,96.8c-0.5,0.4-1,0.6-1.6,0.6h-12.5c0.3,1.5,1,2.7,2.1,3.5c1.1,0.8,2.3,1.3,3.7,1.3
			c1,0,1.8-0.1,2.4-0.3c0.6-0.2,1-0.4,1.4-0.6c0.3-0.2,0.6-0.4,0.7-0.4c0.5-0.2,0.9-0.3,1.3-0.3c0.5,0,1,0.2,1.4,0.6
			s0.6,0.8,0.6,1.3c0,0.7-0.4,1.3-1.1,1.9c-0.7,0.6-1.7,1.1-2.9,1.5c-1.2,0.4-2.4,0.6-3.6,0.6c-2.1,0-4-0.4-5.6-1.3
			s-2.8-2.1-3.7-3.7s-1.3-3.3-1.3-5.3c0-2.2,0.5-4.1,1.4-5.7c0.9-1.6,2.1-2.9,3.6-3.8c1.5-0.9,3.1-1.3,4.8-1.3
			c1.7,0,3.2,0.5,4.7,1.4c1.5,0.9,2.7,2.1,3.6,3.7c0.9,1.5,1.3,3.2,1.3,5C218.3,95.9,218,96.4,217.6,96.8z M203.5,93.6h10v-0.3
			c-0.1-1.1-0.6-2-1.6-2.7c-0.9-0.8-2-1.1-3.2-1.1C205.7,89.5,204,90.8,203.5,93.6z"/>
		<path class="st5" d="M238.3,87.6c1,1.5,1.5,3.7,1.5,6.4v9.7c0,0.7-0.2,1.2-0.6,1.7c-0.4,0.4-1,0.7-1.6,0.7s-1.2-0.2-1.6-0.7
			s-0.6-1-0.6-1.7v-9.7c0-1.4-0.3-2.5-0.9-3.3c-0.6-0.8-1.6-1.2-3-1.2c-1.5,0-2.6,0.4-3.5,1.3s-1.3,1.9-1.3,3.2v9.7
			c0,0.7-0.2,1.2-0.6,1.7s-1,0.7-1.6,0.7c-0.7,0-1.2-0.2-1.6-0.7c-0.4-0.4-0.6-1-0.6-1.7V88c0-0.7,0.2-1.2,0.6-1.7
			c0.4-0.4,1-0.7,1.6-0.7c0.7,0,1.2,0.2,1.6,0.7s0.6,1,0.6,1.7v0.6c0.7-0.9,1.6-1.7,2.7-2.4c1.1-0.7,2.3-1,3.6-1
			C235.5,85.3,237.3,86,238.3,87.6z"/>
		<path class="st5" d="M255.5,102.2c0.3,0.3,0.4,0.8,0.4,1.3c0,0.7-0.4,1.3-1.1,1.7c-0.7,0.5-1.6,0.7-2.5,0.7c-1.6,0-2.9-0.3-4-1
			c-1.1-0.7-1.6-2.1-1.6-4.3V90.2H245c-0.6,0-1.1-0.2-1.5-0.6c-0.4-0.4-0.6-0.9-0.6-1.5c0-0.6,0.2-1.1,0.6-1.5
			c0.4-0.4,0.9-0.6,1.5-0.6h1.7v-2.4c0-0.7,0.2-1.2,0.7-1.7c0.4-0.4,1-0.7,1.7-0.7c0.6,0,1.2,0.2,1.6,0.7c0.4,0.4,0.6,1,0.6,1.7V86
			h2.7c0.6,0,1.1,0.2,1.5,0.6c0.4,0.4,0.6,0.9,0.6,1.5c0,0.6-0.2,1.1-0.6,1.5c-0.4,0.4-0.9,0.6-1.5,0.6h-2.7v10.3
			c0,0.5,0.1,0.9,0.4,1.2c0.3,0.2,0.7,0.4,1.1,0.4c0.2,0,0.5-0.1,0.8-0.2c0.3-0.1,0.6-0.2,0.9-0.2
			C254.9,101.7,255.2,101.9,255.5,102.2z"/>
		<path class="st5" d="M289,85.9c0.4,0.4,0.6,1,0.6,1.7v16.1c0,0.7-0.2,1.2-0.6,1.7c-0.4,0.4-1,0.7-1.6,0.7c-0.7,0-1.2-0.2-1.6-0.6
			c-0.4-0.4-0.6-1-0.7-1.6c-0.6,0.7-1.5,1.4-2.6,1.9c-1.1,0.5-2.2,0.8-3.4,0.8c-1.7,0-3.3-0.4-4.8-1.3c-1.4-0.9-2.5-2.1-3.4-3.7
			c-0.8-1.6-1.2-3.4-1.2-5.4c0-2,0.4-3.8,1.2-5.5c0.8-1.6,1.9-2.9,3.3-3.8c1.4-0.9,3-1.3,4.7-1.3c1.2,0,2.4,0.2,3.4,0.7
			c1.1,0.4,2,1,2.7,1.7v0c0-0.7,0.2-1.2,0.6-1.7s1-0.7,1.6-0.7C288,85.3,288.6,85.5,289,85.9z M283.7,100.4c1-1.2,1.6-2.7,1.6-4.5
			s-0.5-3.3-1.6-4.6c-1-1.2-2.4-1.8-4-1.8c-1.6,0-3,0.6-4,1.8s-1.6,2.7-1.6,4.6s0.5,3.3,1.5,4.5c1,1.2,2.4,1.8,4,1.8
			S282.7,101.6,283.7,100.4z"/>
		<path class="st5" d="M310.8,87.6c1,1.5,1.5,3.7,1.5,6.4v9.7c0,0.7-0.2,1.2-0.6,1.7c-0.4,0.4-1,0.7-1.6,0.7s-1.2-0.2-1.6-0.7
			s-0.6-1-0.6-1.7v-9.7c0-1.4-0.3-2.5-0.9-3.3c-0.6-0.8-1.6-1.2-3-1.2c-1.5,0-2.6,0.4-3.5,1.3s-1.3,1.9-1.3,3.2v9.7
			c0,0.7-0.2,1.2-0.6,1.7s-1,0.7-1.6,0.7c-0.7,0-1.2-0.2-1.6-0.7c-0.4-0.4-0.6-1-0.6-1.7V88c0-0.7,0.2-1.2,0.6-1.7
			c0.4-0.4,1-0.7,1.6-0.7c0.7,0,1.2,0.2,1.6,0.7s0.6,1,0.6,1.7v0.6c0.7-0.9,1.6-1.7,2.7-2.4c1.1-0.7,2.3-1,3.6-1
			C308,85.3,309.8,86,310.8,87.6z"/>
		<path class="st5" d="M335.3,85.9c0.4,0.4,0.6,1,0.6,1.7v16.1c0,0.7-0.2,1.2-0.6,1.7c-0.4,0.4-1,0.7-1.6,0.7
			c-0.7,0-1.2-0.2-1.6-0.6c-0.4-0.4-0.6-1-0.7-1.6c-0.6,0.7-1.5,1.4-2.6,1.9c-1.1,0.5-2.2,0.8-3.4,0.8c-1.7,0-3.3-0.4-4.8-1.3
			c-1.4-0.9-2.5-2.1-3.4-3.7c-0.8-1.6-1.2-3.4-1.2-5.4c0-2,0.4-3.8,1.2-5.5c0.8-1.6,1.9-2.9,3.3-3.8c1.4-0.9,3-1.3,4.7-1.3
			c1.2,0,2.4,0.2,3.4,0.7c1.1,0.4,2,1,2.7,1.7v0c0-0.7,0.2-1.2,0.6-1.7s1-0.7,1.6-0.7C334.3,85.3,334.9,85.5,335.3,85.9z M330,100.4
			c1-1.2,1.6-2.7,1.6-4.5s-0.5-3.3-1.6-4.6c-1-1.2-2.4-1.8-4-1.8c-1.6,0-3,0.6-4,1.8s-1.6,2.7-1.6,4.6s0.5,3.3,1.5,4.5
			c1,1.2,2.4,1.8,4,1.8S329,101.6,330,100.4z"/>
		<path class="st5" d="M345.2,105.3c-0.4,0.4-1,0.7-1.7,0.7c-0.6,0-1.2-0.2-1.6-0.7c-0.4-0.4-0.6-1-0.6-1.7V80.2
			c0-0.7,0.2-1.2,0.7-1.7s1-0.7,1.7-0.7c0.6,0,1.2,0.2,1.6,0.7s0.6,1,0.6,1.7v23.5C345.8,104.3,345.6,104.9,345.2,105.3z"/>
		<path class="st5" d="M367.3,86.3c0.4,0.4,0.6,1,0.6,1.7v16.2c0,3.3-0.9,5.7-2.7,7.2c-1.8,1.5-4.1,2.3-7.1,2.3
			c-0.9,0-1.7-0.1-2.6-0.2c-0.9-0.1-1.6-0.3-2.2-0.6c-1.2-0.5-1.9-1.3-1.9-2.2c0-0.2,0-0.4,0.1-0.6c0.2-0.6,0.4-1,0.8-1.3
			c0.4-0.3,0.8-0.4,1.2-0.4c0.3,0,0.5,0,0.7,0.1c0.2,0.1,0.5,0.2,0.9,0.4c0.4,0.2,0.9,0.3,1.4,0.4c0.5,0.1,1,0.2,1.5,0.2
			c1.8,0,3.1-0.4,4-1.2c0.8-0.8,1.3-2.1,1.3-4v-0.4c-1.3,1.6-3.4,2.5-6.2,2.5c-1.3,0-2.5-0.3-3.5-0.9c-1-0.6-1.8-1.5-2.4-2.6
			c-0.6-1.1-0.8-2.4-0.8-3.8V88c0-0.7,0.2-1.2,0.6-1.7c0.4-0.4,1-0.7,1.6-0.7c0.7,0,1.2,0.2,1.6,0.7s0.6,1,0.6,1.7v9.7
			c0,1.6,0.3,2.7,1,3.4c0.7,0.7,1.7,1,3.1,1c1.3,0,2.3-0.4,3.1-1.2c0.7-0.8,1.1-1.9,1.1-3.3V88c0-0.7,0.2-1.2,0.6-1.7
			c0.4-0.4,1-0.7,1.6-0.7C366.3,85.7,366.9,85.9,367.3,86.3z"/>
		<path class="st5" d="M371,101.7c0-0.7,0.3-1.2,1-1.7c0.4-0.2,0.7-0.3,1.1-0.3c0.5,0,1,0.2,1.5,0.7c0.8,0.8,1.6,1.4,2.4,1.7
			c0.8,0.4,1.8,0.6,3,0.6c2-0.1,3-0.8,3-2.2c0-0.7-0.3-1.3-1-1.7c-0.7-0.4-1.7-0.8-3.1-1.1c-1.5-0.4-2.7-0.8-3.6-1.2
			c-0.9-0.4-1.7-1-2.4-1.8s-1-1.9-1-3.3c0-1.2,0.3-2.3,1-3.2c0.7-0.9,1.6-1.6,2.7-2.1c1.1-0.5,2.3-0.7,3.6-0.7
			c1.3,0,2.6,0.2,3.9,0.7c1.3,0.5,2.3,1.2,3,2.1c0.3,0.4,0.5,0.9,0.5,1.4c0,0.6-0.2,1.1-0.7,1.4c-0.4,0.3-0.8,0.4-1.2,0.4
			c-0.6,0-1-0.2-1.4-0.5c-0.5-0.6-1-1-1.8-1.3c-0.7-0.3-1.5-0.5-2.5-0.5c-1.9,0-2.9,0.7-2.9,2.1c0,0.6,0.2,1,0.5,1.3
			c0.4,0.3,0.8,0.6,1.3,0.8c0.5,0.2,1.3,0.4,2.3,0.7c1.4,0.4,2.5,0.8,3.4,1.2c0.9,0.4,1.7,1,2.3,1.9c0.6,0.8,1,1.9,1,3.3
			c0,1.2-0.4,2.3-1.1,3.2c-0.7,0.9-1.7,1.6-2.8,2.1c-1.2,0.5-2.3,0.7-3.6,0.7c-1.7,0-3.2-0.3-4.7-0.8s-2.6-1.5-3.5-2.7
			C371.1,102.5,371,102.1,371,101.7z"/>
		<path class="st5" d="M391,82.8c-0.4-0.3-0.5-0.8-0.5-1.5v-0.7c0-0.7,0.2-1.2,0.6-1.5c0.4-0.3,1-0.4,1.8-0.4c0.9,0,1.5,0.1,1.9,0.4
			c0.4,0.3,0.5,0.8,0.5,1.5v0.7c0,0.7-0.2,1.2-0.6,1.5s-1,0.4-1.9,0.4C391.9,83.2,391.3,83,391,82.8z M394.5,105.3
			c-0.4,0.4-1,0.7-1.6,0.7c-0.7,0-1.2-0.2-1.6-0.7c-0.4-0.4-0.6-1-0.6-1.7V88c0-0.7,0.2-1.2,0.6-1.7c0.4-0.4,1-0.7,1.6-0.7
			c0.7,0,1.2,0.2,1.6,0.7s0.6,1,0.6,1.7v15.7C395.1,104.3,394.9,104.9,394.5,105.3z"/>
		<path class="st5" d="M398.3,101.7c0-0.7,0.3-1.2,1-1.7c0.4-0.2,0.7-0.3,1.1-0.3c0.5,0,1,0.2,1.5,0.7c0.8,0.8,1.6,1.4,2.4,1.7
			c0.8,0.4,1.8,0.6,3,0.6c2-0.1,3-0.8,3-2.2c0-0.7-0.3-1.3-1-1.7c-0.7-0.4-1.7-0.8-3.1-1.1c-1.5-0.4-2.7-0.8-3.6-1.2
			c-0.9-0.4-1.7-1-2.4-1.8s-1-1.9-1-3.3c0-1.2,0.3-2.3,1-3.2c0.7-0.9,1.6-1.6,2.7-2.1c1.1-0.5,2.3-0.7,3.6-0.7
			c1.3,0,2.6,0.2,3.9,0.7c1.3,0.5,2.3,1.2,3,2.1c0.3,0.4,0.5,0.9,0.5,1.4c0,0.6-0.2,1.1-0.7,1.4c-0.4,0.3-0.8,0.4-1.2,0.4
			c-0.6,0-1-0.2-1.4-0.5c-0.5-0.6-1-1-1.8-1.3c-0.7-0.3-1.5-0.5-2.5-0.5c-1.9,0-2.9,0.7-2.9,2.1c0,0.6,0.2,1,0.5,1.3
			c0.4,0.3,0.8,0.6,1.3,0.8c0.5,0.2,1.3,0.4,2.3,0.7c1.4,0.4,2.5,0.8,3.4,1.2c0.9,0.4,1.7,1,2.3,1.9c0.6,0.8,1,1.9,1,3.3
			c0,1.2-0.4,2.3-1.1,3.2c-0.7,0.9-1.7,1.6-2.8,2.1c-1.2,0.5-2.3,0.7-3.6,0.7c-1.7,0-3.2-0.3-4.7-0.8s-2.6-1.5-3.5-2.7
			C398.4,102.5,398.3,102.1,398.3,101.7z"/>
	</g>
</g>
<g>
	<g>
		<path class="st5" d="M652.8,746c0.2,0.2,0.3,0.5,0.3,0.8v13.9c0,0.3-0.1,0.6-0.3,0.8c-0.2,0.2-0.5,0.3-0.8,0.3
			c-0.3,0-0.6-0.1-0.8-0.3c-0.2-0.2-0.3-0.5-0.3-0.8V750l-4.5,6.8c-0.1,0.1-0.2,0.3-0.4,0.3c-0.2,0.1-0.3,0.1-0.5,0.1
			c-0.2,0-0.3,0-0.5-0.1c-0.2-0.1-0.3-0.2-0.4-0.3l-4.5-7v10.9c0,0.3-0.1,0.6-0.3,0.8c-0.2,0.2-0.4,0.3-0.8,0.3
			c-0.3,0-0.6-0.1-0.7-0.3c-0.2-0.2-0.3-0.5-0.3-0.8v-13.9c0-0.3,0.1-0.5,0.3-0.8c0.2-0.2,0.5-0.3,0.8-0.3c0.2,0,0.4,0,0.5,0.1
			c0.2,0.1,0.3,0.2,0.4,0.4l5.5,8.3l5.5-8.3c0.2-0.3,0.6-0.5,0.9-0.5C652.3,745.7,652.6,745.8,652.8,746z"/>
		<path class="st5" d="M670.5,757.9c-0.7,1.3-1.6,2.3-2.8,3c-1.2,0.7-2.5,1.1-4,1.1c-1.5,0-2.8-0.4-4-1.1c-1.2-0.7-2.1-1.7-2.8-3
			c-0.7-1.3-1-2.7-1-4.2s0.3-3,1-4.2c0.7-1.3,1.6-2.3,2.8-3c1.2-0.7,2.5-1.1,4-1.1c1.5,0,2.8,0.4,4,1.1c1.2,0.7,2.1,1.7,2.8,3
			s1,2.7,1,4.2S671.2,756.7,670.5,757.9z M668.5,750.6c-0.5-0.9-1.1-1.7-1.9-2.2s-1.8-0.8-2.8-0.8c-1,0-2,0.3-2.8,0.8
			c-0.8,0.5-1.5,1.2-1.9,2.2s-0.7,2-0.7,3.1c0,1.1,0.2,2.2,0.7,3.1s1.1,1.7,1.9,2.2c0.8,0.5,1.8,0.8,2.8,0.8c1,0,2-0.3,2.8-0.8
			c0.8-0.5,1.5-1.3,1.9-2.2s0.7-2,0.7-3.1C669.2,752.6,668.9,751.5,668.5,750.6z"/>
		<path class="st5" d="M687.2,746c0.2,0.2,0.3,0.4,0.3,0.7v14c0,0.3-0.1,0.6-0.3,0.8c-0.2,0.2-0.5,0.3-0.8,0.3c-0.2,0-0.3,0-0.5-0.1
			s-0.3-0.1-0.4-0.2l-9-11.8v11.1c0,0.3-0.1,0.5-0.3,0.7c-0.2,0.2-0.4,0.3-0.7,0.3s-0.5-0.1-0.7-0.3c-0.2-0.2-0.3-0.4-0.3-0.7v-14
			c0-0.3,0.1-0.6,0.3-0.8c0.2-0.2,0.5-0.3,0.8-0.3c0.2,0,0.4,0,0.5,0.1c0.2,0.1,0.3,0.2,0.4,0.3l9,11.8v-11.2c0-0.3,0.1-0.5,0.3-0.7
			c0.2-0.2,0.4-0.3,0.7-0.3S687,745.8,687.2,746z"/>
		<path class="st5" d="M702.5,746c0.2,0.2,0.3,0.4,0.3,0.8s-0.1,0.6-0.3,0.8c-0.2,0.2-0.5,0.3-0.8,0.3h-4.1v12.9
			c0,0.3-0.1,0.6-0.3,0.8c-0.2,0.2-0.5,0.3-0.8,0.3c-0.3,0-0.6-0.1-0.8-0.3c-0.2-0.2-0.3-0.5-0.3-0.8v-12.9h-4.1
			c-0.3,0-0.6-0.1-0.8-0.3c-0.2-0.2-0.3-0.4-0.3-0.8c0-0.3,0.1-0.6,0.3-0.7c0.2-0.2,0.5-0.3,0.8-0.3h10.5
			C702,745.7,702.3,745.8,702.5,746z"/>
		<path class="st5" d="M717.9,746c0.2,0.2,0.3,0.5,0.3,0.8v13.9c0,0.3-0.1,0.6-0.3,0.8c-0.2,0.2-0.5,0.3-0.8,0.3
			c-0.3,0-0.6-0.1-0.8-0.3c-0.2-0.2-0.3-0.5-0.3-0.8v-6h-8.2v6c0,0.3-0.1,0.6-0.3,0.8c-0.2,0.2-0.5,0.3-0.8,0.3
			c-0.3,0-0.6-0.1-0.8-0.3c-0.2-0.2-0.3-0.5-0.3-0.8v-13.9c0-0.3,0.1-0.6,0.3-0.8c0.2-0.2,0.5-0.3,0.8-0.3c0.3,0,0.6,0.1,0.8,0.3
			c0.2,0.2,0.3,0.5,0.3,0.8v5.8h8.2v-5.8c0-0.3,0.1-0.6,0.3-0.8c0.2-0.2,0.5-0.3,0.8-0.3C717.4,745.7,717.7,745.8,717.9,746z"/>
	</g>
</g>
<rect x="126.2" y="678.2" class="st5" width="37.9" height="37.9"/>
<rect x="179.5" y="646.4" class="st5" width="37.9" height="70.2"/>
<rect x="232.9" y="629.5" class="st5" width="37.9" height="86.8"/>
<rect x="286.2" y="641.3" class="st5" width="37.9" height="74.7"/>
<rect x="339.5" y="678.1" class="st5" width="37.9" height="37.9"/>
<rect x="392.1" y="641.3" class="st5" width="37.9" height="74.9"/>
<rect x="445.5" y="617.1" class="st5" width="37.9" height="98.8"/>
<rect x="498.8" y="656.5" class="st5" width="37.9" height="59.8"/>
<rect x="552.1" y="673.8" class="st5" width="37.9" height="42.2"/>
<rect x="605.4" y="691" class="st5" width="37.9" height="25.1"/>
<g>
	<g>
		<path class="st5" d="M79.1,228.2c-0.9-0.3-1.7-0.8-2.5-1.5c-0.3-0.3-0.5-0.6-0.5-0.9c0-0.3,0.1-0.5,0.3-0.7
			c0.2-0.2,0.5-0.3,0.8-0.3c0.3,0,0.5,0.1,0.7,0.3c0.6,0.6,1.2,1,1.9,1.3c0.7,0.3,1.4,0.4,2.2,0.4c1,0,1.8-0.2,2.4-0.7
			c0.7-0.4,1-1,1-1.7c0-0.8-0.3-1.4-1-1.9c-0.7-0.4-1.6-0.8-3-1.1c-1.6-0.3-2.8-0.9-3.6-1.6c-0.9-0.7-1.3-1.8-1.3-3.1
			c0-0.9,0.2-1.7,0.7-2.4c0.5-0.7,1.1-1.2,2-1.6c0.8-0.4,1.8-0.6,2.9-0.6c1,0,1.8,0.2,2.7,0.5c0.8,0.3,1.5,0.7,2,1.2
			c0.4,0.3,0.5,0.6,0.5,1c0,0.3-0.1,0.5-0.3,0.7s-0.5,0.3-0.7,0.3c-0.2,0-0.4-0.1-0.5-0.2c-0.4-0.4-1-0.7-1.7-1
			c-0.7-0.3-1.4-0.4-2-0.4c-1,0-1.8,0.2-2.4,0.6c-0.6,0.4-0.9,1-0.9,1.7c0,0.8,0.3,1.3,0.9,1.7c0.6,0.4,1.5,0.7,2.7,1
			c1.2,0.3,2.2,0.6,2.9,0.9s1.3,0.8,1.8,1.5s0.6,1.4,0.6,2.5c0,0.9-0.3,1.7-0.7,2.4c-0.5,0.7-1.2,1.2-2,1.6
			c-0.9,0.4-1.8,0.6-2.8,0.6C81,228.6,80,228.5,79.1,228.2z"/>
		<path class="st5" d="M100.5,226.6c0.2,0.2,0.3,0.5,0.3,0.8c0,0.3-0.1,0.6-0.3,0.7c-0.2,0.2-0.5,0.3-0.8,0.3h-8
			c-0.3,0-0.6-0.1-0.8-0.3c-0.2-0.2-0.3-0.5-0.3-0.8v-13.9c0-0.3,0.1-0.6,0.3-0.8c0.2-0.2,0.5-0.3,0.8-0.3h8c0.3,0,0.6,0.1,0.8,0.3
			s0.3,0.5,0.3,0.8c0,0.3-0.1,0.6-0.3,0.7s-0.5,0.3-0.8,0.3h-6.8v4.7h5.8c0.3,0,0.6,0.1,0.8,0.3s0.3,0.5,0.3,0.8
			c0,0.3-0.1,0.6-0.3,0.8c-0.2,0.2-0.5,0.3-0.8,0.3h-5.8v5.1h6.8C100,226.3,100.3,226.4,100.5,226.6z"/>
		<path class="st5" d="M116.5,212.6c0.2,0.2,0.3,0.4,0.3,0.7v14c0,0.3-0.1,0.6-0.3,0.8s-0.5,0.3-0.8,0.3c-0.2,0-0.3,0-0.5-0.1
			c-0.2-0.1-0.3-0.1-0.4-0.2l-9-11.8v11.1c0,0.3-0.1,0.5-0.3,0.7c-0.2,0.2-0.4,0.3-0.7,0.3s-0.5-0.1-0.7-0.3
			c-0.2-0.2-0.3-0.4-0.3-0.7v-14c0-0.3,0.1-0.6,0.3-0.8c0.2-0.2,0.5-0.3,0.8-0.3c0.2,0,0.4,0,0.5,0.1c0.2,0.1,0.3,0.2,0.4,0.3
			l9,11.8v-11.2c0-0.3,0.1-0.5,0.3-0.7c0.2-0.2,0.4-0.3,0.7-0.3S116.3,212.4,116.5,212.6z"/>
		<path class="st5" d="M131.8,212.6c0.2,0.2,0.3,0.4,0.3,0.8c0,0.3-0.1,0.6-0.3,0.8s-0.5,0.3-0.8,0.3h-4.1v12.9
			c0,0.3-0.1,0.6-0.3,0.8c-0.2,0.2-0.5,0.3-0.8,0.3c-0.3,0-0.6-0.1-0.8-0.3s-0.3-0.5-0.3-0.8v-12.9h-4.1c-0.3,0-0.6-0.1-0.8-0.3
			c-0.2-0.2-0.3-0.4-0.3-0.8c0-0.3,0.1-0.6,0.3-0.7s0.5-0.3,0.8-0.3H131C131.3,212.3,131.6,212.4,131.8,212.6z"/>
		<path class="st5" d="M136.7,228.1c-0.2,0.2-0.5,0.3-0.8,0.3c-0.3,0-0.6-0.1-0.8-0.3c-0.2-0.2-0.3-0.5-0.3-0.8v-13.9
			c0-0.3,0.1-0.6,0.3-0.8s0.5-0.3,0.8-0.3c0.3,0,0.6,0.1,0.8,0.3c0.2,0.2,0.3,0.5,0.3,0.8v13.9C137,227.6,136.9,227.9,136.7,228.1z"
			/>
		<path class="st5" d="M155.6,212.6c0.2,0.2,0.3,0.5,0.3,0.8v13.9c0,0.3-0.1,0.6-0.3,0.8s-0.5,0.3-0.8,0.3s-0.6-0.1-0.8-0.3
			s-0.3-0.5-0.3-0.8v-10.6l-4.5,6.8c-0.1,0.1-0.2,0.3-0.4,0.3s-0.3,0.1-0.5,0.1c-0.2,0-0.3,0-0.5-0.1s-0.3-0.2-0.4-0.3l-4.5-7v10.9
			c0,0.3-0.1,0.6-0.3,0.8c-0.2,0.2-0.4,0.3-0.8,0.3c-0.3,0-0.6-0.1-0.7-0.3c-0.2-0.2-0.3-0.5-0.3-0.8v-13.9c0-0.3,0.1-0.5,0.3-0.8
			c0.2-0.2,0.5-0.3,0.8-0.3c0.2,0,0.4,0,0.5,0.1c0.2,0.1,0.3,0.2,0.4,0.4l5.5,8.3l5.5-8.3c0.2-0.3,0.6-0.5,0.9-0.5
			C155.1,212.3,155.4,212.4,155.6,212.6z"/>
		<path class="st5" d="M169.7,226.6c0.2,0.2,0.3,0.5,0.3,0.8c0,0.3-0.1,0.6-0.3,0.7c-0.2,0.2-0.5,0.3-0.8,0.3h-8
			c-0.3,0-0.6-0.1-0.8-0.3s-0.3-0.5-0.3-0.8v-13.9c0-0.3,0.1-0.6,0.3-0.8s0.5-0.3,0.8-0.3h8c0.3,0,0.6,0.1,0.8,0.3s0.3,0.5,0.3,0.8
			c0,0.3-0.1,0.6-0.3,0.7s-0.5,0.3-0.8,0.3H162v4.7h5.8c0.3,0,0.6,0.1,0.8,0.3s0.3,0.5,0.3,0.8c0,0.3-0.1,0.6-0.3,0.8
			c-0.2,0.2-0.5,0.3-0.8,0.3H162v5.1h6.8C169.2,226.3,169.4,226.4,169.7,226.6z"/>
		<path class="st5" d="M185.6,212.6c0.2,0.2,0.3,0.4,0.3,0.7v14c0,0.3-0.1,0.6-0.3,0.8s-0.5,0.3-0.8,0.3c-0.2,0-0.3,0-0.5-0.1
			c-0.2-0.1-0.3-0.1-0.4-0.2l-9-11.8v11.1c0,0.3-0.1,0.5-0.3,0.7c-0.2,0.2-0.4,0.3-0.7,0.3c-0.3,0-0.5-0.1-0.7-0.3
			c-0.2-0.2-0.3-0.4-0.3-0.7v-14c0-0.3,0.1-0.6,0.3-0.8s0.5-0.3,0.8-0.3c0.2,0,0.4,0,0.5,0.1c0.2,0.1,0.3,0.2,0.4,0.3l9,11.8v-11.2
			c0-0.3,0.1-0.5,0.3-0.7c0.2-0.2,0.4-0.3,0.7-0.3C185.2,212.3,185.4,212.4,185.6,212.6z"/>
		<path class="st5" d="M200.9,212.6c0.2,0.2,0.3,0.4,0.3,0.8c0,0.3-0.1,0.6-0.3,0.8s-0.5,0.3-0.8,0.3H196v12.9
			c0,0.3-0.1,0.6-0.3,0.8c-0.2,0.2-0.5,0.3-0.8,0.3s-0.6-0.1-0.8-0.3c-0.2-0.2-0.3-0.5-0.3-0.8v-12.9h-4.1c-0.3,0-0.6-0.1-0.8-0.3
			c-0.2-0.2-0.3-0.4-0.3-0.8c0-0.3,0.1-0.6,0.3-0.7s0.5-0.3,0.8-0.3h10.5C200.5,212.3,200.7,212.4,200.9,212.6z"/>
	</g>
</g>
<g>
	<path class="st0" d="M94.6,281h-7.8v7.5h-8.5V281h-7.8v-8h7.8v-7.5h8.5v7.5h7.8V281z"/>
</g>
<rect x="70.6" y="316.3" width="24" height="8"/>
<g>
	<g>
		<path class="st5" d="M582.9,228.2c-0.9-0.3-1.7-0.8-2.5-1.5c-0.3-0.3-0.5-0.6-0.5-0.9c0-0.3,0.1-0.5,0.3-0.7
			c0.2-0.2,0.5-0.3,0.8-0.3c0.3,0,0.5,0.1,0.7,0.3c0.6,0.6,1.2,1,1.9,1.3c0.7,0.3,1.4,0.4,2.2,0.4c1,0,1.8-0.2,2.4-0.7
			c0.7-0.4,1-1,1-1.7c0-0.8-0.3-1.4-1-1.9c-0.7-0.4-1.6-0.8-3-1.1c-1.6-0.3-2.8-0.9-3.6-1.6c-0.9-0.7-1.3-1.8-1.3-3.1
			c0-0.9,0.2-1.7,0.7-2.4c0.5-0.7,1.1-1.2,2-1.6c0.8-0.4,1.8-0.6,2.9-0.6c1,0,1.8,0.2,2.7,0.5c0.8,0.3,1.5,0.7,2,1.2
			c0.4,0.3,0.5,0.6,0.5,1c0,0.3-0.1,0.5-0.3,0.7s-0.5,0.3-0.7,0.3c-0.2,0-0.4-0.1-0.5-0.2c-0.4-0.4-1-0.7-1.7-1
			c-0.7-0.3-1.4-0.4-2-0.4c-1,0-1.8,0.2-2.4,0.6c-0.6,0.4-0.9,1-0.9,1.7c0,0.8,0.3,1.3,0.9,1.7c0.6,0.4,1.5,0.7,2.7,1
			c1.2,0.3,2.2,0.6,2.9,0.9s1.3,0.8,1.8,1.5s0.6,1.4,0.6,2.5c0,0.9-0.3,1.7-0.7,2.4c-0.5,0.7-1.2,1.2-2,1.6
			c-0.9,0.4-1.8,0.6-2.8,0.6C584.7,228.6,583.7,228.5,582.9,228.2z"/>
		<path class="st5" d="M606.4,214.2c0,0.3-0.1,0.5-0.3,0.8c-0.2,0.2-0.4,0.4-0.8,0.4c-0.2,0-0.4-0.1-0.6-0.2c-1-0.5-2-0.8-3.1-0.8
			c-1.2,0-2.2,0.3-3,0.8s-1.6,1.2-2.1,2.1c-0.5,0.9-0.7,2-0.7,3.1c0,1.3,0.3,2.4,0.8,3.3c0.5,0.9,1.2,1.6,2.1,2.1
			c0.9,0.5,1.9,0.7,3,0.7c1.1,0,2.2-0.3,3.1-0.8c0.2-0.1,0.4-0.1,0.6-0.1c0.3,0,0.6,0.1,0.8,0.4c0.2,0.2,0.3,0.5,0.3,0.7
			c0,0.2,0,0.4-0.1,0.5s-0.2,0.3-0.4,0.4c-0.6,0.3-1.3,0.6-2,0.8c-0.7,0.2-1.5,0.3-2.2,0.3c-1.5,0-2.9-0.3-4.1-1s-2.2-1.6-3-2.9
			c-0.7-1.3-1.1-2.7-1.1-4.4c0-1.5,0.4-2.9,1.1-4.2c0.7-1.2,1.7-2.2,2.9-2.9c1.2-0.7,2.6-1.1,4.2-1.1c1.5,0,2.9,0.4,4.2,1.1
			C606.2,213.4,606.4,213.8,606.4,214.2z"/>
		<path class="st5" d="M622.7,224.6c-0.7,1.3-1.6,2.3-2.8,3c-1.2,0.7-2.5,1.1-4,1.1s-2.8-0.4-4-1.1c-1.2-0.7-2.1-1.7-2.8-3
			c-0.7-1.3-1-2.7-1-4.2s0.3-3,1-4.2c0.7-1.3,1.6-2.3,2.8-3c1.2-0.7,2.5-1.1,4-1.1s2.8,0.4,4,1.1c1.2,0.7,2.1,1.7,2.8,3
			c0.7,1.3,1,2.7,1,4.2S623.3,223.3,622.7,224.6z M620.6,217.2c-0.5-0.9-1.1-1.7-1.9-2.2c-0.8-0.5-1.8-0.8-2.8-0.8s-2,0.3-2.8,0.8
			s-1.5,1.2-1.9,2.2s-0.7,2-0.7,3.1c0,1.1,0.2,2.2,0.7,3.1s1.1,1.7,1.9,2.2c0.8,0.5,1.8,0.8,2.8,0.8s2-0.3,2.8-0.8
			c0.8-0.5,1.5-1.3,1.9-2.2s0.7-2,0.7-3.1C621.3,219.2,621.1,218.2,620.6,217.2z"/>
		<path class="st5" d="M639.2,227c0.1,0.2,0.1,0.3,0.1,0.5c0,0.3-0.1,0.6-0.3,0.7c-0.2,0.2-0.5,0.2-0.7,0.2s-0.5-0.1-0.7-0.2
			c-0.5-0.3-0.8-0.7-1.1-1.3s-0.4-1.4-0.4-2.6c0-0.8-0.2-1.3-0.7-1.7s-1.1-0.6-1.8-0.6h-4.6v5.2c0,0.3-0.1,0.6-0.3,0.8
			c-0.2,0.2-0.4,0.3-0.7,0.3c-0.4,0-0.7-0.1-0.9-0.3s-0.4-0.5-0.4-0.8v-13.9c0-0.3,0.1-0.6,0.3-0.8c0.2-0.2,0.5-0.3,0.8-0.3h6.5
			c0.8,0,1.6,0.2,2.3,0.6c0.7,0.4,1.2,1,1.7,1.7s0.6,1.5,0.6,2.4c0,0.9-0.2,1.7-0.7,2.4c-0.5,0.7-1,1.3-1.8,1.7
			c0.6,0.3,1,0.7,1.3,1.2c0.3,0.5,0.5,1.1,0.5,1.8c0.1,0.9,0.1,1.5,0.2,1.8s0.2,0.5,0.5,0.7C639,226.7,639.1,226.8,639.2,227z
			 M635.2,219.8c0.3-0.3,0.6-0.6,0.8-1.1s0.3-1,0.3-1.6c0-0.7-0.2-1.4-0.7-1.9s-1-0.8-1.6-0.8h-5.2v5.8h5.2
			C634.5,220.2,634.8,220,635.2,219.8z"/>
		<path class="st5" d="M652.1,226.6c0.2,0.2,0.3,0.5,0.3,0.8c0,0.3-0.1,0.6-0.3,0.7c-0.2,0.2-0.5,0.3-0.8,0.3h-8
			c-0.3,0-0.6-0.1-0.8-0.3s-0.3-0.5-0.3-0.8v-13.9c0-0.3,0.1-0.6,0.3-0.8s0.5-0.3,0.8-0.3h8c0.3,0,0.6,0.1,0.8,0.3s0.3,0.5,0.3,0.8
			c0,0.3-0.1,0.6-0.3,0.7s-0.5,0.3-0.8,0.3h-6.8v4.7h5.8c0.3,0,0.6,0.1,0.8,0.3s0.3,0.5,0.3,0.8c0,0.3-0.1,0.6-0.3,0.8
			c-0.2,0.2-0.5,0.3-0.8,0.3h-5.8v5.1h6.8C651.6,226.3,651.9,226.4,652.1,226.6z"/>
		<path class="st5" d="M677.6,212.6c0.2,0.2,0.3,0.5,0.3,0.8c0,0.2,0,0.3-0.1,0.5l-6.2,13.9c-0.1,0.2-0.2,0.4-0.4,0.5
			c-0.2,0.1-0.4,0.2-0.6,0.2c-0.3,0-0.6-0.1-0.8-0.3c-0.2-0.2-0.3-0.4-0.3-0.7c0-0.2,0-0.3,0.1-0.5l5.6-12.6h-6.6
			c-0.3,0-0.5-0.1-0.7-0.3s-0.3-0.4-0.3-0.7c0-0.3,0.1-0.5,0.3-0.7s0.4-0.3,0.7-0.3h8.2C677.1,212.3,677.3,212.4,677.6,212.6z"/>
		<path class="st5" d="M690.3,226.7c0.2,0.2,0.3,0.4,0.3,0.7s-0.1,0.5-0.3,0.7c-0.2,0.2-0.4,0.3-0.7,0.3h-8.2
			c-0.3,0-0.6-0.1-0.8-0.3c-0.2-0.2-0.3-0.4-0.3-0.8c0-0.3,0.1-0.5,0.3-0.8l5.1-5.6c1.4-1.5,2.1-2.9,2.1-4c0-0.8-0.3-1.5-0.8-2.1
			c-0.5-0.5-1.2-0.8-2.1-0.8c-0.6,0-1.1,0.2-1.6,0.5s-0.9,0.8-1.3,1.4c-0.2,0.3-0.5,0.5-0.9,0.5c-0.3,0-0.5-0.1-0.7-0.3
			c-0.2-0.2-0.3-0.4-0.3-0.7c0-0.2,0.1-0.3,0.2-0.5c0.1-0.2,0.3-0.4,0.5-0.6c0.5-0.7,1.1-1.2,1.9-1.6c0.8-0.4,1.6-0.6,2.4-0.6
			c1,0,1.9,0.2,2.7,0.6s1.3,1,1.7,1.7s0.6,1.5,0.6,2.5c0,1.8-1,3.7-2.9,5.7l-3.5,3.8h5.7C689.8,226.4,690.1,226.5,690.3,226.7z"/>
		<path class="st5" d="M695.4,229.6c-0.2,0.5-0.6,0.9-0.9,1.3c-0.4,0.4-0.8,0.5-1.2,0.5c-0.3,0-0.5-0.1-0.6-0.2
			c-0.2-0.1-0.3-0.3-0.3-0.6c0-0.2,0.1-0.4,0.2-0.4s0.2-0.1,0.4-0.2s0.3-0.1,0.3-0.1c0.2-0.1,0.4-0.2,0.5-0.4
			c0.1-0.2,0.2-0.4,0.2-0.6c0-0.2-0.1-0.3-0.2-0.4c-0.1-0.1-0.3-0.2-0.5-0.2c-0.2,0-0.5,0.1-0.6,0.2c-0.2-0.1-0.3-0.2-0.3-0.3
			c-0.1-0.1-0.1-0.3-0.1-0.5c0-0.4,0.2-0.7,0.6-1c0.4-0.3,0.8-0.4,1.2-0.4c0.6,0,1,0.2,1.3,0.5c0.3,0.4,0.5,0.8,0.5,1.5
			C695.8,228.7,695.6,229.1,695.4,229.6z"/>
		<path class="st5" d="M705.8,218.3c0.8,0.5,1.4,1.1,1.9,1.9c0.5,0.8,0.7,1.7,0.7,2.7c0,1.1-0.3,2-0.8,2.9c-0.5,0.9-1.3,1.5-2.2,2
			c-0.9,0.5-2,0.7-3.1,0.7c-0.6,0-1.3-0.1-1.9-0.3c-0.6-0.2-1.2-0.5-1.6-0.8c-0.2-0.1-0.3-0.3-0.4-0.5c-0.1-0.2-0.1-0.4-0.1-0.6
			c0-0.2,0.1-0.4,0.3-0.6c0.2-0.2,0.4-0.3,0.7-0.3c0.2,0,0.5,0.1,0.8,0.3c0.7,0.5,1.4,0.8,2.1,0.8c0.7,0,1.4-0.2,2-0.5
			c0.6-0.3,1.1-0.8,1.4-1.3s0.5-1.2,0.5-1.8c0-1-0.3-1.8-1-2.4c-0.6-0.6-1.5-0.9-2.4-0.9c-0.4,0-0.8,0.1-1.1,0.2s-0.7,0.3-1.1,0.5
			c-0.2,0.1-0.4,0.2-0.5,0.2c-0.2,0.1-0.3,0.1-0.4,0.1c-0.4,0-0.8-0.1-1-0.4c-0.2-0.3-0.3-0.6-0.3-0.9l0-0.2l0.8-6
			c0-0.2,0.2-0.5,0.4-0.6c0.2-0.2,0.5-0.3,0.7-0.3h6.8c0.3,0,0.5,0.1,0.7,0.3c0.2,0.2,0.3,0.4,0.3,0.7c0,0.3-0.1,0.5-0.3,0.7
			c-0.2,0.2-0.4,0.3-0.7,0.3h-6l-0.6,3.9c0.3-0.2,0.7-0.3,1.2-0.5c0.5-0.1,1-0.2,1.4-0.2C704,217.6,704.9,217.9,705.8,218.3z"/>
	</g>
</g>
<line class="st7" x1="631.4" y1="22.9" x2="631.4" y2="149.6"/>
<g>
	<path class="st6" d="M733.7,56.5h-85.8v62.9c28.6,0,57.2,0,85.8,0V56.5z"/>
</g>
<g>
	<g>
		
			<rect x="667.3" y="82.5" transform="matrix(-1 -2.101236e-03 2.101236e-03 -1 1344.2396 189.2355)" class="st11" width="9.8" height="22.9"/>
		<path class="st11" d="M677.1,82.5c1.6-0.5,6.8-2.3,10.4-7.7c3.4-4.9,3.4-9.9,3.4-11.6c0,0,4.5,0.1,4.9,5.2c0.4,5.1-2,11.5-2,11.5
			l18-0.3c1.3,0.4,2.3,1.3,2.5,2.3c0.3,1.5-1,3.2-2.2,3.4c-0.8,0.1-5.6,0.1-5.6,0.1c0.7,0,1.7,0,2.8,0.1c2,0.3,3.7,0.6,4.5,1.9
			c0.5,0.9,0.6,2.1,0.1,3.1c-0.1,0.1-0.4,0.8-1.4,1.3c-1.5,0.8-6,0.7-6,0.7c0.5,0,1.2,0,1.9,0.1c2,0.1,2.5,0.1,3.2,0.4
			c0.5,0.2,1,0.4,1.4,1c0.8,1.1,0.5,2.8-0.3,3.8c-0.6,0.7-1.3,0.8-2.5,1.1c-2,0.5-4.2,0.4-4.2,0.4s5.1-0.5,5.8,2
			c0.4,1.4,0.5,2.5-0.1,3.4c-0.7,1-1.9,1.2-2.4,1.3c-10.4,2-18.9,1-18.9,1c-4.9-0.5-9.3-1.1-13.1-1.6
			C677.1,97.7,677.1,90.1,677.1,82.5z"/>
	</g>
	<circle class="st5" cx="672.1" cy="99.7" r="1.5"/>
</g>
</svg>
